<?xml version="1.0" standalone="no"?>
<!DOCTYPE svg PUBLIC "-//W3C//DTD SVG 20010904//EN"
 "http://www.w3.org/TR/2001/REC-SVG-20010904/DTD/svg10.dtd">
<svg version="1.0" xmlns="http://www.w3.org/2000/svg"
 width="700.000000pt" height="700.000000pt" viewBox="0 0 700.000000 700.000000"
 preserveAspectRatio="xMidYMid meet">
<metadata>
Created by potrace 1.14, written by Peter Selinger 2001-2017
</metadata>
<g transform="translate(0.000000,700.000000) scale(0.100000,-0.100000)"
fill="#000000" stroke="none">
<path d="M3279 6786 c-2 -2 -40 -7 -84 -10 -118 -10 -190 -20 -357 -50 -126
-23 -341 -86 -508 -148 -475 -176 -918 -478 -1270 -864 -372 -407 -634 -904
-763 -1444 -29 -120 -51 -239 -62 -331 -3 -24 -8 -66 -11 -92 -3 -27 -7 -70
-9 -95 -6 -65 -6 -429 -1 -472 3 -19 8 -71 11 -115 4 -44 11 -101 15 -127 5
-26 12 -69 15 -95 12 -89 75 -337 124 -483 163 -485 429 -912 795 -1275 141
-140 170 -166 291 -261 284 -224 613 -402 975 -527 78 -27 207 -65 250 -73 14
-3 33 -7 42 -10 17 -5 25 -7 113 -25 79 -16 84 -17 202 -33 330 -46 640 -40
1018 19 198 31 479 115 705 210 582 246 1118 692 1454 1210 32 50 68 103 79
120 12 16 62 111 112 210 190 374 299 751 342 1176 16 154 8 625 -12 729 -3
13 -7 42 -10 65 -3 22 -13 76 -21 120 -9 44 -18 91 -20 105 -25 133 -107 389
-179 560 -78 185 -234 473 -312 575 -5 6 -37 51 -73 100 -35 50 -76 103 -90
119 -210 245 -372 401 -585 561 -105 79 -278 195 -291 195 -3 0 -18 9 -33 19
-36 26 -288 152 -371 186 -179 73 -369 134 -530 170 -110 25 -107 24 -209 41
-92 15 -122 19 -211 30 -53 6 -525 15 -531 10z m492 -37 c37 -4 89 -10 115
-13 44 -4 192 -27 269 -42 47 -9 253 -63 325 -86 369 -117 760 -330 1065 -578
181 -148 371 -343 516 -530 352 -453 589 -1024 655 -1581 3 -30 8 -56 9 -59 2
-3 7 -74 11 -158 l7 -152 -3254 2 -3254 3 1 30 c2 65 15 261 19 285 2 14 11
75 20 135 67 466 254 937 530 1340 87 128 111 159 216 280 302 348 622 597
1025 799 286 143 685 267 969 301 28 4 57 8 65 10 8 3 49 7 90 11 41 3 76 7
78 9 7 6 464 1 523 -6z m2964 -3384 c-1 -157 -15 -281 -55 -490 -100 -521
-339 -1024 -688 -1445 -81 -97 -271 -295 -352 -365 -340 -297 -730 -518 -1155
-655 -117 -38 -322 -90 -415 -105 -19 -3 -60 -10 -90 -15 -180 -31 -513 -43
-735 -27 -141 10 -182 16 -333 43 -540 98 -1034 324 -1467 670 -200 160 -453
428 -607 644 -186 261 -358 606 -451 905 -33 105 -76 266 -83 312 -3 19 -8 45
-10 57 -3 11 -7 34 -9 50 -2 15 -6 35 -9 45 -3 9 -8 48 -12 86 -3 39 -8 72 -9
75 -2 3 -6 61 -10 130 -4 69 -9 132 -10 140 -1 8 1 22 5 30 7 13 377 15 3252
15 l3243 0 0 -100z"/>
<path d="M2956 5648 c-3 -13 -4 -45 -3 -73 l2 -50 218 -1 c120 -1 221 -4 224
-8 4 -4 7 -271 7 -594 l1 -587 83 -1 82 0 1 90 c0 50 0 317 0 594 l0 502 32 1
c18 1 120 1 227 0 l196 0 -2 67 c-1 37 -2 70 -3 75 0 4 -239 7 -531 7 l-530 0
-4 -22z"/>
<path d="M3930 2680 l-85 -5 -1 -35 c-1 -19 -5 -69 -8 -110 -4 -41 -9 -97 -11
-125 -3 -27 -7 -77 -10 -110 -3 -33 -7 -87 -10 -120 -3 -33 -8 -86 -11 -117
l-5 -58 71 0 c67 0 73 2 120 39 70 56 149 83 234 82 116 -2 212 -62 257 -164
19 -43 23 -70 23 -157 1 -95 -2 -110 -27 -162 -55 -111 -154 -166 -280 -154
-117 11 -203 76 -238 182 -16 45 -14 45 -136 29 l-42 -6 14 -44 c65 -217 286
-336 537 -289 178 34 306 168 333 349 52 351 -176 597 -505 543 -71 -12 -121
-33 -168 -73 -35 -29 -45 -32 -38 -7 3 9 8 58 11 107 3 50 8 106 10 125 2 19
5 59 7 88 l3 52 302 0 303 0 0 70 0 70 -117 0 c-65 1 -192 2 -283 3 -91 1
-203 0 -250 -3z"/>
<path d="M2572 2642 c-22 -72 -88 -118 -187 -128 -71 -7 -71 -7 -70 -60 l0
-49 125 -5 124 -5 1 -510 0 -510 77 -3 76 -3 -1 653 -2 653 -66 3 -66 3 -11
-39z"/>
<path d="M2870 2610 l0 -70 350 -2 351 -3 -29 -55 c-15 -30 -71 -122 -123
-205 -226 -357 -279 -506 -293 -827 l-4 -78 84 0 84 0 0 73 c1 76 4 110 21
217 15 98 50 203 104 312 43 85 54 104 160 268 120 185 145 245 151 363 l4 77
-430 0 -430 0 0 -70z"/>
</g>
</svg>
