<?xml version="1.0" encoding="utf-8"?>
<!-- Generator: Adobe Illustrator 26.1.0, SVG Export Plug-In . SVG Version: 6.00 Build 0)  -->
<svg version="1.1" id="Layer_1" xmlns="http://www.w3.org/2000/svg" xmlns:xlink="http://www.w3.org/1999/xlink" x="0px" y="0px"
	 viewBox="0 0 500 500" style="enable-background:new 0 0 500 500;" xml:space="preserve">
<style type="text/css">
	.st0{display:none;}
	.st1{display:inline;}
	.st2{clip-path:url(#SVGID_00000183935511433334378510000002151881542443167895_);fill:none;stroke:#1D1D1B;stroke-width:2;}
	.st3{clip-path:url(#SVGID_00000038403920039727522110000009330846783000136888_);fill:#1D1D1B;}
	
		.st4{clip-path:url(#SVGID_00000033338923647702845660000012469499695688022410_);fill:#1D1D1B;stroke:#1D1D1B;stroke-width:2;stroke-miterlimit:10;}
	.st5{clip-path:url(#SVGID_00000027575308254368261390000016169810298174570398_);fill:none;stroke:#1D1D1B;stroke-width:2;}
	.st6{clip-path:url(#SVGID_00000128449471780202336220000012673871030131037827_);fill:#1D1D1B;}
	.st7{clip-path:url(#SVGID_00000011006684163065571310000010362780114114818702_);fill:#1D1D1B;}
	.st8{clip-path:url(#SVGID_00000041262964752535285640000014541111075715520944_);fill:#1D1D1B;}
	.st9{clip-path:url(#SVGID_00000030452289002260579620000008834148246734095544_);fill:#1D1D1B;}
	.st10{clip-path:url(#SVGID_00000183230697565885046660000003793964676241904010_);fill:#1D1D1B;}
	.st11{clip-path:url(#SVGID_00000012449133382334695970000001863443289007893679_);fill:#1D1D1B;}
	.st12{clip-path:url(#SVGID_00000080915283329526242080000015853223967568399515_);fill:#1D1D1B;}
	.st13{clip-path:url(#SVGID_00000075842835692701603760000015393883316430866343_);fill:none;stroke:#1D1D1B;stroke-miterlimit:10;}
	.st14{clip-path:url(#SVGID_00000106109019107730016260000004784839550924207549_);fill:#1D1D1B;}
	.st15{clip-path:url(#SVGID_00000129195247954940070600000017507159937930995074_);fill:#1D1D1B;}
	.st16{clip-path:url(#SVGID_00000072274299694519184360000004348498734281084863_);fill:none;stroke:#1D1D1B;stroke-width:2;}
	.st17{clip-path:url(#SVGID_00000148651174531834390740000006905562032491893143_);fill:#2B2B2A;}
	.st18{clip-path:url(#SVGID_00000044140099531787909010000013571369406823582134_);fill:#2B2B2A;}
</style>
<g class="st0">
	<g class="st1">
		<defs>
			<rect id="SVGID_1_" x="14.4" y="14.4" width="471.1" height="471.1"/>
		</defs>
		<clipPath id="SVGID_00000077300264284349911700000000168994254941483678_">
			<use xlink:href="#SVGID_1_"  style="overflow:visible;"/>
		</clipPath>
		
			<circle style="clip-path:url(#SVGID_00000077300264284349911700000000168994254941483678_);fill:none;stroke:#1D1D1B;stroke-width:2;" cx="250" cy="250" r="233.1"/>
	</g>
	<g class="st1">
		<defs>
			<rect id="SVGID_00000147901408878479348470000010098993642528337824_" x="14.4" y="14.4" width="471.1" height="471.1"/>
		</defs>
		<clipPath id="SVGID_00000081618856868663040420000017396034715876940688_">
			<use xlink:href="#SVGID_00000147901408878479348470000010098993642528337824_"  style="overflow:visible;"/>
		</clipPath>
		<path style="clip-path:url(#SVGID_00000081618856868663040420000017396034715876940688_);fill:#1D1D1B;" d="M297,170.4
			c-0.5,0.2-0.9,0.4-1.4,0.6c2.2-1.7,4.8-3,7.9-3.8c2.4-0.6,4.7-1.8,7.1-2.8c0.2,0.1,0.5,0.1,0.7,0.1c-0.1,0-0.2,0-0.2,0.1
			C306.4,166.5,301.8,168.7,297,170.4 M410.2,165.7c-2.7-0.2-5.4,0-8-0.3c-0.8-0.1-1.5-1-2.2-1.5c0.6-0.6,1.2-1.7,2-1.8
			c2-0.5,4.1-0.5,6.1-0.8c1.5-0.2,3-0.5,4.5-0.8l-0.1-1.1c-2.7,0.2-5.4,0.3-8,0.5c-2.8,0.2-5.7,0.6-8.5,0.4
			c-1.8-0.2-3.4-1.4-5.1-2.2c1.1-1.4,2.1-2.8,3.4-4.1c1.1-1.1,2.4-2.1,1.5-4c-2.3,1.5-4.5,2.9-6.6,4.4c-1,0.7-2.1,1.5-2.6,2.5
			c-2.9,5.6-7.7,7.6-13.5,7.5c-5.4-0.1-10.7-0.4-16.1-0.9c-7.2-0.7-14.5-1.5-21.6,0.2c-7,1.7-14,1.8-21,0.6c0.1,0,0.2-0.1,0.2-0.1
			c3.7-1.8,7.3-3.8,11-5.6c2.2-1,4.4-1.9,6.7-2.7c4.6-1.6,9.5-2.6,13.9-4.8c5.6-2.7,10.7-6.5,16.2-9.5c6.1-3.3,12.1-7.2,18.7-9.2
			c7.9-2.5,12.8-8.1,18.2-13.6c0,0,0-0.2-0.1-0.4c-3.2,0.7-5.1,4.2-8.3,4.7c-0.2-0.5-0.2-0.4-0.4-1c3.9-2.9,7.7-5.8,11.6-8.7
			c-0.3-0.6-0.2-0.4-0.5-1c-4.1,1.8-7.1,5.7-11.4,7.2c-0.3-0.6-0.2-0.4-0.5-1.1c4.1-3,8.2-6.1,12.3-9.1c-0.4-0.5-0.2-0.3-0.5-0.8
			l-12.9,8.2c-0.4-0.2-0.4-0.3-0.7-0.5c0.5-2.2,2.8-2.7,4.3-3.8c1.6-1.2,3.4-2.3,5.1-3.4c-0.3-0.5-0.2-0.3-0.5-0.8
			c-5.5,3.1-11.1,6.1-17,9.4c0.4-3.9,5.6-3.6,6.2-7.2c-0.5-0.1-0.9-0.2-1-0.1c-5.1,3-10.5,5.7-12.2,12.1c-0.6,2.2-2,3.3-4,3.9
			c-3.1,0.8-6.2,1.8-9.4,2.3c-12.2,2.3-23.7,5.9-33.3,14.4c-1.7,1.5-4.3,2.2-6.6,2.7c-6.5,1.3-12.8,3.3-18.6,6.6
			c-1.4,0.8-3.5,0.9-5.1,0.6c-8.9-1.7-16.8,0.5-24.4,5c-5.5-1.9-10-6.1-11.9-12.4c0-0.1-0.2-0.2-0.5-0.4c1.1-1.4,2-3,2.4-5.1
			c0.2-1.3,1.1-2.6,2.1-3.5c2.4-2.2,2.8-6.1,0.8-8.7c-0.3-0.4-0.4-1.2-0.4-1.8c0-1.5,0-3.1,0-3.9c0.6-11.6-5.2-14.6-11.6-16
			c-3.3-0.7-7.1-0.1-10.5,0.7c-5,1.3-7.6,5.2-7.7,10.4c-0.1,2.9,0.1,5.7,0.1,8.6c0,0.7-0.1,1.8-0.4,1.9c-2.2,0.8-1.6,2.4-1.2,3.8
			c0.4,1.5,0.6,3.4,1.7,4.3c1.6,1.4,2.3,2.9,2.8,4.9c0.4,1.9,1.5,3.7,2.9,5.4c-1.4,6.6-6.8,10.5-12.3,11.8l-0.6,0
			c0.1-0.1,0.3-0.1,0.5-0.2c-8.1-5.3-16.5-7.8-25.9-6.1c-1.9,0.3-4-0.2-5.8-0.8c-5.5-1.8-10.8-4.3-16.4-5.8c-4-1.1-7.8-2.4-11-5.1
			c-6.2-5.4-13.5-8.7-21.5-10.4c-6.1-1.4-12.2-2.9-18.3-4.4c-2.1-0.5-3.5-1.7-4.2-4c-1.9-6.3-7.1-9.3-12.5-12
			c-0.1,0-0.3,0.2-0.9,0.5c0.7,0.8,1.3,1.6,2.1,2.2c1.2,0.9,2.5,1.7,3.7,2.7c0.4,0.3,0.4,1,0.6,1.6c-0.5-0.1-1.2,0-1.6-0.2
			c-4.3-2.5-8.7-5-13-7.5c-0.8-0.4-1.7-0.7-2.6-1c-0.1,0.1-0.1,0.3-0.2,0.4c3.2,2.2,6.5,4.3,9.8,6.5l-0.8,1.3l-13.2-8.2
			c-0.3,0.5-0.2,0.3-0.6,0.8c4.1,3,8.3,6,12.4,9c-0.5,0.8-0.3,0.5-0.8,1.3c-4-2.2-7.4-5.6-11.5-7.8c-0.5,0.9-0.3,0.5-0.8,1.4
			c0.8,0.5,1.7,0.9,2.4,1.4c2.7,1.9,5.4,3.8,8,5.8c0.6,0.5,1,1.3,1.4,1.9l-0.6,0.6c-2.6-1.7-5.2-3.4-7.8-5.1l-0.6,0.8
			c4.8,3.6,7.9,9.2,13.8,11.5c2.7,1.1,5.8,1.6,8.3,2.9c7.4,4,14.7,8.1,21.9,12.5c7.4,4.5,14.9,8.4,23.6,10c2.4,0.4,4.7,1.8,6.8,2.7
			c3.1,1.4,6.1,3,9.1,4.7c1.9,1.1,3.6,1.2,5.6,0.9c0,0.1,0,0.2-0.1,0.6c0.5,0.2,1,0.4,1.4,0.6l-0.8,0.4c-0.3-0.1-0.6-0.2-0.9-0.3
			c-0.8-0.3-1.8-0.2-2.6-0.1c-7.1,1.1-14,0.7-21.1-0.5c-5.7-0.9-11.5-0.8-17.3-0.7c-7,0.2-13.9,1-20.9,1.2
			c-4.8,0.1-9.4-1.2-11.8-5.6c-2.3-4.3-6.7-5.4-10.1-8.1c-0.2-0.2-0.5,0-0.5,0.3c0.1,0.9,0.4,1.8,0.9,2.5c0.5,0.7,1.5,1,2.1,1.6
			c0.8,0.9,1.9,2.2,1.7,2.9c-0.2,0.9-1.7,1.8-2.8,2c-2.3,0.4-4.6,0.5-6.9,0.4c-3-0.1-6-0.7-9.1-0.9c-0.9-0.1-1.9,0.2-2.8,0.3l0,0.9
			c3.2,0.4,6.5,0.6,9.7,1.2c1,0.2,1.8,1.3,2.7,2c-1,0.5-2,1.4-3,1.6c-3.1,0.3-6.2,0.3-9.3,0.6c-0.8,0.1-1.6,0.6-2.4,1
			c0.1,0.2,0.1,0.4,0.2,0.7c1.1-0.1,2.3-0.2,3.4-0.2c3-0.2,6.1-0.4,9.1-0.4c0.7,0,1.3,0.6,2,1c-0.6,0.6-1,1.4-1.7,1.7
			c-1.7,0.6-3.5,0.9-5.2,1.4c-1.6,0.5-3.1,1-4.7,1.5c0.1,0.2,0.1,0.4,0.2,0.6c0.9-0.1,1.7-0.2,2.6-0.4c2.8-0.7,5.5-1.5,8.3-2
			c0.7-0.1,1.5,0.5,2.3,0.7c-0.3,0.8-0.5,1.9-1.1,2.4c-0.7,0.6-1.7,0.9-2.6,1.3c-1.6,0.7-3.1,1.4-4.9,2.2c0.5,0.4,0.6,0.6,0.7,0.5
			c0.7-0.2,1.4-0.3,2-0.6c4.8-2.7,10.1-3.6,15.5-3.5c1.1,0,2.4-0.1,3.4-0.6c2.9-1.2,5.8-0.8,8.7-0.1c2.3,0.6,4.7,1,7,1.9
			c13.3,5,27.1,6.1,41.2,5.3c4.9-0.3,9.8,0.1,14.7,0.4c6.1,0.4,12.1,1.6,18.1,0.2c2.1-0.5,4.3-0.5,6.5-0.6l0.7,0.4
			c4.3,10.2,8.7,20.2,10.6,31.4c2.9,17,3.5,33.5-1.9,50.1c0,0,0,0.1-0.1,0.2c-0.2,0.1-0.3,0.1-0.4,0.2c-11.5,11.5-19.3,25.3-23.7,41
			c-1.8,6.2-4.1,12-8.6,16.8c-1.3,1.3-2,3.2-3,4.7c-2.8,4-5.4,8.3-8.5,12c-4.7,5.7-9,11.6-11.3,18.8c-1.7,5.4-3.1,10.9-4.4,16.4
			c-1.7,7.2-2.8,14.6-6.2,21.4c-1.5,2.9-3.4,5.1-6.2,6.8c-3.2,2-6.2,4.4-9.7,6.8c1.3,1.1,1.9,1.8,2.7,2.3c3.8,2.4,7.6,4.8,11.5,7
			c0.7,0.4,2.5,0,2.9-0.6c3.1-5.1,6.1-10.3,9-15.5c2.6-4.7,4.5-9.8,7.4-14.2c2.9-4.5,6.5-8.6,9.9-12.7c3.7-4.5,6.6-9.3,8.4-14.8
			c2.2-6.4,4.2-13,8.6-18.4c5.1-6.3,10.5-12.5,15.5-18.9c0.9-1.1,1.7-2.4,2.3-3.7c0.2,1.7,0.6,4.1,1,7.7c0.5,5,0.8,10.2,0.4,15.3
			c-0.5,8.2-1.6,16.4-2.4,24.6c-1,12.2,2.2,23.6,6.2,34.9c2.3,6.5,3.8,13.2,5.4,19.9c0.4,1.7,0,3.7-0.5,5.5c-1.1,3.5-2.6,6.8-4,10.1
			c-1.4,3.4-0.8,4.6,2.9,4.9c1.8,0.1,3.6,0.1,5.4,0.1c2.1,0,4.2-0.4,6.3-0.1c3.3,0.6,5.1-0.8,4.5-4.2c-0.3-1.7-0.6-3.3-0.8-5
			c-0.6-4.7-0.9-9.4-1.8-14c-1.7-8.2-2.1-16.5-1.7-24.9c0.3-6.5,0.6-13.1-0.1-19.5c-0.8-8.3-1.4-16.4,0.9-24.5
			c2.2-7.6,2.9-15.3,2.6-23.2c-0.1-1.7,0.1-3.4,0.4-5.1c1.7-7.9,3.7-15.8,5.2-23.8c1.2-6.6,2.1-13.2,3-20.1c1.1,0,2.1,0.3,3,1.1
			c-0.9,6.5-1.4,12.5-2.6,18.4c-1.1,5.4-1.2,10.6-0.5,16c1.3,9.1,2.9,18.3,0.6,27.5c-0.2,1-0.2,2.2,0,3.2c1.7,8.3,0,16.2-2,24.1
			c-2.3,9.2-2.5,18.4-0.1,27.6c1.1,4.2,2.2,8.5,3,12.8c2,9.9,4.4,19.7,1.2,29.8c-0.2,0.6-0.2,1.2-0.2,1.9c-0.1,2.3,1.1,3.6,3.4,3.5
			c2.2-0.1,4.5-0.3,6.6-0.9c5.4-1.4,10.7-1.2,16.2-0.4c4.3,0.6,8.7,0.7,13.1,0.8c1.3,0,2.7-0.4,3.9-0.9c0.7-0.3,1.4-1.2,1.5-2
			c0.1-0.4-0.9-1.2-1.6-1.5c-1.1-0.4-2.2-0.8-3.4-0.8c-7,0-12.5-3.5-18.1-7.1c-4.9-3.1-6.5-7.1-6.1-12.4c0.5-8.6,1-17.2,1.9-25.7
			c0.6-6.1,1.4-12.1,0.1-18.2c-1.4-6.3-0.8-12.2,2.3-18c2-3.7,2.5-7.7,2.1-12c-0.3-4-0.7-8.5,0.6-12.1c1.4-3.7,1.6-6.8,0.8-9.7
			c0.3,0.3,0.5,0.7,0.8,1c3.3-9.5,4.9-25.4,3.9-36.9c-0.2-2-0.3-4-0.4-6c1.5,14.8,0.8,29.4-3.4,43.9c-0.2,0.9-0.2,1.9,0,2.8
			c0.5,2.4,1.1,4.7,1.8,7c0.8,2.5,1.1,5.3,2.6,7.2c4.8,6.5,7,13.9,8.5,21.6c2.1,10.4,6.6,19.6,13.3,27.8c3.8,4.6,7.5,9.3,11.1,14.1
			c4.8,6.5,9.6,13,10.2,21.6c0,0.5,0.3,1,0.5,1.5c1.2,2.6,3.1,3.5,5.6,2.2c1.9-1,3.7-2.2,5.1-3.8c2.9-3.1,6.3-4.9,10.4-5.6
			c5.6-1,10.6-3.6,15.2-7c0.7-0.5,1-1.8,1-2.7c0-0.4-1.6-1.1-2.3-0.9c-7.2,1.9-14.5,0.6-21.6-0.2c-2-0.2-4.1-1.7-5.6-3.1
			c-1.4-1.3-2.2-3.2-3-5c-3.7-9.1-7.1-18.4-10.9-27.5c-2.1-4.9-4.3-9.8-7.2-14.3c-3.6-5.6-6.3-11.4-6.3-18.2c0-4.4-1-8.4-3.5-12.2
			c-1.9-2.9-3.1-6.4-4.2-9.7c-0.9-3-1.3-6.1-1.8-9.2c-2.2-14.6-7.8-28-16-40.3c0,0.4,0,0.9,0,1.3c0-0.9-0.1-1.7-0.1-2.6
			c-0.2-4.4-0.2-8.7-0.4-13.1c-0.3-9.2-2-18.6-0.7-27.6c2-13.3,3.4-26.9,10.1-39.1c1-1.8,1.9-3.7,2.5-5.6c0.2-0.8,0.5-1.6,0.8-2.3
			c2.3,0.2,4.4,0.4,6.5,0.5c4.4,0.2,8.9,0.5,13.3,0.4c6.9-0.1,13.7-0.6,20.6-0.9c8.3-0.4,16.7-0.1,24.9-1.2
			c6.7-0.9,13.1-3.6,19.7-5.3c2.8-0.7,5.6-1.3,8.4-1.2c4,0.1,8,0.9,11.9,1.6c2.4,0.4,4.8,1.2,7.2,2c1.7,0.6,3.4,1.3,5,2
			c0.1-0.3,0.2-0.5,0.3-0.8c-1.7-0.8-3.5-1.5-5.2-2.4c-1.5-0.7-4.1-1.1-3.2-3.4c0.8-2.1,3-0.6,4.5-0.3c2.9,0.6,5.7,1.3,8.6,2
			c0.1-0.2,0.1-0.5,0.2-0.7c-0.3-0.1-0.5-0.3-0.9-0.4c-3-0.9-6-1.6-9-2.6c-0.6-0.2-1.1-0.9-1.7-1.4c0.7-0.4,1.4-1.2,2.1-1.2
			c3,0,6.1,0.3,9.1,0.4c1.2,0.1,2.3,0,3.5,0c0-0.3,0.1-0.5,0.1-0.8C413.2,166.4,411.7,165.8,410.2,165.7"/>
	</g>
	<g class="st1">
		<defs>
			<rect id="SVGID_00000015338269398331475870000013006189977674242229_" x="14.4" y="14.4" width="471.1" height="471.1"/>
		</defs>
		<clipPath id="SVGID_00000078755183155858377680000007100045956715961018_">
			<use xlink:href="#SVGID_00000015338269398331475870000013006189977674242229_"  style="overflow:visible;"/>
		</clipPath>
		
			<path style="clip-path:url(#SVGID_00000078755183155858377680000007100045956715961018_);fill:#1D1D1B;stroke:#1D1D1B;stroke-width:2;stroke-miterlimit:10;" d="
			M297,170.4c-0.5,0.2-0.9,0.4-1.4,0.6c2.2-1.7,4.8-3,7.9-3.8c2.4-0.6,4.7-1.8,7.1-2.8c0.2,0.1,0.5,0.1,0.7,0.1
			c-0.1,0-0.2,0-0.2,0.1C306.4,166.5,301.8,168.7,297,170.4z M410.2,165.7c-2.7-0.2-5.4,0-8-0.3c-0.8-0.1-1.5-1-2.2-1.5
			c0.6-0.6,1.2-1.7,2-1.8c2-0.5,4.1-0.5,6.1-0.8c1.5-0.2,3-0.5,4.5-0.8l-0.1-1.1c-2.7,0.2-5.4,0.3-8,0.5c-2.8,0.2-5.7,0.6-8.5,0.4
			c-1.8-0.2-3.4-1.4-5.1-2.2c1.1-1.4,2.1-2.8,3.4-4.1c1.1-1.1,2.4-2.1,1.5-4c-2.3,1.5-4.5,2.9-6.6,4.4c-1,0.7-2.1,1.5-2.6,2.5
			c-2.9,5.6-7.7,7.6-13.5,7.5c-5.4-0.1-10.7-0.4-16.1-0.9c-7.2-0.7-14.5-1.5-21.6,0.2c-7,1.7-14,1.8-21,0.6c0.1,0,0.2-0.1,0.2-0.1
			c3.7-1.8,7.3-3.8,11-5.6c2.2-1,4.4-1.9,6.7-2.7c4.6-1.6,9.5-2.6,13.9-4.8c5.6-2.7,10.7-6.5,16.2-9.5c6.1-3.3,12.1-7.2,18.7-9.2
			c7.9-2.5,12.8-8.1,18.2-13.6c0,0,0-0.2-0.1-0.4c-3.2,0.7-5.1,4.2-8.3,4.7c-0.2-0.5-0.2-0.4-0.4-1c3.9-2.9,7.7-5.8,11.6-8.7
			c-0.3-0.6-0.2-0.4-0.5-1c-4.1,1.8-7.1,5.7-11.4,7.2c-0.3-0.6-0.2-0.4-0.5-1.1c4.1-3,8.2-6.1,12.3-9.1c-0.4-0.5-0.2-0.3-0.5-0.8
			l-12.9,8.2c-0.4-0.2-0.4-0.3-0.7-0.5c0.5-2.2,2.8-2.7,4.3-3.8c1.6-1.2,3.4-2.3,5.1-3.4c-0.3-0.5-0.2-0.3-0.5-0.8
			c-5.5,3.1-11.1,6.1-17,9.4c0.4-3.9,5.6-3.6,6.2-7.2c-0.5-0.1-0.9-0.2-1-0.1c-5.1,3-10.5,5.7-12.2,12.1c-0.6,2.2-2,3.3-4,3.9
			c-3.1,0.8-6.2,1.8-9.4,2.3c-12.2,2.3-23.7,5.9-33.3,14.4c-1.7,1.5-4.3,2.2-6.6,2.7c-6.5,1.3-12.8,3.3-18.6,6.6
			c-1.4,0.8-3.5,0.9-5.1,0.6c-8.9-1.7-16.8,0.5-24.4,5c-5.5-1.9-10-6.1-11.9-12.4c0-0.1-0.2-0.2-0.5-0.4c1.1-1.4,2-3,2.4-5.1
			c0.2-1.3,1.1-2.6,2.1-3.5c2.4-2.2,2.8-6.1,0.8-8.7c-0.3-0.4-0.4-1.2-0.4-1.8c0-1.5,0-3.1,0-3.9c0.6-11.6-5.2-14.6-11.6-16
			c-3.3-0.7-7.1-0.1-10.5,0.7c-5,1.3-7.6,5.2-7.7,10.4c-0.1,2.9,0.1,5.7,0.1,8.6c0,0.7-0.1,1.8-0.4,1.9c-2.2,0.8-1.6,2.4-1.2,3.8
			c0.4,1.5,0.6,3.4,1.7,4.3c1.6,1.4,2.3,2.9,2.8,4.9c0.4,1.9,1.5,3.7,2.9,5.4c-1.4,6.6-6.8,10.5-12.3,11.8l-0.6,0
			c0.1-0.1,0.3-0.1,0.5-0.2c-8.1-5.3-16.5-7.8-25.9-6.1c-1.9,0.3-4-0.2-5.8-0.8c-5.5-1.8-10.8-4.3-16.4-5.8c-4-1.1-7.8-2.4-11-5.1
			c-6.2-5.4-13.5-8.7-21.5-10.4c-6.1-1.4-12.2-2.9-18.3-4.4c-2.1-0.5-3.5-1.7-4.2-4c-1.9-6.3-7.1-9.3-12.5-12
			c-0.1,0-0.3,0.2-0.9,0.5c0.7,0.8,1.3,1.6,2.1,2.2c1.2,0.9,2.5,1.7,3.7,2.7c0.4,0.3,0.4,1,0.6,1.6c-0.5-0.1-1.2,0-1.6-0.2
			c-4.3-2.5-8.7-5-13-7.5c-0.8-0.4-1.7-0.7-2.6-1c-0.1,0.1-0.1,0.3-0.2,0.4c3.2,2.2,6.5,4.3,9.8,6.5l-0.8,1.3l-13.2-8.2
			c-0.3,0.5-0.2,0.3-0.6,0.8c4.1,3,8.3,6,12.4,9c-0.5,0.8-0.3,0.5-0.8,1.3c-4-2.2-7.4-5.6-11.5-7.8c-0.5,0.9-0.3,0.5-0.8,1.4
			c0.8,0.5,1.7,0.9,2.4,1.4c2.7,1.9,5.4,3.8,8,5.8c0.6,0.5,1,1.3,1.4,1.9l-0.6,0.6c-2.6-1.7-5.2-3.4-7.8-5.1l-0.6,0.8
			c4.8,3.6,7.9,9.2,13.8,11.5c2.7,1.1,5.8,1.6,8.3,2.9c7.4,4,14.7,8.1,21.9,12.5c7.4,4.5,14.9,8.4,23.6,10c2.4,0.4,4.7,1.8,6.8,2.7
			c3.1,1.4,6.1,3,9.1,4.7c1.9,1.1,3.6,1.2,5.6,0.9c0,0.1,0,0.2-0.1,0.6c0.5,0.2,1,0.4,1.4,0.6l-0.8,0.4c-0.3-0.1-0.6-0.2-0.9-0.3
			c-0.8-0.3-1.8-0.2-2.6-0.1c-7.1,1.1-14,0.7-21.1-0.5c-5.7-0.9-11.5-0.8-17.3-0.7c-7,0.2-13.9,1-20.9,1.2
			c-4.8,0.1-9.4-1.2-11.8-5.6c-2.3-4.3-6.7-5.4-10.1-8.1c-0.2-0.2-0.5,0-0.5,0.3c0.1,0.9,0.4,1.8,0.9,2.5c0.5,0.7,1.5,1,2.1,1.6
			c0.8,0.9,1.9,2.2,1.7,2.9c-0.2,0.9-1.7,1.8-2.8,2c-2.3,0.4-4.6,0.5-6.9,0.4c-3-0.1-6-0.7-9.1-0.9c-0.9-0.1-1.9,0.2-2.8,0.3l0,0.9
			c3.2,0.4,6.5,0.6,9.7,1.2c1,0.2,1.8,1.3,2.7,2c-1,0.5-2,1.4-3,1.6c-3.1,0.3-6.2,0.3-9.3,0.6c-0.8,0.1-1.6,0.6-2.4,1
			c0.1,0.2,0.1,0.4,0.2,0.7c1.1-0.1,2.3-0.2,3.4-0.2c3-0.2,6.1-0.4,9.1-0.4c0.7,0,1.3,0.6,2,1c-0.6,0.6-1,1.4-1.7,1.7
			c-1.7,0.6-3.5,0.9-5.2,1.4c-1.6,0.5-3.1,1-4.7,1.5c0.1,0.2,0.1,0.4,0.2,0.6c0.9-0.1,1.7-0.2,2.6-0.4c2.8-0.7,5.5-1.5,8.3-2
			c0.7-0.1,1.5,0.5,2.3,0.7c-0.3,0.8-0.5,1.9-1.1,2.4c-0.7,0.6-1.7,0.9-2.6,1.3c-1.6,0.7-3.1,1.4-4.9,2.2c0.5,0.4,0.6,0.6,0.7,0.5
			c0.7-0.2,1.4-0.3,2-0.6c4.8-2.7,10.1-3.6,15.5-3.5c1.1,0,2.4-0.1,3.4-0.6c2.9-1.2,5.8-0.8,8.7-0.1c2.3,0.6,4.7,1,7,1.9
			c13.3,5,27.1,6.1,41.2,5.3c4.9-0.3,9.8,0.1,14.7,0.4c6.1,0.4,12.1,1.6,18.1,0.2c2.1-0.5,4.3-0.5,6.5-0.6l0.7,0.4
			c4.3,10.2,8.7,20.2,10.6,31.4c2.9,17,3.5,33.5-1.9,50.1c0,0,0,0.1-0.1,0.2c-0.2,0.1-0.3,0.1-0.4,0.2c-11.5,11.5-19.3,25.3-23.7,41
			c-1.8,6.2-4.1,12-8.6,16.8c-1.3,1.3-2,3.2-3,4.7c-2.8,4-5.4,8.3-8.5,12c-4.7,5.7-9,11.6-11.3,18.8c-1.7,5.4-3.1,10.9-4.4,16.4
			c-1.7,7.2-2.8,14.6-6.2,21.4c-1.5,2.9-3.4,5.1-6.2,6.8c-3.2,2-6.2,4.4-9.7,6.8c1.3,1.1,1.9,1.8,2.7,2.3c3.8,2.4,7.6,4.8,11.5,7
			c0.7,0.4,2.5,0,2.9-0.6c3.1-5.1,6.1-10.3,9-15.5c2.6-4.7,4.5-9.8,7.4-14.2c2.9-4.5,6.5-8.6,9.9-12.7c3.7-4.5,6.6-9.3,8.4-14.8
			c2.2-6.4,4.2-13,8.6-18.4c5.1-6.3,10.5-12.5,15.5-18.9c0.9-1.1,1.7-2.4,2.3-3.7c0.2,1.7,0.6,4.1,1,7.7c0.5,5,0.8,10.2,0.4,15.3
			c-0.5,8.2-1.6,16.4-2.4,24.6c-1,12.2,2.2,23.6,6.2,34.9c2.3,6.5,3.8,13.2,5.4,19.9c0.4,1.7,0,3.7-0.5,5.5c-1.1,3.5-2.6,6.8-4,10.1
			c-1.4,3.4-0.8,4.6,2.9,4.9c1.8,0.1,3.6,0.1,5.4,0.1c2.1,0,4.2-0.4,6.3-0.1c3.3,0.6,5.1-0.8,4.5-4.2c-0.3-1.7-0.6-3.3-0.8-5
			c-0.6-4.7-0.9-9.4-1.8-14c-1.7-8.2-2.1-16.5-1.7-24.9c0.3-6.5,0.6-13.1-0.1-19.5c-0.8-8.3-1.4-16.4,0.9-24.5
			c2.2-7.6,2.9-15.3,2.6-23.2c-0.1-1.7,0.1-3.4,0.4-5.1c1.7-7.9,3.7-15.8,5.2-23.8c1.2-6.6,2.1-13.2,3-20.1c1.1,0,2.1,0.3,3,1.1
			c-0.9,6.5-1.4,12.5-2.6,18.4c-1.1,5.4-1.2,10.6-0.5,16c1.3,9.1,2.9,18.3,0.6,27.5c-0.2,1-0.2,2.2,0,3.2c1.7,8.3,0,16.2-2,24.1
			c-2.3,9.2-2.5,18.4-0.1,27.6c1.1,4.2,2.2,8.5,3,12.8c2,9.9,4.4,19.7,1.2,29.8c-0.2,0.6-0.2,1.2-0.2,1.9c-0.1,2.3,1.1,3.6,3.4,3.5
			c2.2-0.1,4.5-0.3,6.6-0.9c5.4-1.4,10.7-1.2,16.2-0.4c4.3,0.6,8.7,0.7,13.1,0.8c1.3,0,2.7-0.4,3.9-0.9c0.7-0.3,1.4-1.2,1.5-2
			c0.1-0.4-0.9-1.2-1.6-1.5c-1.1-0.4-2.2-0.8-3.4-0.8c-7,0-12.5-3.5-18.1-7.1c-4.9-3.1-6.5-7.1-6.1-12.4c0.5-8.6,1-17.2,1.9-25.7
			c0.6-6.1,1.4-12.1,0.1-18.2c-1.4-6.3-0.8-12.2,2.3-18c2-3.7,2.5-7.7,2.1-12c-0.3-4-0.7-8.5,0.6-12.1c1.4-3.7,1.6-6.8,0.8-9.7
			c0.3,0.3,0.5,0.7,0.8,1c3.3-9.5,4.9-25.4,3.9-36.9c-0.2-2-0.3-4-0.4-6c1.5,14.8,0.8,29.4-3.4,43.9c-0.2,0.9-0.2,1.9,0,2.8
			c0.5,2.4,1.1,4.7,1.8,7c0.8,2.5,1.1,5.3,2.6,7.2c4.8,6.5,7,13.9,8.5,21.6c2.1,10.4,6.6,19.6,13.3,27.8c3.8,4.6,7.5,9.3,11.1,14.1
			c4.8,6.5,9.6,13,10.2,21.6c0,0.5,0.3,1,0.5,1.5c1.2,2.6,3.1,3.5,5.6,2.2c1.9-1,3.7-2.2,5.1-3.8c2.9-3.1,6.3-4.9,10.4-5.6
			c5.6-1,10.6-3.6,15.2-7c0.7-0.5,1-1.8,1-2.7c0-0.4-1.6-1.1-2.3-0.9c-7.2,1.9-14.5,0.6-21.6-0.2c-2-0.2-4.1-1.7-5.6-3.1
			c-1.4-1.3-2.2-3.2-3-5c-3.7-9.1-7.1-18.4-10.9-27.5c-2.1-4.9-4.3-9.8-7.2-14.3c-3.6-5.6-6.3-11.4-6.3-18.2c0-4.4-1-8.4-3.5-12.2
			c-1.9-2.9-3.1-6.4-4.2-9.7c-0.9-3-1.3-6.1-1.8-9.2c-2.2-14.6-7.8-28-16-40.3c0,0.4,0,0.9,0,1.3c0-0.9-0.1-1.7-0.1-2.6
			c-0.2-4.4-0.2-8.7-0.4-13.1c-0.3-9.2-2-18.6-0.7-27.6c2-13.3,3.4-26.9,10.1-39.1c1-1.8,1.9-3.7,2.5-5.6c0.2-0.8,0.5-1.6,0.8-2.3
			c2.3,0.2,4.4,0.4,6.5,0.5c4.4,0.2,8.9,0.5,13.3,0.4c6.9-0.1,13.7-0.6,20.6-0.9c8.3-0.4,16.7-0.1,24.9-1.2
			c6.7-0.9,13.1-3.6,19.7-5.3c2.8-0.7,5.6-1.3,8.4-1.2c4,0.1,8,0.9,11.9,1.6c2.4,0.4,4.8,1.2,7.2,2c1.7,0.6,3.4,1.3,5,2
			c0.1-0.3,0.2-0.5,0.3-0.8c-1.7-0.8-3.5-1.5-5.2-2.4c-1.5-0.7-4.1-1.1-3.2-3.4c0.8-2.1,3-0.6,4.5-0.3c2.9,0.6,5.7,1.3,8.6,2
			c0.1-0.2,0.1-0.5,0.2-0.7c-0.3-0.1-0.5-0.3-0.9-0.4c-3-0.9-6-1.6-9-2.6c-0.6-0.2-1.1-0.9-1.7-1.4c0.7-0.4,1.4-1.2,2.1-1.2
			c3,0,6.1,0.3,9.1,0.4c1.2,0.1,2.3,0,3.5,0c0-0.3,0.1-0.5,0.1-0.8C413.2,166.4,411.7,165.8,410.2,165.7z"/>
	</g>
</g>
<g class="st0">
	<g class="st1">
		<defs>
			<rect id="SVGID_00000032621222719828371580000005313496672111918736_" x="13.8" y="13.6" width="471.8" height="471.8"/>
		</defs>
		<clipPath id="SVGID_00000128449315488308299380000017102672741744163715_">
			<use xlink:href="#SVGID_00000032621222719828371580000005313496672111918736_"  style="overflow:visible;"/>
		</clipPath>
		
			<circle style="clip-path:url(#SVGID_00000128449315488308299380000017102672741744163715_);fill:none;stroke:#1D1D1B;stroke-width:2;" cx="249.7" cy="249.5" r="233.4"/>
	</g>
	<g class="st1">
		<defs>
			<rect id="SVGID_00000013901826958789739670000012848016387843574973_" x="13.8" y="13.6" width="471.8" height="471.8"/>
		</defs>
		<clipPath id="SVGID_00000118372678396783007680000008601414920901014689_">
			<use xlink:href="#SVGID_00000013901826958789739670000012848016387843574973_"  style="overflow:visible;"/>
		</clipPath>
		<path style="clip-path:url(#SVGID_00000118372678396783007680000008601414920901014689_);fill:#1D1D1B;" d="M176.4,230.2
			c-0.1,0-0.1,0-0.2,0C176.2,230.3,176.3,230.3,176.4,230.2L176.4,230.2z"/>
	</g>
	<g class="st1">
		<defs>
			<rect id="SVGID_00000163764615689392807180000013405524134161403052_" x="13.8" y="13.6" width="471.8" height="471.8"/>
		</defs>
		<clipPath id="SVGID_00000117640827734127213280000000298993420453985971_">
			<use xlink:href="#SVGID_00000163764615689392807180000013405524134161403052_"  style="overflow:visible;"/>
		</clipPath>
		<path style="clip-path:url(#SVGID_00000117640827734127213280000000298993420453985971_);fill:#1D1D1B;" d="M305.4,294.7
			c-0.1,0.1-0.3,0.1-0.4,0.2c0.2,0,0.4,0.1,0.6,0.1C305.5,294.9,305.5,294.8,305.4,294.7"/>
	</g>
	<g class="st1">
		<defs>
			<rect id="SVGID_00000062905711767255405060000006950377135783210120_" x="13.8" y="13.6" width="471.8" height="471.8"/>
		</defs>
		<clipPath id="SVGID_00000034788489361294373530000010320747831270193302_">
			<use xlink:href="#SVGID_00000062905711767255405060000006950377135783210120_"  style="overflow:visible;"/>
		</clipPath>
		<path style="clip-path:url(#SVGID_00000034788489361294373530000010320747831270193302_);fill:#1D1D1B;" d="M154.5,240
			C154.5,240,154.5,240,154.5,240L154.5,240L154.5,240z"/>
	</g>
	<g class="st1">
		<defs>
			<rect id="SVGID_00000077317425971356202630000011433999511582472595_" x="13.8" y="13.6" width="471.8" height="471.8"/>
		</defs>
		<clipPath id="SVGID_00000172407474373914644740000016448377962640097924_">
			<use xlink:href="#SVGID_00000077317425971356202630000011433999511582472595_"  style="overflow:visible;"/>
		</clipPath>
		<path style="clip-path:url(#SVGID_00000172407474373914644740000016448377962640097924_);fill:#1D1D1B;" d="M188.6,231
			c-0.1,0-0.1,0-0.2,0C188.4,231,188.4,231.1,188.6,231L188.6,231z"/>
	</g>
	<g class="st1">
		<defs>
			<rect id="SVGID_00000030452150929213580730000011427932257998233770_" x="13.8" y="13.6" width="471.8" height="471.8"/>
		</defs>
		<clipPath id="SVGID_00000055697984499462048430000004602377607304597418_">
			<use xlink:href="#SVGID_00000030452150929213580730000011427932257998233770_"  style="overflow:visible;"/>
		</clipPath>
		<path style="clip-path:url(#SVGID_00000055697984499462048430000004602377607304597418_);fill:#1D1D1B;" d="M291.5,267.9
			c-0.2-0.3-0.5-0.5-0.8-0.6C290.9,267.5,291.1,267.7,291.5,267.9"/>
	</g>
	<g class="st1">
		<defs>
			<rect id="SVGID_00000176751059549636447850000000100229532240587400_" x="13.8" y="13.6" width="471.8" height="471.8"/>
		</defs>
		<clipPath id="SVGID_00000135652905464934317750000011791198201907609481_">
			<use xlink:href="#SVGID_00000176751059549636447850000000100229532240587400_"  style="overflow:visible;"/>
		</clipPath>
		<path style="clip-path:url(#SVGID_00000135652905464934317750000011791198201907609481_);fill:#1D1D1B;" d="M148.6,219.4
			c0.1,0,0.1,0,0.2,0C148.8,219.4,148.7,219.4,148.6,219.4C148.6,219.3,148.6,219.4,148.6,219.4"/>
	</g>
	<g class="st1">
		<defs>
			<rect id="SVGID_00000137852811328248679930000014525100295574717068_" x="13.8" y="13.6" width="471.8" height="471.8"/>
		</defs>
		<clipPath id="SVGID_00000123418699596939614560000006190432481028185508_">
			<use xlink:href="#SVGID_00000137852811328248679930000014525100295574717068_"  style="overflow:visible;"/>
		</clipPath>
		<path style="clip-path:url(#SVGID_00000123418699596939614560000006190432481028185508_);fill:#1D1D1B;" d="M421.7,203.8
			c-0.3,1.9-0.4,3.8-0.8,5.6c-0.1,0.4-0.7,1.1-1,1.1c-5-0.5-10-1-15-1.6c0,0-0.1-0.1-0.2-0.2c3-18.1,1-36.1-3-54.1
			c3.9-0.7,7.5-1.3,11-1.9c0.1-0.2,0.1-0.4,0.2-0.6c-0.5-0.2-1.1-0.6-1.6-0.5c-2.9,0.4-5.8,1-8.7,1.5c-1.9,0.3-3.6-0.1-5.2-1.3
			c-0.9-0.7-2.1-0.9-3.2-1.3c-5.6-2.2-11.1-4.4-16.9-6.7c0.9-1.3,1.9-2.7,2.9-4.1c2.2-3.2,4.6-6.4,6.6-9.7c1.1-1.8,2.5-2.8,4.2-3.6
			c3-1.5,6.1-3,9.1-4.5c1-0.5,1.8-0.5,2.4,0.7c1.9,3.7,4.2,7.1,5.9,10.9c1.8,3.9,3,8,4.5,12c0.7,1.8,1.4,3.5,2.2,5.3
			c-0.5,0.4-1,0.8-1.6,1.1c0,0.2,0.1,0.3,0.1,0.5c0.6,0,1.3,0.1,2.2,0.1c1.2,4.8,2.5,9.7,3.8,14.6c1.9,6.9,2,13.9,2.3,20.9
			C422.4,193.2,422.7,198.5,421.7,203.8 M414.2,239.6c-2.7,7.9-5.3,15.8-8.5,23.5c-1.8,4.3-4.5,8.2-6.8,12.3c-1.6,2.8-3.4,5-7.2,4.7
			c-2.4-0.2-4.9,0.4-7.4,0.5c-2.8,0.2-5.7,0.3-8.9,0.4c2.1-4.1,4-7.9,6-11.7c3.3-6.2,6.9-12.3,10-18.6c2.5-5,4.7-10.2,6.5-15.6
			c2.7-8,4.9-16.1,7.5-24.7c4.4,0.4,9.2,0.9,14,1.4c0.4,0.1,1.1,1,1,1.4C419,222.2,417.2,231.1,414.2,239.6 M389.8,286.2
			c-1.5,0.2-2.4,0.3-3.5,0.4c1,0.3,1.8,0.6,2.8,0.9c-1,0.7-1.8,1.2-2.5,1.9c-0.2,0.2,0,0.9,0,1.6c-1.6-0.3-3.3-0.6-4.9-0.9
			c0,0.1,0,0.1-0.1,0.2c1.1,0.3,2.2,0.7,3.5,1.1c-2.9,0.9-4.5-1.1-6.7-2.4c1,0.1,1.8,0.2,2.7,0.3c-1.4-0.6-2.6-1.2-3.8-1.8
			c0.1-0.2,0.2-0.4,0.2-0.6c0.9,0.1,1.7,0.3,2.6,0.4l0-0.3c-0.9-0.2-1.8-0.4-3.1-0.7c0.8-0.2,1.2-0.3,1.6-0.4
			c-0.6-0.2-1.3-0.4-2.2-0.7c0.6-0.2,1-0.3,1.3-0.4c-0.4-0.1-0.9-0.3-1.4-0.5c0-0.1,0.1-0.3,0.1-0.4c2,0.4,4,0.8,6,1.1
			c0.1-0.1,0.2-0.3,0.3-0.4c-0.5-0.5-1-1-1.8-1.7c1.6,0.3,3.1,0.6,5.1,1c-0.6-0.4-0.8-0.6-1-0.7c2.9-1,4.1-0.7,6.1,1.2
			c-0.5,0.1-1,0.3-1.5,0.4c-0.5,0.1-1,0.1-1.9,0.1C388.4,285.4,388.8,285.6,389.8,286.2 M371.8,281c-3.3-0.3-6.6-0.9-9.9-0.8
			c-4,0.1-6.5-2.7-9.6-4.2c-2.7-1.3-5.2-3.1-8-4.9c2.6-1.4,4.9-2.6,7.2-3.9c5.9-3.5,10.9-8,15.5-13.1c2.6-2.9,5.1-5.9,7.6-8.9
			c0.5-0.5,0.7-1.3,1.1-1.8c0.3-0.3,1.1-0.6,1.4-0.5c3.8,2.1,7.6,4.3,11.3,6.5c1.1,0.6,1.3,1.2,0.6,2.5c-3.8,6.9-7.4,13.8-11.1,20.8
			c-1.1,2.1-2.4,4.2-3.2,6.4C374.1,280.8,373.2,281.1,371.8,281 M339,279.8c-6.4,4.2-13.1,7.5-20.9,7.4c-1.8,0-4.3,0.4-5.7-1.8
			c-0.1-0.2-0.7,0-1.1,0c-0.6,0-1.2,0-1.8,0c0-0.2,0-0.4,0-0.6h4.5c0-0.2,0-0.3,0-0.5c-1-0.1-2-0.2-3.1-0.4c0-0.1,0-0.2-0.1-0.3
			c0.7-0.1,1.4-0.2,2.1-0.3c0-0.1,0-0.2,0-0.3l-2.2-0.2c0-0.1,0-0.2,0-0.2c0.8,0,1.6-0.1,2.5-0.1c-0.2-0.3-0.3-0.5-0.5-0.8
			c0.6-0.1,1.2-0.1,1.7-0.2c0-0.1,0-0.2,0-0.3c-0.9-0.1-1.8-0.2-2.8-0.2c0-0.1,0-0.2,0-0.3c0.6-0.1,1.2-0.1,2.2-0.3
			c-0.8-0.3-1.2-0.5-1.7-0.7c0-0.1,0.1-0.3,0.1-0.4c0.9,0.3,1.8,0.5,2.7,0.8V278c0.6,0.3,1.1,0.5,1.5,0.7c0.1-0.1,0.2-0.2,0.2-0.3
			c-0.9-0.6-1.8-1.2-2.8-1.9c0.6-0.1,1.1-0.1,2.2-0.2c-1-0.3-1.5-0.4-2.4-0.7c1-0.2,1.7-0.4,2.5-0.5c-0.6-0.1-1-0.2-1.5-0.3
			c-0.5-0.7,2.5-0.3,0.4-1.2c0.8-0.5,1.5-0.9,2.3-1.3c-0.5-0.1-1-0.3-2-0.5c0.8-0.2,1.2-0.4,2.1-0.6c-0.7-0.1-0.9-0.2-1.4-0.3
			c0.9-0.3,1.6-0.5,2.4-0.7c0-0.1,0-0.2,0-0.2c-0.6,0-1.3-0.1-1.9-0.1c0-0.1,0-0.1,0-0.2c0.6-0.1,1.1-0.2,1.7-0.4c0-0.1,0-0.1,0-0.2
			c-0.4,0-0.9-0.1-1.3-0.1c0-0.1,0-0.2-0.1-0.4c0.7-0.1,1.4-0.2,2-0.4c0-0.1,0-0.1,0-0.2c-0.7,0-1.3-0.1-2-0.1c0-0.1,0-0.2,0-0.3
			c0.6-0.1,1.3-0.2,2.1-0.3c-0.6-0.1-1-0.2-1.8-0.4c0.8-0.3,1.3-0.5,1.9-0.7c-0.3-0.2-0.6-0.4-0.9-0.6c0.4-0.5,0.9-1,1.3-1.6
			c0,0-0.7-0.5-0.6-0.6c0.2-0.5,0.7-0.8,1.1-1.3c0,0-0.2-0.1-0.3-0.2c0.5-0.6,1.3-1.1,1.5-1.8c0.4-1.8,0.5-3.7,0.7-5.6
			c0.1-0.9,0-1.9,0-3c3.2,0.5,6.4,0.9,9.5,1.4c0.3,0.1,0.7,0.9,0.8,1.4c0.8,3,1.1,6.2,2.5,8.9c1.4,2.7,3.7,5.1,5.9,7.3
			c1.8,1.7,4.2,2.8,6.2,4.1C344.3,276.2,341.7,278,339,279.8 M335,226c1-7.7,4.7-14.2,8.4-20.9c3.2-5.7,7.3-10.4,12.7-14.3
			c5.4-3.9,10.4-2.5,14.7,1.1c4.9,4.1,7.5,9.4,9.4,15.3c2.9,9,2.2,17.9-1.5,26.5c-1.4,3.3-2.9,6.8-4.9,9.8
			c-2.5,3.6-5.5,6.9-8.6,10.1c-3.1,3.2-6.3,6.4-9.9,9c-3.7,2.7-7.8,4.8-11.7,7.1c-0.2,0.1-0.8,0.1-1-0.1c-4.1-2.5-7-6-8-10.9
			c-0.7-3.6-1.3-7.3-2-11.2C333.5,240.5,334.1,233.2,335,226 M348.1,193.9c-8.1-5.6-17-9.9-25.9-14.2c-7-3.3-13.9-6.8-21-9.7
			c-6.8-2.8-13.7-5-20.7-7.2c-1.7-0.5-2.3-1.1-2-2.8c1.2-5.2,2.2-10.5,3.6-15.6c2.4-8.9,5.7-17.5,9.6-25.8c1.1-2.3,2.3-4.6,3.3-6.9
			c0.6-1.4,1.6-1.3,2.7-1.1c6.7,1.3,13.5,2.6,20.2,4c8.2,1.7,15.9,5,23.4,8.6c7.2,3.5,13.7,7.9,19.8,13.1c2.9,2.4,5.3,5.5,7.5,8.6
			c2.2,3,2,6.8,2.2,10.7c0,5.2-0.6,10.8-2.4,16.1c-1.3,4-3.1,7.9-4.1,11.9c-0.7,2.6-2.2,3.4-4.5,3.9c-3.9,0.9-6.4,3.8-9.2,6.2
			C349.7,194.3,349.2,194.6,348.1,193.9 M276.6,161.8c-7.3-1.8-14.8-3.3-22.5-3.6c-7.7-0.3-15.4-0.4-23.2,0.9c0.3-2.5,0.5-4.8,0.9-7
			c1.5-8,2.9-16.1,4.8-24c1-4.2,3.1-8.2,4.7-12.2c0.2-0.5,0.5-0.9,0.6-1.4c0.7-3.1,0.7-3,3.8-3.2c8.4-0.6,16.8-1.7,25.2-1.9
			c7.4-0.2,14.9,0.5,22.3,0.8c0.2,0,0.5,0.2,0.9,0.3C285.4,126.6,279.3,143.5,276.6,161.8 M276.4,165.7c-1.3,5.1-2.5,10.2-3.6,15.4
			c-0.8,3.8-2,7.7-2,11.6c-0.1,8.6-0.7,17.2,1.6,25.7c0.8,2.9,2,5.7,3.1,8.8c-6.6-5.3-13.9-8.5-21.9-9.9c-7.9-1.4-15.8-1.1-22.8,3.8
			c-0.4,0.3-0.9,0.6-1.2,1c-0.4,0.4-0.6,0.8-1,1.3c-1.5-0.8-2.9-1.5-4.6-2.4c3.3-19.8,1.2-40.3,6.3-60.4c6.6-0.2,13.2-0.5,19.8-0.7
			c8.2-0.2,16.3,1.4,24.3,2.9C276.1,163.1,276.8,163.8,276.4,165.7 M269.9,239.8c0-0.2,0-0.4-0.1-0.6c-0.8,3.9-1.1,7.9-0.2,11.9
			c0.4,1.9,1.5,3.6,2.3,5.5c-7,4.4-14.2,3.7-21.4,2c-4.7-1.1-9.3-2.9-13.2-6.1c-1.4-1.2-2.8-2.6-3.9-4.1c-2.9-3.8-6.1-7.7-6.4-12.7
			c-0.5-8,2.1-13.7,10.1-15.9c7.9-2.2,15.8-1.8,23.5,1.2c3.6,1.4,7.1,3.2,10.6,5c1.1,0.6,2,1.5,2.9,2.1
			C272.8,231.7,271.4,235.8,269.9,239.8 M221.3,221.1c-5.9,0.3-11.5-0.5-16.7-3.6c-4.1-2.4-8.4-4.6-12.5-7c-0.6-0.4-1-1.4-1.1-2.2
			c-0.2-5.9-0.5-11.7-0.5-17.6c-0.1-4.8,0-9.5,0.2-14.3c0-0.9-0.7-1.5-0.3-2.6c0.5-1.4,1.2-2.1,2.4-2.5c9.2-3.3,18.2-7.1,27.9-9.1
			c2.5-0.5,5-1.1,7.8-1.7c-3.1,12.2-3.3,24.2-3.9,36.1c-0.4,7.8-1.1,15.6-1.8,23.4C222.7,220.4,221.9,221.1,221.3,221.1
			 M189.3,209.8c-0.3-0.1-1.1-0.3-1.9-0.4c-2.8-0.4-5.7-0.9-8.5-1.3c-0.2,0-0.3-0.2-0.4-0.3c-2.9-3.2-6.9-4.3-10.8-5.7
			c-1.5-0.5-3-0.9-4.5-1.4c-0.4-5.4-0.7-10.8-1.1-16.2c-0.1-1.8-0.2-3.6-0.4-5.5c-0.1-1,0.1-1.5,1.3-1.6c8.7-0.7,17.2-2.4,25.6-4.8
			c0.1,0,0.1,0,0.7,0.2V209.8z M159,213c-4.8-1-9.4-1.9-14.1-2.9c0.3-2.2,0.7-4.5,1.1-7c1.2,0.8,1.4,3.1,3.4,1.7
			c-2.1-0.2-2.2-0.6-1.1-4c-0.7,0.6-1.1,1-1.9,1.7v-3.2c0.2-0.1,0.6-0.2,0.6-0.3c0.2-2.7,1.8-2.1,3.5-1.6c3.6,1.2,7.4,2.3,11.1,3.4
			C162.4,205.4,160.3,209.3,159,213 M165.2,228.1c-1.6-0.3-3.1-0.6-4.6-0.8c0.6,0.7,1.2,1.4,1.8,2.1c-0.1,0.2-0.2,0.4-0.3,0.5
			c-3.3-1.7-6.6-3.4-9.9-5.1c0-0.2,0.1-0.5,0.1-0.8c2.1,0.3,4.9-0.1,6.1,1.1C160.5,227.1,163.1,226.6,165.2,228.1 M164.5,235.1
			c-7.1,3.1-14.4,2.6-21.8,2.7c3-4.2,2.9-8.9,2.8-13.4C151.7,227.8,158,231.4,164.5,235.1 M147.6,243.3c-0.1-0.4-0.1-0.9-0.2-1.6
			c1.7-0.2,3.3-0.4,5.2-0.6C150.8,241.9,149.2,242.6,147.6,243.3 M142.8,243.1c1.9-1.1,3.2-3.1,6-1.8c-1.1,0.1-1.8,0.1-2.4,0.2
			C147.1,243.3,146.9,243.4,142.8,243.1 M142.7,245.5c-0.3,0-0.5-0.8-0.8-1.4c-0.4,0.1-1.1,0.2-1.8,0.3c2.4-1.6,4.8-0.2,7.3-0.1
			C146.1,245.9,144.3,245.5,142.7,245.5 M142.6,246.6c-0.9,0.1-1.8,0.2-2.6,0.2c-1,0-2.1,0-3.1-0.3c-0.6-0.2-1.2-0.9-1.5-1.5
			c-0.4-0.8-0.5-1.6-0.9-2.9c1,0.3,1.7,0.3,2,0.7c1.5,2.1,3.2,3.7,6.2,3.3C142.6,246.3,142.6,246.5,142.6,246.6 M144,229
			c-0.7,0-1.3-0.1-2.4-0.2c-0.2-1-0.3-2.1-0.5-3.2C143.4,225.5,143.8,226.1,144,229 M158.9,222.9c-0.1,0.3-0.1,0.5-0.2,0.8
			c-2.2-0.6-4.4-1.3-6.6-1.9c-0.1,0.2-0.1,0.4-0.2,0.5c1.5,0.4,3,0.9,4.5,1.3c-0.1,0.2-0.1,0.4-0.1,0.6c-3.1-0.8-6.3-1.7-9.4-2.5
			c0-0.1,0.1-0.3,0.1-0.4c1,0.1,1.9,0.3,2.9,0.4c0.1-0.1,0.2-0.3,0.2-0.4c-0.6-0.5-1.1-1-1.7-1.5c0-0.1,0.1-0.2,0.1-0.4
			c-0.4,0-0.8-0.1-1.2-0.1c0.3,0.7,0.4,1.1,0.8,1.9c-2.2-1-4.1-1.8-6-2.7c0-0.1,0.1-0.2,0.1-0.3c3,0.3,6,0.6,9.1,0.9
			c0,0.2,0,0.4-0.1,0.6c-0.8-0.1-1.6-0.2-2.6-0.3C152.2,220.6,155.6,221.7,158.9,222.9 M134.8,208.4c0.9,0.7,1.4,1.2,1.9,1.6
			c-0.2,0.3-0.3,0.5-0.7,1.2c-1.7-0.7-3.8-1.5-6.1-2.3c0.2,0.4,0.4,0.8,0.6,1.2c-0.2,0.1-0.3,0.2-0.5,0.3c-0.5-0.8-1-1.6-1.5-2.4
			c0.2-0.2,0.3-0.3,0.5-0.5c0.9,0.5,1.9,0.9,2.8,1.4c0-0.2,0.1-0.4,0.1-0.5c-2.9-1.6-3.2-4.3-3.1-7.2c0.1-1-0.1-2.1-0.1-3.1
			c-0.2-3,2.5-5.6,5.5-5.1c3.3,0.5,6.6,1,9.8,1.7c1,0.2,2,0.8,2.7,1.1c-0.1,1.4-0.2,2.4-0.4,3.5c0,0,0,0,0,0c-0.4,0.6-0.9,1.2-1,1.8
			c-0.5,2.6-0.9,5.1-1.4,7.7c-0.1,0.6-0.4,1.2-0.5,1.7C140.6,209.9,138,209.2,134.8,208.4 M126.7,213.4v3.3c-2.7-0.2-5.4,0-7.9-0.6
			c-4.3-1-5.6-6.3-2.5-10.4c2.8-3.8,6.4-6.7,10.8-9.4c-0.2,4.6,0.9,8.8,0.5,13c-0.2,0-0.4,0-0.6,0c0.4,0.4,0.9,0.7,1.3,1.1
			c-0.1,0.1-0.1,0.2-0.2,0.3c-0.5-0.2-1-0.4-1.6-0.6c-0.1,2.2,1.7,2.7,2.9,4C128.6,213.9,127.7,213.7,126.7,213.4 M113.6,207
			c-0.2,0-0.4,0.1-0.6,0.1c0-3.4,0-6.7,0-10.1c0-3.5,0-7.1,0-10.6c0-1.2,0.4-1.7,1.8-1.5c3.5,0.4,7.1,0.7,10.6,1.1
			c1.4,0.1,1.9,0.8,1.7,2.2c-0.1,1.6-0.2,3.1,0,4.7c0.2,2.2-1.6,3.2-2.8,4.3c-1.9,1.7-4.4,2.9-6.3,4.6
			C116.3,203.3,115,205.3,113.6,207 M114.5,175.6c0.6-3.6,1.4-7.1,2.1-10.7c0.2-1.1,0.7-1.8,1.9-1.7c3,0.4,5.9,0.7,8.9,1.3
			c0.4,0.1,0.7,1.4,0.7,2.1c-0.2,3.9-0.6,7.7-0.8,11.5c-0.1,2.3,0,4.7,0,6.9c-4.7-0.4-9.1-0.9-13.8-1.3
			C113.8,181,114,178.2,114.5,175.6 M136.9,118.9c3.8,2,7.4,3.9,11.3,6c-9.1,11.4-16.1,23.8-19.6,38.3c-3.5-0.6-7.1-1.1-10.7-1.7
			C121.1,145.8,128.2,132.1,136.9,118.9 M152.8,98c3.3,3.8,6.3,7.3,9.5,11c-3.9,4.4-7.8,8.7-11.7,13c-1.9,2.1-1.9,2.1-4.3,0.6
			c-2.9-1.7-5.8-3.3-8.9-5.2C142.5,110.9,147.6,104.5,152.8,98 M155.4,95.9c4.7-4.6,9.7-8.8,15.6-11.9c3.5-1.8,6.8-4.1,10.4-5.8
			c3.3-1.6,6.9-2.8,10.4-4c4.2-1.5,8.6-2.8,13.2-4.2c1,4.1,2,8,2.9,11.9c-8.4,2.8-16.6,5.5-24.1,9.9c-7.6,4.5-14.7,9.8-20.8,16.5
			c-2.8-3.7-5.3-7-7.8-10.2C154.6,97.2,154.6,96.7,155.4,95.9 M208.9,69.3c11.7-2.9,23.4-5.9,35.5-7.2c8.4-0.9,16.7-1.7,25.1-2.5
			c0.4,0,0.9,0,1.5,0c0.3,4.9,0.6,9.5,0.9,14.3c-2.6,0.2-5.5,0.4-8.5,0.7c-9,0.8-18,1.5-26.9,2.3c-4,0.4-8,0.5-11.8,1.4
			c-4.3,1-8.8,1.2-13.1,2.7c-1.3,0.4-2.2,0-2.5-1.5c-0.5-2.6-1.1-5.1-1.8-7.6C206.8,70.3,207.6,69.6,208.9,69.3 M275,59.4
			c5.5,0.1,11,0.2,16.4,0.6c5.4,0.4,10.8,0.7,16.1,1.7c9.1,1.7,18.1,3.6,26.8,6.9c2.6,1,5.1,2,7.6,3.1c0.5,0.2,1.2,1.3,1.1,1.8
			c-1,3.6-2.2,7-3.4,10.7c-6.3-2.4-12.2-4.8-18.3-6.9c-6.5-2.3-13.3-3-20-3.2c-8.8-0.3-17.5-0.1-26.3-0.2c-0.5,0-0.9,0-1.6-0.1
			c-0.3-3.3-0.5-6.5-0.8-9.8c0-0.5-0.1-1-0.1-1.5C272.2,60.5,272.9,59.4,275,59.4 M282.9,105.3c2.7-9.2,3.2-18.6,3-28.1
			c0-0.7,1-2.1,1.5-2.1c7.6,0.2,15.3,0.3,22.9,1c6.7,0.6,12.9,3,19.1,5.7c3,1.3,6.1,2.5,9.5,3.9c-4,10.2-9.5,19.1-15.2,28
			c-6.1-1.2-12.3-2.6-18.5-3.6c-5.5-0.9-11.2-1.4-16.8-2c-1.4-0.2-2.7-0.4-4.1-0.5C282.9,107.5,282.5,106.6,282.9,105.3
			 M245.9,101.8c1.1-4.3,2-8.8,2.6-13.2c0.4-3.2,0.2-6.5,0.1-9.8c0-1.2,0.2-1.8,1.5-1.8c6.3-0.4,12.5-0.8,18.8-1.2
			c3.8-0.2,7.6-0.3,11.4-0.4c1.5,0,2.9,0.2,4.5,0.4c-0.2,3.7-0.4,7.1-0.6,10.6c-0.1,2.1-0.1,4.2-0.4,6.2c-0.7,4.4-1.5,8.9-2.4,13.3
			c-0.1,0.6-1,1.6-1.5,1.6c-11.7,0-23.4,1-35,2.4c-0.5,0.1-1,0-1.7,0C244.1,106.9,245.3,104.4,245.9,101.8 M238.8,110.1
			c-4.9,0.6-9.8,1.3-14.4,2.7c-3.7,1.1-7.8,0.8-11.4,3.4c0.1-11.6-0.6-22.6-3.6-33.4c12.5-2.9,24.8-5.3,38.2-5.3
			c-0.6,6-0.9,11.6-1.8,17c-0.7,4.2-2.2,8.3-3.4,12.5C241.9,108.9,241,109.8,238.8,110.1 M159.7,175.6c-4.6-3.1-9.5-5.4-15-6.4
			c-0.3-0.1-0.6-0.2-0.6-0.3c4.4-5.1,9-10,13-15.3c3.2-4.3,5.6-9.2,8.3-13.9c0.9-1.6,1.8-2.7,3.8-3.4c4.6-1.4,9-3.4,14.1-5.4
			c4.4,13.1,6.9,26.3,5.6,40.3c-3.6,0.9-7.3,1.9-11.1,2.6c-5.3,0.9-10.6,1.5-15.9,2.2C161.2,176.1,160.3,176,159.7,175.6
			 M143.8,170.6c0.5,0,1-0.2,1.4-0.1c4.8,1.5,9.6,2.9,13.6,6.2c0.6,0.5,1.1,1.2,1.2,1.9c0.4,3.6,0.7,7.3,1,10.9
			c0.3,3.3,0.5,6.6,0.7,9.9c-9.1-1.9-17.4-6.9-27.2-7.8C141.1,186,146.2,179.9,143.8,170.6 M138.8,166.7c2.8,0.7,4.1,3.7,4.2,7.4
			c0.1,6.6-3.1,11.2-8,15.1c-2,1.6-4.1,3-6.1,4.5c-0.2-0.1-0.4-0.1-0.7-0.1c0.3-9.5-0.2-19.1,1.6-28.8
			C132.9,165.4,135.9,166,138.8,166.7 M166,135.9c-4.3,7.5-7.9,15.1-13.8,21.3c-2.9,3-5.6,6.2-8.3,9.3c-0.8,0.9-1.3,1.2-2.4,0.4
			c-2.8-1.9-6.1-2.7-9.4-3.1c-0.7-0.1-1.4-0.3-2.3-0.5c3.7-14,10.5-26.3,19.5-38C155,128.9,160.4,132.4,166,135.9 M164.3,108.6
			c12.3-12.1,26.6-20.8,43.9-25.1c0.7,4.4,1.6,8.6,2.1,12.8c0.6,5.4,0.8,10.8,1.1,16.2c0.1,1.1,0,2.2-0.2,3.3
			c-0.1,0.4-0.7,0.9-1.1,1.1c-4.9,2.1-9.8,4-14.6,6.1c-4.1,1.8-8,3.9-12.2,6C178.4,120.9,172.4,114,164.3,108.6 M182.3,130
			c-4.5,1.8-8.8,3.6-13.3,5.2c-0.7,0.3-1.8,0.3-2.4-0.1c-5.3-3.5-10.6-7.1-16.2-10.8c4.1-4.7,8.4-9.5,12.7-14.4
			C171.2,114.7,171.2,114.7,182.3,130 M190.5,156.2c-0.5-5.6-1.7-11.2-2.7-16.8c-0.3-1.8-0.9-3.5-1.4-5.3c-0.1-0.5-0.4-1.1-0.8-1.5
			c-1.4-1.8-1.3-2.6,0.8-3.6c3.1-1.5,6.3-2.9,9.4-4.3c3.7-1.7,7.4-3.6,11.2-5c4.9-1.8,9.9-3.3,14.9-4.8c3.4-1,7-1.6,10.5-2.3
			c2.7-0.5,5.5-0.8,8.4-1.2c-1.1,2.9-2.1,5.7-3.2,8.3c-2.4,5.6-3.6,11.5-4.7,17.5c-0.9,4.5-1.8,9.1-2.6,13.6
			c-0.4,2.3-0.7,4.6-1.2,6.9c-0.1,0.6-0.8,1.4-1.3,1.4c-7.6,0.7-14.8,3.2-21.9,5.7c-4.7,1.7-9.4,3.4-14.2,5.1
			c-0.4,0.1-0.7,0.1-1.2,0.2C190.6,165.6,190.9,160.8,190.5,156.2 M376,143c-0.3,0.4-0.9,0.7-1.4,0.8c-1.1,0.3-2.3,0.5-3.4,0.7
			c-11.9-15.1-28.2-23.7-45.9-30.3c2.9-4.7,5.8-9.1,8.4-13.7c2.5-4.6,4.5-9.4,6.8-14.2c9.4,4.9,17.5,11.7,25.2,18.8
			c7.6,7,14.9,14.5,22.2,21.6c-0.4,0.4-1,1-1.5,1.7C382.9,133.3,379.5,138.2,376,143 M371.6,146.5c3.2-1.9,6.2-1.4,9.3-0.1
			c4.4,1.8,8.8,3.5,13.2,5.3c1.9,0.8,3.9,1.4,5.8,2.2c0.4,0.2,0.8,0.7,0.9,1.1c0.9,4.5,1.7,8.9,2.4,13.4c1.3,8.5,2,17,1.7,25.6
			c-0.4,10.9-2.1,21.7-5.5,32.1c-2.1,6.4-4.6,12.7-7,19c-0.3,0.9-0.6,1.7-0.9,2.6c-0.4,1-1,1.9-2.3,1.2c-4-2.4-7.9-4.8-11.9-7.2
			c1.4-3.7,2.9-7.4,4.1-11.1c2.9-8.3,3.1-16.8,0-25c-2.4-6.4-5.7-12.4-11.9-16c-1.8-1-3.6-1.9-5.6-2.9
			C371.3,174.3,373.9,160.8,371.6,146.5 M401.2,119.9c-4.4,2-8.6,3.9-12.7,5.8c-14.7-15-29-30.3-47.5-40.8c1.2-3.9,2.4-7.9,3.6-12
			C367,84.2,385.3,100.3,401.2,119.9 M287.2,275.3c-0.1-0.1,0.2-0.4,0.4-0.7c0-0.7-0.1-1.4-0.1-2.5c0.8,0.5,1.1,0.8,1.5,1
			c-0.2-0.9-0.6-1.8-0.6-2.6c0.1-0.9,0.4-1.9,0.9-2.7c0.4-0.8,1-0.9,1.5-0.6c-0.5-0.9,0.6-2.1-0.3-3.1c0.8,0,1.2,0.1,1.5,0.1
			c-0.1-0.9-0.3-1.8-0.4-2.8c0.5,0.2,0.8,0.3,1.1,0.4c0-0.1,0.1-0.1,0.1-0.2c-0.4-0.4-0.8-0.7-1.1-1c1.5-2.7-0.3-4.6-1.5-6.5
			c1-0.2,1.7-0.3,2.4-0.4c0.1-0.1,0.2-0.2,0.3-0.2c1.5,1.1,3.1,2.3,4.6,3.5c0.3,0.2,0.6,0.8,0.6,1c-0.7,2.3,0.9,5.1-1.8,6.9
			c-0.3,0.2,0.4,1.2-0.1,2.1c-0.6,1.1-1.4,1.5-2.3,1.9l0,0c-0.5,1-1,2-1.4,3c-0.1,0.3,0.4,0.9,0.7,1.3c-0.8,0.9-1.6,1.7-2.5,2.6
			c0.3,1.3-0.6,1.3-1.5,1.4c-0.1,0.5-0.2,1-0.5,2c-0.8-1.1-1.2-1.7-1.6-2.3c0-0.1,0.1-0.1,0.2-0.2c0.3,0.2,0.6,0.4,0.9,0.6
			c0.1-0.1,0.2-0.1,0.3-0.2C288,276.5,287.6,275.9,287.2,275.3 M127,345.5c0,0.2,0.1,0.4,0.1,0.6c-1.4,0.2-2.8,0.5-4.1,0.7
			c-1.5,0.3-3,0.5-4.4,0.8c-1.5,0.3-3,0.7-4.5,1.1c-0.1-0.2-0.1-0.4-0.2-0.7C118.3,347.1,122.7,346.3,127,345.5 M124.2,357.6
			c0,0.2,0,0.4,0,0.6c-1.9,0.2-3.7,0.4-5.6,0.6c0-0.2,0-0.4-0.1-0.5C120.4,358.1,122.3,357.9,124.2,357.6 M125.3,358.9
			c0,0.2,0,0.4,0,0.6c-2.3,0.1-4.6,0.3-6.9,0.4c0-0.2,0-0.4,0-0.5C120.7,359.2,123,359.1,125.3,358.9 M118.6,362.4
			c0-0.2,0-0.5-0.1-0.7h5.4c0,0.1,0,0.2,0,0.3C122.1,362.1,120.3,362.2,118.6,362.4 M421.4,165.7c-1-4.4-2.3-8.7-3.6-13
			c-0.4-1.3-1.4-2.3-2.2-3.6c0,0,0.3-0.2,0.7-0.4c0-0.1,0-0.3-0.1-0.4c-3.1-8.4-6.8-16.5-10.9-24.4c-2.6-5-5.8-9.7-9.6-13.8
			c-9-9.4-18.3-18.5-28.9-26.2c-7.9-5.7-16.1-10.6-25-14.6c-11.2-5.1-23.2-7.2-35.1-9.5c-3.8-0.8-7.7-1-11.6-1.4
			c-14.8-1.6-29.5-1-44.2,1.1c-10.4,1.5-20.9,3.3-31.2,5.5c-8.1,1.7-16.1,3.8-24.1,6.3c-10.3,3.2-20.1,7.7-29.2,13.6
			c-5,3.2-9.8,6.6-13.9,11c-2.8,3.1-5.4,6.3-7.9,9.7c-3.6,4.7-7.1,9.5-10.4,14.4c-2.2,3.2-3.8,6.8-5.9,10.1
			c-4.8,7.3-8,15.4-10.4,23.7c-1.1,3.8-2,7.6-2.8,11.4c-1.1,5-2.3,9.9-3,14.9c-0.6,4.3-0.8,8.7-0.9,13c-0.1,8.1,0.3,16.2,1.6,24.2
			c0.3,1.7,0.4,3.4,0.3,5.2c-0.1,2,0.1,4.3-0.7,6c-1.5,3.4-3.5,6.5-5.4,9.6c-2.5,4.1-5.2,8.2-7.7,12.3c-4.8,7.9-9.6,15.8-14.2,23.8
			c-2.8,5-5.2,10.2-7.6,15.4c-1.8,3.7-3.1,7.4-0.7,11.6c1.9,3.5,4.7,5.3,8.3,5.9c3.9,0.7,7.9,0.8,11.9,1.4c3.4,0.5,6.8,1.5,7.8,5.2
			c1.1,3.9,0.9,8-0.2,12c-1.1,4.1-0.8,7.9,2.5,11c1.4,1.3,2.9,2.5,4,3.4c-1.2,1.4-2.6,2.8-3.6,4.3c-1.2,1.8-0.6,4.4,1.1,5.8
			c1.3,1.1,2.8,2,3.7,3.4c3.6,5.2,3.9,10.7,1.4,16.5c-1.1,2.4-1.8,5-2.2,7.6c-1,5.5,0,11,1.9,16.1c1,2.7,2.6,5.3,4.5,7.5
			c3.3,3.7,8,5.6,12.6,6.8c7.3,1.9,14.8,3.1,22.3,4.4c6,1,12.1,1.6,17.8,4.1c5.6,2.4,10.7,5.7,13.9,11.1c2.3,4,3.5,8.5,3.8,13.3
			c0.9,0.1,1.8,0.3,2.5,0.4c0.1-1.3,0.1-2.5,0.2-3.7l0.6-0.1c-0.4-0.2-0.9-0.4-1.6-0.7c3.5-0.3,3.5-0.3,3.7-1.9h-4v-1.8
			c0.8-0.1,1.5-0.2,2.2-0.3c0-0.1,0-0.2,0-0.4l-2.8-0.1c0-0.2,0-0.1-0.1-0.3c0.5-0.2,1-0.4,1.8-0.7c-1.1-0.1-1.7-0.2-2.4-0.3
			c0-0.2,0-0.1-0.1-0.3c0.6-0.2,1.2-0.5,2-0.9c-1-0.1-1.6-0.2-2.2-0.3c0-0.3,0-0.2,0-0.5h3.4c-0.6-0.4-1.1-0.3-1.6-0.3
			c-0.6,0-1.1-0.2-1.6-0.4c0-0.1,0-0.1,0-0.2c0.8-0.1,1.5-0.2,2.3-0.4c0-0.4,0-0.2-0.1-0.6h-3.8c0-0.1,0-0.3,0-0.4
			c0.9-0.1,1.8-0.2,2.7-0.4c0-0.3,0-0.2,0-0.5c-1.1-0.1-2.3-0.1-3.5-0.2c0-0.1,0-0.2,0-0.4c1.9-0.1,3.8-0.2,5.7-0.2l0-0.6h-5.3
			c0-0.2,0-0.1,0-0.4l4.3-0.4c0-0.3,0-0.2,0-0.5h-6.6c0-0.2,0-0.5,0-0.7h8.8l0-0.8h-9.4c0-0.2,0-0.5,0-0.7h7.9c0-0.2,0-0.3,0-0.5
			c-1.6,0-3.2,0-4.8,0c-1.6,0-3.2-0.2-4.8-0.3c0-0.2,0-0.5,0-0.7h9.3c0-0.3,0-0.5,0-0.8H180v-0.7h12.7l0-0.6h-7.5h-7.3
			c0-0.1,0-0.1,0-0.2c1.4-0.2,2.7-0.4,4.1-0.6c0.1-0.1,0.1-0.1,0.2-0.2c-0.8-0.3-1.5-0.5-2.4-0.8c1.4-0.1,2.8-0.2,4.1-0.3
			c0-0.1,0-0.3-0.1-0.4h-6.4c0-0.2,0-0.4,0-0.7h5.4c-0.5-0.3-1-0.7-1.5-0.8c-1.5-0.1-3.1,0-4.6,0c0-0.1,0-0.3,0-0.4
			c1.6-0.1,3.2-0.2,4.8-0.3c0-0.4,0-0.2,0-0.6h-12.1c0-0.1,0-0.3,0-0.4c2.8-0.1,5.6-0.3,8.3-0.4c0-0.1,0-0.3,0-0.4h-12.3v-0.6h7.4
			l0-0.6H155c0-0.2,0-0.4,0-0.6h16.6c0-0.2,0-0.4,0-0.5H147c0-0.1,0-0.2,0-0.3c0.8-0.1,1.7-0.3,2.5-0.4c0-0.4,0-0.2-0.1-0.6
			c-5.8,0.3-11.5,0.3-17-1.9l0.1,0c-2.2-0.7-4.4-1.4-6.6-2.1c0-0.2,0-0.1,0.1-0.3c1.4,0.1,2.7,0.3,4.1,0.4c0-0.2,0-0.3,0.1-0.5
			c-0.7-0.1-1.5-0.4-2.2-0.4c-4.1-0.4-7.5-2.2-10.1-5.3c-3.4-4.1-3.5-9.3-4.2-14.2c-0.2-1.3,0.8-2.8,1.3-4.1c0.3-1,0.7-1.8,2-2
			c0.7-0.1,1.4-0.4,2.6-0.8c-0.9-0.5-1.5-0.8-2.1-1.2c0.6-0.3,1.1-0.5,2-0.9c-0.9-0.2-1.3-0.3-1.6-0.3c1-0.7,2.1-1.5,3.5-2.4h-1.6
			c0-0.1,0-0.2,0-0.3c0.6-0.2,1.2-0.3,2.1-0.6c-0.7-0.1-1.1-0.2-1.4-0.3c0-0.2,0-0.1,0-0.3l1.8-0.2c0-0.2,0-0.1,0-0.3
			c-0.4-0.1-0.7-0.2-1.3-0.4c0.5-0.3,0.8-0.5,1.2-0.8c-0.4-0.1-0.8-0.2-1-0.3c0-0.1,0-0.2,0.1-0.3c1-0.1,2.1-0.1,3.3-0.2
			c-0.6-0.3-1-0.5-1.2-0.6c0.6-0.7,1.1-1.3,1.9-2.3c-1.9,0.1-3.1,0.2-4.3,0.2c0.1-0.3,0.2-0.6,0.2-1c-1-0.1-1.8-0.1-2.9-0.2
			c0.3-0.3,0.3-0.4,0.3-0.4c0.3,0,0.7,0,0.9-0.1c2.6-0.8,6.3,1.1,7.3-3.2c-0.5-0.8-1.1-1.5-1.9-2.6c-1.7,0.1-4,0.3-6.2,0.5
			c0-0.2,0-0.3,0-0.5c1.9-0.2,3.7-0.4,5.6-0.6c0-0.1,0-0.3-0.1-0.4h-2.8c0-0.1,0-0.1,0-0.2c0.6-0.2,1.1-0.4,2.2-0.7
			c-0.9-0.5-1.4-0.9-2-1c-0.6-0.1-1.2,0-1.9,0c0,0,0-0.1,0-0.2c0.7-0.1,1.5-0.3,2.2-0.4c-0.3-1-0.6-1.9-0.9-2.5c1.8-1,3.8-1.9,5.7-3
			c1.6-1,3-2.6,5.3-2c-1.5-0.9-3.1-1.6-4.6-1.9c-1.6-0.3-3.2-0.4-4.8-0.3c-1.6,0.1-3.1,0.4-4.7,0.7c1.9-0.8,3.7-1.3,5.7-1.6
			c1.9-0.3,3.9-0.4,5.8-0.4c2.5,0.1,5.1,0.9,7.6,0.6c2.4-0.3,4-0.2,5.4,2.1c2.4,4,6.4,6.2,10.3,8.5c1,0.6,2.3,1.5,4.2,0.1
			c-3.6-2.2-6.9-4.2-10.2-6.2c0.1-0.1,0.1-0.2,0.2-0.3c1.1,0.5,2.1,1,3.2,1.5c0.1-0.1,0.1-0.3,0.2-0.4c-0.9-0.5-2-0.9-2.7-1.7
			c-0.6-0.6-0.6-2.2-1.2-2.5c-1.3-0.6-0.9-1.8-1.4-2.6c-1.3-2.1-2-4.6-4.7-5.6c-1.3-0.4-1.8-0.3-2.1,1c-0.1,0.4-0.7,1.1-1.1,1.1
			c-2.3,0-4.8,0.1-7-0.5c-2.7-0.8-5.3-2.2-7.9-3.4c-4.1-1.8-8.4-2.2-12.8-2.4c-2.1-0.1-2.8-1.2-2-3.2c1.8-4.2,1.5-8.6,1.4-12.9
			c0-1.7,0.3-3,1.7-3.8c0.9-0.5,0.4-0.9,0.4-1.4c0.3-0.1,0.8-0.1,1-0.3c0.9-0.8,2.1-1,3.1-0.6c4.7,2,9.5-0.8,11.1-5.3
			c0.8-2.5,0.8-5.2,1.3-8.1c1.8,3.8,3.4,7.5,5.1,11.2c0.3,0.1,0.6,0.1,0.9,0.3c2.6,2.1,5.2,4.3,7.8,6.4c0.8,0.6,1.6,1.1,2.4,1.7
			c0.1-0.1,0.1-0.2,0.2-0.3c-3.5-2.9-7-5.7-10.5-8.6c0.1-0.2,0.3-0.3,0.4-0.5c2.8,2.2,5.7,4.3,8.5,6.5c0.1-0.1,0.2-0.2,0.3-0.4
			l-8.2-6.8c0.2-0.2,0.1-0.1,0.3-0.4c0.9,0.6,1.8,1.1,2.8,1.7c0.2-0.3,0.1-0.2,0.3-0.4c-1.4-1.1-2.8-2.2-4.2-3.3
			c0.1-0.2,0.1-0.1,0.2-0.3l3.8,2.2c0.1-0.2,0.1-0.1,0.2-0.3c-1.2-1-2.4-2.1-3.9-3.3c1.5,0.3,2.6,0.5,3.8,0.7
			c-1.1-1.5-2.4-2.4-3.2-4c-0.7-1.3-2.4-1.9-3.7-2.9c0.1-0.1,0.2-0.3,0.3-0.4c1.4,0.9,2.7,1.7,4.1,2.6c0.1-0.1,0.2-0.3,0.3-0.4
			c-2.1-1.5-4.3-3-6.4-4.5c0.1-0.1,0.1-0.2,0.2-0.3c1.3,0.7,2.6,1.4,3.8,2.1c0-0.5-0.1-0.8-0.3-1c-3.9-2.9-8.5-4-13.2-5.2
			c1.4,1.4,2.8,2.8,4.3,4.4c-0.6-0.1-1-0.1-1.7-0.2c1.2,0.7,2,1.2,3.1,1.8c-0.9,0.1-1.3,0.1-1.7,0.2c0.5,0.9,0.9,1.5,1.5,2.5
			l-1.9-0.6c-0.2,0.2-0.4,0.3-0.6,0.5c2.8,0.6,2.2,2.7,2.7,4.7c-1-0.7-1.8-1.2-2.5-1.8c-0.1,0.1-0.1,0.2-0.2,0.2
			c0.8,0.8,1.7,1.5,2.2,2c-0.5,0.8-0.8,1.5-1.2,2.1c-0.7-0.5-1.4-0.9-1.8-1.2c0.4,0.9,0.8,1.8,1.3,3.2c-2.4-1-4.2-1.7-5.9-2.4
			c0.5,0.9,1.3,1.4,1.9,2c0.5,0.5,0.7,1.1-0.4,0.9c-1.4,0.2-2.5-0.5-3.3-2.4c0.4,0.3,0.7,0.5,0.9,0.6c-0.5-1-0.8-2-1.5-2.8
			c-3.1-3.8-7.7-3.5-11.8-3.3c-4.1,0.2-8.1,1.8-12.2,2.1c-4.3,0.3-8.8,0.4-11.7-3.9c-0.4-0.7-0.8-1.6-0.7-2.4
			c0.8-5.6,3.6-10.5,6.3-15.2c4-6.9,8.1-13.8,12.3-20.6c3.3-5.5,6.7-10.9,10-16.3c2.2-3.7,4.2-7.5,6.2-11.3c0.6-1.1,1.2-1.4,2.3-0.9
			c2.1,0.9,4.2,1.8,6.3,2.6c2.3,0.8,4.7,1.4,7.1,2c0.6,0.1,1.3-0.1,1.7-0.1c-4.7-1.9-9.4-3.8-14.1-5.6c-1.6-0.6-2-1.7-1.9-3.2
			c0.1-1.6,0.1-3.3,0.1-4.9c0-2,0-3.9,0-6c3.5,3.4,7.5,4.1,11.7,2.6c2.1-0.7,3.7-0.1,4.3,1.3c1,2.2,2.9,1.4,4.3,1.9
			c0.8,0.2,1.7,0.1,2.5,0.2c-3.1,5.8-3.3,11.2,0.1,17c-1.9-0.3-3.7-0.6-5.4-0.9c-0.1,0.3,0,0.2-0.1,0.4l2.7,1
			c-0.1,0.3-0.1,0.2-0.1,0.6l-6.7-0.5c0,0.2,0,0.2-0.1,0.4c1.3,0.4,2.5,0.8,3.8,1.2c-0.1,0.4,0,0.3-0.1,0.6h-2.1
			c-0.1,0.2-0.1,0.2-0.1,0.5c1.2,0.6,2.4,1.1,3.4,1.6c0.1,2.2,1.4,4.2,2.9,5.5c2,1.8,4.8,1.7,7.4,1.1c-1.8-0.5-3.7-1-5.5-1.5
			c0-0.2,0-0.1,0-0.3l14.7-1.5c0-0.4,0-0.2,0-0.6l-4.4,0.2c0-0.2,0-0.4,0-0.6c1.6-0.1,3.2-0.1,4.8-0.2c1.6-0.1,3.1-0.4,4.7-0.6
			c0-0.1,0-0.2-0.1-0.4c-2.8,0.2-5.6,0.4-8.4,0.6c0-0.2,0-0.4,0-0.6c1.3-0.1,2.5-0.2,3.5-0.3c0.3-0.6,0.4-1.3,0.6-1.3
			c1.6,0,1.3-1.3,1.7-2.1c-0.3,0.2-0.7,0.3-1,0.5c-0.1-0.2-0.1-0.3-0.1-0.5c1.8-0.2,3.5-0.5,5.6-0.7c-0.5,0.3-0.7,0.4-0.9,0.6
			c0.1,0.3,0.1,0.2,0.1,0.5c1.7,0.1,3.4,0.2,5.1,0.3c0.1-0.2,0.1-0.2,0.1-0.4c-0.3-0.1-0.6-0.3-0.8-0.5c0-0.2,0-0.2,0.1-0.4
			c2.4-0.4,4.8-0.7,7.1-1.1c0,0.2,0.1,0.4,0.1,0.5c-1.1,0.2-2.1,0.3-3.4,0.5c0.4,0.2,0.5,0.3,0.6,0.3c0.3,0,0.5,0.1,0.8,0.1
			c3.1-0.2,6.1-0.9,9.3-0.1c3.8,1,6.7-1.7,9.7-3.6c-1.4,0.2-2.9,0.4-4.1,1.2c-2.2,1.4-4.2,0.3-6.3,0.1c0.2-0.1,0.5-0.2,0.7-0.3
			c-0.8-0.3-1.6-0.7-2.9-1.2c3.1-0.5,5.5,1.8,8.5,0.5c-6.2-1.2-12.1-1.9-17.7-4.5c0.6,0.1,1.2,0.2,1.7,0.2c0-0.1,0.1-0.2,0.1-0.3
			c-1.6-0.4-3.1-0.8-4.7-1.2c0-0.1,0.1-0.3,0.1-0.4c0.6,0.1,1.1,0.2,1.9,0.4c-0.4-0.4-0.6-0.7-1.2-1.3c2.3,0.5,4.1,0.9,5.9,1.4
			c0,0.2-0.1,0.3-0.1,0.5c-1.1-0.2-2.2-0.3-3.3-0.5c0.2,0.4,0.4,0.5,0.7,0.5c1.9,0.4,4,0.4,5.5,1.4c2.4,1.6,5,1.5,7.5,2.2
			c-0.3-0.2-0.7-0.5-1.3-0.9c1.7,0.1,3.1,0.2,4.5,0.4c2.9,0.4,2.9,0.4,3.3-0.2c-3.4-0.5-7-1.1-10.6-1.7c0-0.3,0-0.2,0-0.5
			c0.5-0.1,1-0.3,1.7-0.4c-0.7-0.3-1.3-0.6-2.3-1.1c0.8-0.1,1.2-0.1,1.6-0.1c-0.8-0.2-1.6-0.4-2.5-0.7c-0.2-0.1-0.4-0.3-0.6-0.4
			l0.6-0.7c-0.8-0.4-1.8-0.8-2.7-1.2c0.1-0.2,0.1-0.1,0.1-0.4c1.3,0.3,2.7,0.6,4,1c1.4,0.4,2.7,0.9,4.4,1.4
			c-0.8,0.2-1.3,0.2-1.7,0.3c0,0.3,0,0.2,0,0.5c3.5,0.3,7,0.6,10.5,0.9c-1.5-0.7-3.1-1.2-4.4-2.5c-2.6-2.5-5.5-4.7-8.4-7.1
			c0.9-2.1,1.8-4.5,2.9-7.2c0.2,0.9,0.3,1.4,0.3,1.6c0.7-0.7,1.4-1.4,2.2-2.2c0.4,0.5,0.7,1,1.1,1.5c0.3-0.4,0.3-0.8,0.1-1.1
			c-0.9-1.1-2-1.4-3.1-0.2c-0.3-0.5-0.5-0.8-0.8-1.3c-1.4,3.1-2.7,6-3.9,8.7c-1.9-1-3.9-1.7-5.4-2.9c-2.4-2-4.8-3.9-8.1-4.4
			c-0.2,0-0.4-0.2-0.5-0.3c0.8-3.6,1.5-7.1,2.4-10.6c0.1-0.4,1.2-0.9,1.7-0.8c2.8,1,5.6,2.2,8.3,3.3c3.1,1.2,5.8,2.7,5.1,7
			c0.3,0,0.6-0.1,0.8-0.1c0.3-1,0.6-1.9,1-3.2c1.7,0.3,3.4,0.5,5.1,0.9c5.8,1.4,11.4,3.5,16,7.4c0.4,0.3,0.8,0.8,0.9,1.2
			c0.2,2.9,0.4,5.9,0.6,8.8c0.1,0.6,0.3,1.3,0.4,1.9c0.3,0,0.6-0.1,0.8-0.1v-10.6c4.8,2.9,9.8,4.1,15,4c2.8,0,5.5-0.1,8.1,1.2
			c1.1,0.6,1.1,0.7,0.6,1.8c-1.8,3.9-2.6,7.9-1.5,12.1c1.1,4.1,3.2,7.6,5.8,11c1.1,1.4,2.1,3,3.6,4.1c6.6,4.9,13.8,8.6,22.4,8.5
			c4.9-0.1,9.8-0.1,14.1-3c0.5-0.3,1.4-0.4,1.8-0.2c3,2,5.8,4.2,7.6,7.3c0.6,1,0.8,2.3,1.1,3.5c-0.1,0.1-0.1,0-0.2,0.1
			c-1.1-1.5-2.2-2.9-3.4-4.4c-0.2,0.1-0.4,0.2-0.6,0.4c0.1,0.5,0.2,0.9,0.3,1.3c0.3,1.3,0.8,2.5,1,3.8c0.3,2.6,0.6,5.4-1.3,7.3
			c-2,2.1-4.4,3.8-6.9,5.3c-3.3,1.9-3.5,2.8-0.6,5c0,0,0,0.1,0,0.3c-0.9-0.3-1.8-0.6-2.7-1c0.8,2,8,2.9,11,1.3h-5.1
			c1.7-0.3,3.6-0.1,5.2-0.7c4.9-2,8.9-5.6,12.1-9.6c2.3-2.9,4.1-6.2,5.8-9.5c2.5-4.8,3.3-9.8,0.4-14.8c-1.2-2.1-3.9-3-6.2-2
			c-0.9,0.4-1.7,0.9-2.7,1.4c-0.8-1.4-1.6-2.8-2.7-4.7l0-0.1c-0.5-0.9-1-2-1.3-2.8c-0.3-0.6-0.5-1.3-0.5-2c-0.1-1.7-0.2-5.1,1.4-7.3
			c2.1-3.1,6.4-3.8,6.4-3.8c3.8-0.7,7-1.4,9.9,1.1c2.5,2.1,4.9,4.3,5.6,7.6v0c0,0,1.2,2.7,1.6,5.4s-0.5,16-1.4,17.1
			c0,0.6-1.1,1.1-1.4,1.8c-0.8,1.7-1.5,3.5-2.3,5.2c-2.3,5-5.2,9.6-9.6,13.1c-4.1,3.3-8.2,6.7-12.3,10c-0.8,0.7-1.5,1.5-2.3,2.2
			c0.1,0.2,0.3,0.5,0.4,0.7c0.9-0.4,1.8-0.6,2.6-1.1c4-2.8,7.8-5.7,11.8-8.4c4.2-2.9,8.4-6,10.5-10.8c3-6.6,5.9-13.3,6.5-20.6
			c0.4-4.1,0.1-8.4-0.5-12.5c-0.5-3.3-0.9-6.9-3.9-9.3c-1.2-0.9-2.3-2-3.5-2.8c-7.5-5.1-18.4-3.2-22.1,5.5
			c-1.9,4.4-1.7,8.4,0.5,12.6c1.5,2.9,2.8,6,3.9,9.1c0.8,2.2,0.3,4.6-0.4,6.9c-1.1-1.6-1.9-3.2-3-4.5c-1.4-1.6-3.2-2.8-4.7-4.4
			c-1.3-1.4-2.9-2.9-3.4-4.7c-1-3.3-1.6-6.8-1.7-10.2c-0.2-4.9,2.2-8.9,5.2-12.6c2.6-3.2,5.8-5.7,9.9-6.8c2-0.6,4.2-0.5,5.4-2.9
			c0.2,0.1,0.4,0.2,0.6,0.4c-0.2,0.8-0.3,1.5-0.4,2c0.9,0,1.9,0.2,2.8-0.1c0.7-0.2,1.3-0.9,2-1.4c-0.3-0.3-0.6-0.8-0.9-0.8
			c-2.2-0.2-4.5-0.3-6.8-0.4v2c-0.6-0.8-0.9-1.2-1.1-1.5c-4.9,0.8-9.1,2.8-12.9,6.1c-3.5-8.4-4.4-16.9-4-25.8
			c1.8-0.5,3.6-1.5,5.4-1.5c4.6,0,9.1,0.3,13.7,0.7c7.7,0.8,15.1,2.7,22.3,5.6c2,0.8,4,1.5,6.1,2.2c0-0.2,0.1-0.4,0.1-0.6
			c-15-7.4-30.7-10.9-48.1-8.6c0.3-3.4,0.4-7.1,1.1-10.7c1.5-7.4,3.3-14.8,4.9-22.2c0.3-1.4,1.2-1.4,2.2-1c6,2.1,12.1,3.9,17.9,6.2
			c6.1,2.4,12,5.3,18,8.1c7.4,3.5,14.8,7.1,22.1,10.9c3.6,1.9,6.9,4.2,10.2,6.2c-5.3,6.9-9.5,14.3-12.9,22.2
			c-4.4-3.7-8.6-7.4-14-9.6c0.2,0.5,0.5,0.9,0.9,1.2c3.8,2.9,7.6,5.8,11.5,8.6c1.1,0.8,1.2,1.8,0.9,2.9c-1.8,7.1-2.6,14.2-2.7,21.5
			c0,3,0,6,0,9.1c-2.7-0.3-5.2-0.5-7.8-0.9c-1.9-0.3-2.9-1.3-3.1-3.4c-0.2-2.4-0.5-4.9-1.2-7.1c-2.6-7.9-8.1-13.6-15.1-17.8
			c-1.9-1.1-3.8-1.8-6.3-0.4c0.6,0.4,1,0.8,1.5,1c0.6,0.2,1.3,0.3,1.9,0.5c6.9,1.9,10.8,7.3,13.8,13c3.9,7.4,3.9,15.5,1,23.3
			c-2,5.6-4.3,11.1-6.7,16.5c-2,4.5-3.7,9.2-7.5,12.7c-3.7,3.4-7.2,6.9-12.1,8.8c-3.5,1.4-6.9,3.4-9.1,6.6c-1.9,2.9-4.3,5-7.5,5.9
			c-2,0.6-4.4,0.7-6.5,0.3c-3.4-0.7-5-3.7-6.5-6.4c-1.1-1.9-1.6-4.2-2.5-6.3c-0.2-0.4-0.8-0.7-1.2-1c-0.2,0.4-0.7,0.8-0.7,1.2
			c0.2,2.9,0.4,5.7,0.6,8.5c0.1,0.8,0.5,1.6,0.7,2.4c0,0-0.3,0.1-0.7,0.2c3.4,2.4,5.8,5.8,9.7,7.4c-0.2-0.3-0.4-0.6-0.7-1.2
			c1.1,0.1,2,0.2,2.7,0.3c-0.6,0.6-1.1,1.1-2,2h3.1c0-0.1,0-0.2,0-0.3c-0.5-0.1-1-0.2-1.4-0.4c0-0.1,0-0.2,0-0.3h2.5
			c-0.1,0.4-0.2,0.7-0.3,1c3.4,0.6,6.9-1,10.1,1.1c-0.2-0.2-0.5-0.4-0.8-0.7c0.5-0.3,1-0.5,1.7-0.9c-1.8-0.1-3.1-0.2-4.5-0.3l0-0.1
			c0.8-0.1,1.6-0.2,2.4-0.2c0-0.2,0-0.2,0-0.5c-0.5-0.1-1-0.3-2-0.6c2.4-0.2,4.4-0.4,6.3-0.5c0-0.2,0-0.1,0-0.4
			c-1.1-0.1-2.2-0.2-3.3-0.2c0-0.4,0-0.2,0-0.6h5.5c0-0.1,0-0.3,0-0.4c-1.1-0.1-2.3-0.1-3.4-0.2c0-0.1,0-0.2,0-0.4
			c1.3-0.1,2.5-0.1,3.8-0.2c0-0.2,0-0.3,0-0.5c-0.6,0-1.1-0.1-1.7-0.1c0.6-2.5,2.9-1.2,4.6-2.1c-1-0.1-1.6-0.2-2.2-0.3
			c0-0.1,0-0.2,0-0.4h2.1c0.3-1.1,0.5-2.1,0.9-3.1c0.4-0.9,0.9-1.7,1.4-2.5c0.1,0,0.1,0,0.2,0.1c-0.1,0.6-0.2,1.2-0.4,2.2
			c1.1-0.5,2.3,0.5,3-1c0.2-0.4,1.9-0.1,2.9-0.1c0,0,0-0.1,0-0.1c-0.9-0.2-1.9-0.4-2.8-0.7c0-0.2,0-0.1,0-0.3h3.2c0-0.1,0-0.2,0-0.2
			c-0.9-0.2-1.8-0.4-2.8-0.5c0-0.2,0-0.1,0-0.3h4.8c0-0.2,0-0.3,0-0.5h-4.6c0-0.2,0-0.3,0-0.5h4.8c0-0.1,0-0.3,0-0.5
			c-1.1-0.1-2.2-0.2-3.3-0.3c0-0.1,0-0.2,0-0.3h3.7c0-0.1,0-0.3,0-0.4c-1.9-0.2-3.8-0.4-5.7-0.5c0-0.1,0-0.1,0-0.2h5.6
			c0-0.1,0-0.1,0-0.2c-0.8-0.1-1.5-0.2-2.8-0.4c1.1-0.3,1.6-0.4,2.4-0.7c-0.6-0.3-0.9-0.4-1-0.4c1.9-0.8,3.9-1.7,5.9-2.5
			c-0.5-0.1-1-0.2-1.5-0.4c0-0.2,0-0.2,0-0.4c0.9,0,1.7-0.1,2.5-0.2c0-0.1,0-0.2,0-0.4c-0.5-0.1-1.1-0.2-1.6-0.2c0-0.1,0-0.2,0-0.3
			c1.2-0.1,2.4-0.2,3.5-0.4c0-0.1,0-0.2,0-0.2c-1.2-0.1-2.3-0.1-3.5-0.2c0-0.1,0-0.2,0-0.4h5.6c0-0.1,0-0.2,0-0.4
			c-1.5-0.1-3.1-0.3-4.6-0.4c0-0.1,0-0.2,0-0.3h4.9c0-0.1,0-0.3,0-0.4h-4.1c0-0.2,0-0.4,0-0.5h4.2c0-0.1,0-0.3,0-0.5
			c-1.2-0.1-2.5-0.2-3.7-0.3c0-0.2,0-0.3,0-0.5h6.4c0-0.2,0-0.4,0-0.5h-5.1c2.1-0.4,4.1-0.4,6.2-0.3c2.8,0.1,5.8,1,8.5,0.5
			c5.2-0.9,10.2-3,14.7-5.8c3.5-2.2,6.9-4.7,10.2-6.9c2.2,1.2,4.4,2.3,6.5,3.5c5.5,3.2,11.3,4.5,17.6,3.4c0.6-0.1,1.8,0.5,2.1,1.1
			c1.7,3.2,3.1,6.6,4.8,9.9c2.1,4,2.2,4.1-1.1,6.9c-4.9,4.2-10,8.2-15.9,10.9c-8.7,4.1-18,5.3-27.5,5.4c-4.5,0-9-0.9-13.4-1.4
			c-0.6-0.1-1.3,0.2-1.9,0.3c0,0.2,0.1,0.5,0.1,0.8c10.8,3.7,21.8,2.7,33.3,0.9c-1.5,1.3-2.8,2.1-3.6,3.3c-2.4,3.6-4.8,7.2-6.7,11
			c-3.5,6.8-5.8,14.1-6.7,21.8c-0.9,7.5-0.5,15,0.8,22.4c1.5,8.5,2.6,17.2,4.8,25.6c1.8,6.8,4.9,13.2,7.4,19.7
			c1.7,4.4,3.6,8.6,5.4,13c0.8,1.9,1.9,1.5,3.3,0.8c-0.5-1.1-1.1-2.1-1.5-3.1c-1.4-3.8-2.7-7.7-4.1-11.5c-0.6-1.6-1.4-3.2-2.1-4.8
			c-0.9-2.2-2-4.5-2.7-6.8c-0.9-3.2-1.4-6.5-2.4-9.7c-1.1-3.5-2.5-6.9-2.7-10.7c-0.2-2.4-1-4.8-1.5-7.2c-0.5-2.9-0.8-5.8-1.2-8.7
			c-0.2-1.5-0.6-3-0.6-4.4c-0.1-5-0.2-10,0.1-15c0.2-3.5,1-7.1,1.9-10.6c1.9-7.3,6.1-13.5,10.6-19.4c2.2-2.9,4.8-5.6,8.2-7.4
			c4.2-2.2,8.2-4.6,12.1-7.4c3.7-2.7,7.1-5.7,10.4-8.9c4.6-4.4,9-9,13.3-13.6c1.6-1.7,2.9-3.8,4.1-5.8c4-6.6,8.4-12.9,10.8-20.4
			c1.8-5.6,4-11,5.8-16.6c3.2-9.8,5.5-19.7,6.9-29.9c0.8-5.5,1.6-11,1.6-16.4C424.1,186.1,423.7,175.8,421.4,165.7 M107,307.9
			c1.2,0.7,2.3,1.6,3.5,2.4c-0.7-0.3-1.4-0.6-2.1-0.9c0,0.1-0.1,0.1-0.1,0.2c0.5,0.4,1,0.9,1.4,1.3c-0.1,0.1-0.1,0.2-0.2,0.3
			c-1.2-0.6-2.4-1.3-3.9-2.1c0.7-0.1,1.1-0.2,1.8-0.3c-1.6-0.8-2.8-1.4-4.1-2C104.4,306.5,104.5,306.4,107,307.9 M119.2,334.4
			c0,0.1,0,0.2,0,0.3c-1.3,0.1-2.6,0.3-4.1,0.5c-0.8-0.2-1.8-0.5-2.9-0.7L119.2,334.4L119.2,334.4z M122.1,345.2
			c0,0.2,0,0.3,0.1,0.5c-2.7,0.6-5.4,1.1-8.1,1.7c0-0.1-0.1-0.3-0.1-0.4C116.7,346.4,119.4,345.8,122.1,345.2"/>
	</g>
	<g class="st1">
		<defs>
			<rect id="SVGID_00000122715424441241390320000009859770323823432360_" x="13.8" y="13.6" width="471.8" height="471.8"/>
		</defs>
		<clipPath id="SVGID_00000125562488430031542410000001929964373325670304_">
			<use xlink:href="#SVGID_00000122715424441241390320000009859770323823432360_"  style="overflow:visible;"/>
		</clipPath>
		
			<path style="clip-path:url(#SVGID_00000125562488430031542410000001929964373325670304_);fill:none;stroke:#1D1D1B;stroke-miterlimit:10;" d="
			M421.7,203.8c-0.3,1.9-0.4,3.8-0.8,5.6c-0.1,0.4-0.7,1.1-1,1.1c-5-0.5-10-1-15-1.6c0,0-0.1-0.1-0.2-0.2c3-18.1,1-36.1-3-54.1
			c3.9-0.7,7.5-1.3,11-1.9c0.1-0.2,0.1-0.4,0.2-0.6c-0.5-0.2-1.1-0.6-1.6-0.5c-2.9,0.4-5.8,1-8.7,1.5c-1.9,0.3-3.6-0.1-5.2-1.3
			c-0.9-0.7-2.1-0.9-3.2-1.3c-5.6-2.2-11.1-4.4-16.9-6.7c0.9-1.3,1.9-2.7,2.9-4.1c2.2-3.2,4.6-6.4,6.6-9.7c1.1-1.8,2.5-2.8,4.2-3.6
			c3-1.5,6.1-3,9.1-4.5c1-0.5,1.8-0.5,2.4,0.7c1.9,3.7,4.2,7.1,5.9,10.9c1.8,3.9,3,8,4.5,12c0.7,1.8,1.4,3.5,2.2,5.3
			c-0.5,0.4-1,0.8-1.6,1.1c0,0.2,0.1,0.3,0.1,0.5c0.6,0,1.3,0.1,2.2,0.1c1.2,4.8,2.5,9.7,3.8,14.6c1.9,6.9,2,13.9,2.3,20.9
			C422.4,193.2,422.7,198.5,421.7,203.8z M414.2,239.6c-2.7,7.9-5.3,15.8-8.5,23.5c-1.8,4.3-4.5,8.2-6.8,12.3
			c-1.6,2.8-3.4,5-7.2,4.7c-2.4-0.2-4.9,0.4-7.4,0.5c-2.8,0.2-5.7,0.3-8.9,0.4c2.1-4.1,4-7.9,6-11.7c3.3-6.2,6.9-12.3,10-18.6
			c2.5-5,4.7-10.2,6.5-15.6c2.7-8,4.9-16.1,7.5-24.7c4.4,0.4,9.2,0.9,14,1.4c0.4,0.1,1.1,1,1,1.4C419,222.2,417.2,231.1,414.2,239.6
			z M389.8,286.2c-1.5,0.2-2.4,0.3-3.5,0.4c1,0.3,1.8,0.6,2.8,0.9c-1,0.7-1.8,1.2-2.5,1.9c-0.2,0.2,0,0.9,0,1.6
			c-1.6-0.3-3.3-0.6-4.9-0.9c0,0.1,0,0.1-0.1,0.2c1.1,0.3,2.2,0.7,3.5,1.1c-2.9,0.9-4.5-1.1-6.7-2.4c1,0.1,1.8,0.2,2.7,0.3
			c-1.4-0.6-2.6-1.2-3.8-1.8c0.1-0.2,0.2-0.4,0.2-0.6c0.9,0.1,1.7,0.3,2.6,0.4l0-0.3c-0.9-0.2-1.8-0.4-3.1-0.7
			c0.8-0.2,1.2-0.3,1.6-0.4c-0.6-0.2-1.3-0.4-2.2-0.7c0.6-0.2,1-0.3,1.3-0.4c-0.4-0.1-0.9-0.3-1.4-0.5c0-0.1,0.1-0.3,0.1-0.4
			c2,0.4,4,0.8,6,1.1c0.1-0.1,0.2-0.3,0.3-0.4c-0.5-0.5-1-1-1.8-1.7c1.6,0.3,3.1,0.6,5.1,1c-0.6-0.4-0.8-0.6-1-0.7
			c2.9-1,4.1-0.7,6.1,1.2c-0.5,0.1-1,0.3-1.5,0.4c-0.5,0.1-1,0.1-1.9,0.1C388.4,285.4,388.8,285.6,389.8,286.2z M371.8,281
			c-3.3-0.3-6.6-0.9-9.9-0.8c-4,0.1-6.5-2.7-9.6-4.2c-2.7-1.3-5.2-3.1-8-4.9c2.6-1.4,4.9-2.6,7.2-3.9c5.9-3.5,10.9-8,15.5-13.1
			c2.6-2.9,5.1-5.9,7.6-8.9c0.5-0.5,0.7-1.3,1.1-1.8c0.3-0.3,1.1-0.6,1.4-0.5c3.8,2.1,7.6,4.3,11.3,6.5c1.1,0.6,1.3,1.2,0.6,2.5
			c-3.8,6.9-7.4,13.8-11.1,20.8c-1.1,2.1-2.4,4.2-3.2,6.4C374.1,280.8,373.2,281.1,371.8,281z M339,279.8
			c-6.4,4.2-13.1,7.5-20.9,7.4c-1.8,0-4.3,0.4-5.7-1.8c-0.1-0.2-0.7,0-1.1,0c-0.6,0-1.2,0-1.8,0c0-0.2,0-0.4,0-0.6h4.5
			c0-0.2,0-0.3,0-0.5c-1-0.1-2-0.2-3.1-0.4c0-0.1,0-0.2-0.1-0.3c0.7-0.1,1.4-0.2,2.1-0.3c0-0.1,0-0.2,0-0.3l-2.2-0.2
			c0-0.1,0-0.2,0-0.2c0.8,0,1.6-0.1,2.5-0.1c-0.2-0.3-0.3-0.5-0.5-0.8c0.6-0.1,1.2-0.1,1.7-0.2c0-0.1,0-0.2,0-0.3
			c-0.9-0.1-1.8-0.2-2.8-0.2c0-0.1,0-0.2,0-0.3c0.6-0.1,1.2-0.1,2.2-0.3c-0.8-0.3-1.2-0.5-1.7-0.7c0-0.1,0.1-0.3,0.1-0.4
			c0.9,0.3,1.8,0.5,2.7,0.8V278c0.6,0.3,1.1,0.5,1.5,0.7c0.1-0.1,0.2-0.2,0.2-0.3c-0.9-0.6-1.8-1.2-2.8-1.9c0.6-0.1,1.1-0.1,2.2-0.2
			c-1-0.3-1.5-0.4-2.4-0.7c1-0.2,1.7-0.4,2.5-0.5c-0.6-0.1-1-0.2-1.5-0.3c-0.5-0.7,2.5-0.3,0.4-1.2c0.8-0.5,1.5-0.9,2.3-1.3
			c-0.5-0.1-1-0.3-2-0.5c0.8-0.2,1.2-0.4,2.1-0.6c-0.7-0.1-0.9-0.2-1.4-0.3c0.9-0.3,1.6-0.5,2.4-0.7c0-0.1,0-0.2,0-0.2
			c-0.6,0-1.3-0.1-1.9-0.1c0-0.1,0-0.1,0-0.2c0.6-0.1,1.1-0.2,1.7-0.4c0-0.1,0-0.1,0-0.2c-0.4,0-0.9-0.1-1.3-0.1
			c0-0.1,0-0.2-0.1-0.4c0.7-0.1,1.4-0.2,2-0.4c0-0.1,0-0.1,0-0.2c-0.7,0-1.3-0.1-2-0.1c0-0.1,0-0.2,0-0.3c0.6-0.1,1.3-0.2,2.1-0.3
			c-0.6-0.1-1-0.2-1.8-0.4c0.8-0.3,1.3-0.5,1.9-0.7c-0.3-0.2-0.6-0.4-0.9-0.6c0.4-0.5,0.9-1,1.3-1.6c0,0-0.7-0.5-0.6-0.6
			c0.2-0.5,0.7-0.8,1.1-1.3c0,0-0.2-0.1-0.3-0.2c0.5-0.6,1.3-1.1,1.5-1.8c0.4-1.8,0.5-3.7,0.7-5.6c0.1-0.9,0-1.9,0-3
			c3.2,0.5,6.4,0.9,9.5,1.4c0.3,0.1,0.7,0.9,0.8,1.4c0.8,3,1.1,6.2,2.5,8.9c1.4,2.7,3.7,5.1,5.9,7.3c1.8,1.7,4.2,2.8,6.2,4.1
			C344.3,276.2,341.7,278,339,279.8z M335,226c1-7.7,4.7-14.2,8.4-20.9c3.2-5.7,7.3-10.4,12.7-14.3c5.4-3.9,10.4-2.5,14.7,1.1
			c4.9,4.1,7.5,9.4,9.4,15.3c2.9,9,2.2,17.9-1.5,26.5c-1.4,3.3-2.9,6.8-4.9,9.8c-2.5,3.6-5.5,6.9-8.6,10.1c-3.1,3.2-6.3,6.4-9.9,9
			c-3.7,2.7-7.8,4.8-11.7,7.1c-0.2,0.1-0.8,0.1-1-0.1c-4.1-2.5-7-6-8-10.9c-0.7-3.6-1.3-7.3-2-11.2C333.5,240.5,334.1,233.2,335,226
			z M348.1,193.9c-8.1-5.6-17-9.9-25.9-14.2c-7-3.3-13.9-6.8-21-9.7c-6.8-2.8-13.7-5-20.7-7.2c-1.7-0.5-2.3-1.1-2-2.8
			c1.2-5.2,2.2-10.5,3.6-15.6c2.4-8.9,5.7-17.5,9.6-25.8c1.1-2.3,2.3-4.6,3.3-6.9c0.6-1.4,1.6-1.3,2.7-1.1c6.7,1.3,13.5,2.6,20.2,4
			c8.2,1.7,15.9,5,23.4,8.6c7.2,3.5,13.7,7.9,19.8,13.1c2.9,2.4,5.3,5.5,7.5,8.6c2.2,3,2,6.8,2.2,10.7c0,5.2-0.6,10.8-2.4,16.1
			c-1.3,4-3.1,7.9-4.1,11.9c-0.7,2.6-2.2,3.4-4.5,3.9c-3.9,0.9-6.4,3.8-9.2,6.2C349.7,194.3,349.2,194.6,348.1,193.9z M276.6,161.8
			c-7.3-1.8-14.8-3.3-22.5-3.6c-7.7-0.3-15.4-0.4-23.2,0.9c0.3-2.5,0.5-4.8,0.9-7c1.5-8,2.9-16.1,4.8-24c1-4.2,3.1-8.2,4.7-12.2
			c0.2-0.5,0.5-0.9,0.6-1.4c0.7-3.1,0.7-3,3.8-3.2c8.4-0.6,16.8-1.7,25.2-1.9c7.4-0.2,14.9,0.5,22.3,0.8c0.2,0,0.5,0.2,0.9,0.3
			C285.4,126.6,279.3,143.5,276.6,161.8z M276.4,165.7c-1.3,5.1-2.5,10.2-3.6,15.4c-0.8,3.8-2,7.7-2,11.6
			c-0.1,8.6-0.7,17.2,1.6,25.7c0.8,2.9,2,5.7,3.1,8.8c-6.6-5.3-13.9-8.5-21.9-9.9c-7.9-1.4-15.8-1.1-22.8,3.8
			c-0.4,0.3-0.9,0.6-1.2,1c-0.4,0.4-0.6,0.8-1,1.3c-1.5-0.8-2.9-1.5-4.6-2.4c3.3-19.8,1.2-40.3,6.3-60.4c6.6-0.2,13.2-0.5,19.8-0.7
			c8.2-0.2,16.3,1.4,24.3,2.9C276.1,163.1,276.8,163.8,276.4,165.7z M269.9,239.8c0-0.2,0-0.4-0.1-0.6c-0.8,3.9-1.1,7.9-0.2,11.9
			c0.4,1.9,1.5,3.6,2.3,5.5c-7,4.4-14.2,3.7-21.4,2c-4.7-1.1-9.3-2.9-13.2-6.1c-1.4-1.2-2.8-2.6-3.9-4.1c-2.9-3.8-6.1-7.7-6.4-12.7
			c-0.5-8,2.1-13.7,10.1-15.9c7.9-2.2,15.8-1.8,23.5,1.2c3.6,1.4,7.1,3.2,10.6,5c1.1,0.6,2,1.5,2.9,2.1
			C272.8,231.7,271.4,235.8,269.9,239.8z M221.3,221.1c-5.9,0.3-11.5-0.5-16.7-3.6c-4.1-2.4-8.4-4.6-12.5-7c-0.6-0.4-1-1.4-1.1-2.2
			c-0.2-5.9-0.5-11.7-0.5-17.6c-0.1-4.8,0-9.5,0.2-14.3c0-0.9-0.7-1.5-0.3-2.6c0.5-1.4,1.2-2.1,2.4-2.5c9.2-3.3,18.2-7.1,27.9-9.1
			c2.5-0.5,5-1.1,7.8-1.7c-3.1,12.2-3.3,24.2-3.9,36.1c-0.4,7.8-1.1,15.6-1.8,23.4C222.7,220.4,221.9,221.1,221.3,221.1z
			 M189.3,209.8c-0.3-0.1-1.1-0.3-1.9-0.4c-2.8-0.4-5.7-0.9-8.5-1.3c-0.2,0-0.3-0.2-0.4-0.3c-2.9-3.2-6.9-4.3-10.8-5.7
			c-1.5-0.5-3-0.9-4.5-1.4c-0.4-5.4-0.7-10.8-1.1-16.2c-0.1-1.8-0.2-3.6-0.4-5.5c-0.1-1,0.1-1.5,1.3-1.6c8.7-0.7,17.2-2.4,25.6-4.8
			c0.1,0,0.1,0,0.7,0.2V209.8z M159,213c-4.8-1-9.4-1.9-14.1-2.9c0.3-2.2,0.7-4.5,1.1-7c1.2,0.8,1.4,3.1,3.4,1.7
			c-2.1-0.2-2.2-0.6-1.1-4c-0.7,0.6-1.1,1-1.9,1.7v-3.2c0.2-0.1,0.6-0.2,0.6-0.3c0.2-2.7,1.8-2.1,3.5-1.6c3.6,1.2,7.4,2.3,11.1,3.4
			C162.4,205.4,160.3,209.3,159,213z M165.2,228.1c-1.6-0.3-3.1-0.6-4.6-0.8c0.6,0.7,1.2,1.4,1.8,2.1c-0.1,0.2-0.2,0.4-0.3,0.5
			c-3.3-1.7-6.6-3.4-9.9-5.1c0-0.2,0.1-0.5,0.1-0.8c2.1,0.3,4.9-0.1,6.1,1.1C160.5,227.1,163.1,226.6,165.2,228.1z M164.5,235.1
			c-7.1,3.1-14.4,2.6-21.8,2.7c3-4.2,2.9-8.9,2.8-13.4C151.7,227.8,158,231.4,164.5,235.1z M147.6,243.3c-0.1-0.4-0.1-0.9-0.2-1.6
			c1.7-0.2,3.3-0.4,5.2-0.6C150.8,241.9,149.2,242.6,147.6,243.3z M142.8,243.1c1.9-1.1,3.2-3.1,6-1.8c-1.1,0.1-1.8,0.1-2.4,0.2
			C147.1,243.3,146.9,243.4,142.8,243.1z M142.7,245.5c-0.3,0-0.5-0.8-0.8-1.4c-0.4,0.1-1.1,0.2-1.8,0.3c2.4-1.6,4.8-0.2,7.3-0.1
			C146.1,245.9,144.3,245.5,142.7,245.5z M142.6,246.6c-0.9,0.1-1.8,0.2-2.6,0.2c-1,0-2.1,0-3.1-0.3c-0.6-0.2-1.2-0.9-1.5-1.5
			c-0.4-0.8-0.5-1.6-0.9-2.9c1,0.3,1.7,0.3,2,0.7c1.5,2.1,3.2,3.7,6.2,3.3C142.6,246.3,142.6,246.5,142.6,246.6z M144,229
			c-0.7,0-1.3-0.1-2.4-0.2c-0.2-1-0.3-2.1-0.5-3.2C143.4,225.5,143.8,226.1,144,229z M158.9,222.9c-0.1,0.3-0.1,0.5-0.2,0.8
			c-2.2-0.6-4.4-1.3-6.6-1.9c-0.1,0.2-0.1,0.4-0.2,0.5c1.5,0.4,3,0.9,4.5,1.3c-0.1,0.2-0.1,0.4-0.1,0.6c-3.1-0.8-6.3-1.7-9.4-2.5
			c0-0.1,0.1-0.3,0.1-0.4c1,0.1,1.9,0.3,2.9,0.4c0.1-0.1,0.2-0.3,0.2-0.4c-0.6-0.5-1.1-1-1.7-1.5c0-0.1,0.1-0.2,0.1-0.4
			c-0.4,0-0.8-0.1-1.2-0.1c0.3,0.7,0.4,1.1,0.8,1.9c-2.2-1-4.1-1.8-6-2.7c0-0.1,0.1-0.2,0.1-0.3c3,0.3,6,0.6,9.1,0.9
			c0,0.2,0,0.4-0.1,0.6c-0.8-0.1-1.6-0.2-2.6-0.3C152.2,220.6,155.6,221.7,158.9,222.9z M134.8,208.4c0.9,0.7,1.4,1.2,1.9,1.6
			c-0.2,0.3-0.3,0.5-0.7,1.2c-1.7-0.7-3.8-1.5-6.1-2.3c0.2,0.4,0.4,0.8,0.6,1.2c-0.2,0.1-0.3,0.2-0.5,0.3c-0.5-0.8-1-1.6-1.5-2.4
			c0.2-0.2,0.3-0.3,0.5-0.5c0.9,0.5,1.9,0.9,2.8,1.4c0-0.2,0.1-0.4,0.1-0.5c-2.9-1.6-3.2-4.3-3.1-7.2c0.1-1-0.1-2.1-0.1-3.1
			c-0.2-3,2.5-5.6,5.5-5.1c3.3,0.5,6.6,1,9.8,1.7c1,0.2,2,0.8,2.7,1.1c-0.1,1.4-0.2,2.4-0.4,3.5c0,0,0,0,0,0c-0.4,0.6-0.9,1.2-1,1.8
			c-0.5,2.6-0.9,5.1-1.4,7.7c-0.1,0.6-0.4,1.2-0.5,1.7C140.6,209.9,138,209.2,134.8,208.4z M126.7,213.4v3.3c-2.7-0.2-5.4,0-7.9-0.6
			c-4.3-1-5.6-6.3-2.5-10.4c2.8-3.8,6.4-6.7,10.8-9.4c-0.2,4.6,0.9,8.8,0.5,13c-0.2,0-0.4,0-0.6,0c0.4,0.4,0.9,0.7,1.3,1.1
			c-0.1,0.1-0.1,0.2-0.2,0.3c-0.5-0.2-1-0.4-1.6-0.6c-0.1,2.2,1.7,2.7,2.9,4C128.6,213.9,127.7,213.7,126.7,213.4z M113.6,207
			c-0.2,0-0.4,0.1-0.6,0.1c0-3.4,0-6.7,0-10.1c0-3.5,0-7.1,0-10.6c0-1.2,0.4-1.7,1.8-1.5c3.5,0.4,7.1,0.7,10.6,1.1
			c1.4,0.1,1.9,0.8,1.7,2.2c-0.1,1.6-0.2,3.1,0,4.7c0.2,2.2-1.6,3.2-2.8,4.3c-1.9,1.7-4.4,2.9-6.3,4.6
			C116.3,203.3,115,205.3,113.6,207z M114.5,175.6c0.6-3.6,1.4-7.1,2.1-10.7c0.2-1.1,0.7-1.8,1.9-1.7c3,0.4,5.9,0.7,8.9,1.3
			c0.4,0.1,0.7,1.4,0.7,2.1c-0.2,3.9-0.6,7.7-0.8,11.5c-0.1,2.3,0,4.7,0,6.9c-4.7-0.4-9.1-0.9-13.8-1.3
			C113.8,181,114,178.2,114.5,175.6z M136.9,118.9c3.8,2,7.4,3.9,11.3,6c-9.1,11.4-16.1,23.8-19.6,38.3c-3.5-0.6-7.1-1.1-10.7-1.7
			C121.1,145.8,128.2,132.1,136.9,118.9z M152.8,98c3.3,3.8,6.3,7.3,9.5,11c-3.9,4.4-7.8,8.7-11.7,13c-1.9,2.1-1.9,2.1-4.3,0.6
			c-2.9-1.7-5.8-3.3-8.9-5.2C142.5,110.9,147.6,104.5,152.8,98z M155.4,95.9c4.7-4.6,9.7-8.8,15.6-11.9c3.5-1.8,6.8-4.1,10.4-5.8
			c3.3-1.6,6.9-2.8,10.4-4c4.2-1.5,8.6-2.8,13.2-4.2c1,4.1,2,8,2.9,11.9c-8.4,2.8-16.6,5.5-24.1,9.9c-7.6,4.5-14.7,9.8-20.8,16.5
			c-2.8-3.7-5.3-7-7.8-10.2C154.6,97.2,154.6,96.7,155.4,95.9z M208.9,69.3c11.7-2.9,23.4-5.9,35.5-7.2c8.4-0.9,16.7-1.7,25.1-2.5
			c0.4,0,0.9,0,1.5,0c0.3,4.9,0.6,9.5,0.9,14.3c-2.6,0.2-5.5,0.4-8.5,0.7c-9,0.8-18,1.5-26.9,2.3c-4,0.4-8,0.5-11.8,1.4
			c-4.3,1-8.8,1.2-13.1,2.7c-1.3,0.4-2.2,0-2.5-1.5c-0.5-2.6-1.1-5.1-1.8-7.6C206.8,70.3,207.6,69.6,208.9,69.3z M275,59.4
			c5.5,0.1,11,0.2,16.4,0.6c5.4,0.4,10.8,0.7,16.1,1.7c9.1,1.7,18.1,3.6,26.8,6.9c2.6,1,5.1,2,7.6,3.1c0.5,0.2,1.2,1.3,1.1,1.8
			c-1,3.6-2.2,7-3.4,10.7c-6.3-2.4-12.2-4.8-18.3-6.9c-6.5-2.3-13.3-3-20-3.2c-8.8-0.3-17.5-0.1-26.3-0.2c-0.5,0-0.9,0-1.6-0.1
			c-0.3-3.3-0.5-6.5-0.8-9.8c0-0.5-0.1-1-0.1-1.5C272.2,60.5,272.9,59.4,275,59.4z M282.9,105.3c2.7-9.2,3.2-18.6,3-28.1
			c0-0.7,1-2.1,1.5-2.1c7.6,0.2,15.3,0.3,22.9,1c6.7,0.6,12.9,3,19.1,5.7c3,1.3,6.1,2.5,9.5,3.9c-4,10.2-9.5,19.1-15.2,28
			c-6.1-1.2-12.3-2.6-18.5-3.6c-5.5-0.9-11.2-1.4-16.8-2c-1.4-0.2-2.7-0.4-4.1-0.5C282.9,107.5,282.5,106.6,282.9,105.3z
			 M245.9,101.8c1.1-4.3,2-8.8,2.6-13.2c0.4-3.2,0.2-6.5,0.1-9.8c0-1.2,0.2-1.8,1.5-1.8c6.3-0.4,12.5-0.8,18.8-1.2
			c3.8-0.2,7.6-0.3,11.4-0.4c1.5,0,2.9,0.2,4.5,0.4c-0.2,3.7-0.4,7.1-0.6,10.6c-0.1,2.1-0.1,4.2-0.4,6.2c-0.7,4.4-1.5,8.9-2.4,13.3
			c-0.1,0.6-1,1.6-1.5,1.6c-11.7,0-23.4,1-35,2.4c-0.5,0.1-1,0-1.7,0C244.1,106.9,245.3,104.4,245.9,101.8z M238.8,110.1
			c-4.9,0.6-9.8,1.3-14.4,2.7c-3.7,1.1-7.8,0.8-11.4,3.4c0.1-11.6-0.6-22.6-3.6-33.4c12.5-2.9,24.8-5.3,38.2-5.3
			c-0.6,6-0.9,11.6-1.8,17c-0.7,4.2-2.2,8.3-3.4,12.5C241.9,108.9,241,109.8,238.8,110.1z M159.7,175.6c-4.6-3.1-9.5-5.4-15-6.4
			c-0.3-0.1-0.6-0.2-0.6-0.3c4.4-5.1,9-10,13-15.3c3.2-4.3,5.6-9.2,8.3-13.9c0.9-1.6,1.8-2.7,3.8-3.4c4.6-1.4,9-3.4,14.1-5.4
			c4.4,13.1,6.9,26.3,5.6,40.3c-3.6,0.9-7.3,1.9-11.1,2.6c-5.3,0.9-10.6,1.5-15.9,2.2C161.2,176.1,160.3,176,159.7,175.6z
			 M143.8,170.6c0.5,0,1-0.2,1.4-0.1c4.8,1.5,9.6,2.9,13.6,6.2c0.6,0.5,1.1,1.2,1.2,1.9c0.4,3.6,0.7,7.3,1,10.9
			c0.3,3.3,0.5,6.6,0.7,9.9c-9.1-1.9-17.4-6.9-27.2-7.8C141.1,186,146.2,179.9,143.8,170.6z M138.8,166.7c2.8,0.7,4.1,3.7,4.2,7.4
			c0.1,6.6-3.1,11.2-8,15.1c-2,1.6-4.1,3-6.1,4.5c-0.2-0.1-0.4-0.1-0.7-0.1c0.3-9.5-0.2-19.1,1.6-28.8
			C132.9,165.4,135.9,166,138.8,166.7z M166,135.9c-4.3,7.5-7.9,15.1-13.8,21.3c-2.9,3-5.6,6.2-8.3,9.3c-0.8,0.9-1.3,1.2-2.4,0.4
			c-2.8-1.9-6.1-2.7-9.4-3.1c-0.7-0.1-1.4-0.3-2.3-0.5c3.7-14,10.5-26.3,19.5-38C155,128.9,160.4,132.4,166,135.9z M164.3,108.6
			c12.3-12.1,26.6-20.8,43.9-25.1c0.7,4.4,1.6,8.6,2.1,12.8c0.6,5.4,0.8,10.8,1.1,16.2c0.1,1.1,0,2.2-0.2,3.3
			c-0.1,0.4-0.7,0.9-1.1,1.1c-4.9,2.1-9.8,4-14.6,6.1c-4.1,1.8-8,3.9-12.2,6C178.4,120.9,172.4,114,164.3,108.6z M182.3,130
			c-4.5,1.8-8.8,3.6-13.3,5.2c-0.7,0.3-1.8,0.3-2.4-0.1c-5.3-3.5-10.6-7.1-16.2-10.8c4.1-4.7,8.4-9.5,12.7-14.4
			C171.2,114.7,171.2,114.7,182.3,130z M190.5,156.2c-0.5-5.6-1.7-11.2-2.7-16.8c-0.3-1.8-0.9-3.5-1.4-5.3c-0.1-0.5-0.4-1.1-0.8-1.5
			c-1.4-1.8-1.3-2.6,0.8-3.6c3.1-1.5,6.3-2.9,9.4-4.3c3.7-1.7,7.4-3.6,11.2-5c4.9-1.8,9.9-3.3,14.9-4.8c3.4-1,7-1.6,10.5-2.3
			c2.7-0.5,5.5-0.8,8.4-1.2c-1.1,2.9-2.1,5.7-3.2,8.3c-2.4,5.6-3.6,11.5-4.7,17.5c-0.9,4.5-1.8,9.1-2.6,13.6
			c-0.4,2.3-0.7,4.6-1.2,6.9c-0.1,0.6-0.8,1.4-1.3,1.4c-7.6,0.7-14.8,3.2-21.9,5.7c-4.7,1.7-9.4,3.4-14.2,5.1
			c-0.4,0.1-0.7,0.1-1.2,0.2C190.6,165.6,190.9,160.8,190.5,156.2z M376,143c-0.3,0.4-0.9,0.7-1.4,0.8c-1.1,0.3-2.3,0.5-3.4,0.7
			c-11.9-15.1-28.2-23.7-45.9-30.3c2.9-4.7,5.8-9.1,8.4-13.7c2.5-4.6,4.5-9.4,6.8-14.2c9.4,4.9,17.5,11.7,25.2,18.8
			c7.6,7,14.9,14.5,22.2,21.6c-0.4,0.4-1,1-1.5,1.7C382.9,133.3,379.5,138.2,376,143z M371.6,146.5c3.2-1.9,6.2-1.4,9.3-0.1
			c4.4,1.8,8.8,3.5,13.2,5.3c1.9,0.8,3.9,1.4,5.8,2.2c0.4,0.2,0.8,0.7,0.9,1.1c0.9,4.5,1.7,8.9,2.4,13.4c1.3,8.5,2,17,1.7,25.6
			c-0.4,10.9-2.1,21.7-5.5,32.1c-2.1,6.4-4.6,12.7-7,19c-0.3,0.9-0.6,1.7-0.9,2.6c-0.4,1-1,1.9-2.3,1.2c-4-2.4-7.9-4.8-11.9-7.2
			c1.4-3.7,2.9-7.4,4.1-11.1c2.9-8.3,3.1-16.8,0-25c-2.4-6.4-5.7-12.4-11.9-16c-1.8-1-3.6-1.9-5.6-2.9
			C371.3,174.3,373.9,160.8,371.6,146.5z M401.2,119.9c-4.4,2-8.6,3.9-12.7,5.8c-14.7-15-29-30.3-47.5-40.8c1.2-3.9,2.4-7.9,3.6-12
			C367,84.2,385.3,100.3,401.2,119.9z M287.2,275.3c-0.1-0.1,0.2-0.4,0.4-0.7c0-0.7-0.1-1.4-0.1-2.5c0.8,0.5,1.1,0.8,1.5,1
			c-0.2-0.9-0.6-1.8-0.6-2.6c0.1-0.9,0.4-1.9,0.9-2.7c0.4-0.8,1-0.9,1.5-0.6c-0.5-0.9,0.6-2.1-0.3-3.1c0.8,0,1.2,0.1,1.5,0.1
			c-0.1-0.9-0.3-1.8-0.4-2.8c0.5,0.2,0.8,0.3,1.1,0.4c0-0.1,0.1-0.1,0.1-0.2c-0.4-0.4-0.8-0.7-1.1-1c1.5-2.7-0.3-4.6-1.5-6.5
			c1-0.2,1.7-0.3,2.4-0.4c0.1-0.1,0.2-0.2,0.3-0.2c1.5,1.1,3.1,2.3,4.6,3.5c0.3,0.2,0.6,0.8,0.6,1c-0.7,2.3,0.9,5.1-1.8,6.9
			c-0.3,0.2,0.4,1.2-0.1,2.1c-0.6,1.1-1.4,1.5-2.3,1.9l0,0c-0.5,1-1,2-1.4,3c-0.1,0.3,0.4,0.9,0.7,1.3c-0.8,0.9-1.6,1.7-2.5,2.6
			c0.3,1.3-0.6,1.3-1.5,1.4c-0.1,0.5-0.2,1-0.5,2c-0.8-1.1-1.2-1.7-1.6-2.3c0-0.1,0.1-0.1,0.2-0.2c0.3,0.2,0.6,0.4,0.9,0.6
			c0.1-0.1,0.2-0.1,0.3-0.2C288,276.5,287.6,275.9,287.2,275.3z M127,345.5c0,0.2,0.1,0.4,0.1,0.6c-1.4,0.2-2.8,0.5-4.1,0.7
			c-1.5,0.3-3,0.5-4.4,0.8c-1.5,0.3-3,0.7-4.5,1.1c-0.1-0.2-0.1-0.4-0.2-0.7C118.3,347.1,122.7,346.3,127,345.5z M124.2,357.6
			c0,0.2,0,0.4,0,0.6c-1.9,0.2-3.7,0.4-5.6,0.6c0-0.2,0-0.4-0.1-0.5C120.4,358.1,122.3,357.9,124.2,357.6z M125.3,358.9
			c0,0.2,0,0.4,0,0.6c-2.3,0.1-4.6,0.3-6.9,0.4c0-0.2,0-0.4,0-0.5C120.7,359.2,123,359.1,125.3,358.9z M118.6,362.4
			c0-0.2,0-0.5-0.1-0.7h5.4c0,0.1,0,0.2,0,0.3C122.1,362.1,120.3,362.2,118.6,362.4z M421.4,165.7c-1-4.4-2.3-8.7-3.6-13
			c-0.4-1.3-1.4-2.3-2.2-3.6c0,0,0.3-0.2,0.7-0.4c0-0.1,0-0.3-0.1-0.4c-3.1-8.4-6.8-16.5-10.9-24.4c-2.6-5-5.8-9.7-9.6-13.8
			c-9-9.4-18.3-18.5-28.9-26.2c-7.9-5.7-16.1-10.6-25-14.6c-11.2-5.1-23.2-7.2-35.1-9.5c-3.8-0.8-7.7-1-11.6-1.4
			c-14.8-1.6-29.5-1-44.2,1.1c-10.4,1.5-20.9,3.3-31.2,5.5c-8.1,1.7-16.1,3.8-24.1,6.3c-10.3,3.2-20.1,7.7-29.2,13.6
			c-5,3.2-9.8,6.6-13.9,11c-2.8,3.1-5.4,6.3-7.9,9.7c-3.6,4.7-7.1,9.5-10.4,14.4c-2.2,3.2-3.8,6.8-5.9,10.1
			c-4.8,7.3-8,15.4-10.4,23.7c-1.1,3.8-2,7.6-2.8,11.4c-1.1,5-2.3,9.9-3,14.9c-0.6,4.3-0.8,8.7-0.9,13c-0.1,8.1,0.3,16.2,1.6,24.2
			c0.3,1.7,0.4,3.4,0.3,5.2c-0.1,2,0.1,4.3-0.7,6c-1.5,3.4-3.5,6.5-5.4,9.6c-2.5,4.1-5.2,8.2-7.7,12.3c-4.8,7.9-9.6,15.8-14.2,23.8
			c-2.8,5-5.2,10.2-7.6,15.4c-1.8,3.7-3.1,7.4-0.7,11.6c1.9,3.5,4.7,5.3,8.3,5.9c3.9,0.7,7.9,0.8,11.9,1.4c3.4,0.5,6.8,1.5,7.8,5.2
			c1.1,3.9,0.9,8-0.2,12c-1.1,4.1-0.8,7.9,2.5,11c1.4,1.3,2.9,2.5,4,3.4c-1.2,1.4-2.6,2.8-3.6,4.3c-1.2,1.8-0.6,4.4,1.1,5.8
			c1.3,1.1,2.8,2,3.7,3.4c3.6,5.2,3.9,10.7,1.4,16.5c-1.1,2.4-1.8,5-2.2,7.6c-1,5.5,0,11,1.9,16.1c1,2.7,2.6,5.3,4.5,7.5
			c3.3,3.7,8,5.6,12.6,6.8c7.3,1.9,14.8,3.1,22.3,4.4c6,1,12.1,1.6,17.8,4.1c5.6,2.4,10.7,5.7,13.9,11.1c2.3,4,3.5,8.5,3.8,13.3
			c0.9,0.1,1.8,0.3,2.5,0.4c0.1-1.3,0.1-2.5,0.2-3.7l0.6-0.1c-0.4-0.2-0.9-0.4-1.6-0.7c3.5-0.3,3.5-0.3,3.7-1.9h-4v-1.8
			c0.8-0.1,1.5-0.2,2.2-0.3c0-0.1,0-0.2,0-0.4l-2.8-0.1c0-0.2,0-0.1-0.1-0.3c0.5-0.2,1-0.4,1.8-0.7c-1.1-0.1-1.7-0.2-2.4-0.3
			c0-0.2,0-0.1-0.1-0.3c0.6-0.2,1.2-0.5,2-0.9c-1-0.1-1.6-0.2-2.2-0.3c0-0.3,0-0.2,0-0.5h3.4c-0.6-0.4-1.1-0.3-1.6-0.3
			c-0.6,0-1.1-0.2-1.6-0.4c0-0.1,0-0.1,0-0.2c0.8-0.1,1.5-0.2,2.3-0.4c0-0.4,0-0.2-0.1-0.6h-3.8c0-0.1,0-0.3,0-0.4
			c0.9-0.1,1.8-0.2,2.7-0.4c0-0.3,0-0.2,0-0.5c-1.1-0.1-2.3-0.1-3.5-0.2c0-0.1,0-0.2,0-0.4c1.9-0.1,3.8-0.2,5.7-0.2l0-0.6h-5.3
			c0-0.2,0-0.1,0-0.4l4.3-0.4c0-0.3,0-0.2,0-0.5h-6.6c0-0.2,0-0.5,0-0.7h8.8l0-0.8h-9.4c0-0.2,0-0.5,0-0.7h7.9c0-0.2,0-0.3,0-0.5
			c-1.6,0-3.2,0-4.8,0c-1.6,0-3.2-0.2-4.8-0.3c0-0.2,0-0.5,0-0.7h9.3c0-0.3,0-0.5,0-0.8H180v-0.7h12.7l0-0.6h-7.5h-7.3
			c0-0.1,0-0.1,0-0.2c1.4-0.2,2.7-0.4,4.1-0.6c0.1-0.1,0.1-0.1,0.2-0.2c-0.8-0.3-1.5-0.5-2.4-0.8c1.4-0.1,2.8-0.2,4.1-0.3
			c0-0.1,0-0.3-0.1-0.4h-6.4c0-0.2,0-0.4,0-0.7h5.4c-0.5-0.3-1-0.7-1.5-0.8c-1.5-0.1-3.1,0-4.6,0c0-0.1,0-0.3,0-0.4
			c1.6-0.1,3.2-0.2,4.8-0.3c0-0.4,0-0.2,0-0.6h-12.1c0-0.1,0-0.3,0-0.4c2.8-0.1,5.6-0.3,8.3-0.4c0-0.1,0-0.3,0-0.4h-12.3v-0.6h7.4
			l0-0.6H155c0-0.2,0-0.4,0-0.6h16.6c0-0.2,0-0.4,0-0.5H147c0-0.1,0-0.2,0-0.3c0.8-0.1,1.7-0.3,2.5-0.4c0-0.4,0-0.2-0.1-0.6
			c-5.8,0.3-11.5,0.3-17-1.9l0.1,0c-2.2-0.7-4.4-1.4-6.6-2.1c0-0.2,0-0.1,0.1-0.3c1.4,0.1,2.7,0.3,4.1,0.4c0-0.2,0-0.3,0.1-0.5
			c-0.7-0.1-1.5-0.4-2.2-0.4c-4.1-0.4-7.5-2.2-10.1-5.3c-3.4-4.1-3.5-9.3-4.2-14.2c-0.2-1.3,0.8-2.8,1.3-4.1c0.3-1,0.7-1.8,2-2
			c0.7-0.1,1.4-0.4,2.6-0.8c-0.9-0.5-1.5-0.8-2.1-1.2c0.6-0.3,1.1-0.5,2-0.9c-0.9-0.2-1.3-0.3-1.6-0.3c1-0.7,2.1-1.5,3.5-2.4h-1.6
			c0-0.1,0-0.2,0-0.3c0.6-0.2,1.2-0.3,2.1-0.6c-0.7-0.1-1.1-0.2-1.4-0.3c0-0.2,0-0.1,0-0.3l1.8-0.2c0-0.2,0-0.1,0-0.3
			c-0.4-0.1-0.7-0.2-1.3-0.4c0.5-0.3,0.8-0.5,1.2-0.8c-0.4-0.1-0.8-0.2-1-0.3c0-0.1,0-0.2,0.1-0.3c1-0.1,2.1-0.1,3.3-0.2
			c-0.6-0.3-1-0.5-1.2-0.6c0.6-0.7,1.1-1.3,1.9-2.3c-1.9,0.1-3.1,0.2-4.3,0.2c0.1-0.3,0.2-0.6,0.2-1c-1-0.1-1.8-0.1-2.9-0.2
			c0.3-0.3,0.3-0.4,0.3-0.4c0.3,0,0.7,0,0.9-0.1c2.6-0.8,6.3,1.1,7.3-3.2c-0.5-0.8-1.1-1.5-1.9-2.6c-1.7,0.1-4,0.3-6.2,0.5
			c0-0.2,0-0.3,0-0.5c1.9-0.2,3.7-0.4,5.6-0.6c0-0.1,0-0.3-0.1-0.4h-2.8c0-0.1,0-0.1,0-0.2c0.6-0.2,1.1-0.4,2.2-0.7
			c-0.9-0.5-1.4-0.9-2-1c-0.6-0.1-1.2,0-1.9,0c0,0,0-0.1,0-0.2c0.7-0.1,1.5-0.3,2.2-0.4c-0.3-1-0.6-1.9-0.9-2.5c1.8-1,3.8-1.9,5.7-3
			c1.6-1,3-2.6,5.3-2c-1.5-0.9-3.1-1.6-4.6-1.9c-1.6-0.3-3.2-0.4-4.8-0.3c-1.6,0.1-3.1,0.4-4.7,0.7c1.9-0.8,3.7-1.3,5.7-1.6
			c1.9-0.3,3.9-0.4,5.8-0.4c2.5,0.1,5.1,0.9,7.6,0.6c2.4-0.3,4-0.2,5.4,2.1c2.4,4,6.4,6.2,10.3,8.5c1,0.6,2.3,1.5,4.2,0.1
			c-3.6-2.2-6.9-4.2-10.2-6.2c0.1-0.1,0.1-0.2,0.2-0.3c1.1,0.5,2.1,1,3.2,1.5c0.1-0.1,0.1-0.3,0.2-0.4c-0.9-0.5-2-0.9-2.7-1.7
			c-0.6-0.6-0.6-2.2-1.2-2.5c-1.3-0.6-0.9-1.8-1.4-2.6c-1.3-2.1-2-4.6-4.7-5.6c-1.3-0.4-1.8-0.3-2.1,1c-0.1,0.4-0.7,1.1-1.1,1.1
			c-2.3,0-4.8,0.1-7-0.5c-2.7-0.8-5.3-2.2-7.9-3.4c-4.1-1.8-8.4-2.2-12.8-2.4c-2.1-0.1-2.8-1.2-2-3.2c1.8-4.2,1.5-8.6,1.4-12.9
			c0-1.7,0.3-3,1.7-3.8c0.9-0.5,0.4-0.9,0.4-1.4c0.3-0.1,0.8-0.1,1-0.3c0.9-0.8,2.1-1,3.1-0.6c4.7,2,9.5-0.8,11.1-5.3
			c0.8-2.5,0.8-5.2,1.3-8.1c1.8,3.8,3.4,7.5,5.1,11.2c0.3,0.1,0.6,0.1,0.9,0.3c2.6,2.1,5.2,4.3,7.8,6.4c0.8,0.6,1.6,1.1,2.4,1.7
			c0.1-0.1,0.1-0.2,0.2-0.3c-3.5-2.9-7-5.7-10.5-8.6c0.1-0.2,0.3-0.3,0.4-0.5c2.8,2.2,5.7,4.3,8.5,6.5c0.1-0.1,0.2-0.2,0.3-0.4
			l-8.2-6.8c0.2-0.2,0.1-0.1,0.3-0.4c0.9,0.6,1.8,1.1,2.8,1.7c0.2-0.3,0.1-0.2,0.3-0.4c-1.4-1.1-2.8-2.2-4.2-3.3
			c0.1-0.2,0.1-0.1,0.2-0.3l3.8,2.2c0.1-0.2,0.1-0.1,0.2-0.3c-1.2-1-2.4-2.1-3.9-3.3c1.5,0.3,2.6,0.5,3.8,0.7
			c-1.1-1.5-2.4-2.4-3.2-4c-0.7-1.3-2.4-1.9-3.7-2.9c0.1-0.1,0.2-0.3,0.3-0.4c1.4,0.9,2.7,1.7,4.1,2.6c0.1-0.1,0.2-0.3,0.3-0.4
			c-2.1-1.5-4.3-3-6.4-4.5c0.1-0.1,0.1-0.2,0.2-0.3c1.3,0.7,2.6,1.4,3.8,2.1c0-0.5-0.1-0.8-0.3-1c-3.9-2.9-8.5-4-13.2-5.2
			c1.4,1.4,2.8,2.8,4.3,4.4c-0.6-0.1-1-0.1-1.7-0.2c1.2,0.7,2,1.2,3.1,1.8c-0.9,0.1-1.3,0.1-1.7,0.2c0.5,0.9,0.9,1.5,1.5,2.5
			l-1.9-0.6c-0.2,0.2-0.4,0.3-0.6,0.5c2.8,0.6,2.2,2.7,2.7,4.7c-1-0.7-1.8-1.2-2.5-1.8c-0.1,0.1-0.1,0.2-0.2,0.2
			c0.8,0.8,1.7,1.5,2.2,2c-0.5,0.8-0.8,1.5-1.2,2.1c-0.7-0.5-1.4-0.9-1.8-1.2c0.4,0.9,0.8,1.8,1.3,3.2c-2.4-1-4.2-1.7-5.9-2.4
			c0.5,0.9,1.3,1.4,1.9,2c0.5,0.5,0.7,1.1-0.4,0.9c-1.4,0.2-2.5-0.5-3.3-2.4c0.4,0.3,0.7,0.5,0.9,0.6c-0.5-1-0.8-2-1.5-2.8
			c-3.1-3.8-7.7-3.5-11.8-3.3c-4.1,0.2-8.1,1.8-12.2,2.1c-4.3,0.3-8.8,0.4-11.7-3.9c-0.4-0.7-0.8-1.6-0.7-2.4
			c0.8-5.6,3.6-10.5,6.3-15.2c4-6.9,8.1-13.8,12.3-20.6c3.3-5.5,6.7-10.9,10-16.3c2.2-3.7,4.2-7.5,6.2-11.3c0.6-1.1,1.2-1.4,2.3-0.9
			c2.1,0.9,4.2,1.8,6.3,2.6c2.3,0.8,4.7,1.4,7.1,2c0.6,0.1,1.3-0.1,1.7-0.1c-4.7-1.9-9.4-3.8-14.1-5.6c-1.6-0.6-2-1.7-1.9-3.2
			c0.1-1.6,0.1-3.3,0.1-4.9c0-2,0-3.9,0-6c3.5,3.4,7.5,4.1,11.7,2.6c2.1-0.7,3.7-0.1,4.3,1.3c1,2.2,2.9,1.4,4.3,1.9
			c0.8,0.2,1.7,0.1,2.5,0.2c-3.1,5.8-3.3,11.2,0.1,17c-1.9-0.3-3.7-0.6-5.4-0.9c-0.1,0.3,0,0.2-0.1,0.4l2.7,1
			c-0.1,0.3-0.1,0.2-0.1,0.6l-6.7-0.5c0,0.2,0,0.2-0.1,0.4c1.3,0.4,2.5,0.8,3.8,1.2c-0.1,0.4,0,0.3-0.1,0.6h-2.1
			c-0.1,0.2-0.1,0.2-0.1,0.5c1.2,0.6,2.4,1.1,3.4,1.6c0.1,2.2,1.4,4.2,2.9,5.5c2,1.8,4.8,1.7,7.4,1.1c-1.8-0.5-3.7-1-5.5-1.5
			c0-0.2,0-0.1,0-0.3l14.7-1.5c0-0.4,0-0.2,0-0.6l-4.4,0.2c0-0.2,0-0.4,0-0.6c1.6-0.1,3.2-0.1,4.8-0.2c1.6-0.1,3.1-0.4,4.7-0.6
			c0-0.1,0-0.2-0.1-0.4c-2.8,0.2-5.6,0.4-8.4,0.6c0-0.2,0-0.4,0-0.6c1.3-0.1,2.5-0.2,3.5-0.3c0.3-0.6,0.4-1.3,0.6-1.3
			c1.6,0,1.3-1.3,1.7-2.1c-0.3,0.2-0.7,0.3-1,0.5c-0.1-0.2-0.1-0.3-0.1-0.5c1.8-0.2,3.5-0.5,5.6-0.7c-0.5,0.3-0.7,0.4-0.9,0.6
			c0.1,0.3,0.1,0.2,0.1,0.5c1.7,0.1,3.4,0.2,5.1,0.3c0.1-0.2,0.1-0.2,0.1-0.4c-0.3-0.1-0.6-0.3-0.8-0.5c0-0.2,0-0.2,0.1-0.4
			c2.4-0.4,4.8-0.7,7.1-1.1c0,0.2,0.1,0.4,0.1,0.5c-1.1,0.2-2.1,0.3-3.4,0.5c0.4,0.2,0.5,0.3,0.6,0.3c0.3,0,0.5,0.1,0.8,0.1
			c3.1-0.2,6.1-0.9,9.3-0.1c3.8,1,6.7-1.7,9.7-3.6c-1.4,0.2-2.9,0.4-4.1,1.2c-2.2,1.4-4.2,0.3-6.3,0.1c0.2-0.1,0.5-0.2,0.7-0.3
			c-0.8-0.3-1.6-0.7-2.9-1.2c3.1-0.5,5.5,1.8,8.5,0.5c-6.2-1.2-12.1-1.9-17.7-4.5c0.6,0.1,1.2,0.2,1.7,0.2c0-0.1,0.1-0.2,0.1-0.3
			c-1.6-0.4-3.1-0.8-4.7-1.2c0-0.1,0.1-0.3,0.1-0.4c0.6,0.1,1.1,0.2,1.9,0.4c-0.4-0.4-0.6-0.7-1.2-1.3c2.3,0.5,4.1,0.9,5.9,1.4
			c0,0.2-0.1,0.3-0.1,0.5c-1.1-0.2-2.2-0.3-3.3-0.5c0.2,0.4,0.4,0.5,0.7,0.5c1.9,0.4,4,0.4,5.5,1.4c2.4,1.6,5,1.5,7.5,2.2
			c-0.3-0.2-0.7-0.5-1.3-0.9c1.7,0.1,3.1,0.2,4.5,0.4c2.9,0.4,2.9,0.4,3.3-0.2c-3.4-0.5-7-1.1-10.6-1.7c0-0.3,0-0.2,0-0.5
			c0.5-0.1,1-0.3,1.7-0.4c-0.7-0.3-1.3-0.6-2.3-1.1c0.8-0.1,1.2-0.1,1.6-0.1c-0.8-0.2-1.6-0.4-2.5-0.7c-0.2-0.1-0.4-0.3-0.6-0.4
			l0.6-0.7c-0.8-0.4-1.8-0.8-2.7-1.2c0.1-0.2,0.1-0.1,0.1-0.4c1.3,0.3,2.7,0.6,4,1c1.4,0.4,2.7,0.9,4.4,1.4
			c-0.8,0.2-1.3,0.2-1.7,0.3c0,0.3,0,0.2,0,0.5c3.5,0.3,7,0.6,10.5,0.9c-1.5-0.7-3.1-1.2-4.4-2.5c-2.6-2.5-5.5-4.7-8.4-7.1
			c0.9-2.1,1.8-4.5,2.9-7.2c0.2,0.9,0.3,1.4,0.3,1.6c0.7-0.7,1.4-1.4,2.2-2.2c0.4,0.5,0.7,1,1.1,1.5c0.3-0.4,0.3-0.8,0.1-1.1
			c-0.9-1.1-2-1.4-3.1-0.2c-0.3-0.5-0.5-0.8-0.8-1.3c-1.4,3.1-2.7,6-3.9,8.7c-1.9-1-3.9-1.7-5.4-2.9c-2.4-2-4.8-3.9-8.1-4.4
			c-0.2,0-0.4-0.2-0.5-0.3c0.8-3.6,1.5-7.1,2.4-10.6c0.1-0.4,1.2-0.9,1.7-0.8c2.8,1,5.6,2.2,8.3,3.3c3.1,1.2,5.8,2.7,5.1,7
			c0.3,0,0.6-0.1,0.8-0.1c0.3-1,0.6-1.9,1-3.2c1.7,0.3,3.4,0.5,5.1,0.9c5.8,1.4,11.4,3.5,16,7.4c0.4,0.3,0.8,0.8,0.9,1.2
			c0.2,2.9,0.4,5.9,0.6,8.8c0.1,0.6,0.3,1.3,0.4,1.9c0.3,0,0.6-0.1,0.8-0.1v-10.6c4.8,2.9,9.8,4.1,15,4c2.8,0,5.5-0.1,8.1,1.2
			c1.1,0.6,1.1,0.7,0.6,1.8c-1.8,3.9-2.6,7.9-1.5,12.1c1.1,4.1,3.2,7.6,5.8,11c1.1,1.4,2.1,3,3.6,4.1c6.6,4.9,13.8,8.6,22.4,8.5
			c4.9-0.1,9.8-0.1,14.1-3c0.5-0.3,1.4-0.4,1.8-0.2c3,2,5.8,4.2,7.6,7.3c0.6,1,0.8,2.3,1.1,3.5c-0.1,0.1-0.1,0-0.2,0.1
			c-1.1-1.5-2.2-2.9-3.4-4.4c-0.2,0.1-0.4,0.2-0.6,0.4c0.1,0.5,0.2,0.9,0.3,1.3c0.3,1.3,0.8,2.5,1,3.8c0.3,2.6,0.6,5.4-1.3,7.3
			c-2,2.1-4.4,3.8-6.9,5.3c-3.3,1.9-3.5,2.8-0.6,5c0,0,0,0.1,0,0.3c-0.9-0.3-1.8-0.6-2.7-1c0.8,2,8,2.9,11,1.3h-5.1
			c1.7-0.3,3.6-0.1,5.2-0.7c4.9-2,8.9-5.6,12.1-9.6c2.3-2.9,4.1-6.2,5.8-9.5c2.5-4.8,3.3-9.8,0.4-14.8c-1.2-2.1-3.9-3-6.2-2
			c-0.9,0.4-1.7,0.9-2.7,1.4c-0.8-1.4-1.6-2.8-2.7-4.7l0-0.1c-0.5-0.9-1-2-1.3-2.8c-0.3-0.6-0.5-1.3-0.5-2c-0.1-1.7-0.2-5.1,1.4-7.3
			c2.1-3.1,6.4-3.8,6.4-3.8c3.8-0.7,7-1.4,9.9,1.1c2.5,2.1,4.9,4.3,5.6,7.6v0c0,0,1.2,2.7,1.6,5.4s-0.5,16-1.4,17.1
			c0,0.6-1.1,1.1-1.4,1.8c-0.8,1.7-1.5,3.5-2.3,5.2c-2.3,5-5.2,9.6-9.6,13.1c-4.1,3.3-8.2,6.7-12.3,10c-0.8,0.7-1.5,1.5-2.3,2.2
			c0.1,0.2,0.3,0.5,0.4,0.7c0.9-0.4,1.8-0.6,2.6-1.1c4-2.8,7.8-5.7,11.8-8.4c4.2-2.9,8.4-6,10.5-10.8c3-6.6,5.9-13.3,6.5-20.6
			c0.4-4.1,0.1-8.4-0.5-12.5c-0.5-3.3-0.9-6.9-3.9-9.3c-1.2-0.9-2.3-2-3.5-2.8c-7.5-5.1-18.4-3.2-22.1,5.5
			c-1.9,4.4-1.7,8.4,0.5,12.6c1.5,2.9,2.8,6,3.9,9.1c0.8,2.2,0.3,4.6-0.4,6.9c-1.1-1.6-1.9-3.2-3-4.5c-1.4-1.6-3.2-2.8-4.7-4.4
			c-1.3-1.4-2.9-2.9-3.4-4.7c-1-3.3-1.6-6.8-1.7-10.2c-0.2-4.9,2.2-8.9,5.2-12.6c2.6-3.2,5.8-5.7,9.9-6.8c2-0.6,4.2-0.5,5.4-2.9
			c0.2,0.1,0.4,0.2,0.6,0.4c-0.2,0.8-0.3,1.5-0.4,2c0.9,0,1.9,0.2,2.8-0.1c0.7-0.2,1.3-0.9,2-1.4c-0.3-0.3-0.6-0.8-0.9-0.8
			c-2.2-0.2-4.5-0.3-6.8-0.4v2c-0.6-0.8-0.9-1.2-1.1-1.5c-4.9,0.8-9.1,2.8-12.9,6.1c-3.5-8.4-4.4-16.9-4-25.8
			c1.8-0.5,3.6-1.5,5.4-1.5c4.6,0,9.1,0.3,13.7,0.7c7.7,0.8,15.1,2.7,22.3,5.6c2,0.8,4,1.5,6.1,2.2c0-0.2,0.1-0.4,0.1-0.6
			c-15-7.4-30.7-10.9-48.1-8.6c0.3-3.4,0.4-7.1,1.1-10.7c1.5-7.4,3.3-14.8,4.9-22.2c0.3-1.4,1.2-1.4,2.2-1c6,2.1,12.1,3.9,17.9,6.2
			c6.1,2.4,12,5.3,18,8.1c7.4,3.5,14.8,7.1,22.1,10.9c3.6,1.9,6.9,4.2,10.2,6.2c-5.3,6.9-9.5,14.3-12.9,22.2
			c-4.4-3.7-8.6-7.4-14-9.6c0.2,0.5,0.5,0.9,0.9,1.2c3.8,2.9,7.6,5.8,11.5,8.6c1.1,0.8,1.2,1.8,0.9,2.9c-1.8,7.1-2.6,14.2-2.7,21.5
			c0,3,0,6,0,9.1c-2.7-0.3-5.2-0.5-7.8-0.9c-1.9-0.3-2.9-1.3-3.1-3.4c-0.2-2.4-0.5-4.9-1.2-7.1c-2.6-7.9-8.1-13.6-15.1-17.8
			c-1.9-1.1-3.8-1.8-6.3-0.4c0.6,0.4,1,0.8,1.5,1c0.6,0.2,1.3,0.3,1.9,0.5c6.9,1.9,10.8,7.3,13.8,13c3.9,7.4,3.9,15.5,1,23.3
			c-2,5.6-4.3,11.1-6.7,16.5c-2,4.5-3.7,9.2-7.5,12.7c-3.7,3.4-7.2,6.9-12.1,8.8c-3.5,1.4-6.9,3.4-9.1,6.6c-1.9,2.9-4.3,5-7.5,5.9
			c-2,0.6-4.4,0.7-6.5,0.3c-3.4-0.7-5-3.7-6.5-6.4c-1.1-1.9-1.6-4.2-2.5-6.3c-0.2-0.4-0.8-0.7-1.2-1c-0.2,0.4-0.7,0.8-0.7,1.2
			c0.2,2.9,0.4,5.7,0.6,8.5c0.1,0.8,0.5,1.6,0.7,2.4c0,0-0.3,0.1-0.7,0.2c3.4,2.4,5.8,5.8,9.7,7.4c-0.2-0.3-0.4-0.6-0.7-1.2
			c1.1,0.1,2,0.2,2.7,0.3c-0.6,0.6-1.1,1.1-2,2h3.1c0-0.1,0-0.2,0-0.3c-0.5-0.1-1-0.2-1.4-0.4c0-0.1,0-0.2,0-0.3h2.5
			c-0.1,0.4-0.2,0.7-0.3,1c3.4,0.6,6.9-1,10.1,1.1c-0.2-0.2-0.5-0.4-0.8-0.7c0.5-0.3,1-0.5,1.7-0.9c-1.8-0.1-3.1-0.2-4.5-0.3l0-0.1
			c0.8-0.1,1.6-0.2,2.4-0.2c0-0.2,0-0.2,0-0.5c-0.5-0.1-1-0.3-2-0.6c2.4-0.2,4.4-0.4,6.3-0.5c0-0.2,0-0.1,0-0.4
			c-1.1-0.1-2.2-0.2-3.3-0.2c0-0.4,0-0.2,0-0.6h5.5c0-0.1,0-0.3,0-0.4c-1.1-0.1-2.3-0.1-3.4-0.2c0-0.1,0-0.2,0-0.4
			c1.3-0.1,2.5-0.1,3.8-0.2c0-0.2,0-0.3,0-0.5c-0.6,0-1.1-0.1-1.7-0.1c0.6-2.5,2.9-1.2,4.6-2.1c-1-0.1-1.6-0.2-2.2-0.3
			c0-0.1,0-0.2,0-0.4h2.1c0.3-1.1,0.5-2.1,0.9-3.1c0.4-0.9,0.9-1.7,1.4-2.5c0.1,0,0.1,0,0.2,0.1c-0.1,0.6-0.2,1.2-0.4,2.2
			c1.1-0.5,2.3,0.5,3-1c0.2-0.4,1.9-0.1,2.9-0.1c0,0,0-0.1,0-0.1c-0.9-0.2-1.9-0.4-2.8-0.7c0-0.2,0-0.1,0-0.3h3.2c0-0.1,0-0.2,0-0.2
			c-0.9-0.2-1.8-0.4-2.8-0.5c0-0.2,0-0.1,0-0.3h4.8c0-0.2,0-0.3,0-0.5h-4.6c0-0.2,0-0.3,0-0.5h4.8c0-0.1,0-0.3,0-0.5
			c-1.1-0.1-2.2-0.2-3.3-0.3c0-0.1,0-0.2,0-0.3h3.7c0-0.1,0-0.3,0-0.4c-1.9-0.2-3.8-0.4-5.7-0.5c0-0.1,0-0.1,0-0.2h5.6
			c0-0.1,0-0.1,0-0.2c-0.8-0.1-1.5-0.2-2.8-0.4c1.1-0.3,1.6-0.4,2.4-0.7c-0.6-0.3-0.9-0.4-1-0.4c1.9-0.8,3.9-1.7,5.9-2.5
			c-0.5-0.1-1-0.2-1.5-0.4c0-0.2,0-0.2,0-0.4c0.9,0,1.7-0.1,2.5-0.2c0-0.1,0-0.2,0-0.4c-0.5-0.1-1.1-0.2-1.6-0.2c0-0.1,0-0.2,0-0.3
			c1.2-0.1,2.4-0.2,3.5-0.4c0-0.1,0-0.2,0-0.2c-1.2-0.1-2.3-0.1-3.5-0.2c0-0.1,0-0.2,0-0.4h5.6c0-0.1,0-0.2,0-0.4
			c-1.5-0.1-3.1-0.3-4.6-0.4c0-0.1,0-0.2,0-0.3h4.9c0-0.1,0-0.3,0-0.4h-4.1c0-0.2,0-0.4,0-0.5h4.2c0-0.1,0-0.3,0-0.5
			c-1.2-0.1-2.5-0.2-3.7-0.3c0-0.2,0-0.3,0-0.5h6.4c0-0.2,0-0.4,0-0.5h-5.1c2.1-0.4,4.1-0.4,6.2-0.3c2.8,0.1,5.8,1,8.5,0.5
			c5.2-0.9,10.2-3,14.7-5.8c3.5-2.2,6.9-4.7,10.2-6.9c2.2,1.2,4.4,2.3,6.5,3.5c5.5,3.2,11.3,4.5,17.6,3.4c0.6-0.1,1.8,0.5,2.1,1.1
			c1.7,3.2,3.1,6.6,4.8,9.9c2.1,4,2.2,4.1-1.1,6.9c-4.9,4.2-10,8.2-15.9,10.9c-8.7,4.1-18,5.3-27.5,5.4c-4.5,0-9-0.9-13.4-1.4
			c-0.6-0.1-1.3,0.2-1.9,0.3c0,0.2,0.1,0.5,0.1,0.8c10.8,3.7,21.8,2.7,33.3,0.9c-1.5,1.3-2.8,2.1-3.6,3.3c-2.4,3.6-4.8,7.2-6.7,11
			c-3.5,6.8-5.8,14.1-6.7,21.8c-0.9,7.5-0.5,15,0.8,22.4c1.5,8.5,2.6,17.2,4.8,25.6c1.8,6.8,4.9,13.2,7.4,19.7
			c1.7,4.4,3.6,8.6,5.4,13c0.8,1.9,1.9,1.5,3.3,0.8c-0.5-1.1-1.1-2.1-1.5-3.1c-1.4-3.8-2.7-7.7-4.1-11.5c-0.6-1.6-1.4-3.2-2.1-4.8
			c-0.9-2.2-2-4.5-2.7-6.8c-0.9-3.2-1.4-6.5-2.4-9.7c-1.1-3.5-2.5-6.9-2.7-10.7c-0.2-2.4-1-4.8-1.5-7.2c-0.5-2.9-0.8-5.8-1.2-8.7
			c-0.2-1.5-0.6-3-0.6-4.4c-0.1-5-0.2-10,0.1-15c0.2-3.5,1-7.1,1.9-10.6c1.9-7.3,6.1-13.5,10.6-19.4c2.2-2.9,4.8-5.6,8.2-7.4
			c4.2-2.2,8.2-4.6,12.1-7.4c3.7-2.7,7.1-5.7,10.4-8.9c4.6-4.4,9-9,13.3-13.6c1.6-1.7,2.9-3.8,4.1-5.8c4-6.6,8.4-12.9,10.8-20.4
			c1.8-5.6,4-11,5.8-16.6c3.2-9.8,5.5-19.7,6.9-29.9c0.8-5.5,1.6-11,1.6-16.4C424.1,186.1,423.7,175.8,421.4,165.7z M107,307.9
			c1.2,0.7,2.3,1.6,3.5,2.4c-0.7-0.3-1.4-0.6-2.1-0.9c0,0.1-0.1,0.1-0.1,0.2c0.5,0.4,1,0.9,1.4,1.3c-0.1,0.1-0.1,0.2-0.2,0.3
			c-1.2-0.6-2.4-1.3-3.9-2.1c0.7-0.1,1.1-0.2,1.8-0.3c-1.6-0.8-2.8-1.4-4.1-2C104.4,306.5,104.5,306.4,107,307.9z M119.2,334.4
			c0,0.1,0,0.2,0,0.3c-1.3,0.1-2.6,0.3-4.1,0.5c-0.8-0.2-1.8-0.5-2.9-0.7L119.2,334.4L119.2,334.4z M122.1,345.2
			c0,0.2,0,0.3,0.1,0.5c-2.7,0.6-5.4,1.1-8.1,1.7c0-0.1-0.1-0.3-0.1-0.4C116.7,346.4,119.4,345.8,122.1,345.2z"/>
	</g>
	<g class="st1">
		<defs>
			<rect id="SVGID_00000078029052471115141350000004296305446200498589_" x="13.8" y="13.6" width="471.8" height="471.8"/>
		</defs>
		<clipPath id="SVGID_00000154386850135045713200000003218950695821443713_">
			<use xlink:href="#SVGID_00000078029052471115141350000004296305446200498589_"  style="overflow:visible;"/>
		</clipPath>
		<path style="clip-path:url(#SVGID_00000154386850135045713200000003218950695821443713_);fill:#1D1D1B;" d="M132.4,307.4
			C132.4,307.4,132.4,307.4,132.4,307.4C132.4,307.4,132.3,307.4,132.4,307.4L132.4,307.4"/>
	</g>
	<g class="st1">
		<defs>
			<rect id="SVGID_00000103240671113889151840000018082699688478866599_" x="13.8" y="13.6" width="471.8" height="471.8"/>
		</defs>
		<clipPath id="SVGID_00000031910773223847081790000001915485679859746718_">
			<use xlink:href="#SVGID_00000103240671113889151840000018082699688478866599_"  style="overflow:visible;"/>
		</clipPath>
		<path style="clip-path:url(#SVGID_00000031910773223847081790000001915485679859746718_);fill:#1D1D1B;" d="M182.8,414.2
			L182.8,414.2L182.8,414.2z"/>
	</g>
</g>
<g>
	<g>
		<g>
			<defs>
				<rect id="SVGID_00000102521560850719916690000014592783689233931455_" x="13.3" y="13.6" width="471.8" height="471.8"/>
			</defs>
			<clipPath id="SVGID_00000052788923755099444130000003928522890113123224_">
				<use xlink:href="#SVGID_00000102521560850719916690000014592783689233931455_"  style="overflow:visible;"/>
			</clipPath>
			
				<circle style="clip-path:url(#SVGID_00000052788923755099444130000003928522890113123224_);fill:none;stroke:#1D1D1B;stroke-width:2;" cx="249.2" cy="249.5" r="233.4"/>
		</g>
		<g>
			<defs>
				<rect id="SVGID_00000083087178704175978750000018371266571395731384_" x="13.3" y="13.6" width="471.8" height="471.8"/>
			</defs>
			<clipPath id="SVGID_00000032634834395505415820000001100150555398766491_">
				<use xlink:href="#SVGID_00000083087178704175978750000018371266571395731384_"  style="overflow:visible;"/>
			</clipPath>
		</g>
	</g>
	<g>
		<g>
			<defs>
				<rect id="SVGID_00000075852357790988345690000011981162887496736903_" x="15.8" y="13.6" width="466.9" height="471.8"/>
			</defs>
			<clipPath id="SVGID_00000156587720194375824990000003636069037108362670_">
				<use xlink:href="#SVGID_00000075852357790988345690000011981162887496736903_"  style="overflow:visible;"/>
			</clipPath>
		</g>
	</g>
</g>
<g>
	<defs>
		<rect id="SVGID_00000158736750327752621340000004361951783921918372_" x="44.9" y="182" width="318.2" height="55.2"/>
	</defs>
	<clipPath id="SVGID_00000168826471262513576720000015708454364511225787_">
		<use xlink:href="#SVGID_00000158736750327752621340000004361951783921918372_"  style="overflow:visible;"/>
	</clipPath>
	<path style="clip-path:url(#SVGID_00000168826471262513576720000015708454364511225787_);fill:#2B2B2A;" d="M326.2,215.2l10.2-26.7
		h0.2l10.3,26.7H326.2z M355.4,237.2h7.7L340.9,182h-8.6l-22,55.2h7.5l6.1-16.1h25.3L355.4,237.2z M294.8,182l-16.5,45h-0.2
		l-16.5-45h-10v55.2h6.5v-45.1h0.2l16.9,45.1h5.7l16.8-45.1h0.2v45.1h6.8V182H294.8z M208,187.9h16.9c4,0,7,0.9,9.1,2.7
		c2.1,1.8,3.1,4.4,3.1,7.9c0,3.4-1,6.1-3.1,7.8c-2.1,1.8-5.1,2.7-9.1,2.7H208V187.9z M244.9,237.2l-14.8-22.6
		c4.5-0.7,8-2.4,10.5-5.2c2.5-2.8,3.7-6.4,3.7-10.9c0-5.1-1.6-9.1-4.8-12c-3.2-2.9-7.7-4.4-13.6-4.4h-24.8v55.2h6.9v-22.4h14.2
		l14.5,22.4H244.9z M158.7,215.2l10.2-26.7h0.2l10.3,26.7H158.7z M187.9,237.2h7.7L173.4,182h-8.6l-22,55.2h7.5l6.1-16.1h25.3
		L187.9,237.2z M130.3,182v24.3h-29.7V182h-6.9v55.2h6.9v-25h29.7v25h7V182H130.3z M51.8,187.9h15.3c4,0,7,0.9,9.1,2.8
		c2.1,1.8,3.1,4.5,3.1,8.1c0,3.5-1,6.2-3.1,8.1c-2.1,1.8-5.1,2.8-9.1,2.8H51.8V187.9z M44.9,237.2h6.9v-21.7h16.3
		c5.8,0,10.3-1.5,13.5-4.5c3.2-3,4.8-7.1,4.8-12.3c0-5.2-1.6-9.3-4.8-12.3c-3.2-3-7.7-4.4-13.5-4.4H44.9V237.2z"/>
</g>
<g>
	<defs>
		<rect id="SVGID_00000062885808431600190560000015029622365359369353_" x="37.2" y="243.4" width="391.8" height="55.3"/>
	</defs>
	<clipPath id="SVGID_00000133528386200036330790000014204453648298511804_">
		<use xlink:href="#SVGID_00000062885808431600190560000015029622365359369353_"  style="overflow:visible;"/>
	</clipPath>
	<path style="clip-path:url(#SVGID_00000133528386200036330790000014204453648298511804_);fill:#2B2B2A;" d="M420.8,247.5
		c-3.5-2.7-7.9-4.1-13.3-4.1c-5.5,0-10.1,1.4-13.6,4.1c-3.5,2.7-5.3,6.3-5.3,10.7c0,2.2,0.4,4.1,1.1,5.7c0.7,1.6,1.8,3,3.1,4
		c1.4,1,2.8,1.9,4.2,2.4c1.5,0.6,3.2,1.1,5.2,1.6l9.9,2.4c3.3,0.8,5.8,1.8,7.5,3.1c1.7,1.3,2.5,3.3,2.5,6c0,3-1.2,5.3-3.6,7.1
		c-2.4,1.7-5.5,2.6-9.4,2.6c-4.2,0-7.6-1-10.4-2.9c-2.8-2-4.5-5.1-5.2-9.5l-6.7,0.7c1,5.7,3.5,10,7.3,12.9c3.8,3,8.8,4.5,15,4.5
		c5.8,0,10.6-1.3,14.3-4c3.7-2.7,5.6-6.5,5.6-11.4c0-2-0.3-3.9-0.8-5.5c-0.5-1.6-1.3-2.9-2.1-3.9c-0.9-1-2-1.9-3.4-2.7
		c-1.4-0.8-2.7-1.4-3.9-1.8c-1.2-0.4-2.7-0.8-4.5-1.3l-9.9-2.2c-2.9-0.7-5.1-1.6-6.6-2.8c-1.5-1.2-2.3-2.9-2.3-5.1
		c0-2.7,1.1-4.8,3.3-6.5c2.2-1.7,5.1-2.5,8.8-2.5c3.5,0,6.5,0.9,9,2.8c2.4,1.8,4,4.5,4.6,8l6.7-0.5
		C426.6,254.1,424.2,250.2,420.8,247.5 M384.4,297.6v-5.8h-29.3v-47.2h-6.7v53H384.4z M307.8,276.5l9.8-25.6h0.2l9.9,25.6H307.8z
		 M335.8,297.6h7.4l-21.3-53h-8.2l-21.2,53h7.2l5.9-15.4h24.3L335.8,297.6z M280.1,289.3c-2.7,2.5-6.1,3.7-10.2,3.7
		c-5.3,0-9.6-2-12.8-5.9c-3.2-3.9-4.8-9.3-4.8-16.2c0-6.8,1.6-12.2,4.8-16.1c3.2-3.9,7.5-5.8,12.8-5.8c3.6,0,6.8,1,9.3,2.9
		c2.6,1.9,4.4,4.3,5.6,7.2l6.5-1.5c-0.6-1.5-1.5-3-2.5-4.6c-1.1-1.5-2.5-3-4.2-4.6c-1.7-1.5-3.8-2.8-6.4-3.7
		c-2.6-0.9-5.4-1.4-8.4-1.4c-7.3,0-13.2,2.5-17.7,7.5c-4.5,5-6.8,11.7-6.8,20.1c0,8.5,2.3,15.3,6.8,20.2c4.5,5,10.4,7.5,17.7,7.5
		c3.1,0,6-0.5,8.7-1.6c2.7-1,4.9-2.4,6.7-4.2c1.8-1.7,3.3-3.6,4.5-5.7c1.2-2.1,2-4.2,2.5-6.5l-6.7-0.9
		C284.6,283.7,282.8,286.8,280.1,289.3 M237.9,244.6h-6.7v53h6.7V244.6z M225.1,244.6h-42.6v5.8h17.9v47.3h6.7v-47.3h18V244.6z
		 M169.8,244.6v33.5c0,9.9-4.7,14.9-14.1,14.9c-9.4,0-14.1-5-14.1-14.9v-33.5h-6.7V279c0,6.2,1.9,11.1,5.7,14.5
		c3.8,3.4,8.8,5.2,15,5.2c6.2,0,11.2-1.7,15-5.2c3.8-3.4,5.7-8.3,5.7-14.5v-34.5H169.8z M97.8,250.2h29.1v-5.6H91.1v53h35.8v-5.8
		H97.8v-18.6h27.9v-5.5H97.8V250.2z M71.9,289.3c-2.7,2.5-6.1,3.7-10.2,3.7c-5.3,0-9.6-2-12.8-5.9c-3.2-3.9-4.8-9.3-4.8-16.2
		c0-6.8,1.6-12.2,4.8-16.1c3.2-3.9,7.5-5.8,12.8-5.8c3.7,0,6.8,1,9.3,2.9c2.6,1.9,4.4,4.3,5.6,7.2l6.5-1.5c-0.6-1.5-1.5-3-2.5-4.6
		c-1.1-1.5-2.5-3-4.2-4.6c-1.7-1.5-3.8-2.8-6.4-3.7c-2.6-0.9-5.4-1.4-8.4-1.4c-7.3,0-13.2,2.5-17.7,7.5c-4.5,5-6.8,11.7-6.8,20.1
		c0,8.5,2.3,15.3,6.8,20.2c4.5,5,10.4,7.5,17.7,7.5c3.1,0,6-0.5,8.7-1.6c2.7-1,4.9-2.4,6.7-4.2c1.8-1.7,3.3-3.6,4.5-5.7
		c1.2-2.1,2-4.2,2.5-6.5l-6.7-0.9C76.4,283.7,74.5,286.8,71.9,289.3"/>
</g>
</svg>
