<?xml version="1.0" encoding="utf-8"?>
<!-- Generator: Adobe Illustrator 26.0.2, SVG Export Plug-In . SVG Version: 6.00 Build 0)  -->
<svg version="1.1" id="Layer_1" xmlns="http://www.w3.org/2000/svg" xmlns:xlink="http://www.w3.org/1999/xlink" x="0px" y="0px"
	 viewBox="0 0 500 500" style="enable-background:new 0 0 500 500;" xml:space="preserve">
<style type="text/css">
	.st0{clip-path:url(#SVGID_00000160877025625655762920000005481737078949677751_);fill:none;stroke:#1D1D1B;stroke-width:2;}
	.st1{clip-path:url(#SVGID_00000160877025625655762920000005481737078949677751_);fill:#1D1D1B;}
	
		.st2{clip-path:url(#SVGID_00000160877025625655762920000005481737078949677751_);fill:#1D1D1B;stroke:#1D1D1B;stroke-width:2;stroke-miterlimit:10;}
</style>
<g>
	<defs>
		<rect id="SVGID_1_" x="14.43" y="14.43" width="471.14" height="471.14"/>
	</defs>
	<clipPath id="SVGID_00000168825413180969190090000001956913396107002034_">
		<use xlink:href="#SVGID_1_"  style="overflow:visible;"/>
	</clipPath>
	
		<circle style="clip-path:url(#SVGID_00000168825413180969190090000001956913396107002034_);fill:none;stroke:#1D1D1B;stroke-width:2;" cx="250" cy="250" r="233.1"/>
	<path style="clip-path:url(#SVGID_00000168825413180969190090000001956913396107002034_);fill:#1D1D1B;" d="M297.03,170.41
		c-0.48,0.17-0.93,0.36-1.36,0.57c2.19-1.7,4.8-2.98,7.9-3.8c2.44-0.65,4.74-1.81,7.08-2.83c0.24,0.05,0.49,0.09,0.73,0.14
		c-0.07,0.02-0.16,0.04-0.23,0.07C306.43,166.47,301.83,168.71,297.03,170.41 M410.2,165.73c-2.67-0.2-5.37-0.04-8.04-0.27
		c-0.78-0.07-1.48-0.97-2.22-1.49c0.65-0.64,1.21-1.67,1.96-1.84c1.99-0.46,4.07-0.52,6.11-0.8c1.5-0.21,2.98-0.53,4.47-0.79
		l-0.15-1.11c-2.68,0.16-5.36,0.32-8.04,0.48c-2.84,0.17-5.71,0.63-8.52,0.37c-1.76-0.16-3.42-1.42-5.13-2.18
		c1.11-1.37,2.13-2.84,3.37-4.09c1.15-1.15,2.38-2.11,1.51-4.01c-2.34,1.53-4.53,2.89-6.63,4.38c-0.99,0.7-2.11,1.5-2.64,2.52
		c-2.87,5.55-7.66,7.62-13.51,7.53c-5.36-0.09-10.74-0.36-16.08-0.9c-7.23-0.73-14.46-1.53-21.63,0.21c-7,1.7-13.99,1.77-21.05,0.65
		c0.08-0.03,0.16-0.06,0.24-0.1c3.7-1.78,7.3-3.79,11-5.58c2.16-1.04,4.41-1.91,6.68-2.7c4.63-1.61,9.52-2.64,13.89-4.77
		c5.6-2.73,10.7-6.49,16.19-9.48c6.11-3.33,12.14-7.17,18.69-9.22c7.9-2.47,12.82-8.1,18.17-13.55c0.03-0.03-0.03-0.15-0.1-0.39
		c-3.17,0.69-5.08,4.19-8.32,4.66c-0.22-0.51-0.19-0.45-0.4-0.96c3.87-2.91,7.73-5.82,11.6-8.73c-0.32-0.57-0.22-0.39-0.54-0.96
		c-4.11,1.81-7.06,5.72-11.35,7.2c-0.31-0.6-0.23-0.45-0.54-1.05c4.08-3.02,8.17-6.05,12.26-9.07c-0.36-0.52-0.19-0.29-0.55-0.8
		l-12.87,8.2c-0.35-0.24-0.39-0.26-0.74-0.5c0.5-2.17,2.75-2.65,4.26-3.79c1.63-1.23,3.41-2.27,5.13-3.4
		c-0.3-0.5-0.17-0.28-0.47-0.77c-5.55,3.07-11.1,6.14-17.04,9.42c0.39-3.93,5.61-3.64,6.19-7.22c-0.55-0.06-0.86-0.21-1.03-0.11
		c-5.12,2.96-10.49,5.71-12.2,12.07c-0.59,2.21-2.01,3.33-4.01,3.87c-3.11,0.84-6.21,1.76-9.36,2.34
		c-12.21,2.26-23.73,5.94-33.3,14.43c-1.68,1.49-4.28,2.24-6.58,2.7c-6.54,1.32-12.76,3.34-18.62,6.61
		c-1.4,0.78-3.47,0.93-5.08,0.62c-8.87-1.71-16.77,0.46-24.41,4.97c-5.49-1.85-9.98-6.12-11.94-12.36c-0.04-0.12-0.23-0.2-0.51-0.39
		c1.12-1.36,1.97-3,2.37-5.08c0.24-1.27,1.14-2.59,2.11-3.49c2.37-2.19,2.78-6.13,0.75-8.68c-0.34-0.42-0.37-1.16-0.38-1.75
		c-0.05-1.52-0.02-3.05-0.02-3.9c0.6-11.55-5.24-14.63-11.62-15.98c-3.32-0.71-7.14-0.14-10.5,0.74c-5.04,1.33-7.57,5.16-7.7,10.4
		c-0.07,2.86,0.12,5.73,0.13,8.6c0,0.67-0.1,1.81-0.43,1.93c-2.16,0.75-1.55,2.38-1.22,3.76c0.36,1.51,0.63,3.41,1.66,4.32
		c1.61,1.42,2.34,2.95,2.8,4.95c0.42,1.85,1.51,3.73,2.95,5.35c-1.43,6.57-6.82,10.54-12.29,11.82l-0.62-0.03
		c0.14-0.06,0.3-0.14,0.49-0.22c-8.12-5.26-16.46-7.79-25.93-6.11c-1.85,0.33-3.99-0.21-5.83-0.83c-5.48-1.84-10.79-4.26-16.35-5.79
		c-4.04-1.12-7.79-2.37-11.03-5.15c-6.24-5.37-13.51-8.66-21.51-10.45c-6.11-1.37-12.19-2.87-18.26-4.38
		c-2.11-0.52-3.53-1.71-4.21-4.02c-1.86-6.35-7.1-9.31-12.54-11.97c-0.09-0.04-0.29,0.16-0.89,0.49c0.74,0.79,1.32,1.57,2.06,2.17
		c1.18,0.95,2.51,1.72,3.67,2.7c0.37,0.31,0.39,1.03,0.57,1.56c-0.54-0.06-1.16,0.03-1.59-0.21c-4.35-2.46-8.66-5-13.01-7.46
		c-0.8-0.45-1.72-0.7-2.59-1.04c-0.07,0.14-0.14,0.29-0.2,0.43c3.25,2.17,6.5,4.33,9.75,6.5l-0.81,1.32l-13.16-8.23
		c-0.35,0.52-0.19,0.29-0.55,0.81c4.13,3.01,8.27,6.03,12.4,9.04c-0.51,0.82-0.31,0.49-0.82,1.31c-4.01-2.23-7.42-5.59-11.47-7.75
		c-0.49,0.88-0.28,0.49-0.77,1.37c0.81,0.49,1.68,0.9,2.45,1.44c2.7,1.91,5.39,3.83,8.03,5.83c0.61,0.46,0.97,1.26,1.45,1.9
		l-0.63,0.61c-2.59-1.7-5.18-3.39-7.77-5.09l-0.55,0.76c4.79,3.64,7.93,9.18,13.83,11.5c2.74,1.08,5.76,1.57,8.32,2.95
		c7.4,3.99,14.71,8.15,21.89,12.53c7.39,4.51,14.95,8.43,23.59,9.96c2.41,0.43,4.72,1.81,6.84,2.73c3.13,1.36,6.13,2.99,9.1,4.67
		c1.86,1.05,3.62,1.22,5.6,0.85c-0.02,0.14-0.03,0.23-0.07,0.55c0.48,0.18,0.96,0.37,1.44,0.56l-0.82,0.41
		c-0.3-0.11-0.6-0.23-0.9-0.34c-0.77-0.29-1.75-0.24-2.59-0.1c-7.06,1.15-14,0.71-21.07-0.48c-5.66-0.95-11.54-0.84-17.32-0.71
		c-6.97,0.16-13.91,1.02-20.88,1.23c-4.75,0.14-9.42-1.23-11.78-5.63c-2.28-4.28-6.74-5.35-10.11-8.13
		c-0.21-0.18-0.54,0.01-0.5,0.29c0.14,0.95,0.44,1.79,0.95,2.49c0.5,0.69,1.53,0.97,2.09,1.64c0.75,0.9,1.92,2.16,1.71,2.95
		c-0.23,0.87-1.74,1.77-2.82,1.96c-2.26,0.4-4.61,0.52-6.91,0.41c-3.03-0.14-6.04-0.66-9.07-0.91c-0.93-0.08-1.89,0.2-2.83,0.31
		l0.02,0.94c3.24,0.38,6.51,0.63,9.71,1.23c1,0.18,1.83,1.3,2.73,1.99c-1,0.54-1.96,1.43-3,1.55c-3.1,0.34-6.24,0.31-9.35,0.57
		c-0.81,0.07-1.57,0.65-2.36,0.99c0.07,0.22,0.14,0.45,0.21,0.67c1.13-0.07,2.26-0.16,3.4-0.22c3.03-0.16,6.07-0.37,9.1-0.4
		c0.66-0.01,1.32,0.65,1.98,0.99c-0.56,0.58-1.01,1.44-1.69,1.69c-1.67,0.61-3.46,0.9-5.18,1.39c-1.58,0.46-3.13,1.02-4.69,1.54
		c0.07,0.21,0.14,0.43,0.2,0.64c0.86-0.12,1.74-0.18,2.59-0.38c2.78-0.66,5.54-1.46,8.34-2.01c0.7-0.14,1.54,0.47,2.32,0.73
		c-0.35,0.84-0.51,1.87-1.11,2.45c-0.67,0.65-1.74,0.87-2.63,1.28c-1.56,0.72-3.13,1.43-4.87,2.23c0.48,0.36,0.63,0.57,0.73,0.54
		c0.69-0.17,1.44-0.27,2.04-0.61c4.83-2.7,10.06-3.55,15.52-3.5c1.14,0.01,2.38-0.12,3.42-0.56c2.92-1.21,5.79-0.81,8.68-0.1
		c2.34,0.58,4.74,1.04,6.99,1.88c13.33,5.01,27.11,6.14,41.21,5.27c4.88-0.3,9.83,0.07,14.73,0.42c6.05,0.44,12.05,1.6,18.15,0.17
		c2.09-0.49,4.29-0.47,6.53-0.58l0.7,0.4c4.34,10.19,8.68,20.22,10.57,31.45c2.87,17,3.53,33.5-1.88,50.08
		c-0.02,0.05-0.03,0.11-0.05,0.17c-0.22,0.1-0.34,0.15-0.42,0.23c-11.52,11.55-19.26,25.33-23.7,40.97
		c-1.77,6.22-4.05,12.01-8.64,16.75c-1.28,1.32-1.97,3.19-3.04,4.74c-2.77,4.05-5.36,8.27-8.46,12.05
		c-4.7,5.73-9.03,11.65-11.28,18.77c-1.7,5.37-3.07,10.86-4.35,16.35c-1.68,7.24-2.77,14.63-6.22,21.36
		c-1.47,2.87-3.36,5.14-6.19,6.84c-3.25,1.95-6.23,4.36-9.67,6.81c1.27,1.1,1.93,1.83,2.72,2.33c3.79,2.41,7.56,4.84,11.47,7.04
		c0.67,0.38,2.52-0.03,2.91-0.65c3.13-5.09,6.14-10.26,9-15.52c2.55-4.7,4.5-9.75,7.37-14.24c2.88-4.51,6.47-8.58,9.9-12.71
		c3.71-4.46,6.55-9.29,8.44-14.84c2.19-6.42,4.24-13,8.64-18.39c5.14-6.31,10.46-12.49,15.49-18.89c0.86-1.09,1.73-2.4,2.28-3.74
		c0.21,1.74,0.58,4.12,0.96,7.69c0.54,5.05,0.76,10.2,0.45,15.27c-0.5,8.21-1.65,16.39-2.35,24.6c-1.03,12.18,2.24,23.57,6.22,34.92
		c2.27,6.48,3.8,13.22,5.38,19.92c0.4,1.69,0.02,3.74-0.54,5.45c-1.13,3.45-2.6,6.79-3.99,10.15c-1.43,3.44-0.76,4.64,2.9,4.86
		c1.78,0.11,3.58,0.11,5.37,0.1c2.09-0.01,4.24-0.43,6.26-0.06c3.34,0.6,5.07-0.79,4.54-4.17c-0.26-1.67-0.57-3.34-0.79-5.02
		c-0.6-4.66-0.85-9.4-1.81-13.99c-1.72-8.24-2.12-16.48-1.7-24.86c0.33-6.5,0.56-13.08-0.07-19.54c-0.81-8.27-1.4-16.42,0.92-24.53
		c2.18-7.59,2.93-15.34,2.61-23.22c-0.07-1.71,0.06-3.43,0.41-5.1c1.68-7.94,3.72-15.81,5.21-23.79c1.23-6.56,2.06-13.19,3.03-20.07
		c1.08-0.01,2.11,0.31,3.02,1.08c-0.85,6.5-1.44,12.53-2.63,18.42c-1.09,5.37-1.22,10.64-0.46,16c1.3,9.14,2.88,18.27,0.58,27.5
		c-0.25,1.01-0.18,2.18,0.03,3.21c1.73,8.26-0.01,16.21-2.03,24.15c-2.33,9.18-2.48,18.37-0.09,27.59c1.1,4.23,2.16,8.47,3.04,12.75
		c2.04,9.86,4.41,19.72,1.24,29.84c-0.18,0.58-0.17,1.24-0.18,1.87c-0.06,2.3,1.07,3.65,3.36,3.55c2.22-0.09,4.48-0.29,6.62-0.86
		c5.4-1.44,10.74-1.25,16.21-0.43c4.3,0.65,8.71,0.66,13.08,0.78c1.3,0.04,2.68-0.35,3.88-0.87c0.68-0.3,1.35-1.22,1.46-1.95
		c0.06-0.42-0.92-1.21-1.57-1.48c-1.06-0.43-2.24-0.78-3.37-0.79c-6.99-0.05-12.45-3.47-18.14-7.13c-4.9-3.15-6.45-7.14-6.11-12.4
		c0.55-8.59,1.05-17.18,1.87-25.74c0.58-6.08,1.37-12.12,0.06-18.19c-1.35-6.27-0.76-12.25,2.28-17.99
		c1.96-3.71,2.51-7.68,2.14-11.97c-0.34-4.04-0.74-8.53,0.65-12.15c1.4-3.66,1.58-6.84,0.76-9.73c0.26,0.33,0.52,0.66,0.78,1
		c3.31-9.53,4.88-25.44,3.94-36.92c-0.17-2.01-0.29-4.01-0.38-6.02c1.53,14.81,0.77,29.44-3.38,43.87
		c-0.25,0.87-0.18,1.93,0.02,2.83c0.53,2.35,1.14,4.69,1.84,7c0.75,2.46,1.12,5.28,2.59,7.25c4.8,6.48,6.98,13.9,8.51,21.57
		c2.08,10.44,6.58,19.63,13.32,27.82c3.81,4.62,7.54,9.29,11.06,14.13c4.75,6.53,9.63,13.04,10.18,21.61
		c0.03,0.52,0.28,1.04,0.5,1.53c1.16,2.61,3.12,3.53,5.64,2.22c1.87-0.98,3.72-2.25,5.13-3.81c2.85-3.15,6.28-4.85,10.4-5.59
		c5.65-1,10.65-3.62,15.21-7.04c0.67-0.5,1.03-1.79,0.97-2.69c-0.02-0.37-1.61-1.1-2.29-0.92c-7.23,1.86-14.45,0.62-21.61-0.24
		c-1.99-0.24-4.08-1.69-5.61-3.13c-1.37-1.29-2.25-3.24-2.97-5.05c-3.68-9.13-7.1-18.38-10.91-27.46
		c-2.06-4.92-4.33-9.83-7.19-14.31c-3.61-5.65-6.31-11.38-6.27-18.24c0.02-4.35-1.05-8.39-3.5-12.2c-1.89-2.94-3.14-6.38-4.21-9.74
		c-0.94-2.97-1.34-6.12-1.82-9.22c-2.22-14.65-7.84-27.95-15.95-40.31c0,0.43-0.01,0.87-0.02,1.3c-0.03-0.86-0.06-1.71-0.09-2.57
		c-0.17-4.37-0.21-8.74-0.36-13.11c-0.31-9.21-1.98-18.61-0.67-27.57c1.95-13.26,3.35-26.91,10.08-39.05
		c0.99-1.8,1.94-3.67,2.55-5.62c0.25-0.81,0.54-1.58,0.84-2.33c2.27,0.2,4.41,0.42,6.55,0.51c4.44,0.19,8.89,0.47,13.34,0.37
		c6.87-0.15,13.74-0.6,20.62-0.9c8.3-0.36,16.67-0.11,24.86-1.24c6.67-0.92,13.08-3.59,19.66-5.28c2.75-0.7,5.64-1.31,8.44-1.2
		c3.98,0.15,7.96,0.87,11.91,1.58c2.43,0.44,4.81,1.25,7.18,2.01c1.71,0.55,3.36,1.3,5.04,1.96c0.11-0.27,0.22-0.54,0.33-0.8
		c-1.74-0.78-3.5-1.53-5.22-2.36c-1.53-0.74-4.1-1.12-3.21-3.44c0.83-2.14,2.95-0.61,4.48-0.29c2.88,0.59,5.73,1.3,8.59,1.96
		c0.06-0.24,0.13-0.48,0.19-0.73c-0.28-0.15-0.55-0.34-0.85-0.43c-3.01-0.86-6.04-1.64-9.03-2.58c-0.65-0.2-1.14-0.95-1.7-1.45
		c0.69-0.43,1.38-1.22,2.07-1.22c3.04,0.01,6.07,0.27,9.11,0.4c1.16,0.05,2.32,0.01,3.48,0.01c0.03-0.27,0.07-0.54,0.1-0.8
		C413.18,166.37,411.7,165.84,410.2,165.73"/>
	
		<path style="clip-path:url(#SVGID_00000168825413180969190090000001956913396107002034_);fill:#1D1D1B;stroke:#1D1D1B;stroke-width:2;stroke-miterlimit:10;" d="
		M297.03,170.41c-0.48,0.17-0.93,0.36-1.36,0.57c2.19-1.7,4.8-2.98,7.9-3.8c2.44-0.65,4.74-1.81,7.08-2.83
		c0.24,0.05,0.49,0.09,0.73,0.14c-0.07,0.02-0.16,0.04-0.23,0.07C306.43,166.47,301.83,168.71,297.03,170.41z M410.2,165.73
		c-2.67-0.2-5.37-0.04-8.04-0.27c-0.78-0.07-1.48-0.97-2.22-1.49c0.65-0.64,1.21-1.67,1.96-1.84c1.99-0.46,4.07-0.52,6.11-0.8
		c1.5-0.21,2.98-0.53,4.47-0.79l-0.15-1.11c-2.68,0.16-5.36,0.32-8.04,0.48c-2.84,0.17-5.71,0.63-8.52,0.37
		c-1.76-0.16-3.42-1.42-5.13-2.18c1.11-1.37,2.13-2.84,3.37-4.09c1.15-1.15,2.38-2.11,1.51-4.01c-2.34,1.53-4.53,2.89-6.63,4.38
		c-0.99,0.7-2.11,1.5-2.64,2.52c-2.87,5.55-7.66,7.62-13.51,7.53c-5.36-0.09-10.74-0.36-16.08-0.9c-7.23-0.73-14.46-1.53-21.63,0.21
		c-7,1.7-13.99,1.77-21.05,0.65c0.08-0.03,0.16-0.06,0.24-0.1c3.7-1.78,7.3-3.79,11-5.58c2.16-1.04,4.41-1.91,6.68-2.7
		c4.63-1.61,9.52-2.64,13.89-4.77c5.6-2.73,10.7-6.49,16.19-9.48c6.11-3.33,12.14-7.17,18.69-9.22c7.9-2.47,12.82-8.1,18.17-13.55
		c0.03-0.03-0.03-0.15-0.1-0.39c-3.17,0.69-5.08,4.19-8.32,4.66c-0.22-0.51-0.19-0.45-0.4-0.96c3.87-2.91,7.73-5.82,11.6-8.73
		c-0.32-0.57-0.22-0.39-0.54-0.96c-4.11,1.81-7.06,5.72-11.35,7.2c-0.31-0.6-0.23-0.45-0.54-1.05c4.08-3.02,8.17-6.05,12.26-9.07
		c-0.36-0.52-0.19-0.29-0.55-0.8l-12.87,8.2c-0.35-0.24-0.39-0.26-0.74-0.5c0.5-2.17,2.75-2.65,4.26-3.79
		c1.63-1.23,3.41-2.27,5.13-3.4c-0.3-0.5-0.17-0.28-0.47-0.77c-5.55,3.07-11.1,6.14-17.04,9.42c0.39-3.93,5.61-3.64,6.19-7.22
		c-0.55-0.06-0.86-0.21-1.03-0.11c-5.12,2.96-10.49,5.71-12.2,12.07c-0.59,2.21-2.01,3.33-4.01,3.87c-3.11,0.84-6.21,1.76-9.36,2.34
		c-12.21,2.26-23.73,5.94-33.3,14.43c-1.68,1.49-4.28,2.24-6.58,2.7c-6.54,1.32-12.76,3.34-18.62,6.61
		c-1.4,0.78-3.47,0.93-5.08,0.62c-8.87-1.71-16.77,0.46-24.41,4.97c-5.49-1.85-9.98-6.12-11.94-12.36c-0.04-0.12-0.23-0.2-0.51-0.39
		c1.12-1.36,1.97-3,2.37-5.08c0.24-1.27,1.14-2.59,2.11-3.49c2.37-2.19,2.78-6.13,0.75-8.68c-0.34-0.42-0.37-1.16-0.38-1.75
		c-0.05-1.52-0.02-3.05-0.02-3.9c0.6-11.55-5.24-14.63-11.62-15.98c-3.32-0.71-7.14-0.14-10.5,0.74c-5.04,1.33-7.57,5.16-7.7,10.4
		c-0.07,2.86,0.12,5.73,0.13,8.6c0,0.67-0.1,1.81-0.43,1.93c-2.16,0.75-1.55,2.38-1.22,3.76c0.36,1.51,0.63,3.41,1.66,4.32
		c1.61,1.42,2.34,2.95,2.8,4.95c0.42,1.85,1.51,3.73,2.95,5.35c-1.43,6.57-6.82,10.54-12.29,11.82l-0.62-0.03
		c0.14-0.06,0.3-0.14,0.49-0.22c-8.12-5.26-16.46-7.79-25.93-6.11c-1.85,0.33-3.99-0.21-5.83-0.83c-5.48-1.84-10.79-4.26-16.35-5.79
		c-4.04-1.12-7.79-2.37-11.03-5.15c-6.24-5.37-13.51-8.66-21.51-10.45c-6.11-1.37-12.19-2.87-18.26-4.38
		c-2.11-0.52-3.53-1.71-4.21-4.02c-1.86-6.35-7.1-9.31-12.54-11.97c-0.09-0.04-0.29,0.16-0.89,0.49c0.74,0.79,1.32,1.57,2.06,2.17
		c1.18,0.95,2.51,1.72,3.67,2.7c0.37,0.31,0.39,1.03,0.57,1.56c-0.54-0.06-1.16,0.03-1.59-0.21c-4.35-2.46-8.66-5-13.01-7.46
		c-0.8-0.45-1.72-0.7-2.59-1.04c-0.07,0.14-0.14,0.29-0.2,0.43c3.25,2.17,6.5,4.33,9.75,6.5l-0.81,1.32l-13.16-8.23
		c-0.35,0.52-0.19,0.29-0.55,0.81c4.13,3.01,8.27,6.03,12.4,9.04c-0.51,0.82-0.31,0.49-0.82,1.31c-4.01-2.23-7.42-5.59-11.47-7.75
		c-0.49,0.88-0.28,0.49-0.77,1.37c0.81,0.49,1.68,0.9,2.45,1.44c2.7,1.91,5.39,3.83,8.03,5.83c0.61,0.46,0.97,1.26,1.45,1.9
		l-0.63,0.61c-2.59-1.7-5.18-3.39-7.77-5.09l-0.55,0.76c4.79,3.64,7.93,9.18,13.83,11.5c2.74,1.08,5.76,1.57,8.32,2.95
		c7.4,3.99,14.71,8.15,21.89,12.53c7.39,4.51,14.95,8.43,23.59,9.96c2.41,0.43,4.72,1.81,6.84,2.73c3.13,1.36,6.13,2.99,9.1,4.67
		c1.86,1.05,3.62,1.22,5.6,0.85c-0.02,0.14-0.03,0.23-0.07,0.55c0.48,0.18,0.96,0.37,1.44,0.56l-0.82,0.41
		c-0.3-0.11-0.6-0.23-0.9-0.34c-0.77-0.29-1.75-0.24-2.59-0.1c-7.06,1.15-14,0.71-21.07-0.48c-5.66-0.95-11.54-0.84-17.32-0.71
		c-6.97,0.16-13.91,1.02-20.88,1.23c-4.75,0.14-9.42-1.23-11.78-5.63c-2.28-4.28-6.74-5.35-10.11-8.13
		c-0.21-0.18-0.54,0.01-0.5,0.29c0.14,0.95,0.44,1.79,0.95,2.49c0.5,0.69,1.53,0.97,2.09,1.64c0.75,0.9,1.92,2.16,1.71,2.95
		c-0.23,0.87-1.74,1.77-2.82,1.96c-2.26,0.4-4.61,0.52-6.91,0.41c-3.03-0.14-6.04-0.66-9.07-0.91c-0.93-0.08-1.89,0.2-2.83,0.31
		l0.02,0.94c3.24,0.38,6.51,0.63,9.71,1.23c1,0.18,1.83,1.3,2.73,1.99c-1,0.54-1.96,1.43-3,1.55c-3.1,0.34-6.24,0.31-9.35,0.57
		c-0.81,0.07-1.57,0.65-2.36,0.99c0.07,0.22,0.14,0.45,0.21,0.67c1.13-0.07,2.26-0.16,3.4-0.22c3.03-0.16,6.07-0.37,9.1-0.4
		c0.66-0.01,1.32,0.65,1.98,0.99c-0.56,0.58-1.01,1.44-1.69,1.69c-1.67,0.61-3.46,0.9-5.18,1.39c-1.58,0.46-3.13,1.02-4.69,1.54
		c0.07,0.21,0.14,0.43,0.2,0.64c0.86-0.12,1.74-0.18,2.59-0.38c2.78-0.66,5.54-1.46,8.34-2.01c0.7-0.14,1.54,0.47,2.32,0.73
		c-0.35,0.84-0.51,1.87-1.11,2.45c-0.67,0.65-1.74,0.87-2.63,1.28c-1.56,0.72-3.13,1.43-4.87,2.23c0.48,0.36,0.63,0.57,0.73,0.54
		c0.69-0.17,1.44-0.27,2.04-0.61c4.83-2.7,10.06-3.55,15.52-3.5c1.14,0.01,2.38-0.12,3.42-0.56c2.92-1.21,5.79-0.81,8.68-0.1
		c2.34,0.58,4.74,1.04,6.99,1.88c13.33,5.01,27.11,6.14,41.21,5.27c4.88-0.3,9.83,0.07,14.73,0.42c6.05,0.44,12.05,1.6,18.15,0.17
		c2.09-0.49,4.29-0.47,6.53-0.58l0.7,0.4c4.34,10.19,8.68,20.22,10.57,31.45c2.87,17,3.53,33.5-1.88,50.08
		c-0.02,0.05-0.03,0.11-0.05,0.17c-0.22,0.1-0.34,0.15-0.42,0.23c-11.52,11.55-19.26,25.33-23.7,40.97
		c-1.77,6.22-4.05,12.01-8.64,16.75c-1.28,1.32-1.97,3.19-3.04,4.74c-2.77,4.05-5.36,8.27-8.46,12.05
		c-4.7,5.73-9.03,11.65-11.28,18.77c-1.7,5.37-3.07,10.86-4.35,16.35c-1.68,7.24-2.77,14.63-6.22,21.36
		c-1.47,2.87-3.36,5.14-6.19,6.84c-3.25,1.95-6.23,4.36-9.67,6.81c1.27,1.1,1.93,1.83,2.72,2.33c3.79,2.41,7.56,4.84,11.47,7.04
		c0.67,0.38,2.52-0.03,2.91-0.65c3.13-5.09,6.14-10.26,9-15.52c2.55-4.7,4.5-9.75,7.37-14.24c2.88-4.51,6.47-8.58,9.9-12.71
		c3.71-4.46,6.55-9.29,8.44-14.84c2.19-6.42,4.24-13,8.64-18.39c5.14-6.31,10.46-12.49,15.49-18.89c0.86-1.09,1.73-2.4,2.28-3.74
		c0.21,1.74,0.58,4.12,0.96,7.69c0.54,5.05,0.76,10.2,0.45,15.27c-0.5,8.21-1.65,16.39-2.35,24.6c-1.03,12.18,2.24,23.57,6.22,34.92
		c2.27,6.48,3.8,13.22,5.38,19.92c0.4,1.69,0.02,3.74-0.54,5.45c-1.13,3.45-2.6,6.79-3.99,10.15c-1.43,3.44-0.76,4.64,2.9,4.86
		c1.78,0.11,3.58,0.11,5.37,0.1c2.09-0.01,4.24-0.43,6.26-0.06c3.34,0.6,5.07-0.79,4.54-4.17c-0.26-1.67-0.57-3.34-0.79-5.02
		c-0.6-4.66-0.85-9.4-1.81-13.99c-1.72-8.24-2.12-16.48-1.7-24.86c0.33-6.5,0.56-13.08-0.07-19.54c-0.81-8.27-1.4-16.42,0.92-24.53
		c2.18-7.59,2.93-15.34,2.61-23.22c-0.07-1.71,0.06-3.43,0.41-5.1c1.68-7.94,3.72-15.81,5.21-23.79c1.23-6.56,2.06-13.19,3.03-20.07
		c1.08-0.01,2.11,0.31,3.02,1.08c-0.85,6.5-1.44,12.53-2.63,18.42c-1.09,5.37-1.22,10.64-0.46,16c1.3,9.14,2.88,18.27,0.58,27.5
		c-0.25,1.01-0.18,2.18,0.03,3.21c1.73,8.26-0.01,16.21-2.03,24.15c-2.33,9.18-2.48,18.37-0.09,27.59c1.1,4.23,2.16,8.47,3.04,12.75
		c2.04,9.86,4.41,19.72,1.24,29.84c-0.18,0.58-0.17,1.24-0.18,1.87c-0.06,2.3,1.07,3.65,3.36,3.55c2.22-0.09,4.48-0.29,6.62-0.86
		c5.4-1.44,10.74-1.25,16.21-0.43c4.3,0.65,8.71,0.66,13.08,0.78c1.3,0.04,2.68-0.35,3.88-0.87c0.68-0.3,1.35-1.22,1.46-1.95
		c0.06-0.42-0.92-1.21-1.57-1.48c-1.06-0.43-2.24-0.78-3.37-0.79c-6.99-0.05-12.45-3.47-18.14-7.13c-4.9-3.15-6.45-7.14-6.11-12.4
		c0.55-8.59,1.05-17.18,1.87-25.74c0.58-6.08,1.37-12.12,0.06-18.19c-1.35-6.27-0.76-12.25,2.28-17.99
		c1.96-3.71,2.51-7.68,2.14-11.97c-0.34-4.04-0.74-8.53,0.65-12.15c1.4-3.66,1.58-6.84,0.76-9.73c0.26,0.33,0.52,0.66,0.78,1
		c3.31-9.53,4.88-25.44,3.94-36.92c-0.17-2.01-0.29-4.01-0.38-6.02c1.53,14.81,0.77,29.44-3.38,43.87
		c-0.25,0.87-0.18,1.93,0.02,2.83c0.53,2.35,1.14,4.69,1.84,7c0.75,2.46,1.12,5.28,2.59,7.25c4.8,6.48,6.98,13.9,8.51,21.57
		c2.08,10.44,6.58,19.63,13.32,27.82c3.81,4.62,7.54,9.29,11.06,14.13c4.75,6.53,9.63,13.04,10.18,21.61
		c0.03,0.52,0.28,1.04,0.5,1.53c1.16,2.61,3.12,3.53,5.64,2.22c1.87-0.98,3.72-2.25,5.13-3.81c2.85-3.15,6.28-4.85,10.4-5.59
		c5.65-1,10.65-3.62,15.21-7.04c0.67-0.5,1.03-1.79,0.97-2.69c-0.02-0.37-1.61-1.1-2.29-0.92c-7.23,1.86-14.45,0.62-21.61-0.24
		c-1.99-0.24-4.08-1.69-5.61-3.13c-1.37-1.29-2.25-3.24-2.97-5.05c-3.68-9.13-7.1-18.38-10.91-27.46
		c-2.06-4.92-4.33-9.83-7.19-14.31c-3.61-5.65-6.31-11.38-6.27-18.24c0.02-4.35-1.05-8.39-3.5-12.2c-1.89-2.94-3.14-6.38-4.21-9.74
		c-0.94-2.97-1.34-6.12-1.82-9.22c-2.22-14.65-7.84-27.95-15.95-40.31c0,0.43-0.01,0.87-0.02,1.3c-0.03-0.86-0.06-1.71-0.09-2.57
		c-0.17-4.37-0.21-8.74-0.36-13.11c-0.31-9.21-1.98-18.61-0.67-27.57c1.95-13.26,3.35-26.91,10.08-39.05
		c0.99-1.8,1.94-3.67,2.55-5.62c0.25-0.81,0.54-1.58,0.84-2.33c2.27,0.2,4.41,0.42,6.55,0.51c4.44,0.19,8.89,0.47,13.34,0.37
		c6.87-0.15,13.74-0.6,20.62-0.9c8.3-0.36,16.67-0.11,24.86-1.24c6.67-0.92,13.08-3.59,19.66-5.28c2.75-0.7,5.64-1.31,8.44-1.2
		c3.98,0.15,7.96,0.87,11.91,1.58c2.43,0.44,4.81,1.25,7.18,2.01c1.71,0.55,3.36,1.3,5.04,1.96c0.11-0.27,0.22-0.54,0.33-0.8
		c-1.74-0.78-3.5-1.53-5.22-2.36c-1.53-0.74-4.1-1.12-3.21-3.44c0.83-2.14,2.95-0.61,4.48-0.29c2.88,0.59,5.73,1.3,8.59,1.96
		c0.06-0.24,0.13-0.48,0.19-0.73c-0.28-0.15-0.55-0.34-0.85-0.43c-3.01-0.86-6.04-1.64-9.03-2.58c-0.65-0.2-1.14-0.95-1.7-1.45
		c0.69-0.43,1.38-1.22,2.07-1.22c3.04,0.01,6.07,0.27,9.11,0.4c1.16,0.05,2.32,0.01,3.48,0.01c0.03-0.27,0.07-0.54,0.1-0.8
		C413.18,166.37,411.7,165.84,410.2,165.73z"/>
</g>
</svg>
