<?xml version="1.0" encoding="utf-8"?>
<!-- Generator: Adobe Illustrator 26.0.2, SVG Export Plug-In . SVG Version: 6.00 Build 0)  -->
<svg version="1.1" id="Layer_1" xmlns="http://www.w3.org/2000/svg" xmlns:xlink="http://www.w3.org/1999/xlink" x="0px" y="0px"
	 viewBox="0 0 500 500" style="enable-background:new 0 0 500 500;" xml:space="preserve">
<style type="text/css">
	.st0{display:none;}
	.st1{display:inline;}
	
		.st2{display:inline;clip-path:url(#SVGID_00000086676813396710979350000007886079114069370265_);fill:none;stroke:#1D1D1B;stroke-width:2;}
	.st3{display:inline;clip-path:url(#SVGID_00000086676813396710979350000007886079114069370265_);fill:#1D1D1B;}
	
		.st4{display:inline;clip-path:url(#SVGID_00000086676813396710979350000007886079114069370265_);fill:#1D1D1B;stroke:#1D1D1B;stroke-width:2;stroke-miterlimit:10;}
	
		.st5{display:inline;clip-path:url(#SVGID_00000021119371518789226760000011829905696239659935_);fill:none;stroke:#1D1D1B;stroke-width:2;}
	.st6{display:inline;clip-path:url(#SVGID_00000021119371518789226760000011829905696239659935_);fill:#1D1D1B;}
	
		.st7{display:inline;clip-path:url(#SVGID_00000021119371518789226760000011829905696239659935_);fill:none;stroke:#1D1D1B;stroke-miterlimit:10;}
	.st8{clip-path:url(#SVGID_00000152260868777510901350000018190822509236577982_);fill:#1D1D1B;}
	.st9{clip-path:url(#SVGID_00000152260868777510901350000018190822509236577982_);fill:#FFFFFF;}
</style>
<g class="st0">
	<defs>
		<rect id="SVGID_1_" x="14.43" y="14.43" width="471.14" height="471.14"/>
	</defs>
	<clipPath id="SVGID_00000054237828580939248530000014441200714368847796_" class="st1">
		<use xlink:href="#SVGID_1_"  style="overflow:visible;"/>
	</clipPath>
	
		<circle style="display:inline;clip-path:url(#SVGID_00000054237828580939248530000014441200714368847796_);fill:none;stroke:#1D1D1B;stroke-width:2;" cx="250" cy="250" r="233.1"/>
	<path style="display:inline;clip-path:url(#SVGID_00000054237828580939248530000014441200714368847796_);fill:#1D1D1B;" d="
		M297.03,170.41c-0.48,0.17-0.93,0.36-1.36,0.57c2.19-1.7,4.8-2.98,7.9-3.8c2.44-0.65,4.74-1.81,7.08-2.83
		c0.24,0.05,0.49,0.09,0.73,0.14c-0.07,0.02-0.16,0.04-0.23,0.07C306.43,166.47,301.83,168.71,297.03,170.41 M410.2,165.73
		c-2.67-0.2-5.37-0.04-8.04-0.27c-0.78-0.07-1.48-0.97-2.22-1.49c0.65-0.64,1.21-1.67,1.96-1.84c1.99-0.46,4.07-0.52,6.11-0.8
		c1.5-0.21,2.98-0.53,4.47-0.79l-0.15-1.11c-2.68,0.16-5.36,0.32-8.04,0.48c-2.84,0.17-5.71,0.63-8.52,0.37
		c-1.76-0.16-3.42-1.42-5.13-2.18c1.11-1.37,2.13-2.84,3.37-4.09c1.15-1.15,2.38-2.11,1.51-4.01c-2.34,1.53-4.53,2.89-6.63,4.38
		c-0.99,0.7-2.11,1.5-2.64,2.52c-2.87,5.55-7.66,7.62-13.51,7.53c-5.36-0.09-10.74-0.36-16.08-0.9c-7.23-0.73-14.46-1.53-21.63,0.21
		c-7,1.7-13.99,1.77-21.05,0.65c0.08-0.03,0.16-0.06,0.24-0.1c3.7-1.78,7.3-3.79,11-5.58c2.16-1.04,4.41-1.91,6.68-2.7
		c4.63-1.61,9.52-2.64,13.89-4.77c5.6-2.73,10.7-6.49,16.19-9.48c6.11-3.33,12.14-7.17,18.69-9.22c7.9-2.47,12.82-8.1,18.17-13.55
		c0.03-0.03-0.03-0.15-0.1-0.39c-3.17,0.69-5.08,4.19-8.32,4.66c-0.22-0.51-0.19-0.45-0.4-0.96c3.87-2.91,7.73-5.82,11.6-8.73
		c-0.32-0.57-0.22-0.39-0.54-0.96c-4.11,1.81-7.06,5.72-11.35,7.2c-0.31-0.6-0.23-0.45-0.54-1.05c4.08-3.02,8.17-6.05,12.26-9.07
		c-0.36-0.52-0.19-0.29-0.55-0.8l-12.87,8.2c-0.35-0.24-0.39-0.26-0.74-0.5c0.5-2.17,2.75-2.65,4.26-3.79
		c1.63-1.23,3.41-2.27,5.13-3.4c-0.3-0.5-0.17-0.28-0.47-0.77c-5.55,3.07-11.1,6.14-17.04,9.42c0.39-3.93,5.61-3.64,6.19-7.22
		c-0.55-0.06-0.86-0.21-1.03-0.11c-5.12,2.96-10.49,5.71-12.2,12.07c-0.59,2.21-2.01,3.33-4.01,3.87c-3.11,0.84-6.21,1.76-9.36,2.34
		c-12.21,2.26-23.73,5.94-33.3,14.43c-1.68,1.49-4.28,2.24-6.58,2.7c-6.54,1.32-12.76,3.34-18.62,6.61
		c-1.4,0.78-3.47,0.93-5.08,0.62c-8.87-1.71-16.77,0.46-24.41,4.97c-5.49-1.85-9.98-6.12-11.94-12.36c-0.04-0.12-0.23-0.2-0.51-0.39
		c1.12-1.36,1.97-3,2.37-5.08c0.24-1.27,1.14-2.59,2.11-3.49c2.37-2.19,2.78-6.13,0.75-8.68c-0.34-0.42-0.37-1.16-0.38-1.75
		c-0.05-1.52-0.02-3.05-0.02-3.9c0.6-11.55-5.24-14.63-11.62-15.98c-3.32-0.71-7.14-0.14-10.5,0.74c-5.04,1.33-7.57,5.16-7.7,10.4
		c-0.07,2.86,0.12,5.73,0.13,8.6c0,0.67-0.1,1.81-0.43,1.93c-2.16,0.75-1.55,2.38-1.22,3.76c0.36,1.51,0.63,3.41,1.66,4.32
		c1.61,1.42,2.34,2.95,2.8,4.95c0.42,1.85,1.51,3.73,2.95,5.35c-1.43,6.57-6.82,10.54-12.29,11.82l-0.62-0.03
		c0.14-0.06,0.3-0.14,0.49-0.22c-8.12-5.26-16.46-7.79-25.93-6.11c-1.85,0.33-3.99-0.21-5.83-0.83c-5.48-1.84-10.79-4.26-16.35-5.79
		c-4.04-1.12-7.79-2.37-11.03-5.15c-6.24-5.37-13.51-8.66-21.51-10.45c-6.11-1.37-12.19-2.87-18.26-4.38
		c-2.11-0.52-3.53-1.71-4.21-4.02c-1.86-6.35-7.1-9.31-12.54-11.97c-0.09-0.04-0.29,0.16-0.89,0.49c0.74,0.79,1.32,1.57,2.06,2.17
		c1.18,0.95,2.51,1.72,3.67,2.7c0.37,0.31,0.39,1.03,0.57,1.56c-0.54-0.06-1.16,0.03-1.59-0.21c-4.35-2.46-8.66-5-13.01-7.46
		c-0.8-0.45-1.72-0.7-2.59-1.04c-0.07,0.14-0.14,0.29-0.2,0.43c3.25,2.17,6.5,4.33,9.75,6.5l-0.81,1.32l-13.16-8.23
		c-0.35,0.52-0.19,0.29-0.55,0.81c4.13,3.01,8.27,6.03,12.4,9.04c-0.51,0.82-0.31,0.49-0.82,1.31c-4.01-2.23-7.42-5.59-11.47-7.75
		c-0.49,0.88-0.28,0.49-0.77,1.37c0.81,0.49,1.68,0.9,2.45,1.44c2.7,1.91,5.39,3.83,8.03,5.83c0.61,0.46,0.97,1.26,1.45,1.9
		l-0.63,0.61c-2.59-1.7-5.18-3.39-7.77-5.09l-0.55,0.76c4.79,3.64,7.93,9.18,13.83,11.5c2.74,1.08,5.76,1.57,8.32,2.95
		c7.4,3.99,14.71,8.15,21.89,12.53c7.39,4.51,14.95,8.43,23.59,9.96c2.41,0.43,4.72,1.81,6.84,2.73c3.13,1.36,6.13,2.99,9.1,4.67
		c1.86,1.05,3.62,1.22,5.6,0.85c-0.02,0.14-0.03,0.23-0.07,0.55c0.48,0.18,0.96,0.37,1.44,0.56l-0.82,0.41
		c-0.3-0.11-0.6-0.23-0.9-0.34c-0.77-0.29-1.75-0.24-2.59-0.1c-7.06,1.15-14,0.71-21.07-0.48c-5.66-0.95-11.54-0.84-17.32-0.71
		c-6.97,0.16-13.91,1.02-20.88,1.23c-4.75,0.14-9.42-1.23-11.78-5.63c-2.28-4.28-6.74-5.35-10.11-8.13
		c-0.21-0.18-0.54,0.01-0.5,0.29c0.14,0.95,0.44,1.79,0.95,2.49c0.5,0.69,1.53,0.97,2.09,1.64c0.75,0.9,1.92,2.16,1.71,2.95
		c-0.23,0.87-1.74,1.77-2.82,1.96c-2.26,0.4-4.61,0.52-6.91,0.41c-3.03-0.14-6.04-0.66-9.07-0.91c-0.93-0.08-1.89,0.2-2.83,0.31
		l0.02,0.94c3.24,0.38,6.51,0.63,9.71,1.23c1,0.18,1.83,1.3,2.73,1.99c-1,0.54-1.96,1.43-3,1.55c-3.1,0.34-6.24,0.31-9.35,0.57
		c-0.81,0.07-1.57,0.65-2.36,0.99c0.07,0.22,0.14,0.45,0.21,0.67c1.13-0.07,2.26-0.16,3.4-0.22c3.03-0.16,6.07-0.37,9.1-0.4
		c0.66-0.01,1.32,0.65,1.98,0.99c-0.56,0.58-1.01,1.44-1.69,1.69c-1.67,0.61-3.46,0.9-5.18,1.39c-1.58,0.46-3.13,1.02-4.69,1.54
		c0.07,0.21,0.14,0.43,0.2,0.64c0.86-0.12,1.74-0.18,2.59-0.38c2.78-0.66,5.54-1.46,8.34-2.01c0.7-0.14,1.54,0.47,2.32,0.73
		c-0.35,0.84-0.51,1.87-1.11,2.45c-0.67,0.65-1.74,0.87-2.63,1.28c-1.56,0.72-3.13,1.43-4.87,2.23c0.48,0.36,0.63,0.57,0.73,0.54
		c0.69-0.17,1.44-0.27,2.04-0.61c4.83-2.7,10.06-3.55,15.52-3.5c1.14,0.01,2.38-0.12,3.42-0.56c2.92-1.21,5.79-0.81,8.68-0.1
		c2.34,0.58,4.74,1.04,6.99,1.88c13.33,5.01,27.11,6.14,41.21,5.27c4.88-0.3,9.83,0.07,14.73,0.42c6.05,0.44,12.05,1.6,18.15,0.17
		c2.09-0.49,4.29-0.47,6.53-0.58l0.7,0.4c4.34,10.19,8.68,20.22,10.57,31.45c2.87,17,3.53,33.5-1.88,50.08
		c-0.02,0.05-0.03,0.11-0.05,0.17c-0.22,0.1-0.34,0.15-0.42,0.23c-11.52,11.55-19.26,25.33-23.7,40.97
		c-1.77,6.22-4.05,12.01-8.64,16.75c-1.28,1.32-1.97,3.19-3.04,4.74c-2.77,4.05-5.36,8.27-8.46,12.05
		c-4.7,5.73-9.03,11.65-11.28,18.77c-1.7,5.37-3.07,10.86-4.35,16.35c-1.68,7.24-2.77,14.63-6.22,21.36
		c-1.47,2.87-3.36,5.14-6.19,6.84c-3.25,1.95-6.23,4.36-9.67,6.81c1.27,1.1,1.93,1.83,2.72,2.33c3.79,2.41,7.56,4.84,11.47,7.04
		c0.67,0.38,2.52-0.03,2.91-0.65c3.13-5.09,6.14-10.26,9-15.52c2.55-4.7,4.5-9.75,7.37-14.24c2.88-4.51,6.47-8.58,9.9-12.71
		c3.71-4.46,6.55-9.29,8.44-14.84c2.19-6.42,4.24-13,8.64-18.39c5.14-6.31,10.46-12.49,15.49-18.89c0.86-1.09,1.73-2.4,2.28-3.74
		c0.21,1.74,0.58,4.12,0.96,7.69c0.54,5.05,0.76,10.2,0.45,15.27c-0.5,8.21-1.65,16.39-2.35,24.6c-1.03,12.18,2.24,23.57,6.22,34.92
		c2.27,6.48,3.8,13.22,5.38,19.92c0.4,1.69,0.02,3.74-0.54,5.45c-1.13,3.45-2.6,6.79-3.99,10.15c-1.43,3.44-0.76,4.64,2.9,4.86
		c1.78,0.11,3.58,0.11,5.37,0.1c2.09-0.01,4.24-0.43,6.26-0.06c3.34,0.6,5.07-0.79,4.54-4.17c-0.26-1.67-0.57-3.34-0.79-5.02
		c-0.6-4.66-0.85-9.4-1.81-13.99c-1.72-8.24-2.12-16.48-1.7-24.86c0.33-6.5,0.56-13.08-0.07-19.54c-0.81-8.27-1.4-16.42,0.92-24.53
		c2.18-7.59,2.93-15.34,2.61-23.22c-0.07-1.71,0.06-3.43,0.41-5.1c1.68-7.94,3.72-15.81,5.21-23.79c1.23-6.56,2.06-13.19,3.03-20.07
		c1.08-0.01,2.11,0.31,3.02,1.08c-0.85,6.5-1.44,12.53-2.63,18.42c-1.09,5.37-1.22,10.64-0.46,16c1.3,9.14,2.88,18.27,0.58,27.5
		c-0.25,1.01-0.18,2.18,0.03,3.21c1.73,8.26-0.01,16.21-2.03,24.15c-2.33,9.18-2.48,18.37-0.09,27.59c1.1,4.23,2.16,8.47,3.04,12.75
		c2.04,9.86,4.41,19.72,1.24,29.84c-0.18,0.58-0.17,1.24-0.18,1.87c-0.06,2.3,1.07,3.65,3.36,3.55c2.22-0.09,4.48-0.29,6.62-0.86
		c5.4-1.44,10.74-1.25,16.21-0.43c4.3,0.65,8.71,0.66,13.08,0.78c1.3,0.04,2.68-0.35,3.88-0.87c0.68-0.3,1.35-1.22,1.46-1.95
		c0.06-0.42-0.92-1.21-1.57-1.48c-1.06-0.43-2.24-0.78-3.37-0.79c-6.99-0.05-12.45-3.47-18.14-7.13c-4.9-3.15-6.45-7.14-6.11-12.4
		c0.55-8.59,1.05-17.18,1.87-25.74c0.58-6.08,1.37-12.12,0.06-18.19c-1.35-6.27-0.76-12.25,2.28-17.99
		c1.96-3.71,2.51-7.68,2.14-11.97c-0.34-4.04-0.74-8.53,0.65-12.15c1.4-3.66,1.58-6.84,0.76-9.73c0.26,0.33,0.52,0.66,0.78,1
		c3.31-9.53,4.88-25.44,3.94-36.92c-0.17-2.01-0.29-4.01-0.38-6.02c1.53,14.81,0.77,29.44-3.38,43.87
		c-0.25,0.87-0.18,1.93,0.02,2.83c0.53,2.35,1.14,4.69,1.84,7c0.75,2.46,1.12,5.28,2.59,7.25c4.8,6.48,6.98,13.9,8.51,21.57
		c2.08,10.44,6.58,19.63,13.32,27.82c3.81,4.62,7.54,9.29,11.06,14.13c4.75,6.53,9.63,13.04,10.18,21.61
		c0.03,0.52,0.28,1.04,0.5,1.53c1.16,2.61,3.12,3.53,5.64,2.22c1.87-0.98,3.72-2.25,5.13-3.81c2.85-3.15,6.28-4.85,10.4-5.59
		c5.65-1,10.65-3.62,15.21-7.04c0.67-0.5,1.03-1.79,0.97-2.69c-0.02-0.37-1.61-1.1-2.29-0.92c-7.23,1.86-14.45,0.62-21.61-0.24
		c-1.99-0.24-4.08-1.69-5.61-3.13c-1.37-1.29-2.25-3.24-2.97-5.05c-3.68-9.13-7.1-18.38-10.91-27.46
		c-2.06-4.92-4.33-9.83-7.19-14.31c-3.61-5.65-6.31-11.38-6.27-18.24c0.02-4.35-1.05-8.39-3.5-12.2c-1.89-2.94-3.14-6.38-4.21-9.74
		c-0.94-2.97-1.34-6.12-1.82-9.22c-2.22-14.65-7.84-27.95-15.95-40.31c0,0.43-0.01,0.87-0.02,1.3c-0.03-0.86-0.06-1.71-0.09-2.57
		c-0.17-4.37-0.21-8.74-0.36-13.11c-0.31-9.21-1.98-18.61-0.67-27.57c1.95-13.26,3.35-26.91,10.08-39.05
		c0.99-1.8,1.94-3.67,2.55-5.62c0.25-0.81,0.54-1.58,0.84-2.33c2.27,0.2,4.41,0.42,6.55,0.51c4.44,0.19,8.89,0.47,13.34,0.37
		c6.87-0.15,13.74-0.6,20.62-0.9c8.3-0.36,16.67-0.11,24.86-1.24c6.67-0.92,13.08-3.59,19.66-5.28c2.75-0.7,5.64-1.31,8.44-1.2
		c3.98,0.15,7.96,0.87,11.91,1.58c2.43,0.44,4.81,1.25,7.18,2.01c1.71,0.55,3.36,1.3,5.04,1.96c0.11-0.27,0.22-0.54,0.33-0.8
		c-1.74-0.78-3.5-1.53-5.22-2.36c-1.53-0.74-4.1-1.12-3.21-3.44c0.83-2.14,2.95-0.61,4.48-0.29c2.88,0.59,5.73,1.3,8.59,1.96
		c0.06-0.24,0.13-0.48,0.19-0.73c-0.28-0.15-0.55-0.34-0.85-0.43c-3.01-0.86-6.04-1.64-9.03-2.58c-0.65-0.2-1.14-0.95-1.7-1.45
		c0.69-0.43,1.38-1.22,2.07-1.22c3.04,0.01,6.07,0.27,9.11,0.4c1.16,0.05,2.32,0.01,3.48,0.01c0.03-0.27,0.07-0.54,0.1-0.8
		C413.18,166.37,411.7,165.84,410.2,165.73"/>
	
		<path style="display:inline;clip-path:url(#SVGID_00000054237828580939248530000014441200714368847796_);fill:#1D1D1B;stroke:#1D1D1B;stroke-width:2;stroke-miterlimit:10;" d="
		M297.03,170.41c-0.48,0.17-0.93,0.36-1.36,0.57c2.19-1.7,4.8-2.98,7.9-3.8c2.44-0.65,4.74-1.81,7.08-2.83
		c0.24,0.05,0.49,0.09,0.73,0.14c-0.07,0.02-0.16,0.04-0.23,0.07C306.43,166.47,301.83,168.71,297.03,170.41z M410.2,165.73
		c-2.67-0.2-5.37-0.04-8.04-0.27c-0.78-0.07-1.48-0.97-2.22-1.49c0.65-0.64,1.21-1.67,1.96-1.84c1.99-0.46,4.07-0.52,6.11-0.8
		c1.5-0.21,2.98-0.53,4.47-0.79l-0.15-1.11c-2.68,0.16-5.36,0.32-8.04,0.48c-2.84,0.17-5.71,0.63-8.52,0.37
		c-1.76-0.16-3.42-1.42-5.13-2.18c1.11-1.37,2.13-2.84,3.37-4.09c1.15-1.15,2.38-2.11,1.51-4.01c-2.34,1.53-4.53,2.89-6.63,4.38
		c-0.99,0.7-2.11,1.5-2.64,2.52c-2.87,5.55-7.66,7.62-13.51,7.53c-5.36-0.09-10.74-0.36-16.08-0.9c-7.23-0.73-14.46-1.53-21.63,0.21
		c-7,1.7-13.99,1.77-21.05,0.65c0.08-0.03,0.16-0.06,0.24-0.1c3.7-1.78,7.3-3.79,11-5.58c2.16-1.04,4.41-1.91,6.68-2.7
		c4.63-1.61,9.52-2.64,13.89-4.77c5.6-2.73,10.7-6.49,16.19-9.48c6.11-3.33,12.14-7.17,18.69-9.22c7.9-2.47,12.82-8.1,18.17-13.55
		c0.03-0.03-0.03-0.15-0.1-0.39c-3.17,0.69-5.08,4.19-8.32,4.66c-0.22-0.51-0.19-0.45-0.4-0.96c3.87-2.91,7.73-5.82,11.6-8.73
		c-0.32-0.57-0.22-0.39-0.54-0.96c-4.11,1.81-7.06,5.72-11.35,7.2c-0.31-0.6-0.23-0.45-0.54-1.05c4.08-3.02,8.17-6.05,12.26-9.07
		c-0.36-0.52-0.19-0.29-0.55-0.8l-12.87,8.2c-0.35-0.24-0.39-0.26-0.74-0.5c0.5-2.17,2.75-2.65,4.26-3.79
		c1.63-1.23,3.41-2.27,5.13-3.4c-0.3-0.5-0.17-0.28-0.47-0.77c-5.55,3.07-11.1,6.14-17.04,9.42c0.39-3.93,5.61-3.64,6.19-7.22
		c-0.55-0.06-0.86-0.21-1.03-0.11c-5.12,2.96-10.49,5.71-12.2,12.07c-0.59,2.21-2.01,3.33-4.01,3.87c-3.11,0.84-6.21,1.76-9.36,2.34
		c-12.21,2.26-23.73,5.94-33.3,14.43c-1.68,1.49-4.28,2.24-6.58,2.7c-6.54,1.32-12.76,3.34-18.62,6.61
		c-1.4,0.78-3.47,0.93-5.08,0.62c-8.87-1.71-16.77,0.46-24.41,4.97c-5.49-1.85-9.98-6.12-11.94-12.36c-0.04-0.12-0.23-0.2-0.51-0.39
		c1.12-1.36,1.97-3,2.37-5.08c0.24-1.27,1.14-2.59,2.11-3.49c2.37-2.19,2.78-6.13,0.75-8.68c-0.34-0.42-0.37-1.16-0.38-1.75
		c-0.05-1.52-0.02-3.05-0.02-3.9c0.6-11.55-5.24-14.63-11.62-15.98c-3.32-0.71-7.14-0.14-10.5,0.74c-5.04,1.33-7.57,5.16-7.7,10.4
		c-0.07,2.86,0.12,5.73,0.13,8.6c0,0.67-0.1,1.81-0.43,1.93c-2.16,0.75-1.55,2.38-1.22,3.76c0.36,1.51,0.63,3.41,1.66,4.32
		c1.61,1.42,2.34,2.95,2.8,4.95c0.42,1.85,1.51,3.73,2.95,5.35c-1.43,6.57-6.82,10.54-12.29,11.82l-0.62-0.03
		c0.14-0.06,0.3-0.14,0.49-0.22c-8.12-5.26-16.46-7.79-25.93-6.11c-1.85,0.33-3.99-0.21-5.83-0.83c-5.48-1.84-10.79-4.26-16.35-5.79
		c-4.04-1.12-7.79-2.37-11.03-5.15c-6.24-5.37-13.51-8.66-21.51-10.45c-6.11-1.37-12.19-2.87-18.26-4.38
		c-2.11-0.52-3.53-1.71-4.21-4.02c-1.86-6.35-7.1-9.31-12.54-11.97c-0.09-0.04-0.29,0.16-0.89,0.49c0.74,0.79,1.32,1.57,2.06,2.17
		c1.18,0.95,2.51,1.72,3.67,2.7c0.37,0.31,0.39,1.03,0.57,1.56c-0.54-0.06-1.16,0.03-1.59-0.21c-4.35-2.46-8.66-5-13.01-7.46
		c-0.8-0.45-1.72-0.7-2.59-1.04c-0.07,0.14-0.14,0.29-0.2,0.43c3.25,2.17,6.5,4.33,9.75,6.5l-0.81,1.32l-13.16-8.23
		c-0.35,0.52-0.19,0.29-0.55,0.81c4.13,3.01,8.27,6.03,12.4,9.04c-0.51,0.82-0.31,0.49-0.82,1.31c-4.01-2.23-7.42-5.59-11.47-7.75
		c-0.49,0.88-0.28,0.49-0.77,1.37c0.81,0.49,1.68,0.9,2.45,1.44c2.7,1.91,5.39,3.83,8.03,5.83c0.61,0.46,0.97,1.26,1.45,1.9
		l-0.63,0.61c-2.59-1.7-5.18-3.39-7.77-5.09l-0.55,0.76c4.79,3.64,7.93,9.18,13.83,11.5c2.74,1.08,5.76,1.57,8.32,2.95
		c7.4,3.99,14.71,8.15,21.89,12.53c7.39,4.51,14.95,8.43,23.59,9.96c2.41,0.43,4.72,1.81,6.84,2.73c3.13,1.36,6.13,2.99,9.1,4.67
		c1.86,1.05,3.62,1.22,5.6,0.85c-0.02,0.14-0.03,0.23-0.07,0.55c0.48,0.18,0.96,0.37,1.44,0.56l-0.82,0.41
		c-0.3-0.11-0.6-0.23-0.9-0.34c-0.77-0.29-1.75-0.24-2.59-0.1c-7.06,1.15-14,0.71-21.07-0.48c-5.66-0.95-11.54-0.84-17.32-0.71
		c-6.97,0.16-13.91,1.02-20.88,1.23c-4.75,0.14-9.42-1.23-11.78-5.63c-2.28-4.28-6.74-5.35-10.11-8.13
		c-0.21-0.18-0.54,0.01-0.5,0.29c0.14,0.95,0.44,1.79,0.95,2.49c0.5,0.69,1.53,0.97,2.09,1.64c0.75,0.9,1.92,2.16,1.71,2.95
		c-0.23,0.87-1.74,1.77-2.82,1.96c-2.26,0.4-4.61,0.52-6.91,0.41c-3.03-0.14-6.04-0.66-9.07-0.91c-0.93-0.08-1.89,0.2-2.83,0.31
		l0.02,0.94c3.24,0.38,6.51,0.63,9.71,1.23c1,0.18,1.83,1.3,2.73,1.99c-1,0.54-1.96,1.43-3,1.55c-3.1,0.34-6.24,0.31-9.35,0.57
		c-0.81,0.07-1.57,0.65-2.36,0.99c0.07,0.22,0.14,0.45,0.21,0.67c1.13-0.07,2.26-0.16,3.4-0.22c3.03-0.16,6.07-0.37,9.1-0.4
		c0.66-0.01,1.32,0.65,1.98,0.99c-0.56,0.58-1.01,1.44-1.69,1.69c-1.67,0.61-3.46,0.9-5.18,1.39c-1.58,0.46-3.13,1.02-4.69,1.54
		c0.07,0.21,0.14,0.43,0.2,0.64c0.86-0.12,1.74-0.18,2.59-0.38c2.78-0.66,5.54-1.46,8.34-2.01c0.7-0.14,1.54,0.47,2.32,0.73
		c-0.35,0.84-0.51,1.87-1.11,2.45c-0.67,0.65-1.74,0.87-2.63,1.28c-1.56,0.72-3.13,1.43-4.87,2.23c0.48,0.36,0.63,0.57,0.73,0.54
		c0.69-0.17,1.44-0.27,2.04-0.61c4.83-2.7,10.06-3.55,15.52-3.5c1.14,0.01,2.38-0.12,3.42-0.56c2.92-1.21,5.79-0.81,8.68-0.1
		c2.34,0.58,4.74,1.04,6.99,1.88c13.33,5.01,27.11,6.14,41.21,5.27c4.88-0.3,9.83,0.07,14.73,0.42c6.05,0.44,12.05,1.6,18.15,0.17
		c2.09-0.49,4.29-0.47,6.53-0.58l0.7,0.4c4.34,10.19,8.68,20.22,10.57,31.45c2.87,17,3.53,33.5-1.88,50.08
		c-0.02,0.05-0.03,0.11-0.05,0.17c-0.22,0.1-0.34,0.15-0.42,0.23c-11.52,11.55-19.26,25.33-23.7,40.97
		c-1.77,6.22-4.05,12.01-8.64,16.75c-1.28,1.32-1.97,3.19-3.04,4.74c-2.77,4.05-5.36,8.27-8.46,12.05
		c-4.7,5.73-9.03,11.65-11.28,18.77c-1.7,5.37-3.07,10.86-4.35,16.35c-1.68,7.24-2.77,14.63-6.22,21.36
		c-1.47,2.87-3.36,5.14-6.19,6.84c-3.25,1.95-6.23,4.36-9.67,6.81c1.27,1.1,1.93,1.83,2.72,2.33c3.79,2.41,7.56,4.84,11.47,7.04
		c0.67,0.38,2.52-0.03,2.91-0.65c3.13-5.09,6.14-10.26,9-15.52c2.55-4.7,4.5-9.75,7.37-14.24c2.88-4.51,6.47-8.58,9.9-12.71
		c3.71-4.46,6.55-9.29,8.44-14.84c2.19-6.42,4.24-13,8.64-18.39c5.14-6.31,10.46-12.49,15.49-18.89c0.86-1.09,1.73-2.4,2.28-3.74
		c0.21,1.74,0.58,4.12,0.96,7.69c0.54,5.05,0.76,10.2,0.45,15.27c-0.5,8.21-1.65,16.39-2.35,24.6c-1.03,12.18,2.24,23.57,6.22,34.92
		c2.27,6.48,3.8,13.22,5.38,19.92c0.4,1.69,0.02,3.74-0.54,5.45c-1.13,3.45-2.6,6.79-3.99,10.15c-1.43,3.44-0.76,4.64,2.9,4.86
		c1.78,0.11,3.58,0.11,5.37,0.1c2.09-0.01,4.24-0.43,6.26-0.06c3.34,0.6,5.07-0.79,4.54-4.17c-0.26-1.67-0.57-3.34-0.79-5.02
		c-0.6-4.66-0.85-9.4-1.81-13.99c-1.72-8.24-2.12-16.48-1.7-24.86c0.33-6.5,0.56-13.08-0.07-19.54c-0.81-8.27-1.4-16.42,0.92-24.53
		c2.18-7.59,2.93-15.34,2.61-23.22c-0.07-1.71,0.06-3.43,0.41-5.1c1.68-7.94,3.72-15.81,5.21-23.79c1.23-6.56,2.06-13.19,3.03-20.07
		c1.08-0.01,2.11,0.31,3.02,1.08c-0.85,6.5-1.44,12.53-2.63,18.42c-1.09,5.37-1.22,10.64-0.46,16c1.3,9.14,2.88,18.27,0.58,27.5
		c-0.25,1.01-0.18,2.18,0.03,3.21c1.73,8.26-0.01,16.21-2.03,24.15c-2.33,9.18-2.48,18.37-0.09,27.59c1.1,4.23,2.16,8.47,3.04,12.75
		c2.04,9.86,4.41,19.72,1.24,29.84c-0.18,0.58-0.17,1.24-0.18,1.87c-0.06,2.3,1.07,3.65,3.36,3.55c2.22-0.09,4.48-0.29,6.62-0.86
		c5.4-1.44,10.74-1.25,16.21-0.43c4.3,0.65,8.71,0.66,13.08,0.78c1.3,0.04,2.68-0.35,3.88-0.87c0.68-0.3,1.35-1.22,1.46-1.95
		c0.06-0.42-0.92-1.21-1.57-1.48c-1.06-0.43-2.24-0.78-3.37-0.79c-6.99-0.05-12.45-3.47-18.14-7.13c-4.9-3.15-6.45-7.14-6.11-12.4
		c0.55-8.59,1.05-17.18,1.87-25.74c0.58-6.08,1.37-12.12,0.06-18.19c-1.35-6.27-0.76-12.25,2.28-17.99
		c1.96-3.71,2.51-7.68,2.14-11.97c-0.34-4.04-0.74-8.53,0.65-12.15c1.4-3.66,1.58-6.84,0.76-9.73c0.26,0.33,0.52,0.66,0.78,1
		c3.31-9.53,4.88-25.44,3.94-36.92c-0.17-2.01-0.29-4.01-0.38-6.02c1.53,14.81,0.77,29.44-3.38,43.87
		c-0.25,0.87-0.18,1.93,0.02,2.83c0.53,2.35,1.14,4.69,1.84,7c0.75,2.46,1.12,5.28,2.59,7.25c4.8,6.48,6.98,13.9,8.51,21.57
		c2.08,10.44,6.58,19.63,13.32,27.82c3.81,4.62,7.54,9.29,11.06,14.13c4.75,6.53,9.63,13.04,10.18,21.61
		c0.03,0.52,0.28,1.04,0.5,1.53c1.16,2.61,3.12,3.53,5.64,2.22c1.87-0.98,3.72-2.25,5.13-3.81c2.85-3.15,6.28-4.85,10.4-5.59
		c5.65-1,10.65-3.62,15.21-7.04c0.67-0.5,1.03-1.79,0.97-2.69c-0.02-0.37-1.61-1.1-2.29-0.92c-7.23,1.86-14.45,0.62-21.61-0.24
		c-1.99-0.24-4.08-1.69-5.61-3.13c-1.37-1.29-2.25-3.24-2.97-5.05c-3.68-9.13-7.1-18.38-10.91-27.46
		c-2.06-4.92-4.33-9.83-7.19-14.31c-3.61-5.65-6.31-11.38-6.27-18.24c0.02-4.35-1.05-8.39-3.5-12.2c-1.89-2.94-3.14-6.38-4.21-9.74
		c-0.94-2.97-1.34-6.12-1.82-9.22c-2.22-14.65-7.84-27.95-15.95-40.31c0,0.43-0.01,0.87-0.02,1.3c-0.03-0.86-0.06-1.71-0.09-2.57
		c-0.17-4.37-0.21-8.74-0.36-13.11c-0.31-9.21-1.98-18.61-0.67-27.57c1.95-13.26,3.35-26.91,10.08-39.05
		c0.99-1.8,1.94-3.67,2.55-5.62c0.25-0.81,0.54-1.58,0.84-2.33c2.27,0.2,4.41,0.42,6.55,0.51c4.44,0.19,8.89,0.47,13.34,0.37
		c6.87-0.15,13.74-0.6,20.62-0.9c8.3-0.36,16.67-0.11,24.86-1.24c6.67-0.92,13.08-3.59,19.66-5.28c2.75-0.7,5.64-1.31,8.44-1.2
		c3.98,0.15,7.96,0.87,11.91,1.58c2.43,0.44,4.81,1.25,7.18,2.01c1.71,0.55,3.36,1.3,5.04,1.96c0.11-0.27,0.22-0.54,0.33-0.8
		c-1.74-0.78-3.5-1.53-5.22-2.36c-1.53-0.74-4.1-1.12-3.21-3.44c0.83-2.14,2.95-0.61,4.48-0.29c2.88,0.59,5.73,1.3,8.59,1.96
		c0.06-0.24,0.13-0.48,0.19-0.73c-0.28-0.15-0.55-0.34-0.85-0.43c-3.01-0.86-6.04-1.64-9.03-2.58c-0.65-0.2-1.14-0.95-1.7-1.45
		c0.69-0.43,1.38-1.22,2.07-1.22c3.04,0.01,6.07,0.27,9.11,0.4c1.16,0.05,2.32,0.01,3.48,0.01c0.03-0.27,0.07-0.54,0.1-0.8
		C413.18,166.37,411.7,165.84,410.2,165.73z"/>
</g>
<g class="st0">
	<defs>
		<rect id="SVGID_00000171682451229755141700000003644486408031964603_" x="13.75" y="13.56" width="471.82" height="471.82"/>
	</defs>
	<clipPath id="SVGID_00000111901660789646615080000016522498920351236531_" class="st1">
		<use xlink:href="#SVGID_00000171682451229755141700000003644486408031964603_"  style="overflow:visible;"/>
	</clipPath>
	
		<circle style="display:inline;clip-path:url(#SVGID_00000111901660789646615080000016522498920351236531_);fill:none;stroke:#1D1D1B;stroke-width:2;" cx="249.66" cy="249.47" r="233.44"/>
	<path style="display:inline;clip-path:url(#SVGID_00000111901660789646615080000016522498920351236531_);fill:#1D1D1B;" d="
		M176.36,230.25c-0.06,0-0.12,0.01-0.18,0.01c0.05,0.01,0.1,0.03,0.15,0.04L176.36,230.25z"/>
	<path style="display:inline;clip-path:url(#SVGID_00000111901660789646615080000016522498920351236531_);fill:#1D1D1B;" d="
		M305.41,294.66c-0.14,0.06-0.29,0.12-0.43,0.19c0.2,0.05,0.4,0.09,0.6,0.14C305.52,294.88,305.46,294.77,305.41,294.66"/>
	<path style="display:inline;clip-path:url(#SVGID_00000111901660789646615080000016522498920351236531_);fill:#1D1D1B;" d="
		M154.53,240.03c0,0,0,0.01-0.01,0.02c0,0,0,0,0,0L154.53,240.03z"/>
	<path style="display:inline;clip-path:url(#SVGID_00000111901660789646615080000016522498920351236531_);fill:#1D1D1B;" d="
		M188.57,231.04c-0.07,0-0.14-0.01-0.21-0.02c0.05,0.02,0.09,0.04,0.14,0.06L188.57,231.04z"/>
	<path style="display:inline;clip-path:url(#SVGID_00000111901660789646615080000016522498920351236531_);fill:#1D1D1B;" d="
		M291.5,267.88c-0.24-0.29-0.49-0.51-0.75-0.64C290.87,267.48,291.1,267.7,291.5,267.88"/>
	<path style="display:inline;clip-path:url(#SVGID_00000111901660789646615080000016522498920351236531_);fill:#1D1D1B;" d="
		M148.6,219.37c0.07,0.01,0.14,0.01,0.21,0.02c-0.06-0.02-0.13-0.04-0.2-0.07C148.61,219.34,148.6,219.35,148.6,219.37"/>
	<path style="display:inline;clip-path:url(#SVGID_00000111901660789646615080000016522498920351236531_);fill:#1D1D1B;" d="
		M421.74,203.82c-0.34,1.86-0.43,3.75-0.75,5.61c-0.07,0.42-0.68,1.11-0.98,1.08c-5-0.47-9.99-1.04-14.98-1.6
		c-0.05-0.01-0.09-0.09-0.2-0.21c3.05-18.14,1.04-36.1-2.97-54.1c3.88-0.67,7.47-1.29,11.05-1.91c0.06-0.21,0.12-0.42,0.18-0.64
		c-0.53-0.18-1.09-0.58-1.58-0.5c-2.91,0.44-5.79,1.02-8.69,1.48c-1.91,0.3-3.64-0.1-5.25-1.33c-0.88-0.68-2.12-0.9-3.19-1.32
		c-5.57-2.2-11.14-4.41-16.87-6.68c0.88-1.26,1.88-2.69,2.88-4.12c2.23-3.22,4.62-6.35,6.63-9.7c1.06-1.76,2.51-2.78,4.18-3.64
		c3.02-1.54,6.1-2.98,9.14-4.5c1.04-0.52,1.75-0.53,2.39,0.66c1.93,3.65,4.19,7.14,5.89,10.89c1.76,3.87,3,7.97,4.5,11.96
		c0.66,1.76,1.41,3.49,2.16,5.33c-0.51,0.37-1.04,0.75-1.57,1.13c0.03,0.16,0.06,0.31,0.09,0.47c0.63,0.03,1.27,0.05,2.24,0.1
		c1.25,4.81,2.46,9.73,3.81,14.6c1.9,6.86,2,13.9,2.34,20.93C422.43,193.16,422.72,198.5,421.74,203.82 M414.22,239.64
		c-2.72,7.87-5.31,15.81-8.46,23.51c-1.76,4.3-4.53,8.18-6.84,12.26c-1.6,2.81-3.39,5.04-7.24,4.67c-2.43-0.24-4.94,0.38-7.42,0.53
		c-2.84,0.18-5.68,0.26-8.91,0.41c2.11-4.12,4.02-7.94,6.04-11.72c3.32-6.22,6.89-12.31,9.99-18.64c2.46-5.04,4.67-10.25,6.45-15.56
		c2.68-7.97,4.9-16.09,7.48-24.69c4.37,0.43,9.18,0.86,13.98,1.42c0.41,0.05,1.08,0.96,1.02,1.38
		C419.02,222.18,417.19,231.05,414.22,239.64 M389.78,286.16c-1.46,0.19-2.37,0.3-3.49,0.44c0.99,0.31,1.8,0.56,2.83,0.88
		c-0.96,0.68-1.83,1.18-2.53,1.87c-0.23,0.22,0.01,0.92,0.04,1.6c-1.63-0.31-3.26-0.61-4.89-0.92c-0.02,0.07-0.04,0.14-0.06,0.21
		c1.09,0.34,2.19,0.69,3.46,1.09c-2.89,0.87-4.55-1.08-6.74-2.41c1,0.12,1.76,0.21,2.71,0.33c-1.42-0.65-2.63-1.21-3.84-1.76
		c0.08-0.2,0.16-0.41,0.24-0.61c0.85,0.13,1.71,0.26,2.57,0.38l0.05-0.26c-0.9-0.21-1.81-0.43-3.11-0.73
		c0.78-0.19,1.18-0.28,1.58-0.38c-0.65-0.21-1.3-0.42-2.24-0.73c0.61-0.19,0.98-0.31,1.31-0.41c-0.42-0.15-0.91-0.32-1.41-0.5
		c0.03-0.15,0.07-0.3,0.1-0.44c2,0.37,4,0.75,6,1.12c0.09-0.13,0.18-0.26,0.27-0.39c-0.51-0.49-1.02-0.98-1.77-1.69
		c1.65,0.33,3.15,0.63,5.13,1.04c-0.58-0.42-0.77-0.56-0.97-0.7c2.86-0.99,4.06-0.74,6.07,1.24c-0.49,0.13-0.98,0.31-1.49,0.39
		c-0.51,0.09-1.03,0.09-1.93,0.15C388.39,285.36,388.81,285.6,389.78,286.16 M371.79,280.99c-3.29-0.29-6.59-0.86-9.88-0.78
		c-3.97,0.09-6.48-2.7-9.61-4.21c-2.72-1.32-5.2-3.13-8.02-4.87c2.63-1.44,4.93-2.62,7.16-3.93c5.9-3.47,10.91-8.01,15.49-13.05
		c2.63-2.89,5.1-5.93,7.62-8.93c0.45-0.54,0.67-1.28,1.15-1.78c0.31-0.32,1.06-0.62,1.35-0.46c3.81,2.12,7.57,4.32,11.34,6.51
		c1.06,0.62,1.32,1.23,0.61,2.51c-3.79,6.88-7.44,13.85-11.11,20.79c-1.12,2.12-2.38,4.2-3.2,6.44
		C374.11,280.83,373.19,281.11,371.79,280.99 M338.96,279.8c-6.35,4.18-13.09,7.47-20.86,7.37c-1.82-0.02-4.3,0.41-5.73-1.75
		c-0.11-0.16-0.73,0.03-1.11,0.03c-0.59,0.01-1.17,0-1.76,0c0-0.21-0.01-0.41-0.01-0.61h4.49c0.01-0.16,0.01-0.33,0.02-0.49
		c-1.02-0.12-2.05-0.23-3.07-0.35c-0.02-0.11-0.04-0.22-0.07-0.33c0.72-0.1,1.44-0.2,2.15-0.3c0-0.09,0.01-0.18,0.02-0.27l-2.2-0.22
		c0-0.08,0.01-0.17,0.01-0.25c0.82-0.04,1.63-0.09,2.53-0.14c-0.19-0.3-0.31-0.5-0.52-0.83c0.61-0.06,1.16-0.12,1.7-0.18
		c0-0.1,0-0.21,0-0.31c-0.92-0.08-1.83-0.16-2.75-0.23c0-0.09,0-0.17,0-0.26c0.61-0.07,1.22-0.15,2.18-0.26
		c-0.77-0.32-1.25-0.53-1.74-0.73c0.05-0.14,0.1-0.29,0.14-0.43c0.88,0.27,1.76,0.54,2.67,0.83v-2.11c0.64,0.31,1.08,0.52,1.51,0.73
		c0.08-0.11,0.16-0.21,0.24-0.32c-0.91-0.62-1.83-1.25-2.81-1.92c0.58-0.07,1.08-0.12,2.18-0.25c-1.01-0.31-1.47-0.44-2.37-0.72
		c1.04-0.23,1.68-0.37,2.52-0.55c-0.6-0.11-1.05-0.19-1.45-0.26c-0.46-0.66,2.49-0.27,0.35-1.23c0.8-0.46,1.53-0.89,2.3-1.34
		c-0.51-0.14-1.03-0.29-1.98-0.55c0.84-0.23,1.25-0.35,2.08-0.58c-0.69-0.15-0.93-0.21-1.4-0.31c0.91-0.27,1.64-0.48,2.37-0.7
		c0-0.08,0-0.16,0-0.24c-0.64-0.05-1.28-0.1-1.92-0.15c0-0.07-0.01-0.14-0.02-0.21c0.56-0.13,1.13-0.25,1.69-0.38
		c0-0.07,0-0.14,0.01-0.21c-0.43-0.03-0.87-0.07-1.3-0.11c-0.02-0.12-0.04-0.24-0.06-0.36c0.68-0.12,1.35-0.24,2.03-0.36
		c0-0.07,0-0.13-0.01-0.2c-0.66-0.03-1.32-0.07-1.99-0.1c0-0.1,0-0.2-0.01-0.3c0.63-0.09,1.27-0.17,2.12-0.29
		c-0.61-0.13-1.02-0.22-1.78-0.39c0.83-0.33,1.34-0.53,1.87-0.73c-0.33-0.23-0.62-0.44-0.91-0.64c0.43-0.53,0.86-1.05,1.28-1.56
		c-0.05-0.05-0.66-0.51-0.6-0.64c0.22-0.47,0.68-0.82,1.1-1.27c0.03,0.02-0.2-0.11-0.28-0.16c0.51-0.58,1.33-1.1,1.48-1.78
		c0.4-1.84,0.54-3.73,0.71-5.61c0.09-0.95,0.02-1.92,0.02-2.98c3.23,0.47,6.37,0.88,9.5,1.43c0.34,0.06,0.66,0.87,0.8,1.38
		c0.81,2.99,1.08,6.24,2.46,8.92c1.4,2.73,3.67,5.13,5.94,7.28c1.8,1.71,4.16,2.81,6.2,4.14
		C344.34,276.18,341.66,278.01,338.96,279.8 M335.02,226.02c0.97-7.66,4.74-14.24,8.44-20.86c3.21-5.74,7.34-10.44,12.69-14.3
		c5.39-3.89,10.36-2.49,14.7,1.14c4.85,4.06,7.53,9.42,9.43,15.31c2.91,9.03,2.21,17.85-1.49,26.46c-1.44,3.34-2.86,6.79-4.92,9.75
		c-2.5,3.61-5.51,6.91-8.57,10.09c-3.09,3.21-6.3,6.38-9.86,9.03c-3.66,2.72-7.79,4.81-11.74,7.14c-0.25,0.15-0.77,0.06-1.04-0.11
		c-4.13-2.54-7.01-6.04-7.95-10.89c-0.7-3.63-1.28-7.27-1.96-11.22C333.48,240.51,334.1,233.25,335.02,226.02 M348.15,193.88
		c-8.14-5.61-17-9.94-25.88-14.19c-6.95-3.32-13.86-6.78-20.98-9.69c-6.75-2.76-13.72-5-20.68-7.21c-1.72-0.54-2.34-1.15-1.98-2.77
		c1.17-5.22,2.24-10.48,3.61-15.65c2.36-8.92,5.67-17.51,9.61-25.85c1.09-2.3,2.28-4.56,3.29-6.89c0.6-1.38,1.6-1.34,2.73-1.12
		c6.72,1.31,13.45,2.62,20.16,3.97c8.24,1.65,15.85,4.96,23.35,8.64c7.16,3.52,13.72,7.94,19.78,13.05
		c2.88,2.42,5.31,5.48,7.51,8.55c2.17,3.02,1.99,6.8,2.17,10.7c-0.05,5.25-0.65,10.76-2.38,16.07c-1.31,4.01-3.12,7.87-4.15,11.94
		c-0.67,2.64-2.18,3.37-4.45,3.88c-3.86,0.86-6.41,3.81-9.23,6.25C349.73,194.33,349.22,194.63,348.15,193.88 M276.64,161.81
		c-7.31-1.83-14.83-3.28-22.52-3.59c-7.69-0.31-15.37-0.42-23.19,0.89c0.32-2.52,0.49-4.79,0.91-7.02
		c1.51-8.01,2.85-16.07,4.77-23.98c1.02-4.2,3.08-8.15,4.67-12.21c0.19-0.48,0.46-0.95,0.57-1.45c0.69-3.14,0.68-3.03,3.77-3.25
		c8.42-0.61,16.82-1.69,25.24-1.9c7.43-0.19,14.89,0.53,22.33,0.85c0.24,0.01,0.47,0.15,0.91,0.3
		C285.36,126.58,279.26,143.49,276.64,161.81 M276.38,165.66c-1.27,5.11-2.5,10.24-3.59,15.39c-0.82,3.83-1.95,7.7-1.98,11.56
		c-0.07,8.58-0.72,17.25,1.62,25.67c0.8,2.9,1.97,5.7,3.07,8.83c-6.64-5.28-13.93-8.52-21.89-9.87c-7.92-1.35-15.79-1.07-22.76,3.83
		c-0.42,0.3-0.85,0.61-1.21,0.98c-0.35,0.36-0.62,0.81-0.99,1.3c-1.5-0.78-2.93-1.51-4.61-2.38c3.33-19.82,1.25-40.29,6.3-60.44
		c6.58-0.23,13.17-0.51,19.76-0.68c8.23-0.21,16.26,1.42,24.3,2.88C276.15,163.06,276.84,163.78,276.38,165.66 M269.92,239.77
		c-0.02-0.21-0.04-0.43-0.06-0.64c-0.79,3.95-1.13,7.93-0.22,11.85c0.44,1.89,1.51,3.63,2.33,5.49c-7,4.42-14.21,3.66-21.36,1.97
		c-4.74-1.12-9.33-2.93-13.2-6.05c-1.45-1.17-2.75-2.59-3.89-4.08c-2.92-3.83-6.06-7.68-6.35-12.73
		c-0.46-8.03,2.11-13.73,10.07-15.92c7.94-2.18,15.81-1.83,23.47,1.16c3.62,1.41,7.09,3.25,10.57,5c1.11,0.56,2.05,1.47,2.85,2.07
		C272.77,231.73,271.35,235.75,269.92,239.77 M221.34,221.14c-5.88,0.28-11.52-0.54-16.71-3.65c-4.08-2.45-8.35-4.58-12.47-6.98
		c-0.6-0.35-1.04-1.43-1.07-2.19c-0.25-5.87-0.46-11.74-0.54-17.61c-0.06-4.76,0-9.53,0.18-14.28c0.03-0.89-0.72-1.46-0.31-2.6
		c0.5-1.37,1.17-2.05,2.39-2.49c9.21-3.31,18.25-7.13,27.88-9.14c2.52-0.53,5.04-1.07,7.84-1.67c-3.14,12.21-3.31,24.16-3.95,36.08
		c-0.42,7.81-1.14,15.61-1.82,23.4C222.74,220.43,221.85,221.11,221.34,221.14 M189.34,209.75c-0.34-0.08-1.09-0.31-1.86-0.43
		c-2.84-0.45-5.69-0.85-8.53-1.29c-0.16-0.02-0.3-0.21-0.42-0.34c-2.9-3.22-6.92-4.3-10.78-5.7c-1.46-0.53-2.96-0.95-4.53-1.45
		c-0.37-5.43-0.73-10.82-1.1-16.21c-0.13-1.82-0.25-3.65-0.37-5.47c-0.07-0.97,0.12-1.53,1.34-1.62c8.68-0.68,17.18-2.36,25.55-4.76
		c0.05-0.01,0.12,0.04,0.7,0.23V209.75z M159.04,212.96c-4.81-0.97-9.38-1.9-14.08-2.85c0.34-2.25,0.68-4.49,1.05-6.96
		c1.22,0.75,1.38,3.1,3.38,1.72c-2.09-0.19-2.24-0.64-1.07-4.01c-0.72,0.63-1.13,0.99-1.9,1.66v-3.25c0.23-0.11,0.57-0.21,0.58-0.33
		c0.24-2.71,1.78-2.13,3.53-1.55c3.65,1.21,7.35,2.28,11.11,3.43C162.36,205.39,160.29,209.27,159.04,212.96 M165.2,228.09
		c-1.55-0.28-3.1-0.57-4.63-0.84c0.58,0.68,1.18,1.36,1.77,2.05c-0.1,0.18-0.21,0.36-0.31,0.53c-3.31-1.7-6.61-3.41-9.92-5.11
		c0.03-0.25,0.05-0.51,0.08-0.76c2.1,0.32,4.88-0.07,6.15,1.13C160.46,227.11,163.09,226.63,165.2,228.09 M164.46,235.06
		c-7.05,3.09-14.43,2.65-21.83,2.66c3.02-4.21,2.89-8.87,2.84-13.44C151.72,227.83,157.96,231.37,164.46,235.06 M147.6,243.26
		c-0.06-0.41-0.14-0.92-0.23-1.55c1.72-0.19,3.3-0.36,5.23-0.56C150.75,241.93,149.24,242.57,147.6,243.26 M142.82,243.07
		c1.85-1.13,3.19-3.1,6.04-1.84c-1.11,0.09-1.78,0.15-2.44,0.21C147.12,243.33,146.91,243.43,142.82,243.07 M142.7,245.46
		c-0.26-0.01-0.49-0.81-0.84-1.42c-0.44,0.08-1.12,0.2-1.81,0.32c2.35-1.6,4.76-0.16,7.3-0.07
		C146.09,245.86,144.33,245.52,142.7,245.46 M142.58,246.65c-0.87,0.09-1.75,0.24-2.62,0.24c-1.03,0-2.11,0.02-3.06-0.29
		c-0.61-0.2-1.16-0.91-1.48-1.52c-0.4-0.75-0.53-1.64-0.91-2.89c0.96,0.31,1.71,0.31,1.98,0.67c1.52,2.06,3.23,3.69,6.18,3.26
		C142.64,246.3,142.61,246.48,142.58,246.65 M143.98,228.99c-0.66-0.04-1.34-0.09-2.38-0.16c-0.16-0.98-0.34-2.09-0.52-3.23
		C143.41,225.5,143.83,226.05,143.98,228.99 M158.94,222.89c-0.07,0.26-0.15,0.52-0.22,0.78c-2.2-0.65-4.4-1.3-6.61-1.95
		c-0.06,0.18-0.11,0.35-0.17,0.52c1.5,0.44,3,0.89,4.51,1.34c-0.05,0.18-0.1,0.36-0.15,0.55c-3.13-0.83-6.27-1.66-9.4-2.49
		c0.03-0.14,0.05-0.28,0.08-0.42c0.97,0.14,1.95,0.29,2.92,0.43c0.08-0.13,0.16-0.26,0.24-0.39c-0.55-0.5-1.11-1.01-1.66-1.51
		c0.04-0.13,0.07-0.25,0.11-0.38c-0.37-0.04-0.76-0.08-1.17-0.13c0.28,0.69,0.45,1.12,0.78,1.92c-2.16-0.97-4.06-1.83-5.96-2.68
		c0.03-0.1,0.07-0.21,0.1-0.31c3.02,0.3,6.04,0.6,9.06,0.9c-0.02,0.2-0.04,0.41-0.05,0.61c-0.82-0.09-1.65-0.19-2.55-0.28
		C152.18,220.56,155.56,221.72,158.94,222.89 M134.77,208.43c0.89,0.74,1.43,1.19,1.89,1.58c-0.16,0.26-0.31,0.5-0.74,1.21
		c-1.73-0.66-3.82-1.46-6.05-2.31c0.21,0.44,0.39,0.81,0.58,1.18c-0.17,0.1-0.33,0.19-0.49,0.29c-0.49-0.79-0.97-1.57-1.46-2.36
		c0.16-0.16,0.31-0.32,0.47-0.48c0.94,0.46,1.88,0.91,2.84,1.38c0.04-0.23,0.11-0.44,0.08-0.46c-2.86-1.61-3.22-4.27-3.08-7.18
		c0.05-1.04-0.07-2.09-0.14-3.13c-0.18-3,2.5-5.58,5.5-5.15c3.29,0.47,6.57,1.03,9.83,1.68c1.03,0.21,1.98,0.83,2.7,1.15
		c-0.14,1.38-0.25,2.43-0.36,3.49c0.01,0,0.02-0.01,0.03-0.01c-0.37,0.6-0.9,1.17-1.03,1.81c-0.53,2.55-0.9,5.14-1.37,7.7
		c-0.11,0.61-0.36,1.2-0.53,1.74C140.61,209.85,137.97,209.21,134.77,208.43 M126.7,213.39v3.3c-2.69-0.16-5.39,0.04-7.9-0.55
		c-4.34-1.02-5.57-6.26-2.53-10.37c2.79-3.79,6.39-6.73,10.82-9.41c-0.15,4.63,0.86,8.79,0.52,12.96c-0.2,0.01-0.39,0.02-0.59,0.04
		c0.45,0.37,0.9,0.73,1.35,1.1c-0.06,0.1-0.12,0.21-0.18,0.31c-0.5-0.18-1.01-0.36-1.55-0.56c-0.11,2.21,1.71,2.68,2.87,3.96
		C128.59,213.92,127.65,213.66,126.7,213.39 M113.55,207.03c-0.2,0.04-0.39,0.09-0.59,0.13c0-3.36,0-6.72,0-10.08
		c0.01-3.52,0.04-7.05,0.03-10.57c0-1.25,0.43-1.69,1.78-1.52c3.53,0.44,7.07,0.73,10.61,1.06c1.37,0.13,1.87,0.77,1.74,2.18
		c-0.14,1.55-0.17,3.14-0.02,4.69c0.22,2.24-1.56,3.18-2.8,4.28c-1.93,1.71-4.36,2.87-6.29,4.58
		C116.33,203.3,115.03,205.27,113.55,207.03 M114.47,175.58c0.62-3.59,1.42-7.15,2.08-10.74c0.21-1.15,0.71-1.84,1.93-1.69
		c2.97,0.38,5.95,0.73,8.89,1.29c0.37,0.07,0.75,1.35,0.71,2.05c-0.2,3.85-0.6,7.69-0.8,11.54c-0.12,2.32-0.02,4.66-0.02,6.86
		c-4.67-0.44-9.13-0.87-13.85-1.32C113.75,180.96,114.01,178.25,114.47,175.58 M136.93,118.87c3.77,2,7.4,3.91,11.3,5.98
		c-9.08,11.42-16.05,23.81-19.63,38.34c-3.53-0.56-7.08-1.12-10.71-1.69C121.06,145.84,128.17,132.12,136.93,118.87 M152.76,98
		c3.26,3.78,6.32,7.34,9.5,11.02c-3.93,4.36-7.8,8.66-11.68,12.96c-1.87,2.07-1.95,2.05-4.32,0.63c-2.85-1.71-5.75-3.33-8.95-5.18
		C142.5,110.89,147.57,104.53,152.76,98 M155.37,95.9c4.71-4.61,9.72-8.81,15.63-11.86c3.53-1.82,6.84-4.1,10.41-5.81
		c3.33-1.59,6.86-2.8,10.37-4.01c4.25-1.46,8.56-2.75,13.2-4.23c1.01,4.1,1.97,8,2.92,11.86c-8.36,2.76-16.56,5.5-24.06,9.93
		c-7.62,4.51-14.67,9.77-20.82,16.52c-2.82-3.73-5.27-7.01-7.78-10.25C154.59,97.21,154.6,96.66,155.37,95.9 M208.86,69.31
		c11.71-2.93,23.43-5.87,35.46-7.23c8.36-0.94,16.74-1.66,25.12-2.47c0.44-0.04,0.89,0,1.47,0c0.32,4.89,0.62,9.5,0.93,14.26
		c-2.59,0.2-5.55,0.42-8.51,0.67c-8.98,0.77-17.97,1.51-26.95,2.33c-3.96,0.36-7.98,0.52-11.83,1.41c-4.34,1-8.83,1.24-13.06,2.73
		c-1.28,0.45-2.23,0.03-2.53-1.53c-0.5-2.56-1.12-5.09-1.76-7.62C206.8,70.34,207.57,69.63,208.86,69.31 M274.99,59.4
		c5.48,0.09,10.97,0.21,16.44,0.6c5.4,0.38,10.84,0.74,16.15,1.73c9.08,1.69,18.13,3.61,26.8,6.93c2.56,0.98,5.13,1.96,7.62,3.1
		c0.54,0.25,1.2,1.31,1.07,1.79c-1.01,3.55-2.2,7.04-3.37,10.69c-6.26-2.37-12.25-4.77-18.34-6.92c-6.46-2.28-13.26-3.01-20.04-3.24
		c-8.75-0.3-17.52-0.13-26.27-0.17c-0.45,0-0.89-0.04-1.61-0.07c-0.27-3.29-0.54-6.52-0.81-9.75c-0.04-0.52-0.06-1.04-0.14-1.55
		C272.18,60.49,272.9,59.37,274.99,59.4 M282.92,105.32c2.68-9.19,3.21-18.6,3.03-28.11c-0.01-0.71,1.02-2.07,1.55-2.06
		c7.65,0.19,15.31,0.29,22.92,0.96c6.68,0.58,12.94,3.01,19.07,5.72c3.03,1.34,6.14,2.51,9.5,3.87
		c-3.95,10.2-9.53,19.09-15.16,27.96c-6.11-1.19-12.29-2.55-18.53-3.55c-5.55-0.89-11.17-1.37-16.76-2.04
		c-1.36-0.16-2.72-0.42-4.08-0.5C282.92,107.46,282.55,106.57,282.92,105.32 M245.94,101.76c1.06-4.35,2-8.76,2.55-13.2
		c0.4-3.22,0.19-6.53,0.07-9.79c-0.04-1.25,0.16-1.76,1.49-1.84c6.27-0.36,12.53-0.83,18.8-1.19c3.79-0.21,7.58-0.34,11.37-0.41
		c1.46-0.02,2.93,0.22,4.52,0.36c-0.22,3.71-0.42,7.14-0.62,10.58c-0.12,2.07-0.1,4.15-0.42,6.19c-0.68,4.44-1.49,8.86-2.37,13.26
		c-0.12,0.62-0.99,1.55-1.5,1.55c-11.74-0.04-23.4,0.99-35.04,2.39c-0.49,0.06-1,0.01-1.7,0.01
		C244.12,106.89,245.3,104.39,245.94,101.76 M238.79,110.1c-4.85,0.57-9.76,1.28-14.41,2.69c-3.7,1.12-7.75,0.83-11.4,3.45
		c0.08-11.63-0.57-22.63-3.57-33.44c12.47-2.88,24.8-5.29,38.23-5.27c-0.6,5.98-0.87,11.57-1.79,17.05
		c-0.71,4.23-2.23,8.31-3.4,12.46C241.95,108.9,241,109.84,238.79,110.1 M159.68,175.58c-4.62-3.06-9.51-5.45-15.03-6.37
		c-0.29-0.05-0.55-0.24-0.62-0.27c4.39-5.12,9.04-9.98,13.02-15.34c3.2-4.31,5.62-9.22,8.34-13.88c0.91-1.56,1.78-2.73,3.83-3.35
		c4.6-1.39,9.01-3.42,14.08-5.41c4.39,13.06,6.87,26.26,5.56,40.31c-3.63,0.86-7.33,1.93-11.1,2.57c-5.26,0.9-10.58,1.5-15.88,2.16
		C161.18,176.07,160.26,175.96,159.68,175.58 M143.84,170.63c0.48-0.02,0.96-0.18,1.35-0.05c4.77,1.53,9.65,2.85,13.59,6.18
		c0.55,0.46,1.09,1.21,1.17,1.87c0.42,3.62,0.71,7.27,1.01,10.9c0.26,3.28,0.47,6.56,0.71,9.86c-9.15-1.85-17.37-6.89-27.22-7.82
		C141.08,185.99,146.16,179.95,143.84,170.63 M138.82,166.74c2.77,0.73,4.11,3.74,4.16,7.42c0.08,6.56-3.14,11.24-8,15.08
		c-1.99,1.57-4.09,2.98-6.14,4.46c-0.22-0.05-0.44-0.09-0.66-0.14c0.29-9.51-0.24-19.06,1.61-28.78
		C132.86,165.44,135.88,165.97,138.82,166.74 M166.03,135.89c-4.31,7.49-7.85,15.14-13.77,21.3c-2.88,3-5.6,6.16-8.34,9.29
		c-0.76,0.86-1.3,1.2-2.42,0.42c-2.8-1.94-6.05-2.7-9.4-3.07c-0.7-0.08-1.38-0.28-2.26-0.46c3.74-14.03,10.47-26.32,19.5-37.96
		C154.97,128.94,160.45,132.39,166.03,135.89 M164.34,108.63c12.3-12.07,26.61-20.84,43.87-25.11c0.74,4.43,1.63,8.57,2.08,12.76
		c0.58,5.39,0.82,10.81,1.15,16.23c0.07,1.09-0.02,2.22-0.24,3.28c-0.09,0.42-0.68,0.86-1.15,1.06c-4.85,2.06-9.77,3.97-14.59,6.13
		c-4.08,1.83-8.03,3.92-12.22,5.98C178.4,120.94,172.37,114.03,164.34,108.63 M182.31,129.99c-4.46,1.77-8.84,3.56-13.27,5.23
		c-0.7,0.26-1.79,0.31-2.37-0.07c-5.34-3.48-10.61-7.07-16.22-10.85c4.11-4.66,8.39-9.51,12.73-14.43
		C171.23,114.72,171.23,114.73,182.31,129.99 M190.48,156.2c-0.54-5.63-1.72-11.2-2.7-16.79c-0.32-1.79-0.86-3.54-1.36-5.29
		c-0.15-0.53-0.41-1.07-0.75-1.51c-1.4-1.84-1.27-2.59,0.8-3.55c3.13-1.46,6.28-2.88,9.42-4.31c3.73-1.7,7.38-3.61,11.21-5.03
		c4.88-1.82,9.88-3.35,14.89-4.78c3.44-0.98,6.97-1.64,10.49-2.29c2.74-0.5,5.52-0.77,8.44-1.17c-1.12,2.94-2.08,5.68-3.21,8.34
		c-2.38,5.62-3.61,11.53-4.73,17.48c-0.85,4.54-1.8,9.07-2.65,13.61c-0.43,2.31-0.68,4.65-1.17,6.95c-0.12,0.56-0.81,1.38-1.29,1.43
		c-7.65,0.66-14.79,3.22-21.95,5.74c-4.73,1.66-9.44,3.39-14.17,5.08c-0.35,0.12-0.74,0.15-1.18,0.24
		C190.57,165.56,190.92,160.84,190.48,156.2 M376,143c-0.29,0.41-0.9,0.68-1.41,0.82c-1.12,0.31-2.27,0.49-3.42,0.73
		c-11.94-15.11-28.23-23.69-45.89-30.29c2.89-4.7,5.84-9.1,8.35-13.73c2.48-4.56,4.51-9.37,6.79-14.19
		c9.39,4.95,17.49,11.67,25.22,18.78c7.64,7.03,14.88,14.47,22.17,21.6c-0.37,0.42-0.99,1.01-1.48,1.69
		C382.89,133.28,379.48,138.16,376,143 M371.61,146.52c3.22-1.87,6.21-1.39,9.27-0.12c4.38,1.82,8.81,3.53,13.23,5.26
		c1.92,0.76,3.89,1.43,5.8,2.22c0.38,0.16,0.77,0.68,0.85,1.1c0.85,4.47,1.73,8.94,2.43,13.44c1.32,8.47,1.97,17,1.68,25.56
		c-0.38,10.94-2.09,21.71-5.45,32.14c-2.07,6.42-4.63,12.69-6.98,19.02c-0.32,0.85-0.6,1.72-0.94,2.57
		c-0.42,1.04-0.99,1.95-2.29,1.17c-3.96-2.39-7.9-4.83-11.85-7.25c1.39-3.7,2.85-7.38,4.14-11.12c2.87-8.31,3.08-16.8,0.04-24.99
		c-2.36-6.35-5.68-12.37-11.89-16.02c-1.76-1.04-3.62-1.91-5.6-2.94C371.3,174.28,373.88,160.79,371.61,146.52 M401.21,119.86
		c-4.38,2.01-8.58,3.94-12.67,5.82c-14.74-14.99-28.99-30.35-47.48-40.78c1.18-3.92,2.37-7.89,3.61-12.01
		C367.03,84.22,385.32,100.27,401.21,119.86 M287.22,275.31c-0.07-0.11,0.23-0.44,0.35-0.67c-0.04-0.71-0.09-1.42-0.15-2.49
		c0.77,0.54,1.13,0.79,1.49,1.04c-0.21-0.87-0.61-1.75-0.56-2.61c0.06-0.93,0.41-1.91,0.88-2.72c0.44-0.77,0.98-0.9,1.52-0.62
		c-0.45-0.9,0.62-2.13-0.26-3.12c0.77,0.05,1.23,0.09,1.48,0.1c-0.13-0.93-0.26-1.81-0.4-2.78c0.47,0.19,0.78,0.32,1.08,0.44
		c0.04-0.07,0.08-0.14,0.12-0.2c-0.41-0.37-0.81-0.74-1.06-0.98c1.5-2.72-0.33-4.61-1.49-6.47c0.97-0.19,1.67-0.32,2.37-0.45
		c0.11-0.08,0.21-0.16,0.31-0.24c1.53,1.14,3.08,2.27,4.58,3.45c0.29,0.23,0.64,0.75,0.56,1.02c-0.69,2.27,0.85,5.1-1.78,6.94
		c-0.3,0.21,0.35,1.21-0.14,2.13c-0.58,1.08-1.36,1.46-2.26,1.92l-0.01,0.03c-0.47,0.99-1.03,1.95-1.36,2.98
		c-0.1,0.33,0.42,0.85,0.66,1.26c-0.84,0.88-1.64,1.73-2.45,2.58c0.29,1.28-0.57,1.34-1.45,1.36c-0.13,0.49-0.25,0.99-0.51,2.01
		c-0.75-1.07-1.19-1.7-1.63-2.33c0.05-0.07,0.11-0.14,0.17-0.21c0.31,0.19,0.63,0.38,0.94,0.56c0.09-0.07,0.18-0.15,0.26-0.22
		C288.04,276.46,287.58,275.91,287.22,275.31 M127.03,345.45c0.03,0.2,0.07,0.4,0.11,0.6c-1.37,0.25-2.75,0.5-4.12,0.74
		c-1.47,0.26-2.96,0.48-4.42,0.78c-1.52,0.31-3.02,0.71-4.53,1.07c-0.05-0.22-0.1-0.44-0.15-0.66
		C118.29,347.13,122.66,346.29,127.03,345.45 M124.17,357.64c0.01,0.22,0.03,0.44,0.04,0.65c-1.87,0.2-3.73,0.39-5.6,0.58
		c-0.02-0.18-0.04-0.37-0.06-0.55C120.42,358.1,122.3,357.87,124.17,357.64 M125.34,358.89c0.01,0.21,0.03,0.42,0.04,0.63
		c-2.32,0.14-4.63,0.27-6.95,0.41c-0.01-0.18-0.02-0.35-0.03-0.53C120.71,359.23,123.03,359.06,125.34,358.89 M118.57,362.37
		c-0.02-0.25-0.04-0.5-0.06-0.74h5.4c0.01,0.11,0.01,0.22,0.02,0.33C122.14,362.1,120.35,362.24,118.57,362.37 M421.42,165.68
		c-1.01-4.39-2.26-8.73-3.58-13.03c-0.39-1.27-1.42-2.34-2.23-3.63c-0.03,0.01,0.32-0.17,0.67-0.35c-0.02-0.13-0.03-0.26-0.07-0.38
		c-3.11-8.36-6.76-16.47-10.94-24.36c-2.65-5.01-5.75-9.68-9.62-13.75c-8.98-9.45-18.32-18.52-28.92-26.21
		c-7.85-5.7-16.11-10.61-24.96-14.62c-11.23-5.07-23.22-7.15-35.15-9.49c-3.82-0.75-7.74-0.98-11.62-1.41
		c-14.79-1.63-29.55-0.96-44.23,1.07c-10.45,1.45-20.87,3.33-31.2,5.5c-8.1,1.7-16.15,3.82-24.05,6.28
		c-10.3,3.21-20.09,7.68-29.19,13.57c-4.98,3.22-9.83,6.6-13.85,10.97c-2.82,3.06-5.4,6.35-7.92,9.67
		c-3.57,4.73-7.11,9.49-10.43,14.4c-2.18,3.23-3.81,6.83-5.95,10.09c-4.8,7.34-7.97,15.37-10.41,23.71c-1.1,3.75-2,7.56-2.85,11.38
		c-1.11,4.96-2.3,9.92-3.03,14.95c-0.62,4.3-0.8,8.69-0.87,13.04c-0.13,8.11,0.28,16.19,1.55,24.22c0.27,1.71,0.38,3.44,0.32,5.17
		c-0.07,2.03,0.06,4.26-0.72,6.03c-1.48,3.36-3.5,6.5-5.4,9.65c-2.51,4.14-5.19,8.18-7.69,12.33c-4.78,7.91-9.63,15.78-14.17,23.82
		c-2.82,4.98-5.17,10.23-7.64,15.4c-1.79,3.74-3.05,7.4-0.69,11.62c1.94,3.47,4.73,5.27,8.34,5.88c3.92,0.67,7.93,0.79,11.86,1.38
		c3.37,0.5,6.76,1.52,7.81,5.24c1.12,3.94,0.87,8.04-0.2,12c-1.12,4.13-0.83,7.88,2.47,10.95c1.38,1.28,2.87,2.46,4.02,3.43
		c-1.2,1.41-2.56,2.77-3.62,4.33c-1.23,1.8-0.58,4.36,1.13,5.76c1.3,1.07,2.8,2.05,3.74,3.4c3.61,5.19,3.93,10.68,1.36,16.5
		c-1.07,2.41-1.78,5.04-2.25,7.65c-1,5.53,0.03,10.96,1.93,16.12c0.99,2.7,2.61,5.34,4.54,7.48c3.31,3.68,7.97,5.57,12.58,6.76
		c7.32,1.89,14.81,3.15,22.27,4.41c6.04,1.02,12.15,1.63,17.84,4.1c5.61,2.44,10.73,5.66,13.88,11.07
		c2.33,4.01,3.49,8.51,3.77,13.31c0.88,0.12,1.83,0.26,2.54,0.36c0.08-1.32,0.14-2.51,0.21-3.7l0.57-0.12
		c-0.43-0.21-0.87-0.41-1.56-0.73c3.53-0.33,3.53-0.33,3.69-1.92h-3.98v-1.84c0.76-0.11,1.5-0.21,2.25-0.31c0-0.12,0-0.23,0-0.35
		l-2.81-0.14c-0.03-0.17-0.02-0.14-0.05-0.3c0.49-0.21,0.98-0.41,1.77-0.74c-1.05-0.12-1.71-0.2-2.38-0.27
		c-0.02-0.17-0.02-0.15-0.05-0.32c0.58-0.25,1.16-0.5,2.04-0.89c-0.99-0.14-1.62-0.23-2.25-0.32c0.02-0.29,0.01-0.18,0.03-0.46h3.41
		c-0.56-0.41-1.1-0.28-1.64-0.32c-0.55-0.04-1.08-0.22-1.62-0.35c0-0.14,0-0.11,0.01-0.24c0.77-0.12,1.54-0.24,2.31-0.37
		c-0.03-0.36-0.02-0.22-0.05-0.59h-3.83c0-0.13,0-0.26,0.01-0.39c0.89-0.12,1.78-0.24,2.67-0.36c-0.01-0.28-0.01-0.18-0.02-0.46
		c-1.15-0.07-2.31-0.14-3.46-0.21c0-0.13,0-0.25,0-0.38c1.89-0.08,3.78-0.17,5.67-0.25l-0.02-0.62h-5.34
		c-0.01-0.23-0.01-0.13-0.02-0.37l4.29-0.42c-0.01-0.3-0.01-0.17-0.02-0.48h-6.56c-0.01-0.23-0.02-0.46-0.02-0.7h8.8l-0.01-0.82
		h-9.4c0-0.24,0-0.48,0-0.72h7.86c-0.01-0.17-0.02-0.33-0.03-0.5c-1.61,0-3.22,0.03-4.83-0.01c-1.62-0.05-3.23-0.17-4.84-0.26
		c0-0.22,0-0.45,0.01-0.67h9.29c0-0.26-0.01-0.52-0.01-0.77h-10.68l0-0.72h12.74l-0.02-0.59h-7.52h-7.3
		c-0.01-0.15-0.01-0.09-0.02-0.24c1.37-0.21,2.73-0.43,4.1-0.64c0.07-0.06,0.14-0.12,0.2-0.19c-0.77-0.26-1.54-0.52-2.42-0.82
		c1.45-0.1,2.8-0.2,4.15-0.3c-0.02-0.13-0.03-0.26-0.05-0.39h-6.44c0-0.22-0.01-0.44-0.02-0.66h5.36c-0.51-0.27-1.01-0.72-1.53-0.76
		c-1.53-0.1-3.07-0.03-4.61-0.03c0-0.14,0-0.28,0-0.42c1.61-0.1,3.23-0.2,4.84-0.3c-0.01-0.37-0.01-0.2-0.02-0.57h-12.05
		c0-0.13,0-0.26-0.01-0.39c2.78-0.14,5.56-0.28,8.33-0.43c-0.01-0.14-0.02-0.29-0.03-0.43h-12.31l0-0.65h7.45l-0.02-0.64h-17.77
		c0-0.21,0-0.42,0-0.63h16.56c0-0.18-0.01-0.37-0.01-0.55h-24.61c0-0.09-0.01-0.18-0.01-0.26c0.84-0.13,1.68-0.27,2.53-0.4
		c-0.03-0.35-0.02-0.21-0.06-0.56c-5.77,0.27-11.52,0.33-16.99-1.91l0.06,0.04c-2.19-0.68-4.38-1.37-6.58-2.06
		c0.03-0.18,0.02-0.11,0.06-0.29c1.37,0.14,2.73,0.29,4.1,0.43c0.02-0.16,0.04-0.32,0.06-0.49c-0.74-0.15-1.48-0.36-2.23-0.44
		c-4.06-0.44-7.5-2.17-10.07-5.29c-3.36-4.09-3.49-9.28-4.18-14.19c-0.18-1.29,0.82-2.75,1.26-4.13c0.32-1,0.73-1.84,1.98-1.97
		c0.71-0.07,1.4-0.41,2.63-0.78c-0.92-0.52-1.46-0.83-2.11-1.2c0.58-0.26,1.09-0.49,2.04-0.92c-0.89-0.19-1.3-0.27-1.57-0.32
		c1.04-0.73,2.14-1.5,3.47-2.43h-1.64c-0.01-0.09-0.03-0.19-0.04-0.28c0.61-0.16,1.22-0.32,2.09-0.56
		c-0.68-0.14-1.06-0.22-1.44-0.31c0.01-0.17,0-0.13,0.01-0.3l1.8-0.22c0.01-0.16,0.01-0.13,0.03-0.29
		c-0.36-0.13-0.72-0.25-1.26-0.44c0.5-0.32,0.83-0.53,1.23-0.79c-0.45-0.14-0.75-0.23-1.04-0.32c0.01-0.1,0.03-0.2,0.05-0.31
		c1.03-0.07,2.07-0.14,3.27-0.22c-0.57-0.32-0.97-0.54-1.18-0.65c0.56-0.67,1.05-1.26,1.9-2.27c-1.86,0.11-3.08,0.18-4.33,0.25
		c0.08-0.31,0.17-0.62,0.25-0.95c-0.99-0.06-1.84-0.11-2.88-0.17c0.26-0.27,0.3-0.35,0.34-0.36c0.31-0.03,0.65,0.01,0.95-0.08
		c2.58-0.76,6.3,1.12,7.33-3.19c-0.54-0.77-1.09-1.55-1.87-2.64c-1.74,0.13-3.98,0.31-6.23,0.48c-0.01-0.16-0.03-0.31-0.04-0.47
		c1.87-0.22,3.74-0.44,5.61-0.65c-0.02-0.15-0.04-0.29-0.06-0.43h-2.79c-0.02-0.12-0.01-0.09-0.03-0.21
		c0.57-0.19,1.14-0.38,2.18-0.72c-0.92-0.5-1.42-0.9-1.98-1.04c-0.59-0.14-1.25-0.03-1.87-0.03c0-0.05,0.01-0.11,0.01-0.17
		c0.74-0.14,1.48-0.29,2.19-0.43c-0.34-0.98-0.64-1.86-0.87-2.52c1.81-0.96,3.82-1.9,5.71-3.04c1.64-0.99,2.98-2.62,5.34-2.05
		c-1.54-0.85-3.05-1.59-4.64-1.92c-1.56-0.33-3.22-0.38-4.82-0.31c-1.57,0.06-3.13,0.43-4.7,0.66c1.86-0.76,3.74-1.3,5.65-1.58
		c1.92-0.27,3.88-0.43,5.81-0.36c2.54,0.1,5.11,0.89,7.58,0.6c2.4-0.28,3.96-0.24,5.37,2.08c2.42,3.95,6.44,6.2,10.33,8.46
		c1.03,0.6,2.34,1.53,4.2,0.08c-3.59-2.17-6.92-4.19-10.25-6.21c0.06-0.09,0.11-0.18,0.17-0.26c1.06,0.51,2.13,1.02,3.19,1.53
		c0.07-0.14,0.15-0.29,0.22-0.43c-0.93-0.54-2.02-0.91-2.73-1.66c-0.61-0.64-0.55-2.18-1.18-2.47c-1.28-0.6-0.92-1.79-1.43-2.62
		c-1.3-2.1-1.99-4.62-4.74-5.57c-1.27-0.44-1.78-0.27-2.08,1.04c-0.1,0.44-0.74,1.09-1.13,1.08c-2.33-0.04-4.77,0.13-6.97-0.48
		c-2.72-0.76-5.26-2.22-7.86-3.39c-4.08-1.84-8.43-2.21-12.81-2.44c-2.07-0.11-2.8-1.23-1.98-3.16c1.76-4.17,1.51-8.57,1.43-12.91
		c-0.03-1.71,0.26-3.05,1.66-3.75c0.94-0.47,0.39-0.91,0.41-1.38c0.35-0.08,0.76-0.09,1-0.3c0.94-0.84,2.08-1.05,3.11-0.6
		c4.66,2.01,9.52-0.8,11.07-5.31c0.85-2.47,0.85-5.24,1.26-8.08c1.75,3.82,3.45,7.51,5.14,11.2c0.3,0.09,0.64,0.12,0.86,0.3
		c2.62,2.12,5.2,4.27,7.83,6.38c0.76,0.62,1.62,1.12,2.43,1.67c0.06-0.09,0.13-0.19,0.19-0.29c-3.51-2.87-7.02-5.74-10.53-8.61
		c0.15-0.17,0.29-0.34,0.44-0.51c2.84,2.16,5.69,4.32,8.53,6.49c0.1-0.12,0.2-0.24,0.3-0.36l-8.25-6.78
		c0.18-0.25,0.11-0.15,0.28-0.4c0.92,0.57,1.84,1.14,2.77,1.7c0.19-0.27,0.11-0.16,0.3-0.43c-1.41-1.11-2.82-2.22-4.23-3.32
		c0.12-0.18,0.07-0.11,0.19-0.28l3.8,2.24c0.12-0.17,0.07-0.1,0.19-0.27c-1.23-1.03-2.45-2.07-3.87-3.26
		c1.51,0.26,2.64,0.46,3.78,0.66c-1.1-1.45-2.39-2.39-3.25-3.95c-0.69-1.26-2.43-1.94-3.71-2.88c0.09-0.13,0.18-0.27,0.27-0.4
		c1.36,0.87,2.72,1.74,4.08,2.61c0.1-0.14,0.2-0.29,0.3-0.43c-2.15-1.49-4.29-2.99-6.44-4.48c0.06-0.1,0.11-0.19,0.17-0.29
		c1.28,0.71,2.56,1.42,3.84,2.14c0.03-0.5-0.1-0.79-0.32-0.95c-3.85-2.92-8.51-3.95-13.2-5.24c1.41,1.42,2.82,2.83,4.34,4.36
		c-0.57-0.06-1-0.1-1.71-0.17c1.16,0.68,2.04,1.2,3.14,1.84c-0.86,0.09-1.34,0.14-1.67,0.17c0.52,0.87,0.92,1.54,1.5,2.5l-1.88-0.61
		c-0.18,0.16-0.36,0.31-0.55,0.47c2.83,0.61,2.23,2.74,2.68,4.68c-0.96-0.69-1.75-1.25-2.53-1.81c-0.06,0.08-0.12,0.16-0.19,0.24
		c0.83,0.75,1.65,1.5,2.16,1.97c-0.48,0.83-0.84,1.46-1.23,2.13c-0.68-0.47-1.36-0.94-1.82-1.25c0.36,0.85,0.75,1.79,1.32,3.16
		c-2.41-0.98-4.16-1.7-5.91-2.42c0.53,0.92,1.31,1.4,1.94,2.03c0.46,0.46,0.67,1.08-0.45,0.88c-1.39,0.24-2.5-0.48-3.3-2.41
		c0.45,0.33,0.65,0.48,0.86,0.64c-0.48-0.95-0.8-2.03-1.47-2.84c-3.14-3.79-7.68-3.48-11.82-3.28c-4.1,0.2-8.12,1.79-12.22,2.09
		c-4.27,0.32-8.81,0.38-11.65-3.91c-0.44-0.66-0.76-1.64-0.65-2.39c0.84-5.6,3.56-10.46,6.33-15.25
		c3.99-6.93,8.14-13.77,12.27-20.62c3.29-5.46,6.73-10.85,9.97-16.34c2.18-3.7,4.16-7.52,6.16-11.32c0.57-1.08,1.2-1.43,2.34-0.94
		c2.1,0.89,4.19,1.84,6.35,2.57c2.33,0.79,4.72,1.39,7.11,1.99c0.59,0.15,1.27-0.06,1.74-0.1c-4.71-1.88-9.39-3.81-14.11-5.62
		c-1.59-0.61-2.01-1.66-1.92-3.2c0.1-1.63,0.1-3.26,0.11-4.89c0.02-1.96,0-3.92,0-5.96c3.46,3.4,7.48,4.08,11.7,2.58
		c2.05-0.73,3.66-0.12,4.31,1.28c1.02,2.2,2.85,1.4,4.31,1.86c0.8,0.25,1.71,0.14,2.51,0.18c-3.11,5.8-3.3,11.23,0.12,16.97
		c-1.93-0.31-3.67-0.6-5.4-0.88c-0.07,0.26-0.04,0.17-0.11,0.42l2.73,0.97c-0.07,0.32-0.05,0.23-0.11,0.55l-6.68-0.46
		c-0.04,0.23-0.03,0.16-0.07,0.38c1.26,0.4,2.51,0.81,3.77,1.21c-0.06,0.38-0.04,0.28-0.1,0.65h-2.14c-0.06,0.25-0.05,0.21-0.1,0.46
		c1.19,0.57,2.39,1.13,3.44,1.63c0.11,2.24,1.45,4.18,2.93,5.48c2,1.77,4.8,1.66,7.44,1.14c-1.84-0.51-3.67-1.02-5.51-1.53
		c0.01-0.16,0.01-0.13,0.02-0.29l14.7-1.48c-0.03-0.36-0.01-0.2-0.04-0.55l-4.38,0.21c-0.01-0.21-0.01-0.42-0.02-0.63
		c1.59-0.08,3.19-0.1,4.78-0.25c1.58-0.14,3.15-0.4,4.72-0.6c-0.02-0.12-0.04-0.23-0.06-0.35c-2.79,0.21-5.58,0.42-8.37,0.62
		c-0.01-0.22-0.03-0.43-0.04-0.65c1.27-0.1,2.54-0.21,3.51-0.28c0.26-0.58,0.44-1.32,0.61-1.31c1.55,0.03,1.27-1.29,1.67-2.1
		c-0.33,0.16-0.66,0.32-0.99,0.48c-0.05-0.16-0.09-0.32-0.14-0.48c1.75-0.23,3.5-0.46,5.57-0.73c-0.53,0.34-0.71,0.45-0.93,0.59
		c0.07,0.26,0.06,0.25,0.13,0.51c1.72,0.09,3.43,0.18,5.15,0.27c0.07-0.23,0.06-0.2,0.12-0.43c-0.27-0.15-0.55-0.3-0.82-0.46
		c0.04-0.2,0.03-0.2,0.07-0.4c2.38-0.36,4.76-0.72,7.14-1.09c0.03,0.18,0.05,0.36,0.08,0.53c-1.05,0.16-2.1,0.31-3.43,0.51
		c0.41,0.23,0.5,0.32,0.61,0.33c0.26,0.04,0.52,0.08,0.78,0.06c3.1-0.19,6.12-0.9,9.32-0.09c3.81,0.97,6.68-1.71,9.68-3.6
		c-1.43,0.18-2.92,0.42-4.06,1.19c-2.17,1.45-4.22,0.28-6.33,0.12c0.23-0.09,0.46-0.18,0.67-0.26c-0.8-0.34-1.61-0.68-2.85-1.2
		c3.09-0.5,5.53,1.8,8.48,0.52c-6.16-1.25-12.14-1.91-17.66-4.51c0.58,0.08,1.16,0.17,1.74,0.25c0.02-0.09,0.05-0.19,0.07-0.28
		c-1.57-0.42-3.14-0.83-4.71-1.24c0.04-0.13,0.09-0.27,0.13-0.4c0.57,0.11,1.15,0.22,1.87,0.36c-0.38-0.42-0.63-0.69-1.22-1.32
		c2.31,0.53,4.12,0.94,5.92,1.35c-0.03,0.16-0.06,0.32-0.1,0.48c-1.09-0.17-2.17-0.34-3.26-0.52c0.2,0.42,0.44,0.47,0.68,0.53
		c1.87,0.44,4.04,0.42,5.52,1.43c2.36,1.62,5.01,1.52,7.5,2.23c-0.34-0.23-0.67-0.46-1.27-0.87c1.73,0.14,3.11,0.19,4.47,0.37
		c2.85,0.39,2.85,0.42,3.3-0.2c-3.45-0.54-7.01-1.1-10.57-1.66c-0.01-0.3-0.01-0.24-0.02-0.53c0.52-0.13,1.04-0.26,1.67-0.42
		c-0.67-0.33-1.27-0.63-2.26-1.12c0.78-0.05,1.22-0.07,1.61-0.1c-0.82-0.22-1.65-0.42-2.46-0.67c-0.22-0.07-0.4-0.28-0.6-0.43
		l0.57-0.7c-0.81-0.37-1.76-0.81-2.7-1.24c0.08-0.21,0.05-0.13,0.12-0.35c1.33,0.34,2.68,0.65,4,1.03c1.37,0.39,2.72,0.85,4.44,1.4
		c-0.79,0.16-1.26,0.25-1.73,0.34c0.01,0.28,0.01,0.2,0.02,0.48c3.51,0.3,7.01,0.6,10.52,0.89c-1.52-0.72-3.08-1.2-4.4-2.51
		c-2.56-2.54-5.5-4.69-8.42-7.12c0.86-2.15,1.8-4.48,2.9-7.21c0.19,0.92,0.28,1.36,0.32,1.56c0.71-0.71,1.45-1.45,2.19-2.2
		c0.36,0.51,0.71,1.01,1.07,1.52c0.26-0.37,0.32-0.82,0.13-1.06c-0.92-1.14-1.98-1.45-3.09-0.25c-0.29-0.46-0.53-0.83-0.81-1.26
		c-1.38,3.08-2.67,5.96-3.92,8.73c-1.93-1.03-3.87-1.71-5.38-2.93c-2.45-1.99-4.82-3.94-8.06-4.43c-0.23-0.03-0.43-0.23-0.51-0.27
		c0.8-3.62,1.52-7.12,2.4-10.59c0.1-0.41,1.25-0.95,1.69-0.79c2.81,1.01,5.56,2.21,8.34,3.31c3.09,1.22,5.76,2.74,5.11,6.98
		c0.28-0.04,0.56-0.07,0.83-0.11c0.3-0.97,0.61-1.95,1-3.19c1.68,0.3,3.41,0.51,5.09,0.93c5.81,1.44,11.37,3.47,16.03,7.4
		c0.36,0.31,0.82,0.75,0.85,1.17c0.25,2.94,0.38,5.89,0.59,8.83c0.05,0.65,0.27,1.3,0.41,1.94c0.28-0.04,0.56-0.07,0.84-0.11v-10.56
		c4.83,2.87,9.79,4.05,15.01,3.97c2.8-0.04,5.5-0.13,8.12,1.25c1.09,0.57,1.13,0.68,0.64,1.75c-1.75,3.87-2.61,7.92-1.46,12.14
		c1.11,4.08,3.25,7.65,5.8,10.97c1.1,1.44,2.15,3.03,3.57,4.08c6.65,4.93,13.79,8.61,22.41,8.47c4.92-0.08,9.79-0.11,14.12-2.99
		c0.45-0.3,1.39-0.43,1.79-0.17c2.99,1.97,5.76,4.24,7.65,7.34c0.62,1.01,0.78,2.3,1.14,3.47c-0.11,0.06-0.09,0.04-0.2,0.1
		c-1.12-1.47-2.25-2.94-3.37-4.41c-0.21,0.12-0.42,0.24-0.64,0.36c0.11,0.45,0.2,0.9,0.32,1.34c0.34,1.26,0.84,2.5,1.01,3.78
		c0.34,2.56,0.56,5.38-1.27,7.32c-1.97,2.09-4.42,3.84-6.93,5.27c-3.26,1.87-3.52,2.78-0.61,4.99c0.03,0.02,0.01,0.1,0.04,0.32
		c-0.91-0.34-1.75-0.65-2.74-1.02c0.84,2.04,8.05,2.91,10.98,1.3h-5.15c1.74-0.28,3.63-0.08,5.17-0.71
		c4.93-2.02,8.86-5.56,12.15-9.62c2.32-2.86,4.06-6.23,5.8-9.51c2.55-4.81,3.27-9.77,0.36-14.8c-1.24-2.14-3.93-3.02-6.16-1.96
		c-0.89,0.42-1.74,0.94-2.67,1.45c-0.82-1.4-1.64-2.82-2.72-4.67l0.05-0.05c-0.46-0.92-0.98-2.02-1.33-2.77
		c-0.29-0.62-0.48-1.29-0.53-1.98c-0.14-1.72-0.16-5.08,1.38-7.3c2.14-3.1,6.35-3.84,6.35-3.84c3.75-0.73,7.04-1.37,9.92,1.12
		c2.46,2.12,4.89,4.28,5.6,7.62l0-0.01c0,0,1.23,2.7,1.6,5.36c0.37,2.66-0.5,15.98-1.35,17.06c-0.03,0.61-1.11,1.1-1.44,1.77
		c-0.83,1.69-1.48,3.46-2.27,5.18c-2.29,5.03-5.2,9.6-9.57,13.14c-4.11,3.33-8.19,6.68-12.26,10.05c-0.81,0.67-1.51,1.48-2.26,2.23
		c0.15,0.24,0.29,0.47,0.44,0.71c0.86-0.35,1.82-0.56,2.57-1.07c3.97-2.76,7.83-5.66,11.83-8.38c4.25-2.9,8.36-6.03,10.52-10.79
		c2.99-6.57,5.94-13.27,6.55-20.57c0.35-4.12,0.12-8.37-0.49-12.46c-0.49-3.32-0.87-6.95-3.93-9.31c-1.18-0.91-2.27-1.96-3.5-2.81
		c-7.45-5.1-18.39-3.21-22.11,5.53c-1.86,4.37-1.69,8.41,0.49,12.59c1.53,2.93,2.83,6,3.91,9.12c0.78,2.25,0.29,4.6-0.43,6.92
		c-1.06-1.65-1.85-3.25-2.99-4.53c-1.42-1.6-3.23-2.84-4.68-4.41c-1.31-1.42-2.9-2.92-3.4-4.66c-0.96-3.29-1.56-6.77-1.7-10.19
		c-0.2-4.87,2.2-8.93,5.23-12.56c2.64-3.16,5.81-5.66,9.87-6.78c1.99-0.55,4.25-0.49,5.36-2.88c0.19,0.12,0.39,0.25,0.58,0.38
		c-0.17,0.76-0.34,1.52-0.44,2c0.9,0,1.9,0.19,2.78-0.06c0.74-0.21,1.33-0.94,1.98-1.43c-0.29-0.28-0.56-0.77-0.87-0.79
		c-2.23-0.18-4.46-0.26-6.76-0.38v1.96c-0.58-0.78-0.89-1.2-1.13-1.52c-4.89,0.79-9.12,2.76-12.92,6.11
		c-3.49-8.43-4.38-16.91-4.03-25.81c1.81-0.51,3.61-1.46,5.4-1.46c4.56,0.01,9.14,0.27,13.68,0.74c7.69,0.8,15.14,2.67,22.31,5.58
		c2,0.81,4.05,1.47,6.08,2.2c0.05-0.2,0.09-0.39,0.14-0.58c-15.01-7.4-30.74-10.85-48.08-8.55c0.33-3.43,0.39-7.14,1.08-10.74
		c1.45-7.44,3.26-14.8,4.87-22.21c0.32-1.45,1.2-1.37,2.21-1.02c5.99,2.05,12.06,3.91,17.94,6.25c6.1,2.44,12.05,5.26,17.99,8.08
		c7.41,3.53,14.78,7.11,22.06,10.89c3.59,1.87,6.93,4.21,10.25,6.25c-5.34,6.93-9.45,14.28-12.92,22.18
		c-4.38-3.68-8.64-7.45-13.97-9.64c0.19,0.54,0.53,0.88,0.91,1.16c3.83,2.9,7.64,5.82,11.53,8.64c1.13,0.82,1.2,1.77,0.91,2.91
		c-1.76,7.06-2.62,14.23-2.74,21.5c-0.04,2.98-0.01,5.96-0.01,9.15c-2.7-0.31-5.23-0.54-7.75-0.9c-1.88-0.27-2.94-1.26-3.08-3.37
		c-0.16-2.4-0.45-4.86-1.19-7.13c-2.6-7.95-8.06-13.57-15.15-17.77c-1.9-1.13-3.8-1.75-6.28-0.4c0.58,0.41,0.97,0.81,1.45,1.01
		c0.6,0.24,1.26,0.29,1.89,0.46c6.93,1.86,10.81,7.33,13.8,13.02c3.88,7.37,3.88,15.46,1.02,23.33c-2.03,5.58-4.31,11.07-6.69,16.51
		c-1.98,4.5-3.7,9.16-7.51,12.66c-3.7,3.4-7.25,6.88-12.07,8.79c-3.54,1.4-6.93,3.44-9.06,6.63c-1.92,2.88-4.28,4.99-7.46,5.89
		c-2.04,0.58-4.41,0.71-6.48,0.3c-3.36-0.67-4.99-3.7-6.55-6.39c-1.13-1.94-1.65-4.24-2.55-6.34c-0.18-0.42-0.81-0.66-1.23-0.98
		c-0.23,0.4-0.68,0.81-0.66,1.19c0.16,2.86,0.37,5.71,0.65,8.55c0.08,0.83,0.48,1.62,0.74,2.44c-0.04,0.01-0.32,0.08-0.68,0.17
		c3.4,2.4,5.8,5.81,9.69,7.38c-0.19-0.32-0.38-0.63-0.72-1.21c1.13,0.11,2.02,0.2,2.68,0.27c-0.59,0.57-1.15,1.1-2.05,1.96h3.07
		c0.01-0.09,0.02-0.18,0.04-0.27c-0.48-0.13-0.96-0.25-1.44-0.38c0.01-0.11,0.03-0.21,0.04-0.32h2.51c-0.1,0.37-0.19,0.7-0.26,0.95
		c3.43,0.58,6.93-0.96,10.1,1.07c-0.24-0.21-0.47-0.42-0.75-0.67c0.55-0.29,0.97-0.51,1.72-0.91c-1.79-0.12-3.15-0.21-4.5-0.3
		l0.03-0.15c0.81-0.08,1.62-0.16,2.43-0.24c0.02-0.25,0.02-0.2,0.04-0.45c-0.52-0.15-1.05-0.3-1.99-0.57
		c2.43-0.19,4.38-0.35,6.34-0.5c0-0.23,0-0.14,0-0.37c-1.11-0.08-2.22-0.17-3.33-0.25c0.01-0.4,0.01-0.22,0.02-0.62h5.45
		c-0.01-0.13-0.02-0.26-0.03-0.4c-1.14-0.08-2.28-0.15-3.42-0.23c0-0.13,0-0.25,0-0.38c1.27-0.06,2.54-0.12,3.81-0.18
		c0-0.17,0-0.33,0-0.5c-0.57-0.03-1.15-0.06-1.74-0.09c0.57-2.5,2.92-1.2,4.56-2.15c-0.98-0.12-1.57-0.2-2.16-0.27
		c0.01-0.13,0.03-0.25,0.04-0.37h2.07c0.29-1.06,0.49-2.14,0.88-3.13c0.35-0.88,0.92-1.67,1.4-2.5c0.14,0.05,0.1,0.04,0.24,0.09
		c-0.11,0.63-0.22,1.23-0.39,2.16c1.1-0.53,2.27,0.49,3.03-1.04c0.2-0.4,1.89-0.06,2.9-0.06c0.01-0.05,0.01-0.1,0.02-0.15
		c-0.94-0.22-1.89-0.44-2.83-0.66c0.02-0.17,0.01-0.11,0.03-0.29h3.22c0-0.08-0.01-0.17-0.01-0.25c-0.92-0.18-1.84-0.35-2.76-0.53
		c0.02-0.18,0.01-0.12,0.03-0.29h4.82c0-0.16,0-0.31,0-0.47h-4.59c0-0.17,0-0.33,0-0.5h4.78c0-0.15,0-0.3,0-0.45
		c-1.1-0.1-2.21-0.21-3.32-0.31c0-0.11,0.01-0.23,0.01-0.34h3.69c0-0.14,0.01-0.29,0.01-0.43c-1.91-0.17-3.82-0.35-5.74-0.52
		c0-0.07,0-0.14,0-0.21h5.57c0-0.07-0.01-0.14-0.01-0.2c-0.76-0.1-1.51-0.2-2.81-0.38c1.08-0.3,1.59-0.44,2.42-0.67
		c-0.63-0.28-0.91-0.41-0.95-0.42c1.88-0.82,3.87-1.67,5.86-2.54c-0.5-0.12-1.01-0.24-1.51-0.36c0.02-0.22,0.01-0.16,0.03-0.37
		c0.85-0.05,1.7-0.1,2.55-0.16c-0.01-0.12-0.02-0.24-0.04-0.36c-0.55-0.08-1.1-0.17-1.65-0.25c0-0.1,0.01-0.2,0.02-0.29
		c1.18-0.12,2.37-0.23,3.55-0.35c0-0.08-0.01-0.16-0.01-0.23c-1.16-0.07-2.31-0.13-3.47-0.2c0-0.12,0.01-0.24,0.02-0.35h5.58
		c0.01-0.13,0.01-0.25,0.02-0.37c-1.55-0.14-3.09-0.27-4.64-0.41c0.01-0.11,0.01-0.22,0.02-0.34h4.93c0-0.14,0-0.28,0-0.42h-4.1
		c0-0.18,0.01-0.36,0.01-0.53h4.25c0-0.15,0-0.3,0-0.45c-1.24-0.09-2.49-0.18-3.73-0.27c0-0.16,0.01-0.32,0.01-0.48h6.38
		c0-0.18,0-0.37-0.01-0.55h-5.15c2.06-0.36,4.11-0.44,6.16-0.34c2.83,0.14,5.75,0.97,8.46,0.5c5.22-0.9,10.16-2.96,14.67-5.82
		c3.52-2.23,6.9-4.67,10.22-6.94c2.22,1.18,4.41,2.26,6.52,3.49c5.48,3.19,11.29,4.5,17.62,3.42c0.65-0.11,1.82,0.49,2.13,1.09
		c1.69,3.24,3.12,6.62,4.79,9.87c2.07,4.03,2.2,4.07-1.06,6.87c-4.9,4.22-9.99,8.17-15.92,10.93c-8.73,4.06-18.03,5.33-27.49,5.41
		c-4.47,0.04-8.95-0.9-13.43-1.35c-0.62-0.06-1.27,0.19-1.91,0.29c0.04,0.25,0.09,0.5,0.13,0.75c10.79,3.71,21.79,2.7,33.34,0.93
		c-1.49,1.32-2.81,2.11-3.58,3.26c-2.38,3.58-4.76,7.18-6.74,10.99c-3.55,6.82-5.78,14.1-6.73,21.77c-0.93,7.53-0.55,15,0.8,22.44
		c1.54,8.54,2.62,17.21,4.81,25.59c1.77,6.75,4.85,13.16,7.43,19.69c1.72,4.36,3.62,8.64,5.37,12.99c0.77,1.91,1.87,1.45,3.27,0.78
		c-0.55-1.15-1.1-2.11-1.48-3.14c-1.41-3.82-2.73-7.67-4.15-11.48c-0.61-1.64-1.41-3.21-2.07-4.84c-0.92-2.25-1.97-4.47-2.66-6.8
		c-0.94-3.19-1.41-6.52-2.39-9.7c-1.09-3.52-2.49-6.91-2.74-10.68c-0.16-2.41-1.05-4.77-1.45-7.18c-0.48-2.89-0.79-5.8-1.18-8.7
		c-0.2-1.48-0.59-2.96-0.61-4.44c-0.07-5-0.25-10.01,0.06-14.98c0.23-3.55,0.96-7.12,1.88-10.58c1.94-7.32,6.09-13.52,10.64-19.43
		c2.25-2.92,4.78-5.58,8.22-7.38c4.17-2.18,8.25-4.64,12.06-7.4c3.68-2.67,7.12-5.72,10.41-8.88c4.57-4.39,8.97-8.97,13.29-13.61
		c1.61-1.73,2.91-3.78,4.13-5.82c3.95-6.61,8.44-12.92,10.84-20.39c1.79-5.58,4-11.02,5.82-16.59c3.18-9.76,5.49-19.74,6.92-29.9
		c0.77-5.46,1.56-10.97,1.61-16.45C424.13,186.08,423.74,175.77,421.42,165.68 M106.99,307.88c1.22,0.71,2.34,1.6,3.49,2.43
		c-0.69-0.3-1.39-0.61-2.08-0.91c-0.04,0.07-0.08,0.13-0.12,0.2c0.48,0.42,0.96,0.85,1.45,1.27c-0.06,0.09-0.13,0.19-0.19,0.28
		c-1.18-0.64-2.37-1.29-3.9-2.12c0.74-0.12,1.05-0.17,1.77-0.29c-1.59-0.76-2.84-1.36-4.11-1.97
		C104.43,306.47,104.46,306.42,106.99,307.88 M119.24,334.38c0,0.09,0,0.18,0,0.26c-1.31,0.15-2.63,0.29-4.09,0.45
		c-0.84-0.21-1.83-0.46-2.86-0.72H119.24z M122.08,345.19c0.02,0.16,0.04,0.33,0.06,0.49c-2.68,0.57-5.37,1.13-8.05,1.69
		c-0.03-0.14-0.06-0.29-0.1-0.43C116.69,346.36,119.39,345.78,122.08,345.19"/>
	
		<path style="display:inline;clip-path:url(#SVGID_00000111901660789646615080000016522498920351236531_);fill:none;stroke:#1D1D1B;stroke-miterlimit:10;" d="
		M421.74,203.82c-0.34,1.86-0.43,3.75-0.75,5.61c-0.07,0.42-0.68,1.11-0.98,1.08c-5-0.47-9.99-1.04-14.98-1.6
		c-0.05-0.01-0.09-0.09-0.2-0.21c3.05-18.14,1.04-36.1-2.97-54.1c3.88-0.67,7.47-1.29,11.05-1.91c0.06-0.21,0.12-0.42,0.18-0.64
		c-0.53-0.18-1.09-0.58-1.58-0.5c-2.91,0.44-5.79,1.02-8.69,1.48c-1.91,0.3-3.64-0.1-5.25-1.33c-0.88-0.68-2.12-0.9-3.19-1.32
		c-5.57-2.2-11.14-4.41-16.87-6.68c0.88-1.26,1.88-2.69,2.88-4.12c2.23-3.22,4.62-6.35,6.63-9.7c1.06-1.76,2.51-2.78,4.18-3.64
		c3.02-1.54,6.1-2.98,9.14-4.5c1.04-0.52,1.75-0.53,2.39,0.66c1.93,3.65,4.19,7.14,5.89,10.89c1.76,3.87,3,7.97,4.5,11.96
		c0.66,1.76,1.41,3.49,2.16,5.33c-0.51,0.37-1.04,0.75-1.57,1.13c0.03,0.16,0.06,0.31,0.09,0.47c0.63,0.03,1.27,0.05,2.24,0.1
		c1.25,4.81,2.46,9.73,3.81,14.6c1.9,6.86,2,13.9,2.34,20.93C422.43,193.16,422.72,198.5,421.74,203.82z M414.22,239.64
		c-2.72,7.87-5.31,15.81-8.46,23.51c-1.76,4.3-4.53,8.18-6.84,12.26c-1.6,2.81-3.39,5.04-7.24,4.67c-2.43-0.24-4.94,0.38-7.42,0.53
		c-2.84,0.18-5.68,0.26-8.91,0.41c2.11-4.12,4.02-7.94,6.04-11.72c3.32-6.22,6.89-12.31,9.99-18.64c2.46-5.04,4.67-10.25,6.45-15.56
		c2.68-7.97,4.9-16.09,7.48-24.69c4.37,0.43,9.18,0.86,13.98,1.42c0.41,0.05,1.08,0.96,1.02,1.38
		C419.02,222.18,417.19,231.05,414.22,239.64z M389.78,286.16c-1.46,0.19-2.37,0.3-3.49,0.44c0.99,0.31,1.8,0.56,2.83,0.88
		c-0.96,0.68-1.83,1.18-2.53,1.87c-0.23,0.22,0.01,0.92,0.04,1.6c-1.63-0.31-3.26-0.61-4.89-0.92c-0.02,0.07-0.04,0.14-0.06,0.21
		c1.09,0.34,2.19,0.69,3.46,1.09c-2.89,0.87-4.55-1.08-6.74-2.41c1,0.12,1.76,0.21,2.71,0.33c-1.42-0.65-2.63-1.21-3.84-1.76
		c0.08-0.2,0.16-0.41,0.24-0.61c0.85,0.13,1.71,0.26,2.57,0.38l0.05-0.26c-0.9-0.21-1.81-0.43-3.11-0.73
		c0.78-0.19,1.18-0.28,1.58-0.38c-0.65-0.21-1.3-0.42-2.24-0.73c0.61-0.19,0.98-0.31,1.31-0.41c-0.42-0.15-0.91-0.32-1.41-0.5
		c0.03-0.15,0.07-0.3,0.1-0.44c2,0.37,4,0.75,6,1.12c0.09-0.13,0.18-0.26,0.27-0.39c-0.51-0.49-1.02-0.98-1.77-1.69
		c1.65,0.33,3.15,0.63,5.13,1.04c-0.58-0.42-0.77-0.56-0.97-0.7c2.86-0.99,4.06-0.74,6.07,1.24c-0.49,0.13-0.98,0.31-1.49,0.39
		c-0.51,0.09-1.03,0.09-1.93,0.15C388.39,285.36,388.81,285.6,389.78,286.16z M371.79,280.99c-3.29-0.29-6.59-0.86-9.88-0.78
		c-3.97,0.09-6.48-2.7-9.61-4.21c-2.72-1.32-5.2-3.13-8.02-4.87c2.63-1.44,4.93-2.62,7.16-3.93c5.9-3.47,10.91-8.01,15.49-13.05
		c2.63-2.89,5.1-5.93,7.62-8.93c0.45-0.54,0.67-1.28,1.15-1.78c0.31-0.32,1.06-0.62,1.35-0.46c3.81,2.12,7.57,4.32,11.34,6.51
		c1.06,0.62,1.32,1.23,0.61,2.51c-3.79,6.88-7.44,13.85-11.11,20.79c-1.12,2.12-2.38,4.2-3.2,6.44
		C374.11,280.83,373.19,281.11,371.79,280.99z M338.96,279.8c-6.35,4.18-13.09,7.47-20.86,7.37c-1.82-0.02-4.3,0.41-5.73-1.75
		c-0.11-0.16-0.73,0.03-1.11,0.03c-0.59,0.01-1.17,0-1.76,0c0-0.21-0.01-0.41-0.01-0.61h4.49c0.01-0.16,0.01-0.33,0.02-0.49
		c-1.02-0.12-2.05-0.23-3.07-0.35c-0.02-0.11-0.04-0.22-0.07-0.33c0.72-0.1,1.44-0.2,2.15-0.3c0-0.09,0.01-0.18,0.02-0.27l-2.2-0.22
		c0-0.08,0.01-0.17,0.01-0.25c0.82-0.04,1.63-0.09,2.53-0.14c-0.19-0.3-0.31-0.5-0.52-0.83c0.61-0.06,1.16-0.12,1.7-0.18
		c0-0.1,0-0.21,0-0.31c-0.92-0.08-1.83-0.16-2.75-0.23c0-0.09,0-0.17,0-0.26c0.61-0.07,1.22-0.15,2.18-0.26
		c-0.77-0.32-1.25-0.53-1.74-0.73c0.05-0.14,0.1-0.29,0.14-0.43c0.88,0.27,1.76,0.54,2.67,0.83v-2.11c0.64,0.31,1.08,0.52,1.51,0.73
		c0.08-0.11,0.16-0.21,0.24-0.32c-0.91-0.62-1.83-1.25-2.81-1.92c0.58-0.07,1.08-0.12,2.18-0.25c-1.01-0.31-1.47-0.44-2.37-0.72
		c1.04-0.23,1.68-0.37,2.52-0.55c-0.6-0.11-1.05-0.19-1.45-0.26c-0.46-0.66,2.49-0.27,0.35-1.23c0.8-0.46,1.53-0.89,2.3-1.34
		c-0.51-0.14-1.03-0.29-1.98-0.55c0.84-0.23,1.25-0.35,2.08-0.58c-0.69-0.15-0.93-0.21-1.4-0.31c0.91-0.27,1.64-0.48,2.37-0.7
		c0-0.08,0-0.16,0-0.24c-0.64-0.05-1.28-0.1-1.92-0.15c0-0.07-0.01-0.14-0.02-0.21c0.56-0.13,1.13-0.25,1.69-0.38
		c0-0.07,0-0.14,0.01-0.21c-0.43-0.03-0.87-0.07-1.3-0.11c-0.02-0.12-0.04-0.24-0.06-0.36c0.68-0.12,1.35-0.24,2.03-0.36
		c0-0.07,0-0.13-0.01-0.2c-0.66-0.03-1.32-0.07-1.99-0.1c0-0.1,0-0.2-0.01-0.3c0.63-0.09,1.27-0.17,2.12-0.29
		c-0.61-0.13-1.02-0.22-1.78-0.39c0.83-0.33,1.34-0.53,1.87-0.73c-0.33-0.23-0.62-0.44-0.91-0.64c0.43-0.53,0.86-1.05,1.28-1.56
		c-0.05-0.05-0.66-0.51-0.6-0.64c0.22-0.47,0.68-0.82,1.1-1.27c0.03,0.02-0.2-0.11-0.28-0.16c0.51-0.58,1.33-1.1,1.48-1.78
		c0.4-1.84,0.54-3.73,0.71-5.61c0.09-0.95,0.02-1.92,0.02-2.98c3.23,0.47,6.37,0.88,9.5,1.43c0.34,0.06,0.66,0.87,0.8,1.38
		c0.81,2.99,1.08,6.24,2.46,8.92c1.4,2.73,3.67,5.13,5.94,7.28c1.8,1.71,4.16,2.81,6.2,4.14
		C344.34,276.18,341.66,278.01,338.96,279.8z M335.02,226.02c0.97-7.66,4.74-14.24,8.44-20.86c3.21-5.74,7.34-10.44,12.69-14.3
		c5.39-3.89,10.36-2.49,14.7,1.14c4.85,4.06,7.53,9.42,9.43,15.31c2.91,9.03,2.21,17.85-1.49,26.46c-1.44,3.34-2.86,6.79-4.92,9.75
		c-2.5,3.61-5.51,6.91-8.57,10.09c-3.09,3.21-6.3,6.38-9.86,9.03c-3.66,2.72-7.79,4.81-11.74,7.14c-0.25,0.15-0.77,0.06-1.04-0.11
		c-4.13-2.54-7.01-6.04-7.95-10.89c-0.7-3.63-1.28-7.27-1.96-11.22C333.48,240.51,334.1,233.25,335.02,226.02z M348.15,193.88
		c-8.14-5.61-17-9.94-25.88-14.19c-6.95-3.32-13.86-6.78-20.98-9.69c-6.75-2.76-13.72-5-20.68-7.21c-1.72-0.54-2.34-1.15-1.98-2.77
		c1.17-5.22,2.24-10.48,3.61-15.65c2.36-8.92,5.67-17.51,9.61-25.85c1.09-2.3,2.28-4.56,3.29-6.89c0.6-1.38,1.6-1.34,2.73-1.12
		c6.72,1.31,13.45,2.62,20.16,3.97c8.24,1.65,15.85,4.96,23.35,8.64c7.16,3.52,13.72,7.94,19.78,13.05
		c2.88,2.42,5.31,5.48,7.51,8.55c2.17,3.02,1.99,6.8,2.17,10.7c-0.05,5.25-0.65,10.76-2.38,16.07c-1.31,4.01-3.12,7.87-4.15,11.94
		c-0.67,2.64-2.18,3.37-4.45,3.88c-3.86,0.86-6.41,3.81-9.23,6.25C349.73,194.33,349.22,194.63,348.15,193.88z M276.64,161.81
		c-7.31-1.83-14.83-3.28-22.52-3.59c-7.69-0.31-15.37-0.42-23.19,0.89c0.32-2.52,0.49-4.79,0.91-7.02
		c1.51-8.01,2.85-16.07,4.77-23.98c1.02-4.2,3.08-8.15,4.67-12.21c0.19-0.48,0.46-0.95,0.57-1.45c0.69-3.14,0.68-3.03,3.77-3.25
		c8.42-0.61,16.82-1.69,25.24-1.9c7.43-0.19,14.89,0.53,22.33,0.85c0.24,0.01,0.47,0.15,0.91,0.3
		C285.36,126.58,279.26,143.49,276.64,161.81z M276.38,165.66c-1.27,5.11-2.5,10.24-3.59,15.39c-0.82,3.83-1.95,7.7-1.98,11.56
		c-0.07,8.58-0.72,17.25,1.62,25.67c0.8,2.9,1.97,5.7,3.07,8.83c-6.64-5.28-13.93-8.52-21.89-9.87c-7.92-1.35-15.79-1.07-22.76,3.83
		c-0.42,0.3-0.85,0.61-1.21,0.98c-0.35,0.36-0.62,0.81-0.99,1.3c-1.5-0.78-2.93-1.51-4.61-2.38c3.33-19.82,1.25-40.29,6.3-60.44
		c6.58-0.23,13.17-0.51,19.76-0.68c8.23-0.21,16.26,1.42,24.3,2.88C276.15,163.06,276.84,163.78,276.38,165.66z M269.92,239.77
		c-0.02-0.21-0.04-0.43-0.06-0.64c-0.79,3.95-1.13,7.93-0.22,11.85c0.44,1.89,1.51,3.63,2.33,5.49c-7,4.42-14.21,3.66-21.36,1.97
		c-4.74-1.12-9.33-2.93-13.2-6.05c-1.45-1.17-2.75-2.59-3.89-4.08c-2.92-3.83-6.06-7.68-6.35-12.73
		c-0.46-8.03,2.11-13.73,10.07-15.92c7.94-2.18,15.81-1.83,23.47,1.16c3.62,1.41,7.09,3.25,10.57,5c1.11,0.56,2.05,1.47,2.85,2.07
		C272.77,231.73,271.35,235.75,269.92,239.77z M221.34,221.14c-5.88,0.28-11.52-0.54-16.71-3.65c-4.08-2.45-8.35-4.58-12.47-6.98
		c-0.6-0.35-1.04-1.43-1.07-2.19c-0.25-5.87-0.46-11.74-0.54-17.61c-0.06-4.76,0-9.53,0.18-14.28c0.03-0.89-0.72-1.46-0.31-2.6
		c0.5-1.37,1.17-2.05,2.39-2.49c9.21-3.31,18.25-7.13,27.88-9.14c2.52-0.53,5.04-1.07,7.84-1.67c-3.14,12.21-3.31,24.16-3.95,36.08
		c-0.42,7.81-1.14,15.61-1.82,23.4C222.74,220.43,221.85,221.11,221.34,221.14z M189.34,209.75c-0.34-0.08-1.09-0.31-1.86-0.43
		c-2.84-0.45-5.69-0.85-8.53-1.29c-0.16-0.02-0.3-0.21-0.42-0.34c-2.9-3.22-6.92-4.3-10.78-5.7c-1.46-0.53-2.96-0.95-4.53-1.45
		c-0.37-5.43-0.73-10.82-1.1-16.21c-0.13-1.82-0.25-3.65-0.37-5.47c-0.07-0.97,0.12-1.53,1.34-1.62c8.68-0.68,17.18-2.36,25.55-4.76
		c0.05-0.01,0.12,0.04,0.7,0.23V209.75z M159.04,212.96c-4.81-0.97-9.38-1.9-14.08-2.85c0.34-2.25,0.68-4.49,1.05-6.96
		c1.22,0.75,1.38,3.1,3.38,1.72c-2.09-0.19-2.24-0.64-1.07-4.01c-0.72,0.63-1.13,0.99-1.9,1.66v-3.25c0.23-0.11,0.57-0.21,0.58-0.33
		c0.24-2.71,1.78-2.13,3.53-1.55c3.65,1.21,7.35,2.28,11.11,3.43C162.36,205.39,160.29,209.27,159.04,212.96z M165.2,228.09
		c-1.55-0.28-3.1-0.57-4.63-0.84c0.58,0.68,1.18,1.36,1.77,2.05c-0.1,0.18-0.21,0.36-0.31,0.53c-3.31-1.7-6.61-3.41-9.92-5.11
		c0.03-0.25,0.05-0.51,0.08-0.76c2.1,0.32,4.88-0.07,6.15,1.13C160.46,227.11,163.09,226.63,165.2,228.09z M164.46,235.06
		c-7.05,3.09-14.43,2.65-21.83,2.66c3.02-4.21,2.89-8.87,2.84-13.44C151.72,227.83,157.96,231.37,164.46,235.06z M147.6,243.26
		c-0.06-0.41-0.14-0.92-0.23-1.55c1.72-0.19,3.3-0.36,5.23-0.56C150.75,241.93,149.24,242.57,147.6,243.26z M142.82,243.07
		c1.85-1.13,3.19-3.1,6.04-1.84c-1.11,0.09-1.78,0.15-2.44,0.21C147.12,243.33,146.91,243.43,142.82,243.07z M142.7,245.46
		c-0.26-0.01-0.49-0.81-0.84-1.42c-0.44,0.08-1.12,0.2-1.81,0.32c2.35-1.6,4.76-0.16,7.3-0.07
		C146.09,245.86,144.33,245.52,142.7,245.46z M142.58,246.65c-0.87,0.09-1.75,0.24-2.62,0.24c-1.03,0-2.11,0.02-3.06-0.29
		c-0.61-0.2-1.16-0.91-1.48-1.52c-0.4-0.75-0.53-1.64-0.91-2.89c0.96,0.31,1.71,0.31,1.98,0.67c1.52,2.06,3.23,3.69,6.18,3.26
		C142.64,246.3,142.61,246.48,142.58,246.65z M143.98,228.99c-0.66-0.04-1.34-0.09-2.38-0.16c-0.16-0.98-0.34-2.09-0.52-3.23
		C143.41,225.5,143.83,226.05,143.98,228.99z M158.94,222.89c-0.07,0.26-0.15,0.52-0.22,0.78c-2.2-0.65-4.4-1.3-6.61-1.95
		c-0.06,0.18-0.11,0.35-0.17,0.52c1.5,0.44,3,0.89,4.51,1.34c-0.05,0.18-0.1,0.36-0.15,0.55c-3.13-0.83-6.27-1.66-9.4-2.49
		c0.03-0.14,0.05-0.28,0.08-0.42c0.97,0.14,1.95,0.29,2.92,0.43c0.08-0.13,0.16-0.26,0.24-0.39c-0.55-0.5-1.11-1.01-1.66-1.51
		c0.04-0.13,0.07-0.25,0.11-0.38c-0.37-0.04-0.76-0.08-1.17-0.13c0.28,0.69,0.45,1.12,0.78,1.92c-2.16-0.97-4.06-1.83-5.96-2.68
		c0.03-0.1,0.07-0.21,0.1-0.31c3.02,0.3,6.04,0.6,9.06,0.9c-0.02,0.2-0.04,0.41-0.05,0.61c-0.82-0.09-1.65-0.19-2.55-0.28
		C152.18,220.56,155.56,221.72,158.94,222.89z M134.77,208.43c0.89,0.74,1.43,1.19,1.89,1.58c-0.16,0.26-0.31,0.5-0.74,1.21
		c-1.73-0.66-3.82-1.46-6.05-2.31c0.21,0.44,0.39,0.81,0.58,1.18c-0.17,0.1-0.33,0.19-0.49,0.29c-0.49-0.79-0.97-1.57-1.46-2.36
		c0.16-0.16,0.31-0.32,0.47-0.48c0.94,0.46,1.88,0.91,2.84,1.38c0.04-0.23,0.11-0.44,0.08-0.46c-2.86-1.61-3.22-4.27-3.08-7.18
		c0.05-1.04-0.07-2.09-0.14-3.13c-0.18-3,2.5-5.58,5.5-5.15c3.29,0.47,6.57,1.03,9.83,1.68c1.03,0.21,1.98,0.83,2.7,1.15
		c-0.14,1.38-0.25,2.43-0.36,3.49c0.01,0,0.02-0.01,0.03-0.01c-0.37,0.6-0.9,1.17-1.03,1.81c-0.53,2.55-0.9,5.14-1.37,7.7
		c-0.11,0.61-0.36,1.2-0.53,1.74C140.61,209.85,137.97,209.21,134.77,208.43z M126.7,213.39v3.3c-2.69-0.16-5.39,0.04-7.9-0.55
		c-4.34-1.02-5.57-6.26-2.53-10.37c2.79-3.79,6.39-6.73,10.82-9.41c-0.15,4.63,0.86,8.79,0.52,12.96c-0.2,0.01-0.39,0.02-0.59,0.04
		c0.45,0.37,0.9,0.73,1.35,1.1c-0.06,0.1-0.12,0.21-0.18,0.31c-0.5-0.18-1.01-0.36-1.55-0.56c-0.11,2.21,1.71,2.68,2.87,3.96
		C128.59,213.92,127.65,213.66,126.7,213.39z M113.55,207.03c-0.2,0.04-0.39,0.09-0.59,0.13c0-3.36,0-6.72,0-10.08
		c0.01-3.52,0.04-7.05,0.03-10.57c0-1.25,0.43-1.69,1.78-1.52c3.53,0.44,7.07,0.73,10.61,1.06c1.37,0.13,1.87,0.77,1.74,2.18
		c-0.14,1.55-0.17,3.14-0.02,4.69c0.22,2.24-1.56,3.18-2.8,4.28c-1.93,1.71-4.36,2.87-6.29,4.58
		C116.33,203.3,115.03,205.27,113.55,207.03z M114.47,175.58c0.62-3.59,1.42-7.15,2.08-10.74c0.21-1.15,0.71-1.84,1.93-1.69
		c2.97,0.38,5.95,0.73,8.89,1.29c0.37,0.07,0.75,1.35,0.71,2.05c-0.2,3.85-0.6,7.69-0.8,11.54c-0.12,2.32-0.02,4.66-0.02,6.86
		c-4.67-0.44-9.13-0.87-13.85-1.32C113.75,180.96,114.01,178.25,114.47,175.58z M136.93,118.87c3.77,2,7.4,3.91,11.3,5.98
		c-9.08,11.42-16.05,23.81-19.63,38.34c-3.53-0.56-7.08-1.12-10.71-1.69C121.06,145.84,128.17,132.12,136.93,118.87z M152.76,98
		c3.26,3.78,6.32,7.34,9.5,11.02c-3.93,4.36-7.8,8.66-11.68,12.96c-1.87,2.07-1.95,2.05-4.32,0.63c-2.85-1.71-5.75-3.33-8.95-5.18
		C142.5,110.89,147.57,104.53,152.76,98z M155.37,95.9c4.71-4.61,9.72-8.81,15.63-11.86c3.53-1.82,6.84-4.1,10.41-5.81
		c3.33-1.59,6.86-2.8,10.37-4.01c4.25-1.46,8.56-2.75,13.2-4.23c1.01,4.1,1.97,8,2.92,11.86c-8.36,2.76-16.56,5.5-24.06,9.93
		c-7.62,4.51-14.67,9.77-20.82,16.52c-2.82-3.73-5.27-7.01-7.78-10.25C154.59,97.21,154.6,96.66,155.37,95.9z M208.86,69.31
		c11.71-2.93,23.43-5.87,35.46-7.23c8.36-0.94,16.74-1.66,25.12-2.47c0.44-0.04,0.89,0,1.47,0c0.32,4.89,0.62,9.5,0.93,14.26
		c-2.59,0.2-5.55,0.42-8.51,0.67c-8.98,0.77-17.97,1.51-26.95,2.33c-3.96,0.36-7.98,0.52-11.83,1.41c-4.34,1-8.83,1.24-13.06,2.73
		c-1.28,0.45-2.23,0.03-2.53-1.53c-0.5-2.56-1.12-5.09-1.76-7.62C206.8,70.34,207.57,69.63,208.86,69.31z M274.99,59.4
		c5.48,0.09,10.97,0.21,16.44,0.6c5.4,0.38,10.84,0.74,16.15,1.73c9.08,1.69,18.13,3.61,26.8,6.93c2.56,0.98,5.13,1.96,7.62,3.1
		c0.54,0.25,1.2,1.31,1.07,1.79c-1.01,3.55-2.2,7.04-3.37,10.69c-6.26-2.37-12.25-4.77-18.34-6.92c-6.46-2.28-13.26-3.01-20.04-3.24
		c-8.75-0.3-17.52-0.13-26.27-0.17c-0.45,0-0.89-0.04-1.61-0.07c-0.27-3.29-0.54-6.52-0.81-9.75c-0.04-0.52-0.06-1.04-0.14-1.55
		C272.18,60.49,272.9,59.37,274.99,59.4z M282.92,105.32c2.68-9.19,3.21-18.6,3.03-28.11c-0.01-0.71,1.02-2.07,1.55-2.06
		c7.65,0.19,15.31,0.29,22.92,0.96c6.68,0.58,12.94,3.01,19.07,5.72c3.03,1.34,6.14,2.51,9.5,3.87
		c-3.95,10.2-9.53,19.09-15.16,27.96c-6.11-1.19-12.29-2.55-18.53-3.55c-5.55-0.89-11.17-1.37-16.76-2.04
		c-1.36-0.16-2.72-0.42-4.08-0.5C282.92,107.46,282.55,106.57,282.92,105.32z M245.94,101.76c1.06-4.35,2-8.76,2.55-13.2
		c0.4-3.22,0.19-6.53,0.07-9.79c-0.04-1.25,0.16-1.76,1.49-1.84c6.27-0.36,12.53-0.83,18.8-1.19c3.79-0.21,7.58-0.34,11.37-0.41
		c1.46-0.02,2.93,0.22,4.52,0.36c-0.22,3.71-0.42,7.14-0.62,10.58c-0.12,2.07-0.1,4.15-0.42,6.19c-0.68,4.44-1.49,8.86-2.37,13.26
		c-0.12,0.62-0.99,1.55-1.5,1.55c-11.74-0.04-23.4,0.99-35.04,2.39c-0.49,0.06-1,0.01-1.7,0.01
		C244.12,106.89,245.3,104.39,245.94,101.76z M238.79,110.1c-4.85,0.57-9.76,1.28-14.41,2.69c-3.7,1.12-7.75,0.83-11.4,3.45
		c0.08-11.63-0.57-22.63-3.57-33.44c12.47-2.88,24.8-5.29,38.23-5.27c-0.6,5.98-0.87,11.57-1.79,17.05
		c-0.71,4.23-2.23,8.31-3.4,12.46C241.95,108.9,241,109.84,238.79,110.1z M159.68,175.58c-4.62-3.06-9.51-5.45-15.03-6.37
		c-0.29-0.05-0.55-0.24-0.62-0.27c4.39-5.12,9.04-9.98,13.02-15.34c3.2-4.31,5.62-9.22,8.34-13.88c0.91-1.56,1.78-2.73,3.83-3.35
		c4.6-1.39,9.01-3.42,14.08-5.41c4.39,13.06,6.87,26.26,5.56,40.31c-3.63,0.86-7.33,1.93-11.1,2.57c-5.26,0.9-10.58,1.5-15.88,2.16
		C161.18,176.07,160.26,175.96,159.68,175.58z M143.84,170.63c0.48-0.02,0.96-0.18,1.35-0.05c4.77,1.53,9.65,2.85,13.59,6.18
		c0.55,0.46,1.09,1.21,1.17,1.87c0.42,3.62,0.71,7.27,1.01,10.9c0.26,3.28,0.47,6.56,0.71,9.86c-9.15-1.85-17.37-6.89-27.22-7.82
		C141.08,185.99,146.16,179.95,143.84,170.63z M138.82,166.74c2.77,0.73,4.11,3.74,4.16,7.42c0.08,6.56-3.14,11.24-8,15.08
		c-1.99,1.57-4.09,2.98-6.14,4.46c-0.22-0.05-0.44-0.09-0.66-0.14c0.29-9.51-0.24-19.06,1.61-28.78
		C132.86,165.44,135.88,165.97,138.82,166.74z M166.03,135.89c-4.31,7.49-7.85,15.14-13.77,21.3c-2.88,3-5.6,6.16-8.34,9.29
		c-0.76,0.86-1.3,1.2-2.42,0.42c-2.8-1.94-6.05-2.7-9.4-3.07c-0.7-0.08-1.38-0.28-2.26-0.46c3.74-14.03,10.47-26.32,19.5-37.96
		C154.97,128.94,160.45,132.39,166.03,135.89z M164.34,108.63c12.3-12.07,26.61-20.84,43.87-25.11c0.74,4.43,1.63,8.57,2.08,12.76
		c0.58,5.39,0.82,10.81,1.15,16.23c0.07,1.09-0.02,2.22-0.24,3.28c-0.09,0.42-0.68,0.86-1.15,1.06c-4.85,2.06-9.77,3.97-14.59,6.13
		c-4.08,1.83-8.03,3.92-12.22,5.98C178.4,120.94,172.37,114.03,164.34,108.63z M182.31,129.99c-4.46,1.77-8.84,3.56-13.27,5.23
		c-0.7,0.26-1.79,0.31-2.37-0.07c-5.34-3.48-10.61-7.07-16.22-10.85c4.11-4.66,8.39-9.51,12.73-14.43
		C171.23,114.72,171.23,114.73,182.31,129.99z M190.48,156.2c-0.54-5.63-1.72-11.2-2.7-16.79c-0.32-1.79-0.86-3.54-1.36-5.29
		c-0.15-0.53-0.41-1.07-0.75-1.51c-1.4-1.84-1.27-2.59,0.8-3.55c3.13-1.46,6.28-2.88,9.42-4.31c3.73-1.7,7.38-3.61,11.21-5.03
		c4.88-1.82,9.88-3.35,14.89-4.78c3.44-0.98,6.97-1.64,10.49-2.29c2.74-0.5,5.52-0.77,8.44-1.17c-1.12,2.94-2.08,5.68-3.21,8.34
		c-2.38,5.62-3.61,11.53-4.73,17.48c-0.85,4.54-1.8,9.07-2.65,13.61c-0.43,2.31-0.68,4.65-1.17,6.95c-0.12,0.56-0.81,1.38-1.29,1.43
		c-7.65,0.66-14.79,3.22-21.95,5.74c-4.73,1.66-9.44,3.39-14.17,5.08c-0.35,0.12-0.74,0.15-1.18,0.24
		C190.57,165.56,190.92,160.84,190.48,156.2z M376,143c-0.29,0.41-0.9,0.68-1.41,0.82c-1.12,0.31-2.27,0.49-3.42,0.73
		c-11.94-15.11-28.23-23.69-45.89-30.29c2.89-4.7,5.84-9.1,8.35-13.73c2.48-4.56,4.51-9.37,6.79-14.19
		c9.39,4.95,17.49,11.67,25.22,18.78c7.64,7.03,14.88,14.47,22.17,21.6c-0.37,0.42-0.99,1.01-1.48,1.69
		C382.89,133.28,379.48,138.16,376,143z M371.61,146.52c3.22-1.87,6.21-1.39,9.27-0.12c4.38,1.82,8.81,3.53,13.23,5.26
		c1.92,0.76,3.89,1.43,5.8,2.22c0.38,0.16,0.77,0.68,0.85,1.1c0.85,4.47,1.73,8.94,2.43,13.44c1.32,8.47,1.97,17,1.68,25.56
		c-0.38,10.94-2.09,21.71-5.45,32.14c-2.07,6.42-4.63,12.69-6.98,19.02c-0.32,0.85-0.6,1.72-0.94,2.57
		c-0.42,1.04-0.99,1.95-2.29,1.17c-3.96-2.39-7.9-4.83-11.85-7.25c1.39-3.7,2.85-7.38,4.14-11.12c2.87-8.31,3.08-16.8,0.04-24.99
		c-2.36-6.35-5.68-12.37-11.89-16.02c-1.76-1.04-3.62-1.91-5.6-2.94C371.3,174.28,373.88,160.79,371.61,146.52z M401.21,119.86
		c-4.38,2.01-8.58,3.94-12.67,5.82c-14.74-14.99-28.99-30.35-47.48-40.78c1.18-3.92,2.37-7.89,3.61-12.01
		C367.03,84.22,385.32,100.27,401.21,119.86z M287.22,275.31c-0.07-0.11,0.23-0.44,0.35-0.67c-0.04-0.71-0.09-1.42-0.15-2.49
		c0.77,0.54,1.13,0.79,1.49,1.04c-0.21-0.87-0.61-1.75-0.56-2.61c0.06-0.93,0.41-1.91,0.88-2.72c0.44-0.77,0.98-0.9,1.52-0.62
		c-0.45-0.9,0.62-2.13-0.26-3.12c0.77,0.05,1.23,0.09,1.48,0.1c-0.13-0.93-0.26-1.81-0.4-2.78c0.47,0.19,0.78,0.32,1.08,0.44
		c0.04-0.07,0.08-0.14,0.12-0.2c-0.41-0.37-0.81-0.74-1.06-0.98c1.5-2.72-0.33-4.61-1.49-6.47c0.97-0.19,1.67-0.32,2.37-0.45
		c0.11-0.08,0.21-0.16,0.31-0.24c1.53,1.14,3.08,2.27,4.58,3.45c0.29,0.23,0.64,0.75,0.56,1.02c-0.69,2.27,0.85,5.1-1.78,6.94
		c-0.3,0.21,0.35,1.21-0.14,2.13c-0.58,1.08-1.36,1.46-2.26,1.92l-0.01,0.03c-0.47,0.99-1.03,1.95-1.36,2.98
		c-0.1,0.33,0.42,0.85,0.66,1.26c-0.84,0.88-1.64,1.73-2.45,2.58c0.29,1.28-0.57,1.34-1.45,1.36c-0.13,0.49-0.25,0.99-0.51,2.01
		c-0.75-1.07-1.19-1.7-1.63-2.33c0.05-0.07,0.11-0.14,0.17-0.21c0.31,0.19,0.63,0.38,0.94,0.56c0.09-0.07,0.18-0.15,0.26-0.22
		C288.04,276.46,287.58,275.91,287.22,275.31z M127.03,345.45c0.03,0.2,0.07,0.4,0.11,0.6c-1.37,0.25-2.75,0.5-4.12,0.74
		c-1.47,0.26-2.96,0.48-4.42,0.78c-1.52,0.31-3.02,0.71-4.53,1.07c-0.05-0.22-0.1-0.44-0.15-0.66
		C118.29,347.13,122.66,346.29,127.03,345.45z M124.17,357.64c0.01,0.22,0.03,0.44,0.04,0.65c-1.87,0.2-3.73,0.39-5.6,0.58
		c-0.02-0.18-0.04-0.37-0.06-0.55C120.42,358.1,122.3,357.87,124.17,357.64z M125.34,358.89c0.01,0.21,0.03,0.42,0.04,0.63
		c-2.32,0.14-4.63,0.27-6.95,0.41c-0.01-0.18-0.02-0.35-0.03-0.53C120.71,359.23,123.03,359.06,125.34,358.89z M118.57,362.37
		c-0.02-0.25-0.04-0.5-0.06-0.74h5.4c0.01,0.11,0.01,0.22,0.02,0.33C122.14,362.1,120.35,362.24,118.57,362.37z M421.42,165.68
		c-1.01-4.39-2.26-8.73-3.58-13.03c-0.39-1.27-1.42-2.34-2.23-3.63c-0.03,0.01,0.32-0.17,0.67-0.35c-0.02-0.13-0.03-0.26-0.07-0.38
		c-3.11-8.36-6.76-16.47-10.94-24.36c-2.65-5.01-5.75-9.68-9.62-13.75c-8.98-9.45-18.32-18.52-28.92-26.21
		c-7.85-5.7-16.11-10.61-24.96-14.62c-11.23-5.07-23.22-7.15-35.15-9.49c-3.82-0.75-7.74-0.98-11.62-1.41
		c-14.79-1.63-29.55-0.96-44.23,1.07c-10.45,1.45-20.87,3.33-31.2,5.5c-8.1,1.7-16.15,3.82-24.05,6.28
		c-10.3,3.21-20.09,7.68-29.19,13.57c-4.98,3.22-9.83,6.6-13.85,10.97c-2.82,3.06-5.4,6.35-7.92,9.67
		c-3.57,4.73-7.11,9.49-10.43,14.4c-2.18,3.23-3.81,6.83-5.95,10.09c-4.8,7.34-7.97,15.37-10.41,23.71c-1.1,3.75-2,7.56-2.85,11.38
		c-1.11,4.96-2.3,9.92-3.03,14.95c-0.62,4.3-0.8,8.69-0.87,13.04c-0.13,8.11,0.28,16.19,1.55,24.22c0.27,1.71,0.38,3.44,0.32,5.17
		c-0.07,2.03,0.06,4.26-0.72,6.03c-1.48,3.36-3.5,6.5-5.4,9.65c-2.51,4.14-5.19,8.18-7.69,12.33c-4.78,7.91-9.63,15.78-14.17,23.82
		c-2.82,4.98-5.17,10.23-7.64,15.4c-1.79,3.74-3.05,7.4-0.69,11.62c1.94,3.47,4.73,5.27,8.34,5.88c3.92,0.67,7.93,0.79,11.86,1.38
		c3.37,0.5,6.76,1.52,7.81,5.24c1.12,3.94,0.87,8.04-0.2,12c-1.12,4.13-0.83,7.88,2.47,10.95c1.38,1.28,2.87,2.46,4.02,3.43
		c-1.2,1.41-2.56,2.77-3.62,4.33c-1.23,1.8-0.58,4.36,1.13,5.76c1.3,1.07,2.8,2.05,3.74,3.4c3.61,5.19,3.93,10.68,1.36,16.5
		c-1.07,2.41-1.78,5.04-2.25,7.65c-1,5.53,0.03,10.96,1.93,16.12c0.99,2.7,2.61,5.34,4.54,7.48c3.31,3.68,7.97,5.57,12.58,6.76
		c7.32,1.89,14.81,3.15,22.27,4.41c6.04,1.02,12.15,1.63,17.84,4.1c5.61,2.44,10.73,5.66,13.88,11.07
		c2.33,4.01,3.49,8.51,3.77,13.31c0.88,0.12,1.83,0.26,2.54,0.36c0.08-1.32,0.14-2.51,0.21-3.7l0.57-0.12
		c-0.43-0.21-0.87-0.41-1.56-0.73c3.53-0.33,3.53-0.33,3.69-1.92h-3.98v-1.84c0.76-0.11,1.5-0.21,2.25-0.31c0-0.12,0-0.23,0-0.35
		l-2.81-0.14c-0.03-0.17-0.02-0.14-0.05-0.3c0.49-0.21,0.98-0.41,1.77-0.74c-1.05-0.12-1.71-0.2-2.38-0.27
		c-0.02-0.17-0.02-0.15-0.05-0.32c0.58-0.25,1.16-0.5,2.04-0.89c-0.99-0.14-1.62-0.23-2.25-0.32c0.02-0.29,0.01-0.18,0.03-0.46h3.41
		c-0.56-0.41-1.1-0.28-1.64-0.32c-0.55-0.04-1.08-0.22-1.62-0.35c0-0.14,0-0.11,0.01-0.24c0.77-0.12,1.54-0.24,2.31-0.37
		c-0.03-0.36-0.02-0.22-0.05-0.59h-3.83c0-0.13,0-0.26,0.01-0.39c0.89-0.12,1.78-0.24,2.67-0.36c-0.01-0.28-0.01-0.18-0.02-0.46
		c-1.15-0.07-2.31-0.14-3.46-0.21c0-0.13,0-0.25,0-0.38c1.89-0.08,3.78-0.17,5.67-0.25l-0.02-0.62h-5.34
		c-0.01-0.23-0.01-0.13-0.02-0.37l4.29-0.42c-0.01-0.3-0.01-0.17-0.02-0.48h-6.56c-0.01-0.23-0.02-0.46-0.02-0.7h8.8l-0.01-0.82
		h-9.4c0-0.24,0-0.48,0-0.72h7.86c-0.01-0.17-0.02-0.33-0.03-0.5c-1.61,0-3.22,0.03-4.83-0.01c-1.62-0.05-3.23-0.17-4.84-0.26
		c0-0.22,0-0.45,0.01-0.67h9.29c0-0.26-0.01-0.52-0.01-0.77h-10.68l0-0.72h12.74l-0.02-0.59h-7.52h-7.3
		c-0.01-0.15-0.01-0.09-0.02-0.24c1.37-0.21,2.73-0.43,4.1-0.64c0.07-0.06,0.14-0.12,0.2-0.19c-0.77-0.26-1.54-0.52-2.42-0.82
		c1.45-0.1,2.8-0.2,4.15-0.3c-0.02-0.13-0.03-0.26-0.05-0.39h-6.44c0-0.22-0.01-0.44-0.02-0.66h5.36c-0.51-0.27-1.01-0.72-1.53-0.76
		c-1.53-0.1-3.07-0.03-4.61-0.03c0-0.14,0-0.28,0-0.42c1.61-0.1,3.23-0.2,4.84-0.3c-0.01-0.37-0.01-0.2-0.02-0.57h-12.05
		c0-0.13,0-0.26-0.01-0.39c2.78-0.14,5.56-0.28,8.33-0.43c-0.01-0.14-0.02-0.29-0.03-0.43h-12.31l0-0.65h7.45l-0.02-0.64h-17.77
		c0-0.21,0-0.42,0-0.63h16.56c0-0.18-0.01-0.37-0.01-0.55h-24.61c0-0.09-0.01-0.18-0.01-0.26c0.84-0.13,1.68-0.27,2.53-0.4
		c-0.03-0.35-0.02-0.21-0.06-0.56c-5.77,0.27-11.52,0.33-16.99-1.91l0.06,0.04c-2.19-0.68-4.38-1.37-6.58-2.06
		c0.03-0.18,0.02-0.11,0.06-0.29c1.37,0.14,2.73,0.29,4.1,0.43c0.02-0.16,0.04-0.32,0.06-0.49c-0.74-0.15-1.48-0.36-2.23-0.44
		c-4.06-0.44-7.5-2.17-10.07-5.29c-3.36-4.09-3.49-9.28-4.18-14.19c-0.18-1.29,0.82-2.75,1.26-4.13c0.32-1,0.73-1.84,1.98-1.97
		c0.71-0.07,1.4-0.41,2.63-0.78c-0.92-0.52-1.46-0.83-2.11-1.2c0.58-0.26,1.09-0.49,2.04-0.92c-0.89-0.19-1.3-0.27-1.57-0.32
		c1.04-0.73,2.14-1.5,3.47-2.43h-1.64c-0.01-0.09-0.03-0.19-0.04-0.28c0.61-0.16,1.22-0.32,2.09-0.56
		c-0.68-0.14-1.06-0.22-1.44-0.31c0.01-0.17,0-0.13,0.01-0.3l1.8-0.22c0.01-0.16,0.01-0.13,0.03-0.29
		c-0.36-0.13-0.72-0.25-1.26-0.44c0.5-0.32,0.83-0.53,1.23-0.79c-0.45-0.14-0.75-0.23-1.04-0.32c0.01-0.1,0.03-0.2,0.05-0.31
		c1.03-0.07,2.07-0.14,3.27-0.22c-0.57-0.32-0.97-0.54-1.18-0.65c0.56-0.67,1.05-1.26,1.9-2.27c-1.86,0.11-3.08,0.18-4.33,0.25
		c0.08-0.31,0.17-0.62,0.25-0.95c-0.99-0.06-1.84-0.11-2.88-0.17c0.26-0.27,0.3-0.35,0.34-0.36c0.31-0.03,0.65,0.01,0.95-0.08
		c2.58-0.76,6.3,1.12,7.33-3.19c-0.54-0.77-1.09-1.55-1.87-2.64c-1.74,0.13-3.98,0.31-6.23,0.48c-0.01-0.16-0.03-0.31-0.04-0.47
		c1.87-0.22,3.74-0.44,5.61-0.65c-0.02-0.15-0.04-0.29-0.06-0.43h-2.79c-0.02-0.12-0.01-0.09-0.03-0.21
		c0.57-0.19,1.14-0.38,2.18-0.72c-0.92-0.5-1.42-0.9-1.98-1.04c-0.59-0.14-1.25-0.03-1.87-0.03c0-0.05,0.01-0.11,0.01-0.17
		c0.74-0.14,1.48-0.29,2.19-0.43c-0.34-0.98-0.64-1.86-0.87-2.52c1.81-0.96,3.82-1.9,5.71-3.04c1.64-0.99,2.98-2.62,5.34-2.05
		c-1.54-0.85-3.05-1.59-4.64-1.92c-1.56-0.33-3.22-0.38-4.82-0.31c-1.57,0.06-3.13,0.43-4.7,0.66c1.86-0.76,3.74-1.3,5.65-1.58
		c1.92-0.27,3.88-0.43,5.81-0.36c2.54,0.1,5.11,0.89,7.58,0.6c2.4-0.28,3.96-0.24,5.37,2.08c2.42,3.95,6.44,6.2,10.33,8.46
		c1.03,0.6,2.34,1.53,4.2,0.08c-3.59-2.17-6.92-4.19-10.25-6.21c0.06-0.09,0.11-0.18,0.17-0.26c1.06,0.51,2.13,1.02,3.19,1.53
		c0.07-0.14,0.15-0.29,0.22-0.43c-0.93-0.54-2.02-0.91-2.73-1.66c-0.61-0.64-0.55-2.18-1.18-2.47c-1.28-0.6-0.92-1.79-1.43-2.62
		c-1.3-2.1-1.99-4.62-4.74-5.57c-1.27-0.44-1.78-0.27-2.08,1.04c-0.1,0.44-0.74,1.09-1.13,1.08c-2.33-0.04-4.77,0.13-6.97-0.48
		c-2.72-0.76-5.26-2.22-7.86-3.39c-4.08-1.84-8.43-2.21-12.81-2.44c-2.07-0.11-2.8-1.23-1.98-3.16c1.76-4.17,1.51-8.57,1.43-12.91
		c-0.03-1.71,0.26-3.05,1.66-3.75c0.94-0.47,0.39-0.91,0.41-1.38c0.35-0.08,0.76-0.09,1-0.3c0.94-0.84,2.08-1.05,3.11-0.6
		c4.66,2.01,9.52-0.8,11.07-5.31c0.85-2.47,0.85-5.24,1.26-8.08c1.75,3.82,3.45,7.51,5.14,11.2c0.3,0.09,0.64,0.12,0.86,0.3
		c2.62,2.12,5.2,4.27,7.83,6.38c0.76,0.62,1.62,1.12,2.43,1.67c0.06-0.09,0.13-0.19,0.19-0.29c-3.51-2.87-7.02-5.74-10.53-8.61
		c0.15-0.17,0.29-0.34,0.44-0.51c2.84,2.16,5.69,4.32,8.53,6.49c0.1-0.12,0.2-0.24,0.3-0.36l-8.25-6.78
		c0.18-0.25,0.11-0.15,0.28-0.4c0.92,0.57,1.84,1.14,2.77,1.7c0.19-0.27,0.11-0.16,0.3-0.43c-1.41-1.11-2.82-2.22-4.23-3.32
		c0.12-0.18,0.07-0.11,0.19-0.28l3.8,2.24c0.12-0.17,0.07-0.1,0.19-0.27c-1.23-1.03-2.45-2.07-3.87-3.26
		c1.51,0.26,2.64,0.46,3.78,0.66c-1.1-1.45-2.39-2.39-3.25-3.95c-0.69-1.26-2.43-1.94-3.71-2.88c0.09-0.13,0.18-0.27,0.27-0.4
		c1.36,0.87,2.72,1.74,4.08,2.61c0.1-0.14,0.2-0.29,0.3-0.43c-2.15-1.49-4.29-2.99-6.44-4.48c0.06-0.1,0.11-0.19,0.17-0.29
		c1.28,0.71,2.56,1.42,3.84,2.14c0.03-0.5-0.1-0.79-0.32-0.95c-3.85-2.92-8.51-3.95-13.2-5.24c1.41,1.42,2.82,2.83,4.34,4.36
		c-0.57-0.06-1-0.1-1.71-0.17c1.16,0.68,2.04,1.2,3.14,1.84c-0.86,0.09-1.34,0.14-1.67,0.17c0.52,0.87,0.92,1.54,1.5,2.5l-1.88-0.61
		c-0.18,0.16-0.36,0.31-0.55,0.47c2.83,0.61,2.23,2.74,2.68,4.68c-0.96-0.69-1.75-1.25-2.53-1.81c-0.06,0.08-0.12,0.16-0.19,0.24
		c0.83,0.75,1.65,1.5,2.16,1.97c-0.48,0.83-0.84,1.46-1.23,2.13c-0.68-0.47-1.36-0.94-1.82-1.25c0.36,0.85,0.75,1.79,1.32,3.16
		c-2.41-0.98-4.16-1.7-5.91-2.42c0.53,0.92,1.31,1.4,1.94,2.03c0.46,0.46,0.67,1.08-0.45,0.88c-1.39,0.24-2.5-0.48-3.3-2.41
		c0.45,0.33,0.65,0.48,0.86,0.64c-0.48-0.95-0.8-2.03-1.47-2.84c-3.14-3.79-7.68-3.48-11.82-3.28c-4.1,0.2-8.12,1.79-12.22,2.09
		c-4.27,0.32-8.81,0.38-11.65-3.91c-0.44-0.66-0.76-1.64-0.65-2.39c0.84-5.6,3.56-10.46,6.33-15.25
		c3.99-6.93,8.14-13.77,12.27-20.62c3.29-5.46,6.73-10.85,9.97-16.34c2.18-3.7,4.16-7.52,6.16-11.32c0.57-1.08,1.2-1.43,2.34-0.94
		c2.1,0.89,4.19,1.84,6.35,2.57c2.33,0.79,4.72,1.39,7.11,1.99c0.59,0.15,1.27-0.06,1.74-0.1c-4.71-1.88-9.39-3.81-14.11-5.62
		c-1.59-0.61-2.01-1.66-1.92-3.2c0.1-1.63,0.1-3.26,0.11-4.89c0.02-1.96,0-3.92,0-5.96c3.46,3.4,7.48,4.08,11.7,2.58
		c2.05-0.73,3.66-0.12,4.31,1.28c1.02,2.2,2.85,1.4,4.31,1.86c0.8,0.25,1.71,0.14,2.51,0.18c-3.11,5.8-3.3,11.23,0.12,16.97
		c-1.93-0.31-3.67-0.6-5.4-0.88c-0.07,0.26-0.04,0.17-0.11,0.42l2.73,0.97c-0.07,0.32-0.05,0.23-0.11,0.55l-6.68-0.46
		c-0.04,0.23-0.03,0.16-0.07,0.38c1.26,0.4,2.51,0.81,3.77,1.21c-0.06,0.38-0.04,0.28-0.1,0.65h-2.14c-0.06,0.25-0.05,0.21-0.1,0.46
		c1.19,0.57,2.39,1.13,3.44,1.63c0.11,2.24,1.45,4.18,2.93,5.48c2,1.77,4.8,1.66,7.44,1.14c-1.84-0.51-3.67-1.02-5.51-1.53
		c0.01-0.16,0.01-0.13,0.02-0.29l14.7-1.48c-0.03-0.36-0.01-0.2-0.04-0.55l-4.38,0.21c-0.01-0.21-0.01-0.42-0.02-0.63
		c1.59-0.08,3.19-0.1,4.78-0.25c1.58-0.14,3.15-0.4,4.72-0.6c-0.02-0.12-0.04-0.23-0.06-0.35c-2.79,0.21-5.58,0.42-8.37,0.62
		c-0.01-0.22-0.03-0.43-0.04-0.65c1.27-0.1,2.54-0.21,3.51-0.28c0.26-0.58,0.44-1.32,0.61-1.31c1.55,0.03,1.27-1.29,1.67-2.1
		c-0.33,0.16-0.66,0.32-0.99,0.48c-0.05-0.16-0.09-0.32-0.14-0.48c1.75-0.23,3.5-0.46,5.57-0.73c-0.53,0.34-0.71,0.45-0.93,0.59
		c0.07,0.26,0.06,0.25,0.13,0.51c1.72,0.09,3.43,0.18,5.15,0.27c0.07-0.23,0.06-0.2,0.12-0.43c-0.27-0.15-0.55-0.3-0.82-0.46
		c0.04-0.2,0.03-0.2,0.07-0.4c2.38-0.36,4.76-0.72,7.14-1.09c0.03,0.18,0.05,0.36,0.08,0.53c-1.05,0.16-2.1,0.31-3.43,0.51
		c0.41,0.23,0.5,0.32,0.61,0.33c0.26,0.04,0.52,0.08,0.78,0.06c3.1-0.19,6.12-0.9,9.32-0.09c3.81,0.97,6.68-1.71,9.68-3.6
		c-1.43,0.18-2.92,0.42-4.06,1.19c-2.17,1.45-4.22,0.28-6.33,0.12c0.23-0.09,0.46-0.18,0.67-0.26c-0.8-0.34-1.61-0.68-2.85-1.2
		c3.09-0.5,5.53,1.8,8.48,0.52c-6.16-1.25-12.14-1.91-17.66-4.51c0.58,0.08,1.16,0.17,1.74,0.25c0.02-0.09,0.05-0.19,0.07-0.28
		c-1.57-0.42-3.14-0.83-4.71-1.24c0.04-0.13,0.09-0.27,0.13-0.4c0.57,0.11,1.15,0.22,1.87,0.36c-0.38-0.42-0.63-0.69-1.22-1.32
		c2.31,0.53,4.12,0.94,5.92,1.35c-0.03,0.16-0.06,0.32-0.1,0.48c-1.09-0.17-2.17-0.34-3.26-0.52c0.2,0.42,0.44,0.47,0.68,0.53
		c1.87,0.44,4.04,0.42,5.52,1.43c2.36,1.62,5.01,1.52,7.5,2.23c-0.34-0.23-0.67-0.46-1.27-0.87c1.73,0.14,3.11,0.19,4.47,0.37
		c2.85,0.39,2.85,0.42,3.3-0.2c-3.45-0.54-7.01-1.1-10.57-1.66c-0.01-0.3-0.01-0.24-0.02-0.53c0.52-0.13,1.04-0.26,1.67-0.42
		c-0.67-0.33-1.27-0.63-2.26-1.12c0.78-0.05,1.22-0.07,1.61-0.1c-0.82-0.22-1.65-0.42-2.46-0.67c-0.22-0.07-0.4-0.28-0.6-0.43
		l0.57-0.7c-0.81-0.37-1.76-0.81-2.7-1.24c0.08-0.21,0.05-0.13,0.12-0.35c1.33,0.34,2.68,0.65,4,1.03c1.37,0.39,2.72,0.85,4.44,1.4
		c-0.79,0.16-1.26,0.25-1.73,0.34c0.01,0.28,0.01,0.2,0.02,0.48c3.51,0.3,7.01,0.6,10.52,0.89c-1.52-0.72-3.08-1.2-4.4-2.51
		c-2.56-2.54-5.5-4.69-8.42-7.12c0.86-2.15,1.8-4.48,2.9-7.21c0.19,0.92,0.28,1.36,0.32,1.56c0.71-0.71,1.45-1.45,2.19-2.2
		c0.36,0.51,0.71,1.01,1.07,1.52c0.26-0.37,0.32-0.82,0.13-1.06c-0.92-1.14-1.98-1.45-3.09-0.25c-0.29-0.46-0.53-0.83-0.81-1.26
		c-1.38,3.08-2.67,5.96-3.92,8.73c-1.93-1.03-3.87-1.71-5.38-2.93c-2.45-1.99-4.82-3.94-8.06-4.43c-0.23-0.03-0.43-0.23-0.51-0.27
		c0.8-3.62,1.52-7.12,2.4-10.59c0.1-0.41,1.25-0.95,1.69-0.79c2.81,1.01,5.56,2.21,8.34,3.31c3.09,1.22,5.76,2.74,5.11,6.98
		c0.28-0.04,0.56-0.07,0.83-0.11c0.3-0.97,0.61-1.95,1-3.19c1.68,0.3,3.41,0.51,5.09,0.93c5.81,1.44,11.37,3.47,16.03,7.4
		c0.36,0.31,0.82,0.75,0.85,1.17c0.25,2.94,0.38,5.89,0.59,8.83c0.05,0.65,0.27,1.3,0.41,1.94c0.28-0.04,0.56-0.07,0.84-0.11v-10.56
		c4.83,2.87,9.79,4.05,15.01,3.97c2.8-0.04,5.5-0.13,8.12,1.25c1.09,0.57,1.13,0.68,0.64,1.75c-1.75,3.87-2.61,7.92-1.46,12.14
		c1.11,4.08,3.25,7.65,5.8,10.97c1.1,1.44,2.15,3.03,3.57,4.08c6.65,4.93,13.79,8.61,22.41,8.47c4.92-0.08,9.79-0.11,14.12-2.99
		c0.45-0.3,1.39-0.43,1.79-0.17c2.99,1.97,5.76,4.24,7.65,7.34c0.62,1.01,0.78,2.3,1.14,3.47c-0.11,0.06-0.09,0.04-0.2,0.1
		c-1.12-1.47-2.25-2.94-3.37-4.41c-0.21,0.12-0.42,0.24-0.64,0.36c0.11,0.45,0.2,0.9,0.32,1.34c0.34,1.26,0.84,2.5,1.01,3.78
		c0.34,2.56,0.56,5.38-1.27,7.32c-1.97,2.09-4.42,3.84-6.93,5.27c-3.26,1.87-3.52,2.78-0.61,4.99c0.03,0.02,0.01,0.1,0.04,0.32
		c-0.91-0.34-1.75-0.65-2.74-1.02c0.84,2.04,8.05,2.91,10.98,1.3h-5.15c1.74-0.28,3.63-0.08,5.17-0.71
		c4.93-2.02,8.86-5.56,12.15-9.62c2.32-2.86,4.06-6.23,5.8-9.51c2.55-4.81,3.27-9.77,0.36-14.8c-1.24-2.14-3.93-3.02-6.16-1.96
		c-0.89,0.42-1.74,0.94-2.67,1.45c-0.82-1.4-1.64-2.82-2.72-4.67l0.05-0.05c-0.46-0.92-0.98-2.02-1.33-2.77
		c-0.29-0.62-0.48-1.29-0.53-1.98c-0.14-1.72-0.16-5.08,1.38-7.3c2.14-3.1,6.35-3.84,6.35-3.84c3.75-0.73,7.04-1.37,9.92,1.12
		c2.46,2.12,4.89,4.28,5.6,7.62l0-0.01c0,0,1.23,2.7,1.6,5.36c0.37,2.66-0.5,15.98-1.35,17.06c-0.03,0.61-1.11,1.1-1.44,1.77
		c-0.83,1.69-1.48,3.46-2.27,5.18c-2.29,5.03-5.2,9.6-9.57,13.14c-4.11,3.33-8.19,6.68-12.26,10.05c-0.81,0.67-1.51,1.48-2.26,2.23
		c0.15,0.24,0.29,0.47,0.44,0.71c0.86-0.35,1.82-0.56,2.57-1.07c3.97-2.76,7.83-5.66,11.83-8.38c4.25-2.9,8.36-6.03,10.52-10.79
		c2.99-6.57,5.94-13.27,6.55-20.57c0.35-4.12,0.12-8.37-0.49-12.46c-0.49-3.32-0.87-6.95-3.93-9.31c-1.18-0.91-2.27-1.96-3.5-2.81
		c-7.45-5.1-18.39-3.21-22.11,5.53c-1.86,4.37-1.69,8.41,0.49,12.59c1.53,2.93,2.83,6,3.91,9.12c0.78,2.25,0.29,4.6-0.43,6.92
		c-1.06-1.65-1.85-3.25-2.99-4.53c-1.42-1.6-3.23-2.84-4.68-4.41c-1.31-1.42-2.9-2.92-3.4-4.66c-0.96-3.29-1.56-6.77-1.7-10.19
		c-0.2-4.87,2.2-8.93,5.23-12.56c2.64-3.16,5.81-5.66,9.87-6.78c1.99-0.55,4.25-0.49,5.36-2.88c0.19,0.12,0.39,0.25,0.58,0.38
		c-0.17,0.76-0.34,1.52-0.44,2c0.9,0,1.9,0.19,2.78-0.06c0.74-0.21,1.33-0.94,1.98-1.43c-0.29-0.28-0.56-0.77-0.87-0.79
		c-2.23-0.18-4.46-0.26-6.76-0.38v1.96c-0.58-0.78-0.89-1.2-1.13-1.52c-4.89,0.79-9.12,2.76-12.92,6.11
		c-3.49-8.43-4.38-16.91-4.03-25.81c1.81-0.51,3.61-1.46,5.4-1.46c4.56,0.01,9.14,0.27,13.68,0.74c7.69,0.8,15.14,2.67,22.31,5.58
		c2,0.81,4.05,1.47,6.08,2.2c0.05-0.2,0.09-0.39,0.14-0.58c-15.01-7.4-30.74-10.85-48.08-8.55c0.33-3.43,0.39-7.14,1.08-10.74
		c1.45-7.44,3.26-14.8,4.87-22.21c0.32-1.45,1.2-1.37,2.21-1.02c5.99,2.05,12.06,3.91,17.94,6.25c6.1,2.44,12.05,5.26,17.99,8.08
		c7.41,3.53,14.78,7.11,22.06,10.89c3.59,1.87,6.93,4.21,10.25,6.25c-5.34,6.93-9.45,14.28-12.92,22.18
		c-4.38-3.68-8.64-7.45-13.97-9.64c0.19,0.54,0.53,0.88,0.91,1.16c3.83,2.9,7.64,5.82,11.53,8.64c1.13,0.82,1.2,1.77,0.91,2.91
		c-1.76,7.06-2.62,14.23-2.74,21.5c-0.04,2.98-0.01,5.96-0.01,9.15c-2.7-0.31-5.23-0.54-7.75-0.9c-1.88-0.27-2.94-1.26-3.08-3.37
		c-0.16-2.4-0.45-4.86-1.19-7.13c-2.6-7.95-8.06-13.57-15.15-17.77c-1.9-1.13-3.8-1.75-6.28-0.4c0.58,0.41,0.97,0.81,1.45,1.01
		c0.6,0.24,1.26,0.29,1.89,0.46c6.93,1.86,10.81,7.33,13.8,13.02c3.88,7.37,3.88,15.46,1.02,23.33c-2.03,5.58-4.31,11.07-6.69,16.51
		c-1.98,4.5-3.7,9.16-7.51,12.66c-3.7,3.4-7.25,6.88-12.07,8.79c-3.54,1.4-6.93,3.44-9.06,6.63c-1.92,2.88-4.28,4.99-7.46,5.89
		c-2.04,0.58-4.41,0.71-6.48,0.3c-3.36-0.67-4.99-3.7-6.55-6.39c-1.13-1.94-1.65-4.24-2.55-6.34c-0.18-0.42-0.81-0.66-1.23-0.98
		c-0.23,0.4-0.68,0.81-0.66,1.19c0.16,2.86,0.37,5.71,0.65,8.55c0.08,0.83,0.48,1.62,0.74,2.44c-0.04,0.01-0.32,0.08-0.68,0.17
		c3.4,2.4,5.8,5.81,9.69,7.38c-0.19-0.32-0.38-0.63-0.72-1.21c1.13,0.11,2.02,0.2,2.68,0.27c-0.59,0.57-1.15,1.1-2.05,1.96h3.07
		c0.01-0.09,0.02-0.18,0.04-0.27c-0.48-0.13-0.96-0.25-1.44-0.38c0.01-0.11,0.03-0.21,0.04-0.32h2.51c-0.1,0.37-0.19,0.7-0.26,0.95
		c3.43,0.58,6.93-0.96,10.1,1.07c-0.24-0.21-0.47-0.42-0.75-0.67c0.55-0.29,0.97-0.51,1.72-0.91c-1.79-0.12-3.15-0.21-4.5-0.3
		l0.03-0.15c0.81-0.08,1.62-0.16,2.43-0.24c0.02-0.25,0.02-0.2,0.04-0.45c-0.52-0.15-1.05-0.3-1.99-0.57
		c2.43-0.19,4.38-0.35,6.34-0.5c0-0.23,0-0.14,0-0.37c-1.11-0.08-2.22-0.17-3.33-0.25c0.01-0.4,0.01-0.22,0.02-0.62h5.45
		c-0.01-0.13-0.02-0.26-0.03-0.4c-1.14-0.08-2.28-0.15-3.42-0.23c0-0.13,0-0.25,0-0.38c1.27-0.06,2.54-0.12,3.81-0.18
		c0-0.17,0-0.33,0-0.5c-0.57-0.03-1.15-0.06-1.74-0.09c0.57-2.5,2.92-1.2,4.56-2.15c-0.98-0.12-1.57-0.2-2.16-0.27
		c0.01-0.13,0.03-0.25,0.04-0.37h2.07c0.29-1.06,0.49-2.14,0.88-3.13c0.35-0.88,0.92-1.67,1.4-2.5c0.14,0.05,0.1,0.04,0.24,0.09
		c-0.11,0.63-0.22,1.23-0.39,2.16c1.1-0.53,2.27,0.49,3.03-1.04c0.2-0.4,1.89-0.06,2.9-0.06c0.01-0.05,0.01-0.1,0.02-0.15
		c-0.94-0.22-1.89-0.44-2.83-0.66c0.02-0.17,0.01-0.11,0.03-0.29h3.22c0-0.08-0.01-0.17-0.01-0.25c-0.92-0.18-1.84-0.35-2.76-0.53
		c0.02-0.18,0.01-0.12,0.03-0.29h4.82c0-0.16,0-0.31,0-0.47h-4.59c0-0.17,0-0.33,0-0.5h4.78c0-0.15,0-0.3,0-0.45
		c-1.1-0.1-2.21-0.21-3.32-0.31c0-0.11,0.01-0.23,0.01-0.34h3.69c0-0.14,0.01-0.29,0.01-0.43c-1.91-0.17-3.82-0.35-5.74-0.52
		c0-0.07,0-0.14,0-0.21h5.57c0-0.07-0.01-0.14-0.01-0.2c-0.76-0.1-1.51-0.2-2.81-0.38c1.08-0.3,1.59-0.44,2.42-0.67
		c-0.63-0.28-0.91-0.41-0.95-0.42c1.88-0.82,3.87-1.67,5.86-2.54c-0.5-0.12-1.01-0.24-1.51-0.36c0.02-0.22,0.01-0.16,0.03-0.37
		c0.85-0.05,1.7-0.1,2.55-0.16c-0.01-0.12-0.02-0.24-0.04-0.36c-0.55-0.08-1.1-0.17-1.65-0.25c0-0.1,0.01-0.2,0.02-0.29
		c1.18-0.12,2.37-0.23,3.55-0.35c0-0.08-0.01-0.16-0.01-0.23c-1.16-0.07-2.31-0.13-3.47-0.2c0-0.12,0.01-0.24,0.02-0.35h5.58
		c0.01-0.13,0.01-0.25,0.02-0.37c-1.55-0.14-3.09-0.27-4.64-0.41c0.01-0.11,0.01-0.22,0.02-0.34h4.93c0-0.14,0-0.28,0-0.42h-4.1
		c0-0.18,0.01-0.36,0.01-0.53h4.25c0-0.15,0-0.3,0-0.45c-1.24-0.09-2.49-0.18-3.73-0.27c0-0.16,0.01-0.32,0.01-0.48h6.38
		c0-0.18,0-0.37-0.01-0.55h-5.15c2.06-0.36,4.11-0.44,6.16-0.34c2.83,0.14,5.75,0.97,8.46,0.5c5.22-0.9,10.16-2.96,14.67-5.82
		c3.52-2.23,6.9-4.67,10.22-6.94c2.22,1.18,4.41,2.26,6.52,3.49c5.48,3.19,11.29,4.5,17.62,3.42c0.65-0.11,1.82,0.49,2.13,1.09
		c1.69,3.24,3.12,6.62,4.79,9.87c2.07,4.03,2.2,4.07-1.06,6.87c-4.9,4.22-9.99,8.17-15.92,10.93c-8.73,4.06-18.03,5.33-27.49,5.41
		c-4.47,0.04-8.95-0.9-13.43-1.35c-0.62-0.06-1.27,0.19-1.91,0.29c0.04,0.25,0.09,0.5,0.13,0.75c10.79,3.71,21.79,2.7,33.34,0.93
		c-1.49,1.32-2.81,2.11-3.58,3.26c-2.38,3.58-4.76,7.18-6.74,10.99c-3.55,6.82-5.78,14.1-6.73,21.77c-0.93,7.53-0.55,15,0.8,22.44
		c1.54,8.54,2.62,17.21,4.81,25.59c1.77,6.75,4.85,13.16,7.43,19.69c1.72,4.36,3.62,8.64,5.37,12.99c0.77,1.91,1.87,1.45,3.27,0.78
		c-0.55-1.15-1.1-2.11-1.48-3.14c-1.41-3.82-2.73-7.67-4.15-11.48c-0.61-1.64-1.41-3.21-2.07-4.84c-0.92-2.25-1.97-4.47-2.66-6.8
		c-0.94-3.19-1.41-6.52-2.39-9.7c-1.09-3.52-2.49-6.91-2.74-10.68c-0.16-2.41-1.05-4.77-1.45-7.18c-0.48-2.89-0.79-5.8-1.18-8.7
		c-0.2-1.48-0.59-2.96-0.61-4.44c-0.07-5-0.25-10.01,0.06-14.98c0.23-3.55,0.96-7.12,1.88-10.58c1.94-7.32,6.09-13.52,10.64-19.43
		c2.25-2.92,4.78-5.58,8.22-7.38c4.17-2.18,8.25-4.64,12.06-7.4c3.68-2.67,7.12-5.72,10.41-8.88c4.57-4.39,8.97-8.97,13.29-13.61
		c1.61-1.73,2.91-3.78,4.13-5.82c3.95-6.61,8.44-12.92,10.84-20.39c1.79-5.58,4-11.02,5.82-16.59c3.18-9.76,5.49-19.74,6.92-29.9
		c0.77-5.46,1.56-10.97,1.61-16.45C424.13,186.08,423.74,175.77,421.42,165.68z M106.99,307.88c1.22,0.71,2.34,1.6,3.49,2.43
		c-0.69-0.3-1.39-0.61-2.08-0.91c-0.04,0.07-0.08,0.13-0.12,0.2c0.48,0.42,0.96,0.85,1.45,1.27c-0.06,0.09-0.13,0.19-0.19,0.28
		c-1.18-0.64-2.37-1.29-3.9-2.12c0.74-0.12,1.05-0.17,1.77-0.29c-1.59-0.76-2.84-1.36-4.11-1.97
		C104.43,306.47,104.46,306.42,106.99,307.88z M119.24,334.38c0,0.09,0,0.18,0,0.26c-1.31,0.15-2.63,0.29-4.09,0.45
		c-0.84-0.21-1.83-0.46-2.86-0.72H119.24z M122.08,345.19c0.02,0.16,0.04,0.33,0.06,0.49c-2.68,0.57-5.37,1.13-8.05,1.69
		c-0.03-0.14-0.06-0.29-0.1-0.43C116.69,346.36,119.39,345.78,122.08,345.19z"/>
	<path style="display:inline;clip-path:url(#SVGID_00000111901660789646615080000016522498920351236531_);fill:#1D1D1B;" d="
		M132.39,307.42c0-0.01-0.01-0.02-0.02-0.04c-0.01,0-0.03-0.01-0.04-0.01L132.39,307.42"/>
	
		<polygon style="display:inline;clip-path:url(#SVGID_00000111901660789646615080000016522498920351236531_);fill:#1D1D1B;" points="
		182.76,414.21 182.75,414.21 182.76,414.21 	"/>
</g>
<g>
	<defs>
		<rect id="SVGID_00000036973991039400563540000002016955195345302689_" x="13.31" y="13.56" width="471.82" height="471.82"/>
	</defs>
	<clipPath id="SVGID_00000054239600500086621420000005441852064806619318_">
		<use xlink:href="#SVGID_00000036973991039400563540000002016955195345302689_"  style="overflow:visible;"/>
	</clipPath>
	
		<circle style="clip-path:url(#SVGID_00000054239600500086621420000005441852064806619318_);fill:#1D1D1B;" cx="249.22" cy="249.47" r="233.44"/>
	<polygon style="clip-path:url(#SVGID_00000054239600500086621420000005441852064806619318_);fill:#FFFFFF;" points="230.95,123.94 
		124.8,335.04 163.62,335.04 248.92,164.2 251.08,164.2 336.38,335.04 375.2,335.04 269.05,123.94 	"/>
</g>
<g>
	<defs>
		<rect id="SVGID_00000025424659446556455860000000028590729486148233_" x="15.78" y="13.56" width="466.88" height="471.82"/>
	</defs>
	<clipPath id="SVGID_00000024713114952016134620000017124861708510709656_">
		<use xlink:href="#SVGID_00000025424659446556455860000000028590729486148233_"  style="overflow:visible;"/>
	</clipPath>
</g>
</svg>
