{"accessors" : [{"bufferView" : 0, "byteOffset" : 0, "componentType" : 5123, "count" : 4173, "type" : "SCALAR", "max" : [3429], "min" : [0]}, {"bufferView" : 1, "byteOffset" : 0, "componentType" : 5126, "count" : 3430, "type" : "VEC3", "max" : [0.08516400307416916, 1.4651069641113281, 0.7200409770011902], "min" : [-0.24396400153636932, -0.05069499835371971, -0.7923960089683533], "name" : "POSITION"}, {"bufferView" : 1, "byteOffset" : 12, "componentType" : 5126, "count" : 3430, "type" : "VEC2", "max" : [1, -0], "min" : [0, -1], "name" : "TEXCOORD_0"}, {"bufferView" : 1, "byteOffset" : 20, "componentType" : 5126, "count" : 3430, "type" : "VEC3", "max" : [1.0000044107437134, 1.0000044107437134, 1.0000044107437134], "min" : [-0.9998480677604675, -1.0000044107437134, -1.0000044107437134], "name" : "NORMAL"}, {"bufferView" : 0, "byteOffset" : 8348, "componentType" : 5123, "count" : 1290, "type" : "SCALAR", "max" : [1045], "min" : [0]}, {"bufferView" : 2, "byteOffset" : 0, "componentType" : 5126, "count" : 1046, "type" : "VEC3", "max" : [0.13867299258708954, 1.031891942024231, 0.5721319913864136], "min" : [0.04024500027298927, 0.798891007900238, -0.6030719876289368], "name" : "POSITION"}, {"bufferView" : 2, "byteOffset" : 12, "componentType" : 5126, "count" : 1046, "type" : "VEC2", "max" : [1, -0], "min" : [0, -0], "name" : "TEXCOORD_0"}, {"bufferView" : 2, "byteOffset" : 20, "componentType" : 5126, "count" : 1046, "type" : "VEC3", "max" : [1.0000044107437134, 1.0000044107437134, 1.0000044107437134], "min" : [-1.0000044107437134, -1.0000044107437134, -1.0000044107437134], "name" : "NORMAL"}], "asset" : {"generator" : "Aspose.3D 22.1", "version" : "2.0"}, "buffers" : [{"uri" : "data:application/octet-stream;base64,", "byteLength" : 185756}], "bufferViews" : [{"buffer" : 0, "byteOffset" : 0, "byteLength" : 10928, "target" : 34963}, {"buffer" : 0, "byteOffset" : 10932, "byteLength" : 133536, "byteStride" : 32, "target" : 34962}, {"buffer" : 0, "byteOffset" : 144472, "byteLength" : 41280, "byteStride" : 32, "target" : 34962}], "meshes" : [{"primitives" : [{"attributes" : {"POSITION" : 1, "TEXCOORD_0" : 2, "NORMAL" : 3}, "indices" : 0, "mode" : 4}], "name" : ""}, {"primitives" : [{"attributes" : {"POSITION" : 5, "TEXCOORD_0" : 6, "NORMAL" : 7}, "indices" : 4, "mode" : 4}], "name" : ""}], "nodes" : [{"mesh" : 0, "name" : "aspirin"}, {"mesh" : 1, "name" : "PHARM"}], "scene" : 0, "scenes" : [{"nodes" : [0, 1]}]}